<svg width="120" height="30" viewBox="0 0 120 30" fill="none" xmlns="http://www.w3.org/2000/svg">
<path d="M97.7674 19.8245C97.7674 21.2436 95.1055 28.5036 95.1055 28.5036C95.1055 28.5036 92.4436 21.2436 92.4436 19.8245C92.4436 18.4053 93.6354 17.2548 95.1055 17.2548C96.5756 17.2548 97.7674 18.4053 97.7674 19.8245Z" fill="white"/>
<path d="M95.1035 0.000313098C90.9676 3.55147 88.7529 7.73475 87.6055 11.0866C89.0929 8.31379 91.3559 4.91918 95.1035 2.29102V12.9044C99.3819 13.0609 102.764 14.5359 102.95 16.3602C103.284 16.5926 103.549 16.8526 103.714 17.1429C103.932 16.3082 103.193 6.94554 95.1035 0.000313098Z" fill="white"/>
<path d="M95.1044 13.5147C90.349 13.5147 86.4943 15.1391 86.4943 17.1428C86.4943 18.205 87.5778 19.161 89.3043 19.8245C88.6399 19.3798 88.2556 18.8533 88.2556 18.2895C88.2556 16.6953 91.322 15.4035 95.1044 15.4035C98.8868 15.4035 101.953 16.6959 101.953 18.2895C101.953 18.8539 101.569 19.3798 100.905 19.8245C102.631 19.161 103.715 18.2055 103.715 17.1428C103.715 15.1386 99.8597 13.5147 95.1044 13.5147Z" fill="white"/>
<path d="M97.7166 19.8242C97.7166 21.2433 95.0547 28.5033 95.0547 28.5033C95.0547 28.5033 92.3928 21.2433 92.3928 19.8242C92.3928 18.405 93.5846 17.2545 95.0547 17.2545C96.5248 17.2545 97.7166 18.405 97.7166 19.8242Z" fill="white"/>
<path d="M95.0526 0C90.9167 3.55116 88.7021 7.73444 87.5546 11.0863C89.0421 8.31348 91.305 4.91886 95.0526 2.2907V12.9041C99.3311 13.0606 102.713 14.5356 102.899 16.3599C103.234 16.5923 103.498 16.8523 103.663 17.1426C103.881 16.3079 103.142 6.94523 95.0526 0Z" fill="white"/>
<path d="M95.0536 13.5144C90.2982 13.5144 86.4434 15.1388 86.4434 17.1424C86.4434 18.2047 87.5269 19.1607 89.2534 19.8242C88.5891 19.3795 88.2047 18.853 88.2047 18.2892C88.2047 16.695 91.2712 15.4032 95.0536 15.4032C98.836 15.4032 101.902 16.6956 101.902 18.2892C101.902 18.8536 101.518 19.3795 100.854 19.8242C102.58 19.1607 103.664 18.2052 103.664 17.1424C103.664 15.1383 99.8089 13.5144 95.0536 13.5144Z" fill="white"/>
<path d="M2.21969 22.5455C1.57978 22.5455 1.04652 22.3138 0.619912 21.8505C0.206637 21.3872 0 20.8145 0 20.1325V11.1366C0 10.4288 0.206637 9.84965 0.619912 9.39921C1.04652 8.94878 1.57978 8.72356 2.21969 8.72356H15.4178C16.0577 8.72356 16.5843 8.94878 16.9976 9.39921C17.4242 9.84965 17.6375 10.4288 17.6375 11.1366V20.1325C17.6375 20.8145 17.4242 21.3872 16.9976 21.8505C16.5843 22.3138 16.0577 22.5455 15.4178 22.5455H2.21969ZM8.83875 19.3217C9.39867 19.3217 9.8386 19.2316 10.1586 19.0514C10.4785 18.8584 10.6385 18.5366 10.6385 18.0862V13.1829C10.6385 12.7453 10.4718 12.43 10.1386 12.237C9.81861 12.0439 9.372 11.9474 8.79875 11.9474C8.23883 11.9474 7.79223 12.0439 7.45894 12.237C7.13899 12.4171 6.97901 12.726 6.97901 13.1636V18.0669C6.97901 18.5173 7.14565 18.8391 7.47894 19.0321C7.81222 19.2251 8.26549 19.3217 8.83875 19.3217Z" fill="white"/>
<path d="M20.2838 22.5455V8.72356H35.3817C36.0349 8.72356 36.5682 8.94878 36.9815 9.39921C37.3947 9.84965 37.6014 10.4288 37.6014 11.1366V16.1557C37.6014 16.8378 37.3947 17.4105 36.9815 17.8738C36.5682 18.3371 36.0349 18.5688 35.3817 18.5688H27.1629V22.5455H20.2838ZM30.7024 22.5455L28.5427 17.7194H35.5017L37.9213 22.5455H30.7024ZM29.6425 15.3643C30.0025 15.3643 30.2558 15.2098 30.4024 14.901C30.5491 14.5921 30.6224 14.1674 30.6224 13.6269C30.6224 13.1121 30.5491 12.7003 30.4024 12.3914C30.2558 12.0825 30.0025 11.9281 29.6425 11.9281H27.1629V15.3643H29.6425Z" fill="white"/>
<path d="M40.2115 22.5455V8.72356H55.5293C56.1159 8.72356 56.5958 8.92947 56.9691 9.3413C57.3424 9.74026 57.529 10.255 57.529 10.8857V13.1636C57.529 13.8199 57.349 14.3283 56.9891 14.6886C56.6425 15.049 56.1559 15.2484 55.5293 15.2871V15.4801C56.1959 15.5187 56.7225 15.7246 57.1091 16.0978C57.4957 16.4711 57.689 16.9987 57.689 17.6808V20.3641C57.689 20.9947 57.5024 21.5159 57.1291 21.9278C56.7558 22.3396 56.2759 22.5455 55.6893 22.5455H40.2115ZM47.0905 19.6112H49.9101C50.2434 19.6112 50.4634 19.4954 50.57 19.2638C50.69 19.0321 50.75 18.7232 50.75 18.3371C50.75 17.9382 50.69 17.6293 50.57 17.4105C50.4634 17.1918 50.2434 17.0824 49.9101 17.0824H47.0905V19.6112ZM47.0905 13.9744H49.8501C50.1434 13.9744 50.35 13.8714 50.47 13.6655C50.6033 13.4467 50.67 13.1636 50.67 12.8161C50.67 12.4429 50.6033 12.1597 50.47 11.9667C50.35 11.7608 50.1434 11.6578 49.8501 11.6578H47.0905V13.9744Z" fill="white"/>
<path d="M60.1782 22.5455V8.72356H67.1972V22.5455H60.1782Z" fill="white"/>
<path d="M73.9286 22.5455V12.7968H69.3692V8.72356H85.4869V12.7968H80.9276V22.5455H73.9286Z" fill="white"/>
<path d="M105.842 22.5455V8.72356H112.821V18.4723H120V22.5455H105.842Z" fill="white"/>
<path d="M2.21969 22.5455C1.57978 22.5455 1.04652 22.3138 0.619912 21.8505C0.206637 21.3872 0 20.8145 0 20.1325V11.1366C0 10.4288 0.206637 9.84965 0.619912 9.39921C1.04652 8.94878 1.57978 8.72356 2.21969 8.72356H15.4178C16.0577 8.72356 16.5843 8.94878 16.9976 9.39921C17.4242 9.84965 17.6375 10.4288 17.6375 11.1366V20.1325C17.6375 20.8145 17.4242 21.3872 16.9976 21.8505C16.5843 22.3138 16.0577 22.5455 15.4178 22.5455H2.21969ZM8.83875 19.3217C9.39867 19.3217 9.8386 19.2316 10.1586 19.0514C10.4785 18.8584 10.6385 18.5366 10.6385 18.0862V13.1829C10.6385 12.7453 10.4718 12.43 10.1386 12.237C9.81861 12.0439 9.372 11.9474 8.79875 11.9474C8.23883 11.9474 7.79223 12.0439 7.45894 12.237C7.13899 12.4171 6.97901 12.726 6.97901 13.1636V18.0669C6.97901 18.5173 7.14565 18.8391 7.47894 19.0321C7.81222 19.2251 8.26549 19.3217 8.83875 19.3217Z" fill="white"/>
<path d="M20.2838 22.5455V8.72356H35.3817C36.0349 8.72356 36.5682 8.94878 36.9815 9.39921C37.3947 9.84965 37.6014 10.4288 37.6014 11.1366V16.1557C37.6014 16.8378 37.3947 17.4105 36.9815 17.8738C36.5682 18.3371 36.0349 18.5688 35.3817 18.5688H27.1629V22.5455H20.2838ZM30.7024 22.5455L28.5427 17.7194H35.5017L37.9213 22.5455H30.7024ZM29.6425 15.3643C30.0025 15.3643 30.2558 15.2098 30.4024 14.901C30.5491 14.5921 30.6224 14.1674 30.6224 13.6269C30.6224 13.1121 30.5491 12.7003 30.4024 12.3914C30.2558 12.0825 30.0025 11.9281 29.6425 11.9281H27.1629V15.3643H29.6425Z" fill="white"/>
<path d="M40.2115 22.5455V8.72356H55.5293C56.1159 8.72356 56.5958 8.92947 56.9691 9.3413C57.3424 9.74026 57.529 10.255 57.529 10.8857V13.1636C57.529 13.8199 57.349 14.3283 56.9891 14.6886C56.6425 15.049 56.1559 15.2484 55.5293 15.2871V15.4801C56.1959 15.5187 56.7225 15.7246 57.1091 16.0978C57.4957 16.4711 57.689 16.9987 57.689 17.6808V20.3641C57.689 20.9947 57.5024 21.5159 57.1291 21.9278C56.7558 22.3396 56.2759 22.5455 55.6893 22.5455H40.2115ZM47.0905 19.6112H49.9101C50.2434 19.6112 50.4634 19.4954 50.57 19.2638C50.69 19.0321 50.75 18.7232 50.75 18.3371C50.75 17.9382 50.69 17.6293 50.57 17.4105C50.4634 17.1918 50.2434 17.0824 49.9101 17.0824H47.0905V19.6112ZM47.0905 13.9744H49.8501C50.1434 13.9744 50.35 13.8714 50.47 13.6655C50.6033 13.4467 50.67 13.1636 50.67 12.8161C50.67 12.4429 50.6033 12.1597 50.47 11.9667C50.35 11.7608 50.1434 11.6578 49.8501 11.6578H47.0905V13.9744Z" fill="white"/>
<path d="M60.1782 22.5455V8.72356H67.1972V22.5455H60.1782Z" fill="white"/>
<path d="M73.9286 22.5455V12.7968H69.3692V8.72356H85.4869V12.7968H80.9276V22.5455H73.9286Z" fill="white"/>
<path d="M105.842 22.5455V8.72356H112.821V18.4723H120V22.5455H105.842Z" fill="white"/>
<path d="M46.5392 30V25.0028H50.9494C51.1614 25.0028 51.335 25.0795 51.4699 25.2331C51.6097 25.382 51.6796 25.5727 51.6796 25.8054V27.7247C51.6796 27.9527 51.6097 28.1435 51.4699 28.297C51.335 28.4506 51.1614 28.5273 50.9494 28.5273H48.6792V30H46.5392ZM49.4817 30L48.8672 28.2621H51.0506L51.7302 30H49.4817ZM49.1781 27.4037C49.3034 27.4037 49.3901 27.3478 49.4383 27.2362C49.4865 27.1198 49.5106 26.9616 49.5106 26.7616C49.5106 26.5708 49.4865 26.4172 49.4383 26.3009C49.3901 26.1846 49.3034 26.1264 49.1781 26.1264H48.6792V27.4037H49.1781ZM53.2309 30C53.0189 30 52.8429 29.9232 52.7032 29.7697C52.5682 29.6161 52.5007 29.4254 52.5007 29.1974V25.0028H54.6625V28.3529C54.6625 28.5157 54.7058 28.6344 54.7926 28.7088C54.8794 28.7786 54.9974 28.8135 55.1469 28.8135C55.2915 28.8135 55.4047 28.7786 55.4867 28.7088C55.5734 28.639 55.6168 28.5227 55.6168 28.3598V25.0028H57.6412V29.1974C57.6412 29.4254 57.5713 29.6161 57.4315 29.7697C57.2965 29.9232 57.123 30 56.9109 30H53.2309ZM59.2197 30C59.0077 30 58.8317 29.9232 58.692 29.7697C58.557 29.6161 58.4895 29.4254 58.4895 29.1974V28.4227H60.6296V28.632C60.6296 28.753 60.6609 28.8484 60.7236 28.9182C60.7862 28.988 60.8923 29.0229 61.0417 29.0229C61.1959 29.0229 61.2995 28.988 61.3526 28.9182C61.4056 28.8484 61.4321 28.7623 61.4321 28.66C61.4321 28.539 61.4032 28.4506 61.3453 28.3947C61.2923 28.3343 61.1887 28.2924 61.0344 28.2691L59.2342 27.9969C59.0125 27.9597 58.8342 27.869 58.6992 27.7247C58.5642 27.5758 58.4968 27.3781 58.4968 27.1315V25.8054C58.4968 25.5727 58.5642 25.382 58.6992 25.2331C58.839 25.0795 59.0149 25.0028 59.227 25.0028H62.8419C63.054 25.0028 63.2275 25.0795 63.3624 25.2331C63.5022 25.382 63.5721 25.5727 63.5721 25.8054V26.5801H61.4393V26.3707C61.4393 26.2497 61.408 26.1544 61.3453 26.0846C61.2875 26.0148 61.1814 25.9799 61.0272 25.9799C60.8778 25.9799 60.7742 26.0124 60.7163 26.0776C60.6633 26.1381 60.6368 26.2172 60.6368 26.3149C60.6368 26.4172 60.6633 26.4963 60.7163 26.5522C60.7693 26.6034 60.8754 26.6406 61.0344 26.6639L62.8347 26.936C63.0612 26.9686 63.2395 27.064 63.3697 27.2222C63.5046 27.3804 63.5721 27.5898 63.5721 27.8503V29.1974C63.5721 29.4254 63.5022 29.6161 63.3624 29.7697C63.2275 29.9232 63.054 30 62.8419 30H59.2197ZM64.4395 30V25.0028H66.6012V26.5522H67.4905V25.0028H69.6595V30H67.4905V28.2482H66.6012V30H64.4395Z" fill="white"/>
</svg>
