<svg width="25" height="32" viewBox="0 0 25 32" fill="none" xmlns="http://www.w3.org/2000/svg">
<path d="M7.43947 0.238314C7.96694 -0.0307764 9.50751 -0.0142394 10.1014 0.0166141C11.6451 0.096815 13.2132 0.30878 14.7259 0.618296C16.0972 0.891089 17.5022 1.20735 18.8468 1.60712C20.6241 2.13552 22.5795 2.77296 24.1701 3.72503C24.3136 3.8109 24.6067 4.01729 24.7016 4.13755C24.8699 4.28238 24.9758 4.41822 24.9989 4.64681C25.0111 4.76729 24.9187 5.19149 24.8681 5.28739C24.7992 5.65214 24.685 6.06503 24.6013 6.43221C24.5554 6.61947 24.5036 6.86036 24.4483 7.04098C24.3138 7.41868 23.8593 7.55262 23.4844 7.59353C23.4405 7.72026 23.3846 8.05326 23.3452 8.21556L22.9282 9.94302C22.8751 10.1653 22.7611 10.6968 22.6888 10.8972C22.2538 13.284 18.4947 14.421 16.3755 14.6835C15.8584 14.7476 15.2916 14.8137 14.7705 14.7895C14.5348 14.9242 14.3615 14.9946 14.2951 15.295C14.182 15.8007 14.0138 16.3135 13.9421 16.8244C13.9279 16.925 14.1044 17.2313 14.2028 17.2788C15.0613 17.693 15.8942 18.1702 16.6526 18.7577C17.9824 19.7877 19.5516 21.2343 19.7789 22.9571C19.7948 23.7636 19.5858 24.2072 19.4141 25.0263C19.3056 25.5437 18.9928 26.7216 18.8649 27.3036C18.8642 27.3068 18.8833 27.3384 18.8886 27.3422C19.331 27.5669 19.9811 27.996 19.9659 28.5368C19.8544 29.0919 19.7051 29.6402 19.5756 30.1917C19.493 30.5435 19.4259 30.9934 19.2894 31.3224C19.2419 31.4367 19.1882 31.5244 19.0808 31.5938C17.6255 32.5344 12.2818 31.5944 10.5402 31.2416C8.896 30.9148 7.27195 30.4994 5.67545 29.9976C4.9808 29.7838 4.30857 29.5929 3.63741 29.3038C3.35471 29.2173 3.11639 29.0792 2.84973 28.9705C1.9918 28.6208 0.710804 28.0628 0.148431 27.3367C0.0767118 27.2552 0.0153161 27.1633 0.000468051 27.0549C-0.018899 26.9136 0.568701 24.4825 0.660004 24.1892C0.680368 24.1238 0.710481 24.0626 0.753211 24.0081C1.05175 23.627 1.73753 23.5984 2.19017 23.5358C2.38007 22.7095 2.57664 21.8846 2.77985 21.0613C2.89194 20.5992 3.00589 20.0516 3.16759 19.6079C3.27003 19.3268 3.51962 18.9639 3.74538 18.7522C5.11564 17.4673 7.37992 16.8694 9.2308 16.6276C9.7191 16.5896 10.2279 16.5342 10.7181 16.5526C10.9682 16.562 11.3771 16.4415 11.4487 16.1767C11.5895 15.6559 11.7432 15.1041 11.808 14.5692C11.8244 14.4327 11.6495 14.1863 11.5436 14.0878C11.2522 13.9421 10.9431 13.7777 10.6649 13.6012C9.84098 13.0784 9.03001 12.5084 8.33291 11.8267C7.26132 10.7787 6.08528 9.39122 6.10932 7.83178C6.12073 7.46832 6.26882 6.88019 6.35603 6.52288L6.69818 5.13166C6.78783 4.76464 6.91155 4.24972 7.0061 3.87046C7.01033 3.85348 6.95351 3.81047 6.93253 3.79139C6.70485 3.65212 6.41335 3.35298 6.35308 3.09371C6.31935 2.94858 6.86107 0.664948 6.96319 0.515376C7.06609 0.364574 7.26344 0.276546 7.43947 0.238314Z" fill="url(#paint0_linear_302_8167)"/>
<path d="M7.43947 0.238314C7.96694 -0.0307764 9.50751 -0.0142394 10.1014 0.0166141C11.6451 0.096815 13.2132 0.30878 14.7259 0.618296C16.0972 0.891089 17.5022 1.20735 18.8468 1.60712C20.6241 2.13552 22.5795 2.77296 24.1701 3.72503C24.3136 3.8109 24.6067 4.01729 24.7016 4.13755C24.8699 4.28238 24.9758 4.41822 24.9989 4.64681C25.0111 4.76729 24.9187 5.19149 24.8681 5.28739C24.7992 5.65214 24.685 6.06503 24.6013 6.43221C24.5554 6.61947 24.5036 6.86036 24.4483 7.04098C24.3138 7.41868 23.8593 7.55262 23.4844 7.59353C23.5121 7.60771 21.9109 7.69552 21.6809 7.67649C20.4844 7.57736 18.9697 7.55074 17.8106 7.26414C17.7407 7.26107 17.4851 7.21557 17.4104 7.20312C17.0569 7.1421 16.7044 7.0758 16.3529 7.00428C13.4308 6.42623 10.3042 5.59188 7.65679 4.21986C7.52038 4.14914 7.03393 3.78939 6.93253 3.79139C6.70485 3.65212 6.41335 3.35298 6.35308 3.09371C6.31935 2.94858 6.86107 0.664948 6.96319 0.515376C7.06609 0.364574 7.26344 0.276546 7.43947 0.238314Z" fill="#F7BA0C"/>
<path d="M7.43947 0.238314C7.96694 -0.0307764 9.50751 -0.0142394 10.1014 0.0166141C11.6451 0.096815 13.2132 0.30878 14.7259 0.618296C16.0972 0.891089 17.5022 1.20735 18.8468 1.60712C20.6241 2.13552 22.5795 2.77296 24.1701 3.72503C24.3136 3.8109 24.6067 4.01729 24.7016 4.13755C24.7828 4.38636 25.0748 4.51475 24.8991 4.85137C24.8356 4.97298 24.5899 5.03017 24.465 5.0659C23.5593 5.26863 22.2358 5.21828 21.296 5.13598C21.2235 5.11582 20.9869 5.09738 20.9007 5.08811C20.6247 5.0589 20.3488 5.02806 20.0731 4.99572C19.3008 4.89487 18.5314 4.77451 17.7657 4.63479C17.4431 4.5755 16.9141 4.4829 16.6077 4.3911C16.0647 4.2502 15.4482 4.13857 14.8888 4.00015C13.7601 3.71657 12.6421 3.39465 11.5368 3.03489C11.1795 2.9192 10.8295 2.7906 10.4756 2.6652C10.3878 2.63407 10.2977 2.60544 10.2163 2.56066L10.1714 2.54711C10.0244 2.45969 9.59343 2.30876 9.41819 2.23315C8.82643 1.97785 8.14742 1.70305 7.63686 1.31897C7.57615 1.28799 7.54665 1.2496 7.46607 1.21297C7.30796 1.09265 7.13588 0.950015 7.04194 0.774224C6.89596 0.50086 7.20367 0.37032 7.40229 0.275856L7.43947 0.238314Z" fill="url(#paint1_linear_302_8167)"/>
<path d="M7.68089 1.32464C7.79347 1.16593 7.60359 1.09121 7.58917 0.967318C7.63019 0.972131 7.84222 1.15013 7.9237 1.19157C8.04062 1.25103 8.38561 1.43984 8.48528 1.49156C8.62564 1.5644 9.94972 2.12761 10.0303 2.1301L10.0378 2.10937C10.183 2.14128 10.5358 2.2812 10.6918 2.33928C10.9995 2.45567 11.3108 2.5634 11.625 2.66231C12.8263 3.04626 14.0426 3.38497 15.2709 3.67771C15.5686 3.74843 17.1277 4.07782 17.303 4.21565C17.3066 4.26745 17.3051 4.46754 17.2769 4.50015C17.1199 4.46834 16.7493 4.37677 16.6077 4.3911C16.0647 4.2502 15.4482 4.13857 14.8888 4.00015C13.7601 3.71657 12.6421 3.39465 11.5368 3.03489C11.1795 2.9192 10.8295 2.7906 10.4756 2.6652C10.3878 2.63407 10.2977 2.60544 10.2163 2.56066L10.1714 2.54711C10.0244 2.45969 9.59343 2.30876 9.41819 2.23315C8.82643 1.97785 8.14742 1.70305 7.63686 1.31897L7.68089 1.32464Z" fill="#FEF073"/>
<path d="M7.63686 1.31897L7.68089 1.32464C7.81484 1.38657 7.9872 1.5413 8.11241 1.5788C8.19211 1.50553 8.13523 1.4965 8.22672 1.44035C8.28416 1.44932 9.08989 1.82987 9.11371 1.85034C9.14566 1.95449 9.05105 1.94141 9.05032 2.04197C9.09657 2.08344 10.0727 2.46594 10.2202 2.53032C10.22 2.55671 10.2241 2.54732 10.2163 2.56066L10.1714 2.54711C10.0244 2.45969 9.59343 2.30876 9.41819 2.23315C8.82643 1.97785 8.14742 1.70305 7.63686 1.31897Z" fill="#F8F0E3"/>
<path d="M7.40229 0.275856L7.43524 0.296177C7.38771 0.377801 7.30412 0.485994 7.33668 0.581821C7.44331 0.895245 8.00884 1.20468 8.29401 1.35163C8.85203 1.63921 9.4557 1.87544 10.0378 2.10937L10.0303 2.1301C9.94972 2.12761 8.62564 1.5644 8.48528 1.49156C8.38561 1.43984 8.04062 1.25103 7.9237 1.19157C7.84222 1.15013 7.63019 0.972131 7.58917 0.967318C7.60359 1.09121 7.79347 1.16593 7.68089 1.32464L7.63686 1.31897C7.57615 1.28799 7.54665 1.2496 7.46607 1.21297C7.30796 1.09265 7.13588 0.950015 7.04194 0.774224C6.89596 0.50086 7.20367 0.37032 7.40229 0.275856Z" fill="#F8F0E3"/>
<path d="M7.46607 1.21297C7.54665 1.2496 7.57615 1.28799 7.63686 1.31897C8.14742 1.70305 8.82643 1.97785 9.41819 2.23315C9.59343 2.30876 10.0244 2.45969 10.1714 2.54711C9.96208 2.5264 9.27588 2.21448 9.02556 2.11712C8.82872 2.23684 9.15935 2.42564 9.22223 2.52866C9.3898 2.80343 9.25652 3.15552 9.15645 3.43341C9.07019 3.6728 8.96629 3.95865 8.79048 4.14817C8.77178 4.16833 8.77746 4.15318 8.77529 4.18229C8.90607 4.31893 9.32558 4.3268 9.56155 4.38458C9.52888 4.40679 9.10904 4.35003 9.05238 4.32852C8.32862 4.05416 7.48644 3.69798 6.9362 3.15753C6.63824 2.86492 6.89068 2.49552 6.93854 2.16103C6.98184 1.92226 7.04879 1.64211 7.14813 1.42254C7.1656 1.38389 7.35738 1.25235 7.40758 1.21311C7.43312 1.23566 7.41843 1.22717 7.45193 1.23813L7.46607 1.21297Z" fill="#FEF073"/>
<path d="M24.7016 4.13755C24.8699 4.28238 24.9758 4.41822 24.9989 4.64681C25.0111 4.76729 24.9187 5.19149 24.8681 5.28739C24.7992 5.65214 24.685 6.06503 24.6013 6.43221C24.5554 6.61947 24.5036 6.86036 24.4483 7.04098C24.3138 7.41868 23.8593 7.55262 23.4844 7.59353C23.5121 7.60771 21.9109 7.69552 21.6809 7.67649C20.4844 7.57736 18.9697 7.55074 17.8106 7.26414C17.9873 7.24161 18.748 7.38892 18.9774 7.41393C19.9615 7.52114 20.984 7.65304 21.9737 7.63644C22.1418 7.63358 22.2574 7.65412 22.419 7.63789C22.4186 7.6055 22.4228 7.62054 22.4067 7.59272C22.3499 7.58221 22.315 7.58178 22.2703 7.54944C22.2551 7.48923 22.3379 7.38509 22.3339 7.33712C22.3234 7.20916 22.326 7.18118 22.4487 7.10744C22.3505 7.0654 21.4125 7.18787 21.2279 7.13758C21.0529 7.08993 19.8901 7.11612 19.8234 7.05823C19.972 7.01053 21.208 7.12108 21.4562 7.11758C21.8988 7.11133 22.432 7.07834 22.8703 7.0177C23.0285 6.99581 23.3502 6.88866 23.4257 6.74749C23.5095 6.59079 23.5596 6.18583 23.5411 6.00585C23.5287 5.88468 23.4808 5.80043 23.4962 5.66325C23.5207 5.44602 23.6597 5.4575 23.6127 5.24626C23.5394 5.20141 23.0274 5.23472 22.8942 5.23327C22.431 5.22448 21.9682 5.20244 21.5065 5.16708C21.4552 5.16352 21.1983 5.1549 21.166 5.14422L21.296 5.13598C22.2358 5.21828 23.5593 5.26863 24.465 5.0659C24.5899 5.03017 24.8356 4.97298 24.8991 4.85137C25.0748 4.51475 24.7828 4.38636 24.7016 4.13755Z" fill="#E38501"/>
<path d="M24.7088 5.63333L24.7201 5.70421L24.7163 5.69133C24.7266 5.69014 24.7368 5.68896 24.7471 5.68772C24.7712 5.57921 24.7856 5.36355 24.8681 5.28739C24.7992 5.65214 24.685 6.06503 24.6013 6.43221C24.5554 6.61947 24.5036 6.86036 24.4483 7.04098C24.4245 7.02077 24.4243 7.02147 24.4075 6.99565C24.4063 6.86251 24.4859 6.56325 24.5199 6.42122C24.559 6.19305 24.6545 5.87195 24.7088 5.63333Z" fill="#B5680B"/>
<path d="M1.4068 23.7094C1.67535 23.6374 1.89966 23.6139 2.17495 23.5829C2.14931 23.6863 2.06696 23.9417 2.10845 24.0233L2.14488 24.0298C2.17915 24.0777 2.17774 24.0873 2.24744 24.1027C3.31844 24.969 4.58127 24.9982 5.76489 25.4919C5.94114 25.5262 6.1126 25.5852 6.28546 25.633C7.03459 25.8402 7.78162 26.0798 8.53303 26.2767C10.1787 26.7202 11.8446 27.0897 13.5256 27.3839C14.6448 27.5855 15.7732 27.7751 16.9109 27.8376C17.0556 27.8455 17.58 27.879 17.689 27.8427C17.8029 27.8624 18.5645 27.8977 18.6342 27.8532L18.6644 27.8255C18.6782 27.8486 18.6681 27.8391 18.6978 27.8507C18.7761 27.7657 18.8032 27.4256 18.8886 27.3422C19.331 27.5669 19.9811 27.996 19.9659 28.5368C19.8544 29.0919 19.7051 29.6402 19.5756 30.1917C19.493 30.5435 19.4259 30.9934 19.2894 31.3224C19.2419 31.4367 19.1882 31.5244 19.0808 31.5938C17.6255 32.5344 12.2818 31.5944 10.5402 31.2416C8.896 30.9148 7.27195 30.4994 5.67545 29.9976C4.9808 29.7838 4.30857 29.5929 3.63741 29.3038C3.35471 29.2173 3.11639 29.0792 2.84973 28.9705C1.9918 28.6208 0.710804 28.0628 0.148431 27.3367C0.125714 27.264 0.0470713 27.1034 0.0541725 27.0415C0.0859556 26.7642 0.180169 26.4256 0.246112 26.1525L0.698221 24.2938C0.768476 23.9313 1.08725 23.8189 1.4068 23.7094Z" fill="url(#paint2_linear_302_8167)"/>
<path d="M8.25321 27.824C8.62152 27.9268 8.99133 28.0244 9.36253 28.1166C9.50517 28.1527 9.82773 28.2408 9.96503 28.2619C10.2555 28.3614 11.2089 28.5295 11.5572 28.6006C11.5814 28.6074 11.6058 28.6141 11.6304 28.6196C13.1914 28.9657 18.3379 29.7211 19.6493 28.9173C19.7889 28.8317 19.8704 28.7393 19.9082 28.5801L19.9659 28.5368C19.8544 29.0919 19.7051 29.6402 19.5756 30.1917C19.493 30.5435 19.4259 30.9934 19.2894 31.3224C19.2419 31.4367 19.1882 31.5244 19.0808 31.5938C17.6255 32.5344 12.2818 31.5944 10.5402 31.2416C8.896 30.9148 7.27195 30.4994 5.67545 29.9976C4.9808 29.7838 4.30857 29.5929 3.63741 29.3038C3.76042 29.2708 3.91634 29.2795 4.04862 29.2465C4.21397 29.2051 4.33206 29.2433 4.43908 29.0861C4.44258 29.0809 4.47976 29.0635 4.48455 29.0653C5.25878 29.3432 6.04242 29.5859 6.83263 29.8182C7.0214 29.8734 7.4423 30.022 7.61444 30.0282C7.67382 29.8574 7.77344 29.8486 7.85591 29.7243C7.99471 29.515 7.9129 29.1147 7.94067 28.8532C7.97267 28.5516 8.11926 28.1773 8.1935 27.8739C8.21737 27.8539 8.2373 27.8373 8.25321 27.824Z" fill="url(#paint3_linear_302_8167)"/>
<path d="M0.148431 27.3367C0.125714 27.264 0.0470713 27.1034 0.0541725 27.0415C0.0859556 26.7642 0.180169 26.4256 0.246112 26.1525L0.698221 24.2938C0.885908 24.7046 1.09622 24.926 1.49196 25.1693C1.66622 25.2749 1.85669 25.417 2.03326 25.5085C2.48571 25.743 2.94851 25.9701 3.418 26.1707C3.48038 26.1974 3.55107 26.2246 3.61005 26.2563C5.11954 26.8796 6.67079 27.4034 8.25321 27.824C8.2373 27.8373 8.21737 27.8539 8.1935 27.8739C8.11926 28.1773 7.97267 28.5516 7.94067 28.8532C7.9129 29.1147 7.99471 29.515 7.85591 29.7243C7.77344 29.8486 7.67382 29.8574 7.61444 30.0282C7.4423 30.022 7.0214 29.8734 6.83263 29.8182C6.04242 29.5859 5.25878 29.3432 4.48455 29.0653C4.47976 29.0635 4.44258 29.0809 4.43908 29.0861C4.33206 29.2433 4.21397 29.2051 4.04862 29.2465C3.91634 29.2795 3.76042 29.2708 3.63741 29.3038C3.35471 29.2173 3.11639 29.0792 2.84973 28.9705C1.9918 28.6208 0.710804 28.0628 0.148431 27.3367Z" fill="url(#paint4_linear_302_8167)"/>
<path d="M0.858739 25.0586L0.870454 25.0643C0.990841 25.1252 1.05001 25.1656 1.16009 25.2481C1.34588 25.2616 1.32476 25.2399 1.49196 25.1693C1.66622 25.2749 1.85669 25.417 2.03326 25.5085C2.48571 25.743 2.94851 25.9701 3.418 26.1707C3.48038 26.1974 3.55107 26.2246 3.61005 26.2563C3.44034 26.2518 3.02609 26.0429 2.86627 25.9675L2.83669 25.9775C2.85796 26.0808 2.83532 26.2196 2.85921 26.2589C2.96977 26.4502 3.28551 26.6568 3.29628 26.908C3.31236 27.2831 3.02907 27.8558 2.90209 28.2316C2.8885 28.2718 2.70959 28.2733 2.66172 28.2778L2.6487 28.2952C2.79209 28.3795 3.21919 28.3885 3.41152 28.4053L3.41271 28.4118C2.88392 28.4243 2.70807 28.3587 2.22547 28.1528C1.62742 27.8975 1.08573 27.5947 0.658908 27.1023C0.573404 27.0037 0.497282 26.9341 0.428663 26.8205C0.513894 26.4389 0.605509 26.059 0.701421 25.6799C0.75064 25.4854 0.780547 25.2374 0.858739 25.0586Z" fill="#FEF073"/>
<path d="M1.4068 23.7094C1.67535 23.6374 1.89966 23.6139 2.17495 23.5829C2.14931 23.6863 2.06696 23.9417 2.10845 24.0233L2.14488 24.0298C2.17915 24.0777 2.17774 24.0873 2.24744 24.1027C3.31844 24.969 4.58127 24.9982 5.76489 25.4919C5.86372 25.6364 6.20504 25.7512 6.37595 25.8445C6.8801 26.1197 7.4093 26.3546 7.92742 26.6037C8.14308 26.7015 8.91971 26.9996 9.1298 27.0534C9.13525 27.0574 9.14076 27.0615 9.14627 27.0654C9.29876 27.15 10.1976 27.4261 10.2607 27.4736C10.2448 27.6041 10.1363 27.6196 10.0229 27.6714C10.0138 27.7013 10.0097 27.7175 9.98729 27.7405C9.93726 27.7303 9.92356 27.7059 9.88939 27.6681C9.81983 27.6745 9.82161 27.6914 9.78599 27.7489C9.7506 27.736 9.72082 27.7283 9.69161 27.7052C9.72572 27.6805 9.72784 27.6825 9.74804 27.6471C9.17204 27.2099 9.4262 27.4662 8.89066 27.5113C8.62191 27.5339 7.04255 26.9417 6.85077 26.9865C7.15347 27.0897 7.49918 27.1788 7.80955 27.2653C8.37776 27.4272 8.94965 27.577 9.52465 27.7146C9.83129 27.7878 10.2477 27.8691 10.54 27.9518C11.0175 28.052 11.4871 28.1645 11.9666 28.2605L11.9534 28.2836L11.8887 28.2738C11.7167 28.4269 11.8952 28.5886 11.5572 28.6006C11.2089 28.5295 10.2555 28.3614 9.96503 28.2619C9.82773 28.2408 9.50517 28.1527 9.36253 28.1166C8.99133 28.0244 8.62152 27.9268 8.25321 27.824C6.67079 27.4034 5.11954 26.8796 3.61005 26.2563C3.55107 26.2246 3.48038 26.1974 3.418 26.1707C2.94851 25.9701 2.48571 25.743 2.03326 25.5085C1.85669 25.417 1.66622 25.2749 1.49196 25.1693C1.09622 24.926 0.885908 24.7046 0.698221 24.2938C0.768476 23.9313 1.08725 23.8189 1.4068 23.7094Z" fill="#FEE541"/>
<path d="M1.4068 23.7094C1.33175 23.953 0.931337 23.8928 1.16596 24.3426C1.2356 24.4761 1.43576 24.6884 1.56929 24.775C3.09935 25.7682 5.04101 26.411 6.77987 26.9719C6.80837 26.981 6.82234 26.9835 6.85077 26.9865C7.15347 27.0897 7.49918 27.1788 7.80955 27.2653C8.37776 27.4272 8.94965 27.577 9.52465 27.7146C9.83129 27.7878 10.2477 27.8691 10.54 27.9518C11.0175 28.052 11.4871 28.1645 11.9666 28.2605L11.9534 28.2836L11.8887 28.2738C11.7167 28.4269 11.8952 28.5886 11.5572 28.6006C11.2089 28.5295 10.2555 28.3614 9.96503 28.2619C9.82773 28.2408 9.50517 28.1527 9.36253 28.1166C8.99133 28.0244 8.62152 27.9268 8.25321 27.824C6.67079 27.4034 5.11954 26.8796 3.61005 26.2563C3.55107 26.2246 3.48038 26.1974 3.418 26.1707C2.94851 25.9701 2.48571 25.743 2.03326 25.5085C1.85669 25.417 1.66622 25.2749 1.49196 25.1693C1.09622 24.926 0.885908 24.7046 0.698221 24.2938C0.768476 23.9313 1.08725 23.8189 1.4068 23.7094Z" fill="url(#paint5_linear_302_8167)"/>
<path d="M9.96503 28.2619L9.95796 28.2434C9.85995 28.1639 9.44534 28.1568 9.406 28.0776C9.47879 28.0865 9.52081 28.094 9.59511 28.0865L9.61648 28.0514C9.61403 27.9566 9.55832 27.9052 9.52899 27.7978C9.53383 27.786 9.53211 27.7687 9.54352 27.7626C9.63356 27.7148 10.3961 28.0174 10.54 27.9518C11.0175 28.052 11.4871 28.1645 11.9666 28.2605L11.9534 28.2836L11.8887 28.2738C11.7167 28.4269 11.8952 28.5886 11.5572 28.6006C11.2089 28.5295 10.2555 28.3614 9.96503 28.2619Z" fill="#FEF073"/>
<path d="M6.85077 26.9865C7.04255 26.9417 8.62191 27.5339 8.89066 27.5113C9.4262 27.4662 9.17204 27.2099 9.74804 27.6471C9.72784 27.6825 9.72572 27.6805 9.69161 27.7052C9.72082 27.7283 9.7506 27.736 9.78599 27.7489C9.82161 27.6914 9.81983 27.6745 9.88939 27.6681C9.92356 27.7059 9.93726 27.7303 9.98729 27.7405C10.0097 27.7175 10.0138 27.7013 10.0229 27.6714C10.1363 27.6196 10.2448 27.6041 10.2607 27.4736C10.1976 27.4261 9.29876 27.15 9.14627 27.0654C9.14076 27.0615 9.13525 27.0574 9.1298 27.0534C9.24466 27.0488 10.1304 27.3938 10.3214 27.4533C11.5625 27.84 12.8411 28.2596 14.1013 28.5736C15.2678 28.8643 16.5916 28.8957 17.7901 28.9335C18.2599 28.9395 19.2811 28.8821 19.604 28.5206C19.6301 28.4914 19.678 28.432 19.7036 28.3988L19.7025 28.0665C19.9209 28.3407 19.8807 28.2788 19.9082 28.5801C19.8704 28.7393 19.7889 28.8317 19.6493 28.9173C18.3379 29.7211 13.1914 28.9657 11.6304 28.6196C11.6058 28.6141 11.5814 28.6074 11.5572 28.6006C11.8952 28.5886 11.7167 28.4269 11.8887 28.2738L11.9534 28.2836L11.9666 28.2605C11.4871 28.1645 11.0175 28.052 10.54 27.9518C10.2477 27.8691 9.83129 27.7878 9.52465 27.7146C8.94965 27.577 8.37776 27.4272 7.80955 27.2653C7.49918 27.1788 7.15347 27.0897 6.85077 26.9865Z" fill="url(#paint6_linear_302_8167)"/>
<path d="M6.85077 26.9865C7.04255 26.9417 8.62191 27.5339 8.89066 27.5113C9.4262 27.4662 9.17204 27.2099 9.74804 27.6471C9.72784 27.6825 9.72572 27.6805 9.69161 27.7052C9.72082 27.7283 9.7506 27.736 9.78599 27.7489C10.0265 27.7836 10.418 27.8858 10.6648 27.9439C11.0362 28.0305 11.409 28.1111 11.7831 28.1856C12.0658 28.2429 12.3447 28.2945 12.6275 28.3551C12.7907 28.39 12.9881 28.3704 13.1776 28.4428C12.965 28.4157 12.7565 28.3889 12.5446 28.3577C12.386 28.3345 12.1133 28.2638 11.9666 28.2605C11.4871 28.1645 11.0175 28.052 10.54 27.9518C10.2477 27.8691 9.83129 27.7878 9.52465 27.7146C8.94965 27.577 8.37776 27.4272 7.80955 27.2653C7.49918 27.1788 7.15347 27.0897 6.85077 26.9865Z" fill="#FDD22A"/>
<path d="M12.1601 13.9084L12.1794 13.8566C12.2671 13.7814 12.2602 13.8854 12.4398 13.8321L12.4585 13.8345C12.4627 13.9136 12.4729 13.9039 12.5256 13.9745L12.537 14.0071C12.6969 14.079 13.1644 14.0641 13.2236 14.2475C13.2541 14.3422 13.3385 14.366 13.3703 14.4559C13.34 14.6777 13.2209 14.9456 13.1769 15.1748C13.1093 15.5279 13.0817 15.8154 13.0516 16.168C13.0419 16.2821 13.0431 16.5413 13.0213 16.6223C12.9989 16.7222 12.9098 16.7886 12.8662 16.9042C12.8247 17.0142 12.8772 17.3008 12.8328 17.3639C12.7021 17.5494 12.7656 17.3943 12.8562 17.5595C12.9196 17.5756 12.9639 17.5786 13.0061 17.6247C13.0659 17.9278 12.9375 18.4037 12.8632 18.6976C12.8242 18.852 12.8062 19.0212 12.7591 19.175C12.6585 19.6145 12.6003 20.0392 12.5192 20.4803C12.499 20.5899 12.3778 20.9942 12.3927 21.0653C12.3866 21.1137 12.3633 21.2352 12.3814 21.2718L12.4108 21.2812C12.4173 21.2373 12.4228 21.2064 12.433 21.1632L12.4719 21.1411C12.4506 21.208 12.4361 21.2109 12.4549 21.2632C12.5341 21.3276 12.702 21.4316 12.8071 21.4335C12.835 21.5096 13.1297 21.6495 13.2323 21.7482C13.3717 21.8358 13.5193 21.9449 13.6504 22.0441C14.6081 22.7687 15.6931 23.2841 16.8589 23.6128C17.2581 23.7253 17.6067 23.7972 17.9934 23.9585C18.1617 24.0376 18.3694 24.1424 18.4894 24.2859C19.0227 24.7807 18.5926 25.7136 18.3629 26.247C18.2696 26.4638 18.2103 26.7268 18.1252 26.9544C18.2544 26.9891 18.4188 27.0944 18.5328 27.1675L18.546 27.1964L18.4484 27.5988C18.5112 27.7014 18.5575 27.7587 18.6342 27.8532C18.5645 27.8977 17.8029 27.8624 17.689 27.8427C17.58 27.879 17.0556 27.8455 16.9109 27.8376C15.7732 27.7751 14.6448 27.5855 13.5256 27.3839C11.8446 27.0897 10.1787 26.7202 8.53303 26.2767C7.78162 26.0798 7.03459 25.8402 6.28546 25.633C6.1126 25.5852 5.94114 25.5262 5.76489 25.4919C4.58127 24.9982 3.31844 24.969 2.24744 24.1027C2.30268 24.0707 2.36367 24.0479 2.4231 24.0233C2.57067 23.9496 2.47756 23.85 2.72294 23.7265C2.72199 23.6918 2.72343 23.6602 2.72453 23.6256C2.77697 23.5594 2.80438 23.6182 2.88654 23.5721C2.89111 23.5712 2.89568 23.5704 2.90024 23.5696L2.92315 23.566C3.04517 23.5462 3.08049 23.5493 3.20711 23.5562C3.68033 23.0112 4.11145 22.6801 4.77283 22.3606C4.91057 22.3488 5.27832 22.1582 5.4677 22.129C6.38446 21.9876 7.22571 21.8289 8.07758 21.5057C9.19057 21.0834 10.7418 20.4667 11.8765 20.9986C11.9501 20.7947 12.1004 20.1258 12.1028 19.9178L12.1419 19.875C12.1605 19.7992 12.178 19.7232 12.1947 19.647L12.1562 19.5943C12.297 18.8088 12.2046 18.1484 12.145 17.3727L12.1316 17.3397C12.1341 17.2971 12.1019 17.014 12.0931 16.9641C12.0532 16.7524 12.0568 16.5396 12.0401 16.3285C12.0037 15.8681 12.1379 15.4562 12.1864 15.0094C12.2618 14.689 12.2548 14.4012 12.2041 14.0813C12.1967 14.0328 12.1736 13.9579 12.1601 13.9084Z" fill="url(#paint7_linear_302_8167)"/>
<path d="M2.88654 23.5721C2.89111 23.5712 2.89568 23.5704 2.90024 23.5696L2.92315 23.566C3.04517 23.5462 3.08049 23.5493 3.20711 23.5562L3.23046 23.5953L3.2879 23.642C3.09597 23.7091 3.00488 24.0634 2.99744 24.2402L3.09414 24.2609L3.09146 24.2769L3.05849 24.2594C3.06604 24.2937 3.07092 24.3138 3.07443 24.349C3.20089 24.4859 3.92084 24.7044 4.14523 24.799C4.652 25.0127 5.19473 25.2361 5.7301 25.3713C6.88645 25.6631 8.07947 25.7922 9.23464 26.0926C9.44785 26.1472 9.72923 26.2416 9.94032 26.2698C9.99352 26.3112 10.3443 26.3484 10.44 26.3682C11.9055 26.6703 13.4515 26.9848 14.9558 26.8954C15.3557 26.8717 15.5294 26.8027 15.8409 26.5715C15.9785 26.4744 16.2093 26.4395 16.3718 26.2992L16.3798 26.2674C16.4535 26.2046 16.7767 26.0308 16.8095 25.9844C16.9646 25.7658 17.2147 25.5995 17.3718 25.3863C17.5328 25.1679 17.6649 24.9431 17.7909 24.7109C17.9157 24.5906 18.0043 24.2294 18.0641 24.057C18.1409 24.0161 18.3723 24.2672 18.4894 24.2859C19.0227 24.7807 18.5926 25.7136 18.3629 26.247C18.2696 26.4638 18.2103 26.7268 18.1252 26.9544C18.2544 26.9891 18.4188 27.0944 18.5328 27.1675L18.546 27.1964L18.4484 27.5988C18.5112 27.7014 18.5575 27.7587 18.6342 27.8532C18.5645 27.8977 17.8029 27.8624 17.689 27.8427C17.58 27.879 17.0556 27.8455 16.9109 27.8376C15.7732 27.7751 14.6448 27.5855 13.5256 27.3839C11.8446 27.0897 10.1787 26.7202 8.53303 26.2767C7.78162 26.0798 7.03459 25.8402 6.28546 25.633C6.1126 25.5852 5.94114 25.5262 5.76489 25.4919C4.58127 24.9982 3.31844 24.969 2.24744 24.1027C2.30268 24.0707 2.36367 24.0479 2.4231 24.0233C2.57067 23.9496 2.47756 23.85 2.72294 23.7265C2.72199 23.6918 2.72343 23.6602 2.72453 23.6256C2.77697 23.5594 2.80438 23.6182 2.88654 23.5721Z" fill="url(#paint8_linear_302_8167)"/>
<path d="M17.9752 27.3472C18.0267 27.2381 18.0687 27.082 18.1252 26.9544C18.2544 26.9891 18.4188 27.0944 18.5328 27.1675L18.546 27.1964L18.4484 27.5988C18.5112 27.7014 18.5575 27.7587 18.6342 27.8532C18.5645 27.8977 17.8029 27.8624 17.689 27.8427C17.787 27.6966 17.8858 27.5036 17.9752 27.3472Z" fill="#E38501"/>
<path d="M17.9752 27.3472C18.0267 27.2381 18.0687 27.082 18.1252 26.9544C18.2544 26.9891 18.4188 27.0944 18.5328 27.1675L18.546 27.1964L18.4484 27.5988L18.4355 27.5329C18.3453 27.4842 18.0728 27.36 17.9752 27.3472Z" fill="#F7AD0B"/>
<path d="M2.88654 23.5721C2.89111 23.5712 2.89568 23.5704 2.90024 23.5696L2.92315 23.566C3.04517 23.5462 3.08049 23.5493 3.20711 23.5562L3.23046 23.5953C3.07528 23.6163 2.86541 23.6651 2.72294 23.7265C2.72199 23.6918 2.72343 23.6602 2.72453 23.6256C2.77697 23.5594 2.80438 23.6182 2.88654 23.5721Z" fill="#FEE541"/>
<path d="M15.8758 25.9206C15.4427 25.6015 15.0579 25.5707 14.5811 25.1038C13.819 24.3575 13.3509 23.4942 12.9266 22.5341C12.8103 22.271 12.7248 22.0047 12.6089 21.7421C12.5993 21.6589 12.2996 21.2948 12.3162 21.247C12.4006 21.0052 12.6746 19.2572 12.7591 19.175C12.6585 19.6145 12.6003 20.0392 12.5192 20.4803C12.499 20.5899 12.3778 20.9942 12.3927 21.0653C12.3866 21.1137 12.3633 21.2352 12.3814 21.2718L12.4108 21.2812C12.4173 21.2373 12.4228 21.2064 12.433 21.1632L12.4719 21.1411C12.4506 21.208 12.4361 21.2109 12.4549 21.2632C12.5341 21.3276 12.702 21.4316 12.8071 21.4335C12.835 21.5096 13.1297 21.6495 13.2323 21.7482C13.3717 21.8358 13.5193 21.9449 13.6504 22.0441C14.6081 22.7687 15.6931 23.2841 16.8589 23.6128C17.2581 23.7253 17.6067 23.7972 17.9934 23.9585C18.1617 24.0376 18.3694 24.1424 18.4894 24.2859C18.3723 24.2672 18.1409 24.0161 18.0641 24.057C18.0043 24.2294 17.9157 24.5906 17.7909 24.7109C17.6649 24.9431 17.5328 25.1679 17.3718 25.3863C17.2147 25.5995 16.9646 25.7658 16.8095 25.9844C16.7767 26.0308 16.4535 26.2046 16.3798 26.2674C16.1512 26.0651 16.1581 26.0467 15.8758 25.9206Z" fill="url(#paint9_linear_302_8167)"/>
<path d="M13.2323 21.7482C13.3717 21.8358 13.5193 21.9449 13.6504 22.0441C14.6081 22.7687 15.6931 23.2841 16.8589 23.6128C17.2581 23.7253 17.6067 23.7972 17.9934 23.9585C18.1617 24.0376 18.3694 24.1424 18.4894 24.2859C18.3723 24.2672 18.1409 24.0161 18.0641 24.057C18.0043 24.2294 17.9157 24.5906 17.7909 24.7109C17.8186 24.6024 17.9848 24.2184 18.0404 24.0538C17.5696 23.8754 16.9877 23.7613 16.487 23.6047C15.5496 23.3116 14.7127 22.8944 13.9102 22.3405C13.7079 22.2008 13.4234 22.016 13.2455 21.8437C13.2116 21.8108 13.2247 21.7904 13.2323 21.7482Z" fill="#F7AD0B"/>
<path d="M14.0016 22.911C14.0488 22.9216 14.0458 22.9201 14.0848 22.948C14.1067 22.9937 14.0923 23.0227 14.0798 23.0728C14.0381 23.0745 14.04 23.0713 14.0037 23.0496C13.9775 22.9945 13.9888 22.9743 14.0016 22.911Z" fill="#F7BA0C"/>
<path d="M10.4802 20.9391C10.6874 21.1398 10.7236 21.2509 10.6184 21.5318C10.4981 21.6171 10.2714 21.6628 10.2278 21.4748C10.1827 21.2804 10.2262 21.1898 10.317 21.0237C10.0703 21.1132 9.93748 21.1413 9.67786 21.1916C9.48981 21.2638 9.58225 21.3017 9.48853 21.3642C9.27533 21.3771 8.51072 21.8501 8.33141 22.023C8.40247 22.074 8.56943 22.1922 8.59665 22.2741L8.68558 22.3445C8.62709 22.3572 8.64545 22.3418 8.61885 22.3795C8.64478 22.4082 8.66287 22.4287 8.68675 22.4595L8.67383 22.4822L8.62236 22.4263C8.53771 22.4392 8.51934 22.5816 8.44043 22.6172C8.3963 22.5437 8.4047 22.5503 8.31983 22.5168C8.13952 22.4454 8.07446 22.3857 7.97095 22.229C8.00679 22.2044 7.35771 22.5504 7.44676 22.5442C7.28982 22.5552 6.90242 22.4665 6.83525 22.6594C6.77787 22.688 6.60273 22.6353 6.50055 22.6546C6.02534 22.7444 4.71539 23.1753 4.40764 23.4979C4.44626 23.5638 4.58005 23.8133 4.62624 23.8398C4.93144 23.8128 5.21142 23.726 5.51645 23.6981C5.50382 23.6993 5.63466 23.5869 5.65508 23.5746L5.68369 23.5718C5.68241 23.7068 5.35929 23.7683 5.24292 23.776C5.1575 23.7817 4.62412 23.9376 4.57921 23.871C4.50992 23.7685 4.45327 23.6238 4.35616 23.5149C3.96815 23.7966 3.54734 23.9955 3.12609 24.2251C3.1092 24.2342 3.02068 24.239 2.99744 24.2402C3.00488 24.0634 3.09597 23.7091 3.2879 23.642C3.35631 23.6014 3.50741 23.4379 3.56398 23.3757C4.37792 22.4833 5.32173 22.2155 6.49254 22.0602C7.73682 21.8952 8.88632 21.2485 10.1293 20.9857C10.2891 20.9907 10.3249 20.9783 10.4802 20.9391Z" fill="url(#paint10_linear_302_8167)"/>
<path d="M7.71867 21.896L7.75145 21.9202C7.7815 21.9863 7.78317 22.1468 7.77093 22.2193C7.75073 22.2078 7.74338 22.1986 7.72602 22.1828C7.69257 22.0865 7.67315 21.9919 7.71867 21.896Z" fill="#FEF073"/>
<path d="M12.1601 13.9084L12.1794 13.8566C12.2671 13.7814 12.2602 13.8854 12.4398 13.8321L12.4585 13.8345C12.4627 13.9136 12.4729 13.9039 12.5256 13.9745L12.537 14.0071C12.6969 14.079 13.1644 14.0641 13.2236 14.2475C13.2541 14.3422 13.3385 14.366 13.3703 14.4559C13.34 14.6777 13.2209 14.9456 13.1769 15.1748C13.1093 15.5279 13.0817 15.8154 13.0516 16.168C13.0419 16.2821 13.0431 16.5413 13.0213 16.6223C12.9989 16.7222 12.9098 16.7886 12.8662 16.9042C12.8247 17.0142 12.8772 17.3008 12.8328 17.3639C12.7021 17.5494 12.7656 17.3943 12.8562 17.5595C12.8378 17.7271 12.8562 18.2167 12.7976 18.3389C12.7301 18.2132 12.8308 17.721 12.7878 17.5565C12.7695 17.5406 12.7543 17.5273 12.7421 17.5167L12.6997 17.5201C12.6594 17.5758 12.6467 17.6337 12.6523 17.7019C12.6881 17.8154 12.6421 17.8873 12.6752 18.028L12.6552 18.0455C12.6604 18.0505 12.5416 17.8583 12.5407 17.8535C12.6088 17.8099 12.5995 17.83 12.6222 17.7687L12.6047 17.7186C12.52 17.6968 12.5694 17.7574 12.5233 17.7125C12.5688 17.6422 12.6099 17.5909 12.6282 17.5102L12.6172 17.4849C12.5404 17.4586 12.4663 17.4606 12.393 17.4958C12.4127 17.6453 12.5997 18.0806 12.582 18.188C12.5697 18.3006 12.5703 18.353 12.5755 18.4669C12.5492 18.4162 12.5602 18.2152 12.5378 18.1325C12.4958 17.9763 12.4064 17.4296 12.2529 17.375C12.2646 17.3371 12.2612 17.3381 12.2499 17.2992L12.2272 17.3512C12.1682 17.3444 12.1949 17.3382 12.145 17.3727L12.1316 17.3397C12.1341 17.2971 12.1019 17.014 12.0931 16.9641C12.0532 16.7524 12.0568 16.5396 12.0401 16.3285C12.0037 15.8681 12.1379 15.4562 12.1864 15.0094C12.2618 14.689 12.2548 14.4012 12.2041 14.0813C12.1967 14.0328 12.1736 13.9579 12.1601 13.9084Z" fill="#F7BA0C"/>
<path d="M12.2041 14.0813C12.3906 14.2591 12.2148 14.7743 12.2803 14.8818L12.2983 14.909C12.388 14.7877 12.2862 14.2851 12.3844 14.186C12.5803 14.1866 12.4885 14.4586 12.5112 14.5775C12.436 14.783 12.4094 15.0023 12.4333 15.2192C12.4431 15.3115 12.4614 15.3935 12.4592 15.4866C12.4797 15.6161 12.5072 15.8872 12.4697 16.0091C12.424 16.072 12.409 16.0764 12.4191 16.1638C12.3876 16.2459 12.376 16.2584 12.3035 16.3107L12.3004 16.3356C12.3958 16.3731 12.3677 16.3473 12.4617 16.3567L12.4803 16.4097C12.4439 16.7612 12.6413 17.1338 12.6716 17.5002C12.6766 17.5619 12.5981 17.6407 12.6523 17.7019C12.6881 17.8154 12.6421 17.8873 12.6752 18.028L12.6552 18.0455C12.6604 18.0505 12.5416 17.8583 12.5407 17.8535C12.6088 17.8099 12.5995 17.83 12.6222 17.7687L12.6047 17.7186C12.52 17.6968 12.5694 17.7574 12.5233 17.7125C12.5688 17.6422 12.6099 17.5909 12.6282 17.5102L12.6172 17.4849C12.5404 17.4586 12.4663 17.4606 12.393 17.4958C12.4127 17.6453 12.5997 18.0806 12.582 18.188C12.5697 18.3006 12.5703 18.353 12.5755 18.4669C12.5492 18.4162 12.5602 18.2152 12.5378 18.1325C12.4958 17.9763 12.4064 17.4296 12.2529 17.375C12.2646 17.3371 12.2612 17.3381 12.2499 17.2992L12.2272 17.3512C12.1682 17.3444 12.1949 17.3382 12.145 17.3727L12.1316 17.3397C12.1341 17.2971 12.1019 17.014 12.0931 16.9641C12.0532 16.7524 12.0568 16.5396 12.0401 16.3285C12.0037 15.8681 12.1379 15.4562 12.1864 15.0094C12.2618 14.689 12.2548 14.4012 12.2041 14.0813Z" fill="#FEE541"/>
<path d="M12.2041 14.0813C12.3906 14.2591 12.2148 14.7743 12.2803 14.8818L12.2983 14.909C12.2718 15.1793 12.2152 15.4177 12.1834 15.6809C12.1154 16.2417 12.181 16.7443 12.2499 17.2992L12.2272 17.3512C12.1682 17.3444 12.1949 17.3382 12.145 17.3727L12.1316 17.3397C12.1341 17.2971 12.1019 17.014 12.0931 16.9641C12.0532 16.7524 12.0568 16.5396 12.0401 16.3285C12.0037 15.8681 12.1379 15.4562 12.1864 15.0094C12.2618 14.689 12.2548 14.4012 12.2041 14.0813Z" fill="#FDD22A"/>
<path d="M12.4592 15.4866C12.4797 15.6161 12.5072 15.8872 12.4697 16.0091C12.424 16.072 12.409 16.0764 12.4191 16.1638C12.2088 15.5599 12.4643 15.8899 12.4592 15.4866Z" fill="#FEE541"/>
<path d="M12.2803 14.8818C12.2806 14.8792 12.2808 14.8765 12.2811 14.8738C12.3478 14.7278 12.2211 14.0565 12.373 14.0086C12.5385 14.2176 12.5845 14.3285 12.5112 14.5775C12.4885 14.4586 12.5803 14.1866 12.3844 14.186C12.2862 14.2851 12.388 14.7877 12.2983 14.909L12.2803 14.8818Z" fill="#FDD22A"/>
<path d="M12.4697 16.0091C12.5545 16.0768 12.5903 16.0883 12.5433 16.2102C12.5145 16.2851 12.4953 16.3296 12.4803 16.4097L12.4617 16.3567C12.3677 16.3473 12.3958 16.3731 12.3004 16.3356L12.3035 16.3107C12.376 16.2584 12.3876 16.2459 12.4191 16.1638C12.409 16.0764 12.424 16.072 12.4697 16.0091Z" fill="#FDD22A"/>
<path d="M12.978 14.2793C13.0417 14.275 13.1404 14.2995 13.2062 14.3124L13.2989 14.474C13.2394 14.5648 13.2267 14.5903 13.1408 14.6572C12.8892 14.7266 12.6637 14.4761 12.978 14.2793Z" fill="#FDD22A"/>
<path d="M12.561 14.8762C12.658 14.8926 12.6702 14.9346 12.7319 15.0153C12.7252 15.1842 12.7093 15.303 12.6464 15.4604C12.5102 15.401 12.5177 15.3504 12.4681 15.2165C12.4799 15.095 12.5144 14.9883 12.561 14.8762Z" fill="#FDD22A"/>
<path d="M12.2499 17.2992C12.2612 17.3381 12.2646 17.3371 12.2529 17.375C12.4064 17.4296 12.4958 17.9763 12.5378 18.1325C12.5602 18.2152 12.5492 18.4162 12.5755 18.4669C12.5901 18.9437 12.4957 20.4319 12.1862 20.7518C12.1595 20.7792 12.1325 20.8064 12.1052 20.8333L12.0845 20.828C12.0182 20.6403 12.2325 20.1546 12.2144 19.8713L12.1909 19.8605L12.1548 19.8741L12.1419 19.875C12.1605 19.7992 12.178 19.7232 12.1947 19.647L12.1562 19.5943C12.297 18.8088 12.2046 18.1484 12.145 17.3727C12.1949 17.3382 12.1682 17.3444 12.2272 17.3512L12.2499 17.2992Z" fill="#FEF073"/>
<path d="M12.2499 17.2992C12.2612 17.3381 12.2646 17.3371 12.2529 17.375C12.2782 17.5697 12.2714 17.7867 12.2871 17.9826C12.3164 18.3507 12.4304 19.373 12.1947 19.647L12.1562 19.5943C12.297 18.8088 12.2046 18.1484 12.145 17.3727C12.1949 17.3382 12.1682 17.3444 12.2272 17.3512L12.2499 17.2992Z" fill="#FDD22A"/>
<path d="M10.1293 20.9857C10.4604 20.8722 10.9996 20.8761 11.3414 20.9639C11.4311 20.9991 11.4631 20.9907 11.476 21.0961C11.4594 21.2062 11.4515 21.2636 11.4168 21.3685C11.2403 21.3957 11.2035 21.4021 11.0268 21.3694L11.0164 21.3505C10.9433 21.215 10.9331 21.0821 10.8676 20.9802C10.7782 20.9547 10.8373 21.0502 10.6455 20.9851L10.6256 21.001C10.6488 21.0708 10.6718 21.0936 10.7164 21.152C10.7073 21.311 10.728 21.4259 10.6184 21.5318C10.7236 21.2509 10.6874 21.1398 10.4802 20.9391C10.3249 20.9783 10.2891 20.9907 10.1293 20.9857Z" fill="#FEF073"/>
<path d="M15.8758 25.9206C16.1581 26.0467 16.1512 26.0651 16.3798 26.2674L16.3718 26.2992C16.2093 26.4395 15.9785 26.4744 15.8409 26.5715C15.5294 26.8027 15.3557 26.8717 14.9558 26.8954C13.4515 26.9848 11.9055 26.6703 10.44 26.3682C10.3443 26.3484 9.99352 26.3112 9.94032 26.2698C10.0856 26.2434 10.6628 26.3891 10.865 26.4272C12.3598 26.709 13.8984 27.0188 15.4247 26.7997C15.5423 26.7828 15.7227 26.5408 15.8625 26.4947C15.9753 26.4575 16.205 26.3631 16.2889 26.2864C16.2675 26.1401 15.9296 26.0443 15.8758 25.9206Z" fill="#E38501"/>
<path d="M12.582 18.188C12.6646 18.543 12.5186 20.3106 12.3422 20.6011C12.2915 20.6846 12.1398 20.8465 12.1291 20.9322C12.1575 20.9776 12.1854 21.0233 12.2129 21.0693C12.1939 21.114 12.1871 21.1135 12.1469 21.1411C12.0763 21.1397 12.0732 21.1405 12.0159 21.1042C11.9608 21.0298 11.9673 20.9954 11.982 20.905C12.0306 20.6066 12.1807 20.1986 12.1843 19.9088C12.1764 19.8987 12.164 19.8815 12.1548 19.8741L12.1909 19.8605L12.2144 19.8713C12.2325 20.1546 12.0182 20.6403 12.0845 20.828L12.1052 20.8333C12.1325 20.8064 12.1595 20.7792 12.1862 20.7518C12.4957 20.4319 12.5901 18.9437 12.5755 18.4669C12.5703 18.353 12.5697 18.3006 12.582 18.188Z" fill="#FDD22A"/>
<path d="M9.48853 21.3642C9.58225 21.3017 9.48981 21.2638 9.67786 21.1916C9.65137 21.2846 9.67352 21.4332 9.60234 21.478C9.5414 21.454 9.52381 21.4265 9.48853 21.3642Z" fill="#FEE541"/>
<path d="M8.59665 22.2741C8.63916 22.2148 8.64089 22.1903 8.70144 22.1687C8.77924 22.2003 8.7941 22.2621 8.7552 22.3312C8.7153 22.3436 8.72626 22.3433 8.68558 22.3445L8.59665 22.2741Z" fill="#FDD22A"/>
<path d="M11.3414 20.9639C11.466 20.9734 11.5054 20.9728 11.5978 21.0604L11.6083 21.0952L11.5863 21.1175C11.5279 21.1161 11.5303 21.1167 11.476 21.0961C11.4631 20.9907 11.4311 20.9991 11.3414 20.9639Z" fill="#FEE541"/>
<path d="M11.9596 21.8977C12.0255 21.8572 11.999 21.8621 12.0715 21.8592C12.1288 21.8898 12.1093 21.8738 12.1433 21.9325C12.1462 21.9814 12.1478 22.0329 12.1079 22.0693L12.0812 22.1189C12.0223 22.229 11.9164 22.2842 11.8039 22.2044C11.7819 22.1728 11.7661 22.1461 11.7654 22.1099C11.7609 21.871 11.8871 21.9862 11.9596 21.8977Z" fill="#FDD22A"/>
<path d="M11.9596 21.8977C12.0255 21.8572 11.999 21.8621 12.0715 21.8592C12.1288 21.8898 12.1093 21.8738 12.1433 21.9325C12.1462 21.9814 12.1478 22.0329 12.1079 22.0693C12.0464 22.019 12.0075 21.9606 11.9596 21.8977Z" fill="#F7BA0C"/>
<path d="M6.9761 22.6186C7.10227 22.6276 7.24975 22.6873 7.26472 22.8239C7.23633 22.8912 7.23767 22.8745 7.16794 22.9256C7.12147 22.9454 7.06582 22.9507 7.02413 22.9223C6.88851 22.8297 6.918 22.7265 6.9761 22.6186Z" fill="#FEF073"/>
<path d="M10.9542 21.935C10.9736 21.9332 10.993 21.9319 11.0124 21.9312C11.1497 21.9263 11.2 21.9881 11.2971 22.0754C11.2624 22.1159 11.2179 22.1598 11.1803 22.1988C11.1258 22.2269 11.0917 22.2363 11.0346 22.2074C10.9733 22.1766 10.93 22.1203 10.9172 22.0547C10.9062 21.9994 10.9278 21.9799 10.9542 21.935Z" fill="#FEF073"/>
<path d="M9.71643 21.5049C9.80514 21.5134 9.98745 21.5521 10.0378 21.6292C10.0257 21.6865 10.0152 21.6793 9.96213 21.7295L9.94722 21.7146L9.95328 21.7056L9.95284 21.7283C9.96775 21.6853 9.98428 21.6708 10.0009 21.6286C9.96169 21.5868 9.98489 21.6039 9.92312 21.5834C9.86235 21.6658 9.71626 21.796 9.60735 21.791C9.52687 21.6849 9.67964 21.6096 9.71643 21.5049Z" fill="#FEE541"/>
<path d="M8.97664 21.8532L8.98894 21.8542C9.03101 21.8803 9.02929 21.8784 9.06023 21.9162C9.09106 22.0452 9.01649 22.0996 8.91631 22.162C8.84391 22.0955 8.79494 21.9932 8.83718 21.8993C8.89817 21.8517 8.88698 21.8664 8.97664 21.8532Z" fill="#FEF073"/>
<path d="M9.88494 21.3009C9.94983 21.325 9.97104 21.337 10.002 21.3898C9.99035 21.4598 9.99035 21.441 9.93408 21.5038L9.92846 21.5087C9.89813 21.493 9.87971 21.4803 9.8515 21.4616C9.8373 21.3912 9.85717 21.3757 9.88494 21.3009Z" fill="#FEF073"/>
<path d="M8.85899 23.0346C8.91509 23.0717 8.92127 23.093 8.9241 23.1556C8.89427 23.2151 8.89132 23.2156 8.82888 23.248C8.73077 23.175 8.76527 23.0882 8.85899 23.0346Z" fill="#FEE541"/>
<path d="M9.68248 23.8336C9.72772 23.8434 9.70697 23.834 9.74403 23.8678L9.73296 23.8966C9.67435 23.9342 9.64419 23.9478 9.57991 23.9762C9.52749 23.9657 9.55008 23.9765 9.50957 23.9425L9.51519 23.9152C9.56522 23.8668 9.61503 23.8569 9.68248 23.8336Z" fill="#F7BA0C"/>
<path d="M8.03294 22.6511C8.08019 22.6753 8.12232 22.6892 8.16094 22.723L8.07184 22.7798C8.01135 22.8015 8.04235 22.7975 7.9749 22.7872L7.95303 22.7561C7.97178 22.6785 7.95414 22.7072 8.03294 22.6511Z" fill="#FEE541"/>
<path d="M10.0877 22.8064C10.1574 22.8143 10.1552 22.8161 10.196 22.8574C10.2091 22.9185 10.2017 22.9246 10.1747 22.9851C10.0947 22.9652 10.115 22.9814 10.0638 22.93C10.053 22.8724 10.0625 22.8632 10.0877 22.8064Z" fill="#FDD22A"/>
<path d="M9.34445 21.5299C9.39303 21.5421 9.37277 21.5307 9.40772 21.5649L9.39409 21.6012C9.33176 21.6531 9.32007 21.6665 9.24143 21.6858C9.20904 21.6719 9.20938 21.6739 9.18539 21.6492L9.20404 21.6197C9.26715 21.5877 9.28807 21.5726 9.34445 21.5299Z" fill="#FEE541"/>
<path d="M9.19051 25.7327C9.23292 25.7564 9.23871 25.7548 9.26041 25.7979C9.24182 25.8573 9.2352 25.8484 9.18227 25.8984C9.13965 25.861 9.1289 25.8552 9.10175 25.8075C9.12401 25.7558 9.12685 25.7682 9.19051 25.7327Z" fill="#E38501"/>
<path d="M10.2072 23.899C10.2389 23.9137 10.2362 23.9141 10.2539 23.9441C10.2494 24.0273 10.2098 24.0839 10.1699 24.1592C10.1444 24.1516 10.1565 24.1564 10.1355 24.1337C10.1468 24.0473 10.1763 23.9805 10.2072 23.899Z" fill="#FEE541"/>
<path d="M9.49788 23.296C9.53706 23.3004 9.55192 23.3056 9.58943 23.3154C9.63267 23.3725 9.61887 23.3583 9.62438 23.4417L9.55353 23.4455C9.502 23.3938 9.51302 23.376 9.49788 23.296Z" fill="#FDD22A"/>
<path d="M10.1856 22.0658C10.2271 22.0796 10.2207 22.0802 10.2564 22.1081C10.2824 22.1598 10.2821 22.1566 10.2773 22.2136C10.2314 22.2213 10.2324 22.2231 10.1871 22.2153C10.1609 22.1627 10.177 22.1321 10.1856 22.0658Z" fill="#FDD22A"/>
<path d="M10.5176 23.1177C10.5516 23.133 10.5391 23.1253 10.5638 23.156C10.5528 23.2143 10.5313 23.2243 10.4895 23.2745C10.4495 23.2459 10.4512 23.2489 10.4296 23.2058C10.4495 23.1532 10.4618 23.1586 10.5176 23.1177Z" fill="#F7BA0C"/>
<path d="M13.1819 23.4473C13.2271 23.453 13.2243 23.4517 13.2623 23.4759C13.2785 23.5359 13.2742 23.5158 13.2522 23.5835L13.1503 23.538L13.1387 23.5068L13.1819 23.4473Z" fill="#F7AD0B"/>
<path d="M8.84842 22.5982C8.89082 22.5965 8.9275 22.6001 8.96963 22.6032C9.02534 22.6439 9.00708 22.6256 9.03596 22.6926C8.91403 22.6933 8.91954 22.6885 8.84842 22.5982Z" fill="#FEE541"/>
<path d="M8.94158 22.2709C9.03724 22.2642 9.06507 22.2506 9.12579 22.3245C9.04008 22.3319 8.9984 22.3374 8.94158 22.2709Z" fill="#FEE541"/>
<path d="M8.15738 7.09208C8.51667 6.97636 9.23119 6.88062 9.57257 7.03403L9.68893 7.04707C9.88767 7.12755 10.1118 7.18 10.3018 7.28629C10.7931 7.56109 11.1833 7.94891 11.6364 8.27701C13.0627 9.30972 14.7692 9.84238 16.5169 10.0807C16.8711 10.1291 17.2471 10.0901 17.6026 10.0983C17.9685 10.1119 18.3098 10.1371 18.6776 10.1229C19.6413 10.0858 20.7796 9.70634 21.601 10.3943C21.9371 10.6757 22.0616 10.7973 21.8404 11.2218C21.1334 12.5787 19.6169 13.337 18.1912 13.8006C16.9609 14.1923 15.6701 14.3755 14.3755 14.3421C14.2783 14.4445 14.1072 14.6254 14.0447 14.7462C13.8105 15.1991 13.5783 15.9305 13.518 16.4288C13.4664 16.8554 13.4805 17.3562 13.4024 17.7727C13.3588 18.1396 13.3042 18.5051 13.2386 18.869C13.1794 19.1834 13.0765 19.5963 13.0363 19.9025C12.96 20.4815 12.9621 20.8581 12.8071 21.4335C12.702 21.4316 12.5341 21.3276 12.4549 21.2632C12.4361 21.2109 12.4506 21.208 12.4719 21.1411L12.433 21.1632C12.4228 21.2064 12.4173 21.2373 12.4108 21.2812L12.3814 21.2718C12.3633 21.2352 12.3866 21.1137 12.3927 21.0653C12.3778 20.9942 12.499 20.5899 12.5192 20.4803C12.6003 20.0392 12.6585 19.6145 12.7591 19.175C12.8062 19.0212 12.8242 18.852 12.8632 18.6976C12.9375 18.4037 13.0659 17.9278 13.0061 17.6247C12.9639 17.5786 12.9196 17.5756 12.8562 17.5595C12.7656 17.3943 12.7021 17.5494 12.8328 17.3639C12.8772 17.3008 12.8247 17.0142 12.8662 16.9042C12.9098 16.7886 12.9989 16.7222 13.0213 16.6223C13.0431 16.5413 13.0419 16.2821 13.0516 16.168C13.0817 15.8154 13.1093 15.5279 13.1769 15.1748C13.2209 14.9456 13.34 14.6777 13.3703 14.4559C13.3385 14.366 13.2541 14.3422 13.2236 14.2475C13.1644 14.0641 12.6969 14.079 12.537 14.0071L12.5256 13.9745C12.4729 13.9039 12.4627 13.9136 12.4585 13.8345L12.4398 13.8321C12.2602 13.8854 12.2671 13.7814 12.1794 13.8566L12.1601 13.9084C12.1512 13.8789 12.1416 13.8565 12.1302 13.8281C11.8536 13.6843 11.5157 13.5791 11.212 13.4129C10.0633 12.7838 9.12696 12.054 8.2452 11.1083C7.68617 10.3999 7.06092 9.58656 6.94989 8.68042C6.93765 8.5545 6.94828 8.36811 6.96464 8.24392C6.99285 8.18759 6.98696 8.17568 7.03248 8.14641L7.06103 8.15951C7.10383 8.28213 7.06971 8.33436 7.10945 8.44028C7.11557 8.06372 7.15981 7.74381 7.52072 7.53128C7.61388 7.47641 8.01647 7.23589 8.09961 7.22824C8.11035 7.20986 8.14692 7.11709 8.15738 7.09208Z" fill="url(#paint11_linear_302_8167)"/>
<path d="M7.10945 8.44028C7.11557 8.06372 7.15981 7.74381 7.52072 7.53128C7.61388 7.47641 8.01647 7.23589 8.09961 7.22824C8.0035 7.81825 8.2314 8.53159 8.70745 8.9074C8.89233 9.05336 9.81348 9.6098 10.0056 9.61416C10.2451 9.71393 10.4695 9.80422 10.7158 9.88777C10.7453 9.90987 10.7737 9.93067 10.8017 9.95455C10.7858 10.082 10.6071 10.3811 10.6162 10.5883C10.6222 10.7275 10.7706 11.0692 10.6796 11.1997C10.666 11.2192 10.5919 11.2324 10.5621 11.2389C10.3775 11.4797 10.3893 11.451 10.1751 11.6448C10.1396 11.6464 10.1081 11.6479 10.0724 11.6472C9.76334 11.5035 9.55181 11.4431 9.22223 11.2688C9.10581 11.364 9.11955 11.5795 9.03101 11.6099C8.8847 11.6603 8.5809 11.1621 8.45968 11.0843C8.44777 11.0767 8.31827 11.1262 8.2452 11.1083C7.68617 10.3999 7.06092 9.58656 6.94989 8.68042C6.93765 8.5545 6.94828 8.36811 6.96464 8.24392C6.99285 8.18759 6.98696 8.17568 7.03248 8.14641L7.06103 8.15951C7.10383 8.28213 7.06971 8.33436 7.10945 8.44028Z" fill="url(#paint12_linear_302_8167)"/>
<path d="M6.96464 8.24392C6.99285 8.18759 6.98696 8.17568 7.03248 8.14641L7.06103 8.15951C7.10383 8.28213 7.06971 8.33436 7.10945 8.44028L7.11178 8.45165C7.14412 8.61255 7.22799 8.62053 7.31096 8.84153C7.39628 8.85608 7.46941 8.89047 7.55077 8.87996C7.58271 8.85657 7.60976 8.83635 7.64048 8.81091C7.69435 8.76445 7.68806 8.75453 7.74745 8.74467C7.75635 8.80401 7.71984 8.84244 7.68228 8.89268C7.71773 9.00167 7.73231 9.03628 7.71227 9.1526C7.64705 9.35004 7.62751 9.47385 7.67727 9.67777L7.68868 9.72531C7.7731 9.88982 7.87272 10.0981 8.01908 10.2182C8.15215 10.5724 8.89294 11.0708 9.22223 11.2688C9.10581 11.364 9.11955 11.5795 9.03101 11.6099C8.8847 11.6603 8.5809 11.1621 8.45968 11.0843C8.44777 11.0767 8.31827 11.1262 8.2452 11.1083C7.68617 10.3999 7.06092 9.58656 6.94989 8.68042C6.93765 8.5545 6.94828 8.36811 6.96464 8.24392Z" fill="#FDD22A"/>
<path d="M7.64048 8.81091C7.69435 8.76445 7.68806 8.75453 7.74745 8.74467C7.75635 8.80401 7.71984 8.84244 7.68228 8.89268C7.71773 9.00167 7.73231 9.03628 7.71227 9.1526C7.64705 9.35004 7.62751 9.47385 7.67727 9.67777L7.68868 9.72531C7.61277 9.6368 7.461 9.31112 7.40808 9.20014C7.40396 9.08182 7.33217 8.97192 7.31096 8.84153C7.39628 8.85608 7.46941 8.89047 7.55077 8.87996C7.58271 8.85657 7.60976 8.83635 7.64048 8.81091Z" fill="#FEF073"/>
<path d="M7.11178 8.45165C7.14412 8.61255 7.22799 8.62053 7.31096 8.84153C7.33217 8.97192 7.40396 9.08182 7.40808 9.20014C7.34591 9.15103 7.26856 8.85252 7.24435 8.76375C7.23116 8.82493 7.20389 8.91505 7.1567 8.95796L7.17105 8.95478L7.15241 8.95289C7.11173 8.85484 7.09976 8.55892 7.11178 8.45165Z" fill="#FEF073"/>
<path d="M7.89476 8.97008C8.19411 9.17071 8.36858 9.5304 8.37404 9.8799C8.37799 10.1337 8.3092 10.2941 8.01908 10.2182C7.87272 10.0981 7.7731 9.88982 7.68868 9.72531L7.67727 9.67777C7.62751 9.47385 7.64705 9.35004 7.71227 9.1526C7.76542 9.05541 7.80065 9.03202 7.89476 8.97008Z" fill="#FDFCFA"/>
<path d="M9.27933 10.2908C9.37711 10.3039 9.41707 10.3725 9.42247 10.4589C9.38841 10.5259 9.39687 10.5061 9.32508 10.5542C9.1924 10.5509 9.11555 10.4017 9.27933 10.2908Z" fill="#F8F0E3"/>
<path d="M9.83525 10.83C9.9062 10.862 9.94571 10.8964 9.96007 10.9724C9.9382 11.0521 9.94983 11.0235 9.87932 11.0931C9.8545 11.0873 9.81126 11.0676 9.79367 11.0495C9.69177 10.944 9.7452 10.9001 9.83525 10.83Z" fill="#F8F0E3"/>
<path d="M8.15738 7.09208C8.51667 6.97636 9.23119 6.88062 9.57257 7.03403L9.55047 7.05511C9.63818 7.07451 9.67525 7.06459 9.71465 7.12992C9.74843 7.18593 9.84254 7.23045 9.9047 7.26171C9.86686 7.34278 9.44 7.24996 9.34011 7.24694C9.28501 7.29702 9.18272 7.37712 9.19274 7.45873C9.21923 7.67509 9.26459 7.88423 9.30471 8.10199C9.35357 8.36762 9.54652 8.66823 9.63996 8.92901C9.67302 9.02118 9.86786 9.15265 9.90086 9.25803C9.93531 9.35036 9.79562 9.41499 9.89407 9.54479C9.96976 9.57406 9.97655 9.56145 10.0056 9.61416C9.81348 9.6098 8.89233 9.05336 8.70745 8.9074C8.2314 8.53159 8.0035 7.81825 8.09961 7.22824C8.11035 7.20986 8.14692 7.11709 8.15738 7.09208Z" fill="#FEE541"/>
<path d="M10.7158 9.88777C10.8643 9.91607 11.0933 9.99444 11.2405 10.0447C11.2169 10.0521 11.0005 9.98032 10.9421 10.1521C10.8443 10.4395 10.8143 10.8268 10.8192 11.1186C11.5136 10.8584 10.8912 11.7205 11.0412 11.8537L11.0763 11.8501L11.0903 11.8185C11.0578 11.7612 11.0651 11.7861 11.0721 11.716C11.0988 11.6755 11.1108 11.6742 11.1554 11.6545L11.2025 11.6594C11.2347 11.708 11.2253 11.6899 11.2233 11.7571C11.1948 11.8116 11.1898 11.8124 11.1361 11.8482C11.218 11.8887 11.7779 11.8911 11.9164 11.8945C11.8334 11.91 11.6723 11.9016 11.583 11.9027C11.0536 11.91 10.5689 11.8303 10.0724 11.6472C10.1081 11.6479 10.1396 11.6464 10.1751 11.6448C10.3893 11.451 10.3775 11.4797 10.5621 11.2389C10.5919 11.2324 10.666 11.2192 10.6796 11.1997C10.7706 11.0692 10.6222 10.7275 10.6162 10.5883C10.6071 10.3811 10.7858 10.082 10.8017 9.95455C10.7737 9.93067 10.7453 9.90987 10.7158 9.88777Z" fill="#FEE541"/>
<path d="M12.8562 17.5595C12.7656 17.3943 12.7021 17.5494 12.8328 17.3639C12.8772 17.3008 12.8247 17.0142 12.8662 16.9042C12.9098 16.7886 12.9989 16.7222 13.0213 16.6223C13.0316 16.9403 13.0691 17.2398 13.0314 17.5597C13.0292 17.5784 13.0785 17.6184 13.0937 17.6293C13.0818 17.7479 13.0658 18.1068 13.0495 18.1835C12.9642 18.5841 12.8345 19.0378 12.745 19.4311C12.6915 19.6658 12.496 20.9505 12.3927 21.0653C12.3778 20.9942 12.499 20.5899 12.5192 20.4803C12.6003 20.0392 12.6585 19.6145 12.7591 19.175C12.8062 19.0212 12.8242 18.852 12.8632 18.6976C12.9375 18.4037 13.0659 17.9278 13.0061 17.6247C12.9639 17.5786 12.9196 17.5756 12.8562 17.5595Z" fill="#F7AD0B"/>
<path d="M12.4585 13.8345C12.6253 13.7568 12.9295 13.5859 13.0525 13.839C13.0705 13.8762 13.0629 13.9064 13.054 13.9454C12.9487 14.1002 12.6717 14.0313 12.5256 13.9745C12.4729 13.9039 12.4627 13.9136 12.4585 13.8345Z" fill="#FDD22A"/>
<path d="M12.1302 13.8281C12.1627 13.7925 12.1699 13.787 12.1815 13.7385L12.2295 13.7006C12.2857 13.7071 12.3855 13.7927 12.4398 13.8321C12.2602 13.8854 12.2671 13.7814 12.1794 13.8566L12.1601 13.9084C12.1512 13.8789 12.1416 13.8565 12.1302 13.8281Z" fill="#FDD22A"/>
<path d="M12.0318 12.2572C12.1158 12.2573 12.1676 12.2903 12.1774 12.3723C12.2071 12.6223 12.0825 12.6863 11.8872 12.718C11.6852 12.6338 11.6686 12.2821 12.0318 12.2572Z" fill="#FDD22A"/>
<path d="M12.0853 13.015C12.3341 13.0035 12.5676 13.1708 12.3449 13.3902C12.1058 13.4395 11.9424 13.2211 12.0853 13.015Z" fill="#FDD22A"/>
<path d="M13.1947 12.7878C13.355 12.7817 13.4583 12.9271 13.3891 13.0697C13.3644 13.1205 13.3041 13.1291 13.2525 13.1461C12.9628 13.1112 12.9828 12.9269 13.1947 12.7878Z" fill="#FDD22A"/>
<path d="M11.2053 12.0116C11.4688 12.1137 11.3628 12.2803 11.2064 12.4125C11.0043 12.2852 10.9614 12.1174 11.2053 12.0116Z" fill="#FDD22A"/>
<path d="M14.2329 13.9299C14.3282 13.9578 14.4395 14.0271 14.4543 14.1278C14.4208 14.1875 14.4014 14.182 14.3295 14.2169C14.2181 14.2273 14.1335 14.248 14.0894 14.1291C14.106 14.0251 14.1519 13.9932 14.2329 13.9299Z" fill="#F7AD0B"/>
<path d="M9.84843 11.6286C10.0705 11.6933 10.0061 11.8045 9.87209 11.9153C9.65282 11.8433 9.6408 11.7285 9.84843 11.6286Z" fill="#FEF073"/>
<path d="M15.7798 10.6138C15.8897 10.6377 16.0072 10.6493 16.0857 10.7249C16.1098 10.7892 16.1064 10.7625 16.0835 10.8366C15.8772 10.8528 15.7736 10.8359 15.7798 10.6138Z" fill="#FDD22A"/>
<path d="M17.3099 10.6126C17.3812 10.6242 17.4839 10.6512 17.5406 10.6943C17.5652 10.7504 17.5596 10.7287 17.5364 10.8014C17.4535 10.7712 17.2806 10.7313 17.2688 10.6461L17.3099 10.6126Z" fill="#FEE541"/>
<path d="M18.2721 10.4403C18.3394 10.4489 18.3578 10.4571 18.3901 10.512C18.3883 10.5766 18.3694 10.594 18.3327 10.6517C18.2932 10.6512 18.313 10.6544 18.2741 10.6259C18.2482 10.5645 18.2638 10.5084 18.2721 10.4403Z" fill="#FDD22A"/>
<path d="M12.3633 12.7304C12.4911 12.7613 12.4993 12.83 12.48 12.9419C12.3725 12.9038 12.3436 12.8428 12.3633 12.7304Z" fill="#F7BA0C"/>
<path d="M4.77283 22.3606C4.3014 22.4124 3.5347 23.1332 3.22728 23.4569C3.17432 23.5127 2.9196 23.4981 2.85389 23.5331C2.84909 23.513 2.95633 23.1277 2.97014 23.0779C3.26611 22.0317 3.589 20.976 3.96837 19.955C4.39233 18.8142 5.94058 17.9907 7.07244 17.6268C8.12087 17.3081 9.17415 17.0528 10.2836 17.0836C10.9062 17.101 11.5217 17.2312 12.1316 17.3397L12.145 17.3727C12.2046 18.1484 12.297 18.8088 12.1562 19.5943L12.1947 19.647C12.178 19.7232 12.1605 19.7992 12.1419 19.875L12.1028 19.9178C12.1004 20.1258 11.9501 20.7947 11.8765 20.9986C10.7418 20.4667 9.19057 21.0834 8.07758 21.5057C7.22571 21.8289 6.38446 21.9876 5.4677 22.129C5.27832 22.1582 4.91057 22.3488 4.77283 22.3606Z" fill="#F8F0E3"/>
<path d="M12.1028 19.9178C11.8858 19.903 11.8331 19.6019 12.1562 19.5943L12.1947 19.647C12.178 19.7232 12.1605 19.7992 12.1419 19.875L12.1028 19.9178Z" fill="#FDFCFA"/>
<path d="M11.7406 17.4395C11.9638 17.4458 11.9425 17.5923 11.8481 17.7359C11.6665 17.7039 11.6477 17.5742 11.7406 17.4395Z" fill="#FDFCFA"/>
<path d="M11.3476 20.3198C11.3702 20.292 11.4118 20.2868 11.4408 20.3084C11.4699 20.3299 11.4758 20.3701 11.4539 20.3985C11.4396 20.4173 11.4159 20.4271 11.392 20.4242C11.368 20.4213 11.3475 20.4062 11.3384 20.3846C11.3292 20.3629 11.3327 20.3382 11.3476 20.3198Z" fill="#FDFCFA"/>
<path d="M13.4024 17.7727C13.554 17.8223 13.7468 17.9633 13.896 18.0404C15.0116 18.6174 15.8784 19.4321 16.7347 20.3059C17.7116 21.3028 18.4112 22.437 18.0574 23.8683C18.0476 23.9082 18.0249 23.933 17.9934 23.9585C17.6067 23.7972 17.2581 23.7253 16.8589 23.6128C15.6931 23.2841 14.6081 22.7687 13.6504 22.0441C13.5193 21.9449 13.3717 21.8358 13.2323 21.7482C13.1297 21.6495 12.835 21.5096 12.8071 21.4335C12.9621 20.8581 12.96 20.4815 13.0363 19.9025C13.0765 19.5963 13.1794 19.1834 13.2386 18.869C13.3042 18.5051 13.3588 18.1396 13.4024 17.7727Z" fill="#F8F0E3"/>
<path d="M6.93253 3.79139C7.03393 3.78939 7.52038 4.14914 7.65679 4.21986C10.3042 5.59188 13.4308 6.42623 16.3529 7.00428C16.7044 7.0758 17.0569 7.1421 17.4104 7.20312C17.4851 7.21557 17.7407 7.26107 17.8106 7.26414C18.9697 7.55074 20.4844 7.57736 21.6809 7.67649C21.9109 7.69552 23.5121 7.60771 23.4844 7.59353C23.4405 7.72026 23.3846 8.05326 23.3452 8.21556L22.9282 9.94302C22.8751 10.1653 22.7611 10.6968 22.6888 10.8972C22.6675 10.9213 22.6272 10.9684 22.6011 10.9835C22.6336 10.7359 22.7735 10.2619 22.8325 10.0019C23.0107 9.21647 23.2303 8.4309 23.3958 7.64226C23.3012 7.65811 23.1995 7.67051 23.1039 7.68382C21.9781 7.79055 20.9019 7.71352 19.781 7.59838C18.1169 7.4232 16.4667 7.14049 14.8415 6.75218C13.0612 6.34414 11.2829 5.85002 9.58926 5.17824C8.83528 4.87919 7.95136 4.49767 7.27763 4.05745C7.17373 4.21598 6.85845 5.81094 6.77737 6.10702C6.76401 6.18642 6.73363 6.25924 6.71125 6.33611C6.69217 6.4016 6.69361 6.53258 6.67324 6.58961C6.21756 7.86628 6.3464 8.69572 7.04745 9.84659C7.66046 10.8313 8.4387 11.7101 9.35012 12.4468C9.44429 12.5227 9.54151 12.5808 9.64224 12.6543C9.78249 12.7569 9.93887 12.9049 10.0851 12.9986C10.3639 13.1771 10.6214 13.3296 10.9039 13.5111C11.1985 13.7004 11.6063 13.8529 11.8882 14.0655C11.9174 14.0875 12.0208 14.297 12.0337 14.352C12.0659 14.4891 12.058 14.6182 12.1027 14.7572C12.1371 14.7573 12.1204 14.7545 12.1529 14.7653C12.182 14.8401 12.1817 14.9287 12.1864 15.0094C12.1379 15.4562 12.0037 15.8681 12.0401 16.3285C12.0568 16.5396 12.0532 16.7524 12.0931 16.9641C12.1019 17.014 12.1341 17.2971 12.1316 17.3397C11.5217 17.2312 10.9062 17.101 10.2836 17.0836C9.17415 17.0528 8.12087 17.3081 7.07244 17.6268C5.94058 17.9907 4.39233 18.8142 3.96837 19.955C3.589 20.976 3.26611 22.0317 2.97014 23.0779C2.95633 23.1277 2.84909 23.513 2.85389 23.5331C2.9196 23.4981 3.17432 23.5127 3.22728 23.4569C3.5347 23.1332 4.3014 22.4124 4.77283 22.3606C4.11145 22.6801 3.68033 23.0112 3.20711 23.5562C3.08049 23.5493 3.04517 23.5462 2.92315 23.566L2.90024 23.5696C2.89568 23.5704 2.89111 23.5712 2.88654 23.5721C2.80438 23.6182 2.77697 23.5594 2.72453 23.6256C2.72343 23.6602 2.72199 23.6918 2.72294 23.7265C2.47756 23.85 2.57067 23.9496 2.4231 24.0233C2.36367 24.0479 2.30268 24.0707 2.24744 24.1027C2.17774 24.0873 2.17915 24.0777 2.14488 24.0298L2.10845 24.0233C2.06696 23.9417 2.14931 23.6863 2.17495 23.5829C1.89966 23.6139 1.67535 23.6374 1.4068 23.7094C1.08725 23.8189 0.768476 23.9313 0.698221 24.2938L0.246112 26.1525C0.180169 26.4256 0.0859556 26.7642 0.0541725 27.0415C0.0470713 27.1034 0.125714 27.264 0.148431 27.3367C0.0767118 27.2552 0.0153161 27.1633 0.000468051 27.0549C-0.018899 26.9136 0.568701 24.4825 0.660004 24.1892C0.680368 24.1238 0.710481 24.0626 0.753211 24.0081C1.05175 23.627 1.73753 23.5984 2.19017 23.5358C2.38007 22.7095 2.57664 21.8846 2.77985 21.0613C2.89194 20.5992 3.00589 20.0516 3.16759 19.6079C3.27003 19.3268 3.51962 18.9639 3.74538 18.7522C5.11564 17.4673 7.37992 16.8694 9.2308 16.6276C9.7191 16.5896 10.2279 16.5342 10.7181 16.5526C10.9682 16.562 11.3771 16.4415 11.4487 16.1767C11.5895 15.6559 11.7432 15.1041 11.808 14.5692C11.8244 14.4327 11.6495 14.1863 11.5436 14.0878C11.2522 13.9421 10.9431 13.7777 10.6649 13.6012C9.84098 13.0784 9.03001 12.5084 8.33291 11.8267C7.26132 10.7787 6.08528 9.39122 6.10932 7.83178C6.12073 7.46832 6.26882 6.88019 6.35603 6.52288L6.69818 5.13166C6.78783 4.76464 6.91155 4.24972 7.0061 3.87046C7.01033 3.85348 6.95351 3.81047 6.93253 3.79139Z" fill="url(#paint13_linear_302_8167)"/>
<path d="M6.93253 3.79139C7.03393 3.78939 7.52038 4.14914 7.65679 4.21986C10.3042 5.59188 13.4308 6.42623 16.3529 7.00428C16.7044 7.0758 17.0569 7.1421 17.4104 7.20312C17.4851 7.21557 17.7407 7.26107 17.8106 7.26414C18.9697 7.55074 20.4844 7.57736 21.6809 7.67649C21.9109 7.69552 23.5121 7.60771 23.4844 7.59353C23.4405 7.72026 23.3846 8.05326 23.3452 8.21556L22.9282 9.94302C22.8751 10.1653 22.7611 10.6968 22.6888 10.8972C22.6675 10.9213 22.6272 10.9684 22.6011 10.9835C22.6336 10.7359 22.7735 10.2619 22.8325 10.0019C23.0107 9.21647 23.2303 8.4309 23.3958 7.64226C23.3012 7.65811 23.1995 7.67051 23.1039 7.68382C21.9781 7.79055 20.9019 7.71352 19.781 7.59838C18.1169 7.4232 16.4667 7.14049 14.8415 6.75218C13.0612 6.34414 11.2829 5.85002 9.58926 5.17824C8.83528 4.87919 7.95136 4.49767 7.27763 4.05745C7.2114 4.00888 7.13538 3.95547 7.07205 3.90501C6.886 4.61663 6.72005 5.35681 6.54424 6.07333C6.4385 6.57354 6.26615 7.10087 6.19547 7.6034C6.09179 8.4081 6.42142 9.29598 6.85144 9.97072C7.8494 11.5368 9.38201 12.7952 10.9958 13.7401C11.2814 13.9194 11.6841 14.0124 11.8117 14.3538C11.8254 14.3905 11.8971 14.5777 11.8929 14.6065C11.8245 15.0657 11.68 15.5157 11.5863 15.972C11.5342 16.2257 11.4081 16.3998 11.1777 16.5307C10.9478 16.6613 10.598 16.6142 10.3258 16.6154C10.0161 16.6173 9.70674 16.6345 9.39887 16.6669C7.45894 16.8657 4.70042 17.5898 3.47307 19.1828C3.13726 19.6187 2.87318 21.0033 2.7298 21.5936C2.5295 22.4044 2.33452 23.2165 2.14488 24.0298L2.10845 24.0233C2.06696 23.9417 2.14931 23.6863 2.17495 23.5829C1.89966 23.6139 1.67535 23.6374 1.4068 23.7094C1.08725 23.8189 0.768476 23.9313 0.698221 24.2938L0.246112 26.1525C0.180169 26.4256 0.0859556 26.7642 0.0541725 27.0415C0.0470713 27.1034 0.125714 27.264 0.148431 27.3367C0.0767118 27.2552 0.0153161 27.1633 0.000468051 27.0549C-0.018899 26.9136 0.568701 24.4825 0.660004 24.1892C0.680368 24.1238 0.710481 24.0626 0.753211 24.0081C1.05175 23.627 1.73753 23.5984 2.19017 23.5358C2.38007 22.7095 2.57664 21.8846 2.77985 21.0613C2.89194 20.5992 3.00589 20.0516 3.16759 19.6079C3.27003 19.3268 3.51962 18.9639 3.74538 18.7522C5.11564 17.4673 7.37992 16.8694 9.2308 16.6276C9.7191 16.5896 10.2279 16.5342 10.7181 16.5526C10.9682 16.562 11.3771 16.4415 11.4487 16.1767C11.5895 15.6559 11.7432 15.1041 11.808 14.5692C11.8244 14.4327 11.6495 14.1863 11.5436 14.0878C11.2522 13.9421 10.9431 13.7777 10.6649 13.6012C9.84098 13.0784 9.03001 12.5084 8.33291 11.8267C7.26132 10.7787 6.08528 9.39122 6.10932 7.83178C6.12073 7.46832 6.26882 6.88019 6.35603 6.52288L6.69818 5.13166C6.78783 4.76464 6.91155 4.24972 7.0061 3.87046C7.01033 3.85348 6.95351 3.81047 6.93253 3.79139Z" fill="#995206"/>
<path d="M2.51223 23.5371C2.63396 23.5511 2.76386 23.5608 2.88654 23.5721C2.80438 23.6182 2.77697 23.5594 2.72453 23.6256C2.72343 23.6602 2.72199 23.6918 2.72294 23.7265C2.47756 23.85 2.57067 23.9496 2.4231 24.0233C2.41 23.9182 2.48338 23.6563 2.51223 23.5371Z" fill="#FEF073"/>
<path d="M23.1039 7.68382C23.1995 7.67051 23.3012 7.65811 23.3958 7.64226C23.2303 8.4309 23.0107 9.21647 22.8325 10.0019C22.7735 10.2619 22.6336 10.7359 22.6011 10.9835C22.6272 10.9684 22.6675 10.9213 22.6888 10.8972C22.2538 13.284 18.4947 14.421 16.3755 14.6835C15.8584 14.7476 15.2916 14.8137 14.7705 14.7895C14.5348 14.9242 14.3615 14.9946 14.2951 15.295C14.182 15.8007 14.0138 16.3135 13.9421 16.8244C13.9279 16.925 14.1044 17.2313 14.2028 17.2788C15.0613 17.693 15.8942 18.1702 16.6526 18.7577C17.9824 19.7877 19.5516 21.2343 19.7789 22.9571C19.7948 23.7636 19.5858 24.2072 19.4141 25.0263C19.3056 25.5437 18.9928 26.7216 18.8649 27.3036C18.8642 27.3068 18.8833 27.3384 18.8886 27.3422C18.8032 27.4256 18.7761 27.7657 18.6978 27.8507C18.6681 27.8391 18.6782 27.8486 18.6644 27.8255L18.6342 27.8532C18.5575 27.7587 18.5112 27.7014 18.4484 27.5988L18.546 27.1964C18.6764 26.7252 18.8242 26.1077 18.9259 25.6319C19.0431 24.9832 19.5523 23.5301 19.4419 22.9043C19.0685 20.7882 16.8418 19.1207 15.0661 18.0634C14.7079 17.8501 14.1156 17.69 13.8737 17.3972C13.4934 16.9372 13.8025 16.2403 13.8989 15.7399C13.9595 15.4436 14.0754 14.9615 14.2913 14.7505C14.4688 14.5771 14.8205 14.5845 15.0517 14.5816C15.2492 14.5795 15.4466 14.571 15.6435 14.5563C16.0885 14.5246 16.6866 14.4255 17.1341 14.3351C18.9753 13.9632 21.028 13.2072 22.093 11.6121C22.2486 11.3791 22.3862 10.7384 22.4555 10.4537L22.7485 9.22758C22.8614 8.7527 23.0241 8.15261 23.1039 7.68382Z" fill="#F8F0E3"/>
<path d="M22.6011 10.9835C22.6272 10.9684 22.6675 10.9213 22.6888 10.8972C22.2538 13.284 18.4947 14.421 16.3755 14.6835C15.8584 14.7476 15.2916 14.8137 14.7705 14.7895C14.5348 14.9242 14.3615 14.9946 14.2951 15.295C14.182 15.8007 14.0138 16.3135 13.9421 16.8244C13.9279 16.925 14.1044 17.2313 14.2028 17.2788C15.0613 17.693 15.8942 18.1702 16.6526 18.7577C17.9824 19.7877 19.5516 21.2343 19.7789 22.9571C19.7948 23.7636 19.5858 24.2072 19.4141 25.0263C19.3056 25.5437 18.9928 26.7216 18.8649 27.3036C18.8642 27.3068 18.8833 27.3384 18.8886 27.3422C18.8032 27.4256 18.7761 27.7657 18.6978 27.8507C18.6681 27.8391 18.6782 27.8486 18.6644 27.8255C18.7348 27.5612 18.7899 27.2793 18.853 27.0115L19.4786 24.4C19.5696 24.0257 19.7512 23.3944 19.7174 23.026C19.5311 20.9996 17.149 19.0627 15.5501 18.0739C15.3025 17.9218 15.0498 17.7775 14.7925 17.6413C14.1691 17.3166 14.1344 17.4833 13.8573 16.8079C13.9145 16.5198 13.9973 16.2043 14.0651 15.9164C14.1121 15.7168 14.1739 15.4223 14.2342 15.2317C14.3059 15.0102 14.4839 14.836 14.712 14.7645C14.7949 14.738 15.2036 14.7392 15.3219 14.7332C15.5718 14.7185 15.8213 14.6981 16.0702 14.6719C17.4574 14.5239 19.0427 14.1009 20.2833 13.47C21.0072 13.1019 21.8691 12.4545 22.2889 11.7577C22.4342 11.5165 22.5169 11.2483 22.6011 10.9835Z" fill="#B5680B"/>
<path d="M6.94989 8.68042L6.94082 8.76828L6.92373 8.7548C6.85545 8.56291 6.77069 7.21072 6.89864 7.07192C6.91767 7.24894 6.78394 7.74888 6.90431 7.90918C7.03894 7.95328 7.11651 7.67649 7.18508 7.59979C7.29961 7.47155 7.45188 7.3935 7.55355 7.25492C7.76258 6.97005 7.54253 6.68426 7.67026 6.3948C7.75106 6.19758 8.01847 6.13117 8.19979 6.21844C8.43932 6.46531 8.32172 6.54697 8.38728 6.77697C8.41917 6.81934 8.44099 6.81804 8.49831 6.83346L8.51868 6.8388C8.56042 6.88343 8.54684 6.87308 8.55151 6.94994C8.64723 6.96331 8.84447 6.92499 8.9492 6.92364C9.15389 6.92094 9.49855 6.96649 9.69333 7.015L9.68893 7.04707L9.57257 7.03403C9.23119 6.88062 8.51667 6.97636 8.15738 7.09208C8.14692 7.11709 8.11035 7.20986 8.09961 7.22824C8.01647 7.23589 7.61388 7.47641 7.52072 7.53128C7.15981 7.74381 7.11557 8.06372 7.10945 8.44028C7.06971 8.33436 7.10383 8.28213 7.06103 8.15951L7.03248 8.14641C6.98696 8.17568 6.99285 8.18759 6.96464 8.24392C6.94828 8.36811 6.93765 8.5545 6.94989 8.68042Z" fill="#FDFCFA"/>
<path d="M6.96464 8.24392C7.02881 7.55564 7.55678 7.30117 8.15738 7.09208C8.14692 7.11709 8.11035 7.20986 8.09961 7.22824C8.01647 7.23589 7.61388 7.47641 7.52072 7.53128C7.15981 7.74381 7.11557 8.06372 7.10945 8.44028C7.06971 8.33436 7.10383 8.28213 7.06103 8.15951L7.03248 8.14641C6.98696 8.17568 6.99285 8.18759 6.96464 8.24392Z" fill="#FEF073"/>
<defs>
<linearGradient id="paint0_linear_302_8167" x1="23.9923" y1="19.6468" x2="5.73307" y2="6.2252" gradientUnits="userSpaceOnUse">
<stop stop-color="#DDC2A2"/>
<stop offset="1" stop-color="#FBF1E4"/>
</linearGradient>
<linearGradient id="paint1_linear_302_8167" x1="14.594" y1="1.33336" x2="1.34655" y2="6.97078" gradientUnits="userSpaceOnUse">
<stop stop-color="#FFC202"/>
<stop offset="1" stop-color="#FFE025"/>
</linearGradient>
<linearGradient id="paint2_linear_302_8167" x1="15.9294" y1="20.0495" x2="16.2262" y2="7.70748" gradientUnits="userSpaceOnUse">
<stop stop-color="#F9B002"/>
<stop offset="1" stop-color="#FFCB15"/>
</linearGradient>
<linearGradient id="paint3_linear_302_8167" x1="19.8286" y1="46.4476" x2="-6.14905" y2="40.9413" gradientUnits="userSpaceOnUse">
<stop stop-color="#E58400"/>
<stop offset="1" stop-color="#FFD912"/>
</linearGradient>
<linearGradient id="paint4_linear_302_8167" x1="22.8354" y1="32.3943" x2="-6.26964" y2="19.908" gradientUnits="userSpaceOnUse">
<stop stop-color="#FFCC0C"/>
<stop offset="1" stop-color="#FFEC34"/>
</linearGradient>
<linearGradient id="paint5_linear_302_8167" x1="13.0402" y1="7.12884" x2="2.06836" y2="10.8201" gradientUnits="userSpaceOnUse">
<stop stop-color="#FFF58F"/>
<stop offset="1" stop-color="#FDFFE4"/>
</linearGradient>
<linearGradient id="paint6_linear_302_8167" x1="15.5508" y1="4.25472" x2="2.7607" y2="15.16" gradientUnits="userSpaceOnUse">
<stop stop-color="#FEB500"/>
<stop offset="1" stop-color="#FFEE2E"/>
</linearGradient>
<linearGradient id="paint7_linear_302_8167" x1="14.0309" y1="33.3904" x2="2.94097" y2="16.4209" gradientUnits="userSpaceOnUse">
<stop stop-color="#F19200"/>
<stop offset="1" stop-color="#FFFE54"/>
</linearGradient>
<linearGradient id="paint8_linear_302_8167" x1="12.7825" y1="33.9222" x2="5.23221" y2="-0.157759" gradientUnits="userSpaceOnUse">
<stop stop-color="#E17F01"/>
<stop offset="1" stop-color="#EDA305"/>
</linearGradient>
<linearGradient id="paint9_linear_302_8167" x1="6.67629" y1="26.1817" x2="12.7349" y2="15.9452" gradientUnits="userSpaceOnUse">
<stop stop-color="#EE8800"/>
<stop offset="1" stop-color="#FDC718"/>
</linearGradient>
<linearGradient id="paint10_linear_302_8167" x1="13.0682" y1="23.6909" x2="5.54025" y2="11.702" gradientUnits="userSpaceOnUse">
<stop stop-color="#FEE04A"/>
<stop offset="1" stop-color="#FFF58D"/>
</linearGradient>
<linearGradient id="paint11_linear_302_8167" x1="19.0915" y1="24.3807" x2="1.65411" y2="2.57681" gradientUnits="userSpaceOnUse">
<stop stop-color="#F08B00"/>
<stop offset="1" stop-color="#FFE534"/>
</linearGradient>
<linearGradient id="paint12_linear_302_8167" x1="24.8948" y1="27.7831" x2="-0.839906" y2="7.69919" gradientUnits="userSpaceOnUse">
<stop stop-color="#FEE045"/>
<stop offset="1" stop-color="#FFF799"/>
</linearGradient>
<linearGradient id="paint13_linear_302_8167" x1="8.71631" y1="23.8961" x2="-1.72196" y2="5.60264" gradientUnits="userSpaceOnUse">
<stop stop-color="#F1DFC8"/>
<stop offset="1" stop-color="#FEFCF7"/>
</linearGradient>
</defs>
</svg>
