<svg width="34" height="36" viewBox="0 0 34 36" fill="none" xmlns="http://www.w3.org/2000/svg">
<g clip-path="url(#clip0_2018_6731)">
<path d="M11.9103 0.902468C13.3524 0.276004 15.5134 0.106471 17.0566 0.140761C19.5867 0.0455873 23.1762 1.11416 25.285 2.61286C25.4339 2.71863 25.4191 2.83357 25.4245 2.99533C25.3579 3.17131 25.2224 3.50301 25.1903 3.67258C29.0137 5.99659 31.8575 9.33901 33.0071 13.7373C33.5121 15.669 33.6196 18.9585 33.2772 20.9538C33.1991 21.5026 33.1221 22.0686 33.01 22.6053C32.3906 25.5719 30.9023 28.3889 28.7502 30.5357C28.7369 30.5489 28.6963 30.5717 28.6782 30.5817C28.2413 31.0998 26.8905 32.1816 26.3076 32.5901C25.1095 33.3551 24.3436 33.7479 23.0304 34.3149C22.8138 34.3901 22.5891 34.465 22.3746 34.5438C22.1276 34.6217 21.3948 34.8747 21.1716 34.8628C19.8002 35.4817 16.5593 35.4679 15.0061 35.3004C11.4039 34.9123 6.92952 32.7216 4.66817 29.8559C4.46032 29.6711 3.83268 28.8815 3.65606 28.6417C2.06541 26.4968 1.0544 23.9808 0.719976 21.3347C0.623538 20.5759 0.488956 19.9781 0.430017 19.1718C0.228769 16.4189 0.615128 13.7019 1.76072 11.1763C2.92798 8.60471 4.73198 6.37099 7.00326 4.68489C7.45344 4.34544 8.02663 3.89565 8.54994 3.69849C8.39479 3.33085 8.33866 3.20463 8.27757 2.79942C8.82382 2.25229 9.88478 1.67914 10.6112 1.42432C11.0079 1.21264 11.4851 1.04541 11.9103 0.902468ZM9.61161 17.9231L9.69425 17.935C10.5211 17.9359 11.4507 17.957 12.2693 17.9306L12.4756 17.8653L12.5221 17.5399C12.4628 17.5188 10.0862 17.5384 9.80292 17.538C9.52677 17.561 8.74876 17.6597 8.54927 17.5697L8.36674 17.3407C8.33996 17.3472 8.31332 17.3541 8.28684 17.3616C7.75057 17.5116 7.89839 17.6121 7.22627 17.6459C7.45864 17.661 7.571 17.6285 7.73744 17.7447L7.70262 17.7867C7.52848 17.7732 7.38182 17.7508 7.21236 17.7982C7.60256 17.9376 9.00732 17.8359 9.61161 17.9231Z" fill="url(#paint0_linear_2018_6731)"/>
<path d="M7.22628 17.6459C7.89839 17.6121 7.75057 17.5116 8.28684 17.3616C8.31332 17.3541 8.33996 17.3472 8.36674 17.3407L8.54927 17.5697C8.74876 17.6597 9.52677 17.561 9.80292 17.538C10.0862 17.5384 12.4628 17.5188 12.5221 17.5399L12.4756 17.8653L12.2693 17.9306C11.4507 17.957 10.5211 17.9359 9.69425 17.935L9.61161 17.9231C9.00732 17.8359 7.60256 17.9376 7.21236 17.7982C7.38183 17.7508 7.52848 17.7732 7.70262 17.7867L7.73744 17.7447C7.571 17.6285 7.45864 17.661 7.22628 17.6459Z" fill="url(#paint1_linear_2018_6731)"/>
<path d="M11.9103 0.902468C13.3524 0.276004 15.5134 0.106471 17.0566 0.140761C19.5867 0.0455873 23.1762 1.11416 25.285 2.61286C25.4339 2.71863 25.4191 2.83357 25.4245 2.99533C25.3579 3.17131 25.2224 3.50301 25.1903 3.67258C24.5753 4.31116 23.9381 5.2646 23.3607 5.96366L23.3437 6.02285L22.9995 5.836L22.8892 5.80907C22.6345 5.51605 21.0648 4.96128 20.6397 4.80957C20.1448 4.60585 19.4625 4.55453 18.9146 4.34875C18.7294 4.53589 18.2416 5.06406 18.2001 5.30436C18.0913 5.4608 17.9046 5.70949 17.8411 5.87763C17.7716 6.12254 17.7869 6.05755 17.5747 6.24092L17.3946 6.60605C17.2665 6.8923 16.9872 7.48051 16.9067 7.7558C16.8836 7.80649 16.8418 7.91007 16.8074 7.94705C16.8699 8.20802 16.8914 8.28969 16.8832 8.55704L16.8809 8.62467C16.8768 9.41119 16.8624 10.2238 16.8723 11.0079C16.8661 11.8769 16.841 12.8473 16.8745 13.7071C16.706 13.7455 16.5752 13.78 16.4003 13.788C15.868 13.8308 15.1703 14.0037 14.7315 14.3162L14.1589 14.6369C13.5864 14.0394 13.0138 13.2811 12.4119 12.6338L12.4199 12.5886C12.2939 12.4815 11.3812 11.3849 11.1767 11.1629C11.1544 11.0816 10.5622 10.3801 10.4667 10.2639L9.93902 9.65753C9.68004 9.23162 9.03356 8.54288 8.63701 8.2269C9.34203 7.66768 9.92784 7.34204 10.6416 6.84392C10.7552 6.36443 10.8022 6.48537 10.6248 5.9836L10.4151 6.03426L10.3053 5.9302C9.90367 5.33853 9.02472 4.25432 8.54994 3.6985C8.39479 3.33085 8.33866 3.20463 8.27757 2.79942C8.82382 2.25229 9.88478 1.67914 10.6112 1.42432C11.0079 1.21264 11.4851 1.04541 11.9103 0.902468Z" fill="url(#paint2_linear_2018_6731)"/>
<path d="M10.4667 10.2639C11.8333 9.28138 13.2544 8.5707 14.8959 8.2221C15.4546 8.10344 15.7892 7.94752 16.4005 7.96108C16.7361 8.13655 16.4456 8.38786 16.8832 8.55704L16.8809 8.62467C16.8768 9.41119 16.8624 10.2238 16.8723 11.0079C16.8661 11.8769 16.841 12.8473 16.8745 13.7071C16.706 13.7455 16.5752 13.78 16.4003 13.788C15.868 13.8308 15.1703 14.0037 14.7315 14.3162L14.1589 14.6369C13.5864 14.0394 13.0138 13.2811 12.4119 12.6338L12.4199 12.5886C12.2939 12.4815 11.3812 11.3849 11.1767 11.1629C11.1544 11.0816 10.5622 10.3801 10.4667 10.2639Z" fill="url(#paint3_linear_2018_6731)"/>
<path d="M12.4199 12.5886C13.3057 11.6526 15.5907 10.9131 16.8723 11.0079C16.8661 11.8769 16.841 12.8473 16.8745 13.7071C16.706 13.7455 16.5752 13.78 16.4003 13.788C15.868 13.8308 15.1703 14.0037 14.7315 14.3162L14.1589 14.6369C13.5864 14.0394 13.0138 13.2811 12.4119 12.6338L12.4199 12.5886Z" fill="url(#paint4_linear_2018_6731)"/>
<path d="M14.6316 3.91614L14.874 4.41564C15.088 4.63349 15.4055 5.04482 15.6461 5.14003L15.668 5.27283C15.7273 5.39849 15.8947 5.77202 15.9611 5.86702C16.2993 6.25241 16.5619 6.15587 17.0005 6.36729C17.1881 6.45771 17.1491 6.56796 17.3946 6.60605C17.2665 6.89231 16.9872 7.48051 16.9067 7.7558C16.8836 7.80649 16.8418 7.91007 16.8074 7.94705C16.8699 8.20803 16.8914 8.28969 16.8832 8.55704C16.4456 8.38787 16.7361 8.13655 16.4005 7.96108C15.7892 7.94753 15.4546 8.10344 14.8959 8.22211C13.2544 8.5707 11.8333 9.28138 10.4667 10.2639L9.93902 9.65753C9.68004 9.23162 9.03356 8.54288 8.63701 8.2269C9.34203 7.66768 9.92784 7.34204 10.6416 6.84392C10.7552 6.36443 10.8022 6.48537 10.6248 5.9836L10.6602 5.85977L10.8225 5.74965C10.7994 5.61449 10.8156 5.45524 10.8236 5.31641L11.3819 5.0265C11.8017 4.84083 12.2263 4.66634 12.6555 4.50323C13.2692 4.32193 14.114 4.20911 14.6316 3.91614Z" fill="url(#paint5_linear_2018_6731)"/>
<path d="M14.6316 3.91614L14.874 4.41564C15.088 4.63349 15.4055 5.04482 15.6461 5.14003L15.668 5.27283C15.1368 5.39441 14.5933 5.45728 14.0425 5.58C12.7555 5.8667 11.8149 6.29418 10.6416 6.84392C10.7552 6.36443 10.8022 6.48537 10.6248 5.9836L10.6602 5.85977L10.8225 5.74965C10.7994 5.61449 10.8156 5.45524 10.8236 5.31641L11.3819 5.0265C11.8017 4.84083 12.2263 4.66634 12.6555 4.50323C13.2692 4.32193 14.114 4.20911 14.6316 3.91614Z" fill="#E37205"/>
<path d="M14.6316 3.91614L14.874 4.41564C14.3347 4.5158 13.3577 4.67759 12.8816 4.8622C12.7891 4.79819 12.6963 4.73477 12.603 4.67195L12.6555 4.50323C13.2692 4.32193 14.114 4.20911 14.6316 3.91614Z" fill="#FEF8B6"/>
<path d="M11.3819 5.02651C11.8017 4.84084 12.2263 4.66635 12.6555 4.50323L12.603 4.67196C12.6963 4.73477 12.7891 4.7982 12.8816 4.8622C12.4637 5.01756 12.0387 5.17045 11.6274 5.34148C11.5095 5.30381 11.4279 5.33311 11.2715 5.28581L11.3819 5.02651Z" fill="#FEE357"/>
<path d="M10.8236 5.31641L11.3819 5.0265L11.2715 5.28581C11.4279 5.33311 11.5095 5.30381 11.6274 5.34148L10.8225 5.74965C10.7994 5.6145 10.8156 5.45525 10.8236 5.31641Z" fill="#FEE357"/>
<path d="M15.9611 5.86702C16.2993 6.2524 16.5619 6.15587 17.0005 6.36729C17.1881 6.45771 17.1491 6.56796 17.3946 6.60605C17.2665 6.8923 16.9872 7.48051 16.9067 7.7558C16.5941 7.58054 16.1251 6.26837 15.9611 5.86702Z" fill="#FFD13C"/>
<path d="M11.9103 0.902474C13.3524 0.276011 15.5134 0.106478 17.0566 0.140768L17.0691 0.151649C17.2755 0.326906 17.3423 0.293055 17.587 0.358684C17.5103 0.412941 17.2952 0.342034 17.0784 0.480441C15.2059 0.652121 13.8644 2.02932 14.6316 3.91614C14.114 4.20912 13.2692 4.32194 12.6555 4.50323C12.2263 4.66635 11.8017 4.84084 11.3819 5.0265L10.8236 5.31641C10.8156 5.45525 10.7994 5.6145 10.8225 5.74965L10.6602 5.85977L10.6248 5.9836L10.4151 6.03427L10.3053 5.93021C9.90367 5.33854 9.02472 4.25433 8.54994 3.6985C8.39479 3.33085 8.33866 3.20464 8.27757 2.79943C8.82382 2.25229 9.88478 1.67914 10.6112 1.42433C11.0079 1.21265 11.4851 1.04541 11.9103 0.902474Z" fill="url(#paint6_linear_2018_6731)"/>
<path d="M8.54994 3.6985C8.39479 3.33085 8.33866 3.20463 8.27757 2.79942C8.32293 2.84479 8.49811 3.02561 8.53788 3.05129L8.66644 3.03824C8.77349 3.14219 8.81431 3.2153 8.979 3.19312C9.69335 3.73897 10.1355 4.67698 10.8236 5.31641C10.8156 5.45524 10.7994 5.61449 10.8225 5.74965L10.6602 5.85977L10.6248 5.9836L10.4151 6.03426L10.3053 5.93021C9.90367 5.33853 9.02472 4.25433 8.54994 3.6985Z" fill="#FEE357"/>
<path d="M8.54994 3.6985C8.39479 3.33085 8.33866 3.20463 8.27757 2.79942C8.32293 2.84479 8.49811 3.02561 8.53788 3.05129C8.9837 3.70726 10.145 5.26656 10.6602 5.85977L10.6248 5.9836L10.4151 6.03426L10.3053 5.93021C9.90367 5.33853 9.02471 4.25433 8.54994 3.6985Z" fill="#B13714"/>
<path d="M10.6112 1.42432C11.0079 1.21264 11.4851 1.0454 11.9103 0.902466C11.7927 1.00722 11.5986 1.14877 11.5658 1.29144L11.7143 1.19241C11.3867 1.55017 11.0577 1.70554 10.6112 1.42432Z" fill="#FFD13C"/>
<path d="M14.6316 3.91614C13.8644 2.02932 15.2059 0.652119 17.0784 0.480438C18.9349 0.834088 19.7448 2.1787 19.1463 3.98131C19.0665 4.10215 18.9845 4.22201 18.9146 4.34875C18.7294 4.5359 18.2416 5.06406 18.2001 5.30436C18.0913 5.4608 17.9046 5.7095 17.8411 5.87764C17.7716 6.12254 17.7869 6.05756 17.5747 6.24092L17.3946 6.60605C17.1491 6.56796 17.1881 6.45771 17.0005 6.36729C16.5619 6.15587 16.2993 6.25241 15.9611 5.86702C15.8947 5.77202 15.7273 5.39849 15.668 5.27284L15.6461 5.14003C15.4055 5.04482 15.088 4.63349 14.874 4.41564L14.6316 3.91614Z" fill="#070301"/>
<path d="M18.2102 2.29499C18.5643 2.66074 18.3124 3.87847 18.0832 4.27024C18.1744 4.37641 18.2983 4.5306 18.3926 4.62661C18.0156 5.04127 17.7868 5.71529 17.5747 6.24092L17.3946 6.60605C17.1491 6.56796 17.1881 6.45771 17.0005 6.36729C16.5619 6.15587 16.2993 6.25241 15.9611 5.86702C15.8947 5.77202 15.7273 5.39849 15.668 5.27284L15.6461 5.14003C15.5896 4.94677 15.4727 4.80359 15.3567 4.63908L15.5668 4.47049C15.6035 3.95373 15.2357 3.11247 15.4223 2.52466L15.5086 2.57487C15.7787 2.62327 16.1412 2.33451 16.4161 2.27309C16.9535 2.15301 17.7918 2.52911 18.2102 2.29499Z" fill="url(#paint7_linear_2018_6731)"/>
<path d="M15.5668 4.47048C15.8573 4.74316 16.0262 4.57711 16.1378 4.68622C16.4199 4.96217 16.3367 5.23726 16.8239 5.36066C17.4001 5.23157 17.5871 4.58161 18.0832 4.27023C18.1744 4.37641 18.2983 4.5306 18.3926 4.62661C18.0156 5.04127 17.7868 5.71529 17.5747 6.24092L17.3946 6.60605C17.1491 6.56796 17.1881 6.45771 17.0005 6.36729C16.5619 6.15587 16.2993 6.2524 15.9611 5.86702C15.8947 5.77202 15.7273 5.39849 15.668 5.27283L15.6461 5.14003C15.5896 4.94677 15.4727 4.80359 15.3567 4.63907L15.5668 4.47048Z" fill="#FEE357"/>
<path d="M16.4825 3.89642C16.9296 3.86574 17.2498 3.81797 17.5048 4.23046C17.5489 4.58267 17.3473 4.78838 17.1375 5.06312C16.6772 5.44789 15.8765 4.58024 16.4825 3.89642Z" fill="#FEE357"/>
<path d="M15.6479 1.20631C16.3376 0.682439 17.2504 0.788827 17.9983 1.09974C17.796 1.36221 17.6772 1.37948 17.6208 1.62269C17.7339 1.83248 18.0222 2.04604 18.2102 2.29498C17.7918 2.52911 16.9535 2.15301 16.4161 2.27309C16.1412 2.3345 15.7787 2.62327 15.5086 2.57487L15.4223 2.52466C15.5978 2.15804 15.7268 1.97353 16.0406 1.70794L15.9535 1.50925C15.7957 1.41508 15.7555 1.34928 15.6479 1.20631Z" fill="#FFD13C"/>
<path d="M17.9983 1.09975C19.258 1.9505 19.5113 3.55739 18.3926 4.62661C18.2983 4.53061 18.1744 4.37641 18.0832 4.27024C18.3124 3.87848 18.5643 2.66075 18.2102 2.29499C18.0222 2.04605 17.7339 1.83249 17.6208 1.6227C17.6772 1.37948 17.796 1.36222 17.9983 1.09975Z" fill="#FC8B0B"/>
<path d="M15.3567 4.63908C15.3343 4.61234 15.3121 4.58542 15.2902 4.55831C14.3588 3.40578 14.4906 2.12434 15.6479 1.20631C15.7555 1.34928 15.7957 1.41508 15.9535 1.50925L16.0406 1.70794C15.7268 1.97353 15.5978 2.15804 15.4223 2.52466C15.2357 3.11246 15.6034 3.95373 15.5668 4.47048L15.3567 4.63908Z" fill="#E37205"/>
<path d="M22.9995 5.836C23.1954 5.68628 24.0792 4.50495 24.2872 4.24056C24.7136 3.69887 24.9021 3.4853 25.4245 2.99533C25.3579 3.17131 25.2224 3.50301 25.1903 3.67258C24.5753 4.31116 23.9381 5.2646 23.3607 5.96366L23.3437 6.02285L22.9995 5.836Z" fill="#B13714"/>
<path d="M18.9146 4.34875C18.9845 4.22201 19.0665 4.10215 19.1463 3.98131C19.4982 4.06226 20.4119 4.21573 20.6031 4.49423C20.64 4.54794 20.6359 4.72773 20.6397 4.80957C20.1448 4.60586 19.4625 4.55453 18.9146 4.34875Z" fill="#FEF8B6"/>
<path d="M14.7315 14.3162C15.1703 14.0037 15.868 13.8308 16.4003 13.788L16.3641 14.0265C16.4847 14.1278 16.6368 14.099 16.7972 14.0918L16.8008 14.1365C17.693 14.1523 18.1255 14.2682 18.9187 14.6759L19.46 15.0588L19.6657 14.7722L19.9761 15.0127C20.3645 15.5161 20.6639 15.8882 20.9166 16.4745C21.0881 17.0074 21.1951 17.3716 21.1725 17.9474L21.202 18.1345C21.0946 19.3399 20.8797 19.881 20.2058 20.8924L20.1642 21.0056C19.7052 21.9344 17.9388 22.4883 16.951 22.4395L16.6036 22.3178C16.0796 22.4797 14.8756 21.9653 14.4735 21.6045C14.717 21.6517 14.9428 21.8037 15.1433 21.7793C15.1184 21.6676 15.0959 21.6762 15.0002 21.5805L15.0246 21.466C14.9997 21.4252 14.6502 21.2008 14.586 21.1581C14.6127 21.0587 14.7325 20.8886 14.7929 20.7947C14.7525 20.7129 14.145 20.3382 13.9796 20.2115L14.0078 20.0589L13.8047 19.8316C13.2718 19.0614 13.3845 18.5262 14.043 17.8668L14.0915 17.8421L14.132 17.6505C14.1836 17.4268 14.3644 16.9423 14.4885 16.7544C14.6588 15.6541 14.3249 15.9941 13.8239 15.5019C14.2134 15.089 14.4744 14.8484 14.9905 14.5831L15.0394 14.516L14.7315 14.3162Z" fill="#FFD13C"/>
<path d="M18.9187 14.6759L19.46 15.0588L19.6657 14.7722L19.9761 15.0127C20.3645 15.5161 20.6639 15.8882 20.9166 16.4745C21.0881 17.0074 21.1951 17.3716 21.1725 17.9474L21.202 18.1345C21.0946 19.3399 20.8797 19.881 20.2058 20.8924L20.1642 21.0056C19.7052 21.9344 17.9388 22.4883 16.951 22.4395L16.6036 22.3178C16.0796 22.4797 14.8756 21.9653 14.4735 21.6045C14.717 21.6517 14.9428 21.8037 15.1433 21.7793C15.1184 21.6676 15.0959 21.6762 15.0002 21.5805L15.0246 21.466C14.9997 21.4252 14.6502 21.2008 14.586 21.1581C14.6127 21.0587 14.7325 20.8885 14.7929 20.7947C15.0018 20.9262 15.0655 20.9745 15.3108 21.0152C15.3662 20.8382 15.4241 20.4441 15.4999 20.1798L16.101 20.4162L16.4155 20.5006C16.6631 20.5179 17.1366 20.56 17.3559 20.464L17.4943 20.4765C17.9888 20.387 18.1371 20.2218 18.5181 19.9043C18.5171 19.375 18.2869 17.4073 18.5322 17.0908L18.8455 17.2417L18.8522 17.2219C18.941 16.9685 18.8613 16.6956 18.8105 16.4285C18.3817 15.7963 17.2415 15.2002 18.8473 14.9595L18.9187 14.6759Z" fill="#FC8B0B"/>
<path d="M20.7644 18.6862C21.1023 18.4318 21.0468 18.4078 21.1725 17.9474L21.202 18.1345C21.0946 19.3399 20.8797 19.881 20.2058 20.8924L20.1642 21.0056C19.7052 21.9344 17.9388 22.4883 16.951 22.4395L16.6036 22.3178C16.0796 22.4797 14.8756 21.9653 14.4735 21.6045C14.717 21.6517 14.9428 21.8037 15.1433 21.7793C15.1184 21.6676 15.0959 21.6762 15.0002 21.5805L15.0246 21.466C14.9997 21.4252 14.6502 21.2008 14.586 21.1581C14.6127 21.0587 14.7325 20.8886 14.7929 20.7947C15.0018 20.9262 15.0655 20.9746 15.3108 21.0152C15.3662 20.8382 15.4241 20.4441 15.4999 20.1799L16.101 20.4162L16.4155 20.5006C16.6631 20.5179 17.1366 20.56 17.3559 20.464L17.4943 20.4765C17.9888 20.387 18.1371 20.2218 18.5181 19.9043C18.4893 20.1873 18.4683 20.2874 18.5635 20.5538C18.9406 20.971 19.0314 20.7669 19.2681 21.0268L19.5408 20.8118C20.2195 20.2564 20.5038 19.4857 20.7644 18.6862Z" fill="#181B5C"/>
<path d="M17.4943 20.4765C17.9888 20.387 18.1371 20.2218 18.5181 19.9043C18.4893 20.1873 18.4683 20.2874 18.5635 20.5538C18.9406 20.971 19.0314 20.7669 19.2681 21.0268C18.8978 21.2939 18.4687 21.4549 18.2738 21.5953C18.0621 21.6486 17.6848 21.7571 17.4838 21.7925C17.2785 21.7858 16.1709 21.3316 15.8182 21.289C15.7239 21.2776 15.6097 21.0721 15.3108 21.0152C15.3662 20.8382 15.4241 20.4441 15.4999 20.1799L16.101 20.4162L16.4155 20.5006C16.6631 20.5179 17.1366 20.56 17.3559 20.464L17.4943 20.4765Z" fill="#FFD13C"/>
<path d="M14.7929 20.7947C15.0018 20.9262 15.0655 20.9745 15.3108 21.0152C15.6097 21.0721 15.7239 21.2776 15.8182 21.289C16.1708 21.3316 17.2785 21.7858 17.4838 21.7925C16.6491 21.9643 15.7974 21.7688 15.0246 21.466C14.9997 21.4252 14.6502 21.2008 14.586 21.1581C14.6127 21.0587 14.7325 20.8885 14.7929 20.7947Z" fill="#FEC63C"/>
<path d="M18.5322 17.0908L18.8455 17.2417C19.058 17.3892 19.2156 17.4929 19.4011 17.6735C19.1119 17.9012 18.8491 20.0797 19.106 20.4705C19.1817 20.5858 19.4461 20.6495 19.5408 20.8118L19.2681 21.0268C19.0314 20.7669 18.9406 20.971 18.5635 20.5538C18.4683 20.2874 18.4893 20.1873 18.5181 19.9043C18.5171 19.375 18.2869 17.4073 18.5322 17.0908Z" fill="#FEA31D"/>
<path d="M18.8105 16.4285C18.3817 15.7963 17.2415 15.2002 18.8473 14.9595C18.5513 15.3225 18.5573 15.354 18.4298 15.806C18.5565 15.9245 18.9079 16.2704 19.0381 16.3361C19.2081 16.651 19.6684 17.4141 19.5868 17.7158C19.5242 17.708 19.4529 17.7062 19.4011 17.6735C19.2156 17.4929 19.058 17.3892 18.8455 17.2417L18.8522 17.2219C18.941 16.9685 18.8613 16.6956 18.8105 16.4285Z" fill="#FEC63C"/>
<path d="M19.46 15.0588L19.6657 14.7722L19.9761 15.0127C20.3645 15.5161 20.6639 15.8882 20.9166 16.4745C20.8247 16.6624 20.7893 16.7448 20.6509 16.9076C20.3495 16.0146 20.1355 15.7033 19.46 15.0588Z" fill="#0C1249"/>
<path d="M20.9166 16.4745C21.0881 17.0074 21.1951 17.3716 21.1725 17.9474C21.0468 18.4078 21.1023 18.4318 20.7644 18.6862C20.8636 17.9078 20.8497 17.6506 20.6509 16.9076C20.7893 16.7448 20.8247 16.6624 20.9166 16.4745Z" fill="#0C1249"/>
<path d="M14.7315 14.3162C15.1703 14.0037 15.868 13.8308 16.4003 13.788L16.3641 14.0265C16.4847 14.1278 16.6368 14.099 16.7972 14.0918L16.8008 14.1365C17.693 14.1523 18.1255 14.2682 18.9187 14.6759L18.8473 14.9595C17.2415 15.2002 18.3817 15.7963 18.8105 16.4285C18.8613 16.6956 18.941 16.9685 18.8522 17.2219L18.8455 17.2417L18.5322 17.0908C17.9404 16.6514 15.9193 16.6272 15.2609 17.0209L14.9524 17.1842C14.7902 17.298 14.3128 17.6144 14.132 17.6505C14.1836 17.4268 14.3644 16.9423 14.4885 16.7544C14.6588 15.6541 14.3249 15.9941 13.8239 15.5019C14.2134 15.089 14.4744 14.8484 14.9905 14.5831L15.0394 14.516L14.7315 14.3162Z" fill="#FEE357"/>
<path d="M13.8239 15.5019C14.2134 15.089 14.4744 14.8484 14.9905 14.5831C14.8874 14.8336 14.5732 15.08 14.3639 15.27C16.137 14.955 14.8386 16.6077 14.9524 17.1842C14.7902 17.298 14.3128 17.6144 14.132 17.6505C14.1836 17.4268 14.3644 16.9423 14.4885 16.7544C14.6588 15.6541 14.3249 15.9941 13.8239 15.5019Z" fill="#FEC63C"/>
<path d="M13.8239 15.5019C14.2134 15.089 14.4744 14.8484 14.9905 14.5831C14.8874 14.8336 14.5732 15.08 14.3639 15.27L14.3756 15.278C14.509 15.3686 14.5344 15.375 14.6944 15.3832C14.8483 15.5167 14.9607 15.5981 15.0599 15.778C15.0728 16.0528 14.6714 16.5027 14.4885 16.7544C14.6588 15.6541 14.3249 15.9941 13.8239 15.5019Z" fill="#FFD13C"/>
<path d="M14.7315 14.3162C15.1703 14.0037 15.868 13.8308 16.4003 13.788L16.3641 14.0265C16.4847 14.1278 16.6368 14.099 16.7972 14.0918L16.8008 14.1365C16.0447 14.1533 15.7567 14.2558 15.0394 14.516L14.7315 14.3162Z" fill="#0C1249"/>
<path d="M15.2609 17.0209C15.5481 17.4011 15.1328 19.6514 15.4999 20.1799C15.4241 20.4441 15.3662 20.8382 15.3108 21.0152C15.0655 20.9746 15.0018 20.9262 14.7929 20.7947C14.7525 20.7129 14.145 20.3382 13.9796 20.2115L14.0078 20.0589L13.8047 19.8316C13.2718 19.0614 13.3845 18.5262 14.043 17.8668L14.0915 17.8421L14.132 17.6505C14.3128 17.6144 14.7902 17.298 14.9524 17.1842L15.2609 17.0209Z" fill="url(#paint8_linear_2018_6731)"/>
<path d="M14.043 17.8668C14.2273 18.1507 14.6482 19.8495 14.3752 20.1849L14.2726 20.2342L14.0078 20.0589L13.8047 19.8316C13.2718 19.0614 13.3845 18.5262 14.043 17.8668Z" fill="#E37205"/>
<path d="M15.2609 17.0209C15.9193 16.6272 17.9404 16.6514 18.5322 17.0908C18.2869 17.4073 18.5171 19.375 18.5181 19.9043C18.1371 20.2218 17.9888 20.387 17.4943 20.4765C18.3418 20.0006 18.2149 19.6701 17.8068 19.2061C17.6826 19.0648 17.73 17.7777 17.5492 17.5109C17.3682 17.2438 17.5285 17.2818 17.1749 17.1104C16.7317 17.111 16.5034 17.3736 16.1721 17.658C15.9946 18.1739 15.7925 19.1368 15.763 19.6855C15.7446 20.029 15.8755 20.1801 16.101 20.4162L15.4999 20.1798C15.1328 19.6514 15.5481 17.401 15.2609 17.0209Z" fill="#FEC63C"/>
<path d="M16.4155 20.5006C16.1862 20.2036 16.0001 20.012 15.9871 19.639C16.2884 19.0123 17.662 19.2584 17.8885 19.6932C17.8729 20.0311 17.526 20.1478 17.3559 20.464C17.1366 20.56 16.6631 20.5179 16.4155 20.5006Z" fill="#FEE357"/>
<path d="M9.93902 9.65753L10.4667 10.2639C10.5622 10.3801 11.1544 11.0816 11.1767 11.1629C11.3812 11.3849 12.2939 12.4815 12.4199 12.5886L12.4119 12.6338C13.0138 13.2811 13.5864 14.0394 14.1589 14.6369L14.7315 14.3162L15.0394 14.516L14.9905 14.5831C14.4744 14.8484 14.2134 15.089 13.8239 15.5019C14.3249 15.9941 14.6588 15.6541 14.4885 16.7544C14.3644 16.9423 14.1836 17.4268 14.132 17.6505L14.0915 17.8421L14.043 17.8668C13.3845 18.5262 13.2718 19.0614 13.8047 19.8316C13.7362 19.8665 13.5483 19.9565 13.4949 19.9934C13.1657 19.6465 12.9689 18.7226 12.8911 18.2596C12.745 18.3165 12.6944 18.331 12.5752 18.431C12.5573 18.2142 12.5238 18.0757 12.4756 17.8653L12.5221 17.5399C12.4628 17.5188 10.0862 17.5384 9.80292 17.538C9.52677 17.561 8.74876 17.6597 8.54927 17.5697L8.36674 17.3408C8.33996 17.3472 8.31332 17.3541 8.28683 17.3616C7.75056 17.5116 7.89838 17.6121 7.22627 17.6459C7.04796 17.6241 7.11166 17.53 6.77267 17.4994C6.76342 16.8486 7.05194 16.7489 6.70905 16.2845C6.71394 15.9926 7.02148 15.9177 7.08116 15.6675C7.33991 14.5871 7.76286 13.579 8.27743 12.5975C8.49673 12.1792 9.08326 12.393 8.88518 11.5128C9.08467 11.27 9.10342 11.5883 9.42217 11.3767C9.4069 11.2263 9.37608 11.1687 9.31624 11.029C9.53495 10.7346 10.5062 10.9114 10.0592 10.1927C9.91302 9.95779 9.93328 9.91673 9.93902 9.65753Z" fill="url(#paint9_linear_2018_6731)"/>
<path d="M12.1783 12.7412C11.8486 12.3564 11.1046 11.6593 11.1767 11.1629C11.3812 11.3849 12.2939 12.4815 12.4199 12.5886L12.4119 12.6338C13.0138 13.2811 13.5864 14.0394 14.1589 14.6369L14.7315 14.3162L15.0394 14.516L14.9905 14.5831C14.4744 14.8484 14.2134 15.089 13.8239 15.5019C14.3249 15.9941 14.6588 15.6541 14.4885 16.7544C14.3644 16.9423 14.1836 17.4268 14.132 17.6505L14.0915 17.8421L14.043 17.8668C13.3845 18.5262 13.2718 19.0614 13.8047 19.8316C13.7362 19.8665 13.5483 19.9565 13.4949 19.9935C13.1657 19.6465 12.9689 18.7226 12.8911 18.2596C12.745 18.3165 12.6944 18.331 12.5752 18.4311C12.5573 18.2142 12.5238 18.0757 12.4756 17.8653L12.5221 17.5399C12.4628 17.5188 10.0862 17.5384 9.80292 17.538C9.80496 17.4653 9.80892 17.3926 9.81479 17.32C9.93857 15.6954 10.9516 13.7925 12.1783 12.7412Z" fill="url(#paint10_linear_2018_6731)"/>
<path d="M13.8239 15.5019C14.3249 15.9941 14.6588 15.6541 14.4885 16.7544C14.3644 16.9423 14.1836 17.4268 14.132 17.6505L14.0915 17.8421L14.043 17.8668C13.3845 18.5262 13.2718 19.0614 13.8047 19.8316C13.7362 19.8665 13.5483 19.9565 13.4949 19.9934C13.1657 19.6465 12.9689 18.7226 12.8911 18.2596C12.8938 17.1629 13.1844 16.3839 13.8239 15.5019Z" fill="#FC8B0B"/>
<path d="M14.7315 14.3162L15.0394 14.516L14.9905 14.5831C14.4744 14.8484 14.2134 15.089 13.8239 15.5019C13.1844 16.3839 12.8938 17.1629 12.8911 18.2596C12.745 18.3165 12.6944 18.331 12.5752 18.431C12.5573 18.2142 12.5238 18.0757 12.4756 17.8653L12.5221 17.5399C12.5709 17.4024 12.6181 17.0191 12.673 16.837C12.9221 16.0109 13.2535 15.5143 13.8313 14.8982L14.1589 14.6369L14.7315 14.3162Z" fill="#181B5C"/>
<path d="M12.4119 12.6338C13.0138 13.2811 13.5864 14.0394 14.1589 14.6369L13.8313 14.8982C13.6117 14.6931 12.3715 13.1009 12.3098 12.7812L12.4119 12.6338Z" fill="#CEF6F5"/>
<path d="M20.2058 20.8924C20.7033 20.9536 22.0694 22.3409 22.4621 22.7747C22.9651 23.2226 23.8486 23.943 24.1837 24.4782L24.1252 24.5977C24.2772 24.7567 24.4072 24.9067 24.5915 25.0278L24.5775 25.051C24.2673 25.3358 21.7254 27.3346 21.558 27.3513C20.2384 27.7454 18.3341 28.4334 16.9195 28.2772C16.9215 27.7684 16.92 27.2597 16.915 26.7509L16.9297 25.4906C16.9282 25.1977 16.9071 24.8908 16.8916 24.5972C16.8677 24.0785 16.8923 22.9418 16.951 22.4395C17.9388 22.4883 19.7052 21.9344 20.1642 21.0056L20.2058 20.8924Z" fill="url(#paint11_linear_2018_6731)"/>
<path d="M20.3285 25.0739C20.7657 25.6983 21.2981 26.8677 21.5794 27.257L21.558 27.3513C20.2384 27.7454 18.3341 28.4334 16.9195 28.2772C16.9215 27.7684 16.92 27.2597 16.915 26.7509L16.9297 25.4906C17.3474 25.4347 17.6251 25.4274 18.0442 25.4192C18.6935 25.1807 20.1275 25.2195 20.3285 25.0739Z" fill="#215DC1"/>
<path d="M20.3285 25.0739C20.7657 25.6983 21.2981 26.8677 21.5794 27.257C20.9869 27.1498 20.4499 25.569 19.9132 25.3373C19.4793 25.15 18.5563 25.5437 18.0442 25.4192C18.6935 25.1807 20.1275 25.2195 20.3285 25.0739Z" fill="#3B77EE"/>
<path d="M22.4183 23.0719C22.9917 23.5756 23.5607 24.0842 24.1252 24.5977C24.2772 24.7567 24.4072 24.9067 24.5915 25.0278L24.5775 25.051C24.2673 25.3358 21.7254 27.3346 21.558 27.3513L21.5794 27.257C21.2981 26.8676 20.7657 25.6983 20.3285 25.0739C20.3265 24.4357 21.8603 23.6899 22.4183 23.0719Z" fill="url(#paint12_linear_2018_6731)"/>
<path d="M20.2058 20.8924C20.7033 20.9536 22.0694 22.3409 22.4621 22.7747C22.9651 23.2226 23.8486 23.943 24.1837 24.4782L24.1252 24.5977C23.5607 24.0842 22.9917 23.5756 22.4183 23.0719C22.0765 22.7693 20.2915 21.2139 20.1642 21.0056L20.2058 20.8924Z" fill="#93E0FB"/>
<path d="M12.4756 17.8653C12.5238 18.0757 12.5573 18.2142 12.5752 18.431C12.6944 18.331 12.745 18.3165 12.8911 18.2596C12.9689 18.7226 13.1657 19.6465 13.4949 19.9934C13.5483 19.9565 13.7362 19.8665 13.8047 19.8316L14.0078 20.0589L13.9796 20.2115C14.145 20.3382 14.7525 20.7129 14.7929 20.7947C14.7325 20.8885 14.6127 21.0587 14.586 21.1581C14.6502 21.2008 14.9997 21.4252 15.0246 21.466L15.0002 21.5805C15.0959 21.6762 15.1184 21.6676 15.1433 21.7793C14.9428 21.8037 14.717 21.6517 14.4735 21.6045C14.2264 21.4915 13.9667 21.2321 13.7593 21.0453C13.1552 21.796 12.3517 22.4538 11.6818 23.1696L11.6506 23.167C11.0806 23.7717 10.0704 24.6551 9.60978 25.2116L9.57913 25.207C9.54757 25.0757 8.83458 24.1226 8.69662 23.941C8.2233 23.3179 7.40138 21.9064 7.24644 21.1355C7.15302 21.1036 7.08443 21.0236 7.06757 20.9266C6.87791 19.787 6.77503 19.0963 6.77015 17.9217C7.45729 17.9265 8.99072 17.9801 9.61162 17.9231L9.69425 17.935C10.5211 17.9359 11.4507 17.957 12.2693 17.9306L12.4756 17.8653Z" fill="url(#paint13_linear_2018_6731)"/>
<path d="M12.4756 17.8653C12.5238 18.0757 12.5573 18.2142 12.5752 18.431C12.6944 18.331 12.745 18.3165 12.8911 18.2596C12.9689 18.7226 13.1657 19.6465 13.4949 19.9934C13.5483 19.9565 13.7362 19.8665 13.8047 19.8316L14.0078 20.0589L13.9796 20.2115C14.145 20.3382 14.7525 20.7129 14.7929 20.7947C14.7325 20.8885 14.6127 21.0587 14.586 21.1581C14.6502 21.2008 14.9997 21.4252 15.0246 21.466L15.0002 21.5805C15.0959 21.6762 15.1184 21.6676 15.1433 21.7793C14.9428 21.8037 14.717 21.6517 14.4735 21.6045C14.2264 21.4915 13.9667 21.2321 13.7593 21.0453C13.1552 21.796 12.3517 22.4538 11.6818 23.1696L11.6506 23.167C11.054 22.4047 10.0953 20.9275 9.8668 19.9918C9.86406 19.6981 9.85522 19.6172 9.78443 19.3323C9.65594 18.9087 9.69026 18.382 9.69425 17.935C10.5211 17.9359 11.4507 17.957 12.2693 17.9306L12.4756 17.8653Z" fill="url(#paint14_linear_2018_6731)"/>
<path d="M9.69425 17.935C10.5211 17.9359 11.4507 17.957 12.2693 17.9306C12.2972 18.287 12.2103 18.7924 12.1617 19.1576C11.531 19.3764 10.4277 19.8316 9.8668 19.9918C9.86406 19.6981 9.85522 19.6172 9.78443 19.3323C9.65594 18.9087 9.69026 18.382 9.69425 17.935Z" fill="#3B8DE5"/>
<path d="M12.5752 18.431C12.6944 18.331 12.745 18.3165 12.8911 18.2596C12.9689 18.7226 13.1657 19.6465 13.4949 19.9934C13.5483 19.9565 13.7362 19.8665 13.8047 19.8316L14.0078 20.0589L13.9796 20.2115C14.145 20.3382 14.7525 20.7129 14.7929 20.7947C14.7325 20.8886 14.6127 21.0587 14.586 21.1581C14.6502 21.2008 14.9997 21.4252 15.0246 21.466L15.0002 21.5805C15.0959 21.6762 15.1184 21.6676 15.1433 21.7793C14.9428 21.8037 14.717 21.6517 14.4735 21.6045C14.2264 21.4916 13.9667 21.2321 13.7593 21.0453C13.1054 20.1989 12.687 19.5002 12.5752 18.431Z" fill="#0C1249"/>
<path d="M13.9796 20.2115C14.145 20.3382 14.7525 20.7129 14.7929 20.7947C14.7325 20.8885 14.6127 21.0587 14.586 21.1581C14.2206 20.902 14.1273 20.8132 13.8278 20.4913L13.9796 20.2115Z" fill="#FFD13C"/>
<path d="M13.4949 19.9934C13.5483 19.9565 13.7362 19.8665 13.8047 19.8316L14.0078 20.0589L13.9796 20.2115L13.8278 20.4913C13.7232 20.3506 13.5951 20.1442 13.4949 19.9934Z" fill="#FEA31D"/>
<path d="M6.77015 17.9217C7.45729 17.9265 8.99072 17.9801 9.61162 17.9231L9.69425 17.935C9.69027 18.382 9.65595 18.9087 9.78443 19.3323C9.74799 19.5577 9.74839 19.9176 9.59517 20.0034C8.99486 20.3396 8.12696 20.4244 7.49578 20.6647C7.40706 20.5987 7.28689 20.5932 7.19252 20.651C7.09814 20.7087 7.04863 20.8179 7.06757 20.9266C6.87791 19.787 6.77503 19.0963 6.77015 17.9217Z" fill="#215DC1"/>
<path d="M7.06756 20.9266C7.04862 20.8179 7.09814 20.7087 7.19251 20.651C7.28689 20.5932 7.40706 20.5987 7.49578 20.6647C7.6024 20.7441 7.63518 20.889 7.57305 21.0063C7.51092 21.1236 7.37237 21.1784 7.24644 21.1355C7.15301 21.1037 7.08443 21.0236 7.06756 20.9266Z" fill="#69C6F3"/>
<path d="M22.7609 11.689C22.8882 11.6015 23.6695 10.7101 23.8248 10.5368C23.9266 10.8133 24.5764 11.3046 24.8091 11.5703C25.9387 12.8594 26.4857 14.5617 27.0435 16.1481C27.1588 16.476 27.6146 16.4717 27.1262 16.7841C27.0815 16.8178 27.1551 17.5088 27.1718 17.6639C27.9677 17.6592 29.0862 17.6249 29.8512 17.685C29.1141 17.7646 28.3775 17.6978 27.668 17.7473C27.2935 17.7196 26.3565 17.7209 25.9838 17.7357C25.9539 17.8155 25.9402 17.9081 25.876 17.9262C25.3802 18.0654 24.617 17.9689 24.121 17.9953C23.9066 18.0042 21.2052 18.135 21.2485 18.1478L21.202 18.1345L21.1725 17.9474C21.1951 17.3716 21.0881 17.0074 20.9166 16.4745C20.6639 15.8882 20.3645 15.5161 19.9761 15.0127C20.1728 14.6888 21.4614 13.2291 21.7717 12.8846C22.062 12.48 22.4321 12.0694 22.7609 11.689Z" fill="url(#paint15_linear_2018_6731)"/>
<path d="M19.9761 15.0127C20.1728 14.6888 21.4614 13.2291 21.7717 12.8846C22.8472 13.8695 23.9057 15.6319 24.0127 17.1278C24.0248 17.2968 23.9881 17.6004 24.0901 17.7208C24.6868 17.7295 25.3958 17.7575 25.9838 17.7357C25.9539 17.8155 25.9402 17.9081 25.876 17.9262C25.3802 18.0654 24.617 17.9689 24.121 17.9953C23.9066 18.0042 21.2052 18.135 21.2485 18.1478L21.202 18.1345L21.1725 17.9474C21.1951 17.3716 21.0881 17.0074 20.9166 16.4745C20.6639 15.8882 20.3645 15.5161 19.9761 15.0127Z" fill="url(#paint16_linear_2018_6731)"/>
<path d="M21.2485 18.1478C21.2413 17.9739 21.2091 17.7973 21.3167 17.667C22.2406 17.7081 23.1654 17.7261 24.0901 17.7208C24.6868 17.7295 25.3958 17.7575 25.9838 17.7357C25.9539 17.8156 25.9402 17.9082 25.876 17.9262C25.3802 18.0654 24.617 17.9689 24.121 17.9953C23.9066 18.0042 21.2052 18.135 21.2485 18.1478Z" fill="#CEF6F5"/>
<path d="M13.7593 21.0453C13.9667 21.2321 14.2264 21.4915 14.4735 21.6045C14.8756 21.9653 16.0796 22.4797 16.6036 22.3178L16.951 22.4395C16.8923 22.9418 16.8677 24.0785 16.8916 24.5972C16.9071 24.8908 16.9281 25.1977 16.9297 25.4906L16.915 26.7509C16.92 27.2597 16.9215 27.7684 16.9195 28.2772C16.8091 28.337 16.7111 28.3031 16.586 28.2799C14.5032 28.1316 12.9316 27.7412 11.2054 26.4683C10.6734 26.076 10.135 25.577 9.60978 25.2116C10.0704 24.6551 11.0806 23.7717 11.6506 23.167L11.6818 23.1696C12.3517 22.4538 13.1552 21.796 13.7593 21.0453Z" fill="url(#paint17_linear_2018_6731)"/>
<path d="M13.7593 21.0453C13.9667 21.2321 14.2264 21.4915 14.4735 21.6045C14.8756 21.9653 16.0796 22.4797 16.6036 22.3178L16.951 22.4395C16.8923 22.9418 16.8677 24.0785 16.8916 24.5972L16.8187 24.8852L16.7193 24.79L16.8094 24.6228C16.6867 24.5718 16.7335 24.5803 16.588 24.6269C16.5433 24.5162 16.499 24.4012 16.4472 24.294C16.4747 24.5746 16.543 25.0278 16.4783 25.2864C16.1962 25.3858 15.4889 25.1369 15.3068 25.2209C13.4401 24.4289 13.2982 24.5928 11.6818 23.1696C12.3517 22.4538 13.1552 21.796 13.7593 21.0453Z" fill="#93E0FB"/>
<path d="M15.3068 25.2209C15.4889 25.1369 16.1962 25.3859 16.4783 25.2864C16.543 25.0278 16.4747 24.5746 16.4472 24.294C16.499 24.4012 16.5433 24.5162 16.588 24.6269C16.7335 24.5803 16.6867 24.5718 16.8094 24.6228L16.7193 24.7901L16.8187 24.8852L16.8916 24.5972C16.9071 24.8908 16.9281 25.1977 16.9297 25.4907L16.915 26.7509C16.7729 26.95 16.9565 27.3065 16.7988 27.5625C16.6024 27.5789 16.5971 27.5342 16.4044 27.4251C16.3265 27.1771 16.5907 27.122 16.6016 26.9111C16.6261 26.4372 16.6077 25.8708 16.6 25.3986C16.3109 25.3859 15.5005 25.3811 15.3068 25.2209Z" fill="#69C6F3"/>
<path d="M16.8074 7.94705C18.2576 8.16297 19.391 8.27457 20.814 8.7763C21.0738 8.86794 21.4168 8.91138 21.6603 9.04084C22.5204 9.49812 22.8239 10.1328 23.7901 10.3684L23.856 10.4474L23.8248 10.5369C23.6695 10.7101 22.8882 11.6015 22.7609 11.689C22.4321 12.0694 22.062 12.48 21.7717 12.8846C21.4614 13.2292 20.1728 14.6888 19.9761 15.0127L19.6657 14.7722L19.46 15.0588L18.9187 14.6759C18.1255 14.2682 17.693 14.1523 16.8008 14.1365L16.7972 14.0917C16.6368 14.099 16.4847 14.1278 16.3641 14.0265L16.4003 13.788C16.5752 13.78 16.706 13.7455 16.8745 13.7071C16.841 12.8473 16.8661 11.8769 16.8723 11.0079C16.8624 10.2238 16.8768 9.41119 16.8809 8.62467L16.8832 8.55704C16.8914 8.28969 16.8699 8.20803 16.8074 7.94705Z" fill="url(#paint18_linear_2018_6731)"/>
<path d="M16.8723 11.0079C16.9836 11.001 17.0992 10.9833 17.2021 11.021C18.4414 11.1135 20.4594 11.667 21.2862 12.6226C21.3489 12.6953 21.4102 12.7691 21.4702 12.844C21.8601 12.4982 22.081 12.2542 22.4026 11.846C22.5437 11.6669 22.5734 11.6953 22.7609 11.689C22.4321 12.0694 22.062 12.48 21.7717 12.8846C21.4614 13.2291 20.1728 14.6888 19.9761 15.0127L19.6657 14.7722L19.46 15.0588L18.9187 14.6759C18.1255 14.2682 17.693 14.1523 16.8008 14.1365L16.7972 14.0917C16.6368 14.099 16.4847 14.1278 16.3641 14.0265L16.4003 13.788C16.5752 13.78 16.706 13.7455 16.8745 13.7071C16.841 12.8473 16.8661 11.8769 16.8723 11.0079Z" fill="#93E0FB"/>
<path d="M16.8745 13.7071C17.349 13.7449 17.6088 13.7847 18.075 13.8824L18.9508 14.2589C19.1175 14.3681 19.5596 14.6371 19.6657 14.7722L19.46 15.0588L18.9187 14.6759C18.1255 14.2682 17.693 14.1523 16.8008 14.1365L16.7972 14.0918C16.6368 14.099 16.4847 14.1278 16.3641 14.0265L16.4003 13.788C16.5752 13.78 16.706 13.7455 16.8745 13.7071Z" fill="#181B5C"/>
<path d="M21.4702 12.844C21.8601 12.4982 22.081 12.2542 22.4026 11.846C22.5437 11.6669 22.5734 11.6953 22.7609 11.689C22.4321 12.0694 22.062 12.48 21.7717 12.8846C21.4614 13.2292 20.1728 14.6888 19.9761 15.0127L19.6657 14.7722C19.5596 14.6371 19.1175 14.3681 18.9508 14.2589C19.4895 13.9838 19.7928 15.2144 21.4702 12.844Z" fill="#CEF6F5"/>
<path d="M16.8809 8.62468C17.2754 9.02899 17.2184 10.2199 17.2105 10.8165C17.2094 10.8847 17.2066 10.9529 17.2021 11.021C17.0992 10.9833 16.9836 11.0011 16.8723 11.0079C16.8624 10.2238 16.8768 9.4112 16.8809 8.62468Z" fill="#69C6F3"/>
<path d="M25.9838 17.7357C26.3565 17.7209 27.2935 17.7196 27.668 17.7473C27.395 18.0074 27.2635 17.6863 27.1429 18.3684L27.042 18.8669C27.1519 20.8595 25.9582 23.5204 24.6688 24.9493C24.644 24.9764 24.6182 25.0026 24.5915 25.0277C24.4072 24.9067 24.2772 24.7567 24.1252 24.5977L24.1837 24.4782C23.8486 23.943 22.9651 23.2226 22.4621 22.7746C22.0694 22.3409 20.7033 20.9536 20.2058 20.8924C20.8797 19.881 21.0946 19.3399 21.202 18.1345L21.2485 18.1477C21.2052 18.135 23.9066 18.0042 24.121 17.9953C24.617 17.9689 25.3802 18.0654 25.876 17.9262C25.9402 17.9081 25.9539 17.8155 25.9838 17.7357Z" fill="url(#paint19_linear_2018_6731)"/>
<path d="M21.2485 18.1478C21.2052 18.135 23.9066 18.0042 24.121 17.9953C24.0669 19.4798 23.7091 21.7889 22.4621 22.7747C22.0694 22.3409 20.7033 20.9536 20.2058 20.8924C20.8797 19.881 21.0946 19.3399 21.202 18.1345L21.2485 18.1478Z" fill="url(#paint20_linear_2018_6731)"/>
<path d="M27.042 18.8669C27.0289 18.8647 27.0159 18.8623 27.0029 18.8597C26.7402 18.8076 26.7569 18.8253 26.643 18.6555L26.6796 18.5008C26.9222 18.334 26.8369 18.375 27.1429 18.3684L27.042 18.8669Z" fill="#69C6F3"/>
<path d="M5.48157 11.9045C6.28639 10.6188 7.38884 9.1228 8.63701 8.2269C9.03356 8.54288 9.68004 9.23162 9.93902 9.65753C9.93329 9.91673 9.91302 9.95778 10.0592 10.1927C10.5062 10.9114 9.53496 10.7346 9.31624 11.029C9.37608 11.1687 9.4069 11.2263 9.42217 11.3767C9.10342 11.5883 9.08467 11.27 8.88518 11.5128C9.08326 12.393 8.49673 12.1792 8.27743 12.5975C7.76287 13.579 7.33991 14.5871 7.08117 15.6675C7.02148 15.9177 6.71394 15.9926 6.70905 16.2845C7.05195 16.7489 6.76342 16.8486 6.77267 17.4994C7.11166 17.53 7.04796 17.6241 7.22628 17.6459C7.45864 17.661 7.571 17.6285 7.73744 17.7447L7.70262 17.7867C7.52848 17.7732 7.38183 17.7508 7.21236 17.7982C7.60256 17.9376 9.00732 17.8359 9.61161 17.9231C8.99072 17.9801 7.45729 17.9265 6.77014 17.9217L5.78077 17.8768C5.32084 17.9306 4.29726 17.963 3.82936 17.9319L3.85178 17.1463C3.76138 15.6627 4.32663 13.3029 4.95075 11.9444C5.10037 12.1989 4.79804 12.2687 4.89991 12.6206C5.05429 12.5667 5.18115 12.087 5.38632 11.8473L5.48157 11.9045Z" fill="url(#paint21_linear_2018_6731)"/>
<path d="M4.95075 11.9444C5.10037 12.1989 4.79804 12.2687 4.89991 12.6206C5.05429 12.5667 5.18115 12.087 5.38632 11.8473L5.48157 11.9045C4.20575 14.4644 4.40247 14.4591 3.85178 17.1463C3.76138 15.6627 4.32663 13.3029 4.95075 11.9444Z" fill="#883401"/>
<path d="M6.77267 17.4994C7.11166 17.53 7.04796 17.6241 7.22628 17.6459C7.45864 17.661 7.571 17.6285 7.73744 17.7447L7.70262 17.7867C7.52848 17.7732 7.38183 17.7508 7.21236 17.7982C7.60256 17.9376 9.00732 17.8359 9.61161 17.9231C8.99072 17.9801 7.45729 17.9265 6.77014 17.9217L5.78077 17.8768C5.40226 17.8447 4.67492 17.763 4.31853 17.8147L4.29306 17.8186L4.2257 17.745C4.40776 17.6227 6.38993 17.5389 6.77267 17.4994Z" fill="#3B8DE5"/>
<path d="M25.6054 8.5415L26.0618 8.94693C27.6149 10.6521 28.6044 11.9018 29.3787 14.158C29.6007 14.8051 29.7643 15.4688 29.9702 16.0963C30.043 16.6763 30.0754 17.1366 30.1025 17.7213L29.8512 17.6851C29.0862 17.6249 27.9677 17.6592 27.1718 17.664C27.1551 17.5088 27.0815 16.8178 27.1262 16.7842C27.6146 16.4717 27.1588 16.476 27.0435 16.1481C26.4857 14.5617 25.9387 12.8594 24.8091 11.5703C24.5764 11.3046 23.9266 10.8133 23.8248 10.5369L23.856 10.4474C24.193 10.1489 25.207 8.96413 25.6054 8.5415Z" fill="url(#paint22_linear_2018_6731)"/>
<path d="M26.7102 30.0658C28.7196 28.8977 31.098 25.8855 32.0392 23.7778C32.4472 22.8642 32.8257 21.7993 33.2772 20.9539C33.1991 21.5026 33.1221 22.0686 33.01 22.6053C32.3906 25.5719 30.9023 28.3889 28.7502 30.5357C28.7369 30.5489 28.6963 30.5717 28.6782 30.5817C28.2412 31.0998 26.8905 32.1816 26.3076 32.5901C25.1095 33.3551 24.3436 33.7479 23.0304 34.3149C23.0023 34.1309 23.1124 34.2259 22.9814 33.9604L23.5177 33.7143C23.0959 33.5954 21.6147 34.5709 21.135 34.2897L21.1368 34.1614C21.6676 33.0594 22.6598 33.043 23.3913 32.3614L23.2813 32.3362L23.2791 32.2192C23.3512 32.0633 23.4706 31.9749 23.5988 31.8619C24.8798 31.1538 25.4566 30.9685 26.7102 30.0658Z" fill="#BE5B03"/>
<path d="M4.66817 29.8559C5.3053 30.1214 6.02921 31.0847 6.46648 31.4365C6.97731 31.8476 9.65972 33.5139 10.1567 33.5835C10.5201 33.4564 11.751 34.3231 12.2226 34.0772C12.2114 33.8069 11.6869 33.1039 11.4695 32.8709C12.4844 33.192 14.8603 34.0788 15.8512 33.5687C15.8661 33.561 15.8808 33.5533 15.8954 33.5451L15.8825 33.5311C15.8311 33.4752 15.8222 33.4639 15.7899 33.3958C16.3615 33.3058 17.2492 33.3908 17.7045 33.2394C20.2463 32.9977 21.2486 32.6946 23.5988 31.8619C23.4706 31.9749 23.3513 32.0633 23.2791 32.2192L23.2813 32.3362L23.3913 32.3614C22.6598 33.043 21.6676 33.0594 21.1368 34.1614L21.135 34.2897C21.6147 34.5709 23.0959 33.5954 23.5177 33.7143L22.9814 33.9604C23.1124 34.2259 23.0024 34.1309 23.0304 34.3149C22.8138 34.3901 22.5891 34.465 22.3746 34.5438C22.1276 34.6217 21.3948 34.8747 21.1716 34.8628C19.8002 35.4817 16.5593 35.4679 15.0061 35.3004C11.4039 34.9123 6.92952 32.7216 4.66817 29.8559Z" fill="url(#paint23_linear_2018_6731)"/>
<path d="M3.82936 17.9319C4.29726 17.963 5.32084 17.9306 5.78077 17.8768L6.77014 17.9217C6.77503 19.0963 6.87791 19.787 7.06756 20.9266C7.08443 21.0236 7.15302 21.1036 7.24644 21.1355C7.40138 21.9064 8.2233 23.3179 8.69662 23.941C8.83458 24.1226 9.54757 25.0757 9.57913 25.207C9.22864 25.5354 8.47474 26.2028 8.2309 26.5791C8.19336 26.5489 8.15639 26.5182 8.12002 26.4867C5.60981 24.3135 4.0668 21.237 3.82936 17.9319Z" fill="url(#paint24_linear_2018_6731)"/>
<path d="M29.8512 17.6851L30.1025 17.7213C30.0419 20.8537 28.466 24.0066 26.2247 26.1612C26.1347 26.2476 26.0407 26.3298 25.9432 26.4076C25.5356 25.9101 25.078 25.4555 24.5775 25.051L24.5915 25.0278C24.6182 25.0026 24.644 24.9764 24.6688 24.9493C25.9582 23.5204 27.1519 20.8595 27.042 18.8669L27.1429 18.3684C27.2635 17.6864 27.395 18.0074 27.668 17.7473C28.3775 17.6978 29.1141 17.7646 29.8512 17.6851Z" fill="url(#paint25_linear_2018_6731)"/>
<path d="M18.2001 5.30437C18.4743 5.39193 18.9012 5.42507 19.1978 5.45845C20.5142 5.71943 20.9721 5.93032 22.1833 6.3332C22.4843 6.49112 22.784 6.65135 23.0824 6.81385C24.0543 7.36423 24.7366 7.85994 25.6054 8.54151C25.207 8.96414 24.193 10.1489 23.856 10.4474L23.7901 10.3684C22.8239 10.1328 22.5204 9.49813 21.6603 9.04085C21.4168 8.91138 21.0738 8.86794 20.814 8.7763C19.391 8.27458 18.2576 8.16298 16.8074 7.94706C16.8418 7.91008 16.8836 7.8065 16.9067 7.75581C16.9872 7.48051 17.2665 6.89231 17.3946 6.60606L17.5747 6.24092C17.7869 6.05756 17.7716 6.12255 17.8411 5.87764C17.9046 5.7095 18.0913 5.46081 18.2001 5.30437Z" fill="url(#paint26_linear_2018_6731)"/>
<path d="M18.2001 5.30437C18.4743 5.39193 18.9012 5.42507 19.1978 5.45845C18.9483 5.81131 18.2617 5.80958 17.8411 5.87764C17.9046 5.7095 18.0913 5.46081 18.2001 5.30437Z" fill="#193DA2"/>
<path d="M0.719976 21.3347C1.03503 22.077 1.35601 22.8287 1.70163 23.5679C2.7204 25.7467 4.28873 27.76 6.15134 29.2876C6.41365 29.5028 7.25866 30.208 7.5251 30.2781C8.37917 30.9076 9.1082 31.1416 9.80361 31.6022C9.96126 31.8891 10.1657 31.8433 10.3983 32.0347C10.7968 32.3624 10.9048 32.7065 11.4315 32.8603C11.4442 32.864 11.4568 32.8675 11.4695 32.8709C11.6869 33.1038 12.2114 33.8069 12.2226 34.0772C11.751 34.3231 10.5201 33.4564 10.1567 33.5835C9.65972 33.5139 6.9773 31.8476 6.46648 31.4365C6.02921 31.0847 5.3053 30.1214 4.66817 29.8559C4.46032 29.6711 3.83268 28.8815 3.65606 28.6417C2.06541 26.4968 1.0544 23.9808 0.719976 21.3347Z" fill="#BE5B03"/>
<path d="M24.5775 25.051C25.078 25.4555 25.5356 25.91 25.9432 26.4076C24.1292 28.0882 22.5649 28.8048 20.2617 29.5459C19.3344 29.7312 18.6944 29.8321 17.738 29.9062L16.9391 29.9456L16.9195 28.2772C18.3341 28.4334 20.2384 27.7454 21.558 27.3513C21.7254 27.3346 24.2673 25.3358 24.5775 25.051Z" fill="url(#paint27_linear_2018_6731)"/>
<path d="M9.57913 25.207L9.60978 25.2116C10.135 25.577 10.6734 26.076 11.2054 26.4683C12.9316 27.7412 14.5032 28.1316 16.586 28.2799C16.7111 28.3032 16.8091 28.337 16.9195 28.2772L16.9391 29.9457L16.5144 29.9398L14.8506 29.7598C14.7581 29.7053 13.6847 29.4803 13.5233 29.4438C12.83 29.2368 12.0499 28.8837 11.4236 28.7174C11.3691 28.6062 10.1918 27.99 9.98556 27.8751C9.3699 27.4834 8.77197 27.0694 8.2309 26.5791C8.47474 26.2028 9.22864 25.5354 9.57913 25.207Z" fill="#3B77EE"/>
<path d="M16.586 28.2799C16.7111 28.3031 16.8091 28.337 16.9195 28.2772L16.9391 29.9456L16.5144 29.9398C16.6119 29.4843 16.6822 28.741 16.586 28.2799Z" fill="#3B8DE5"/>
<path d="M18.2001 5.30437C18.2416 5.06407 18.7294 4.5359 18.9146 4.34875C19.4625 4.55454 20.1448 4.60586 20.6397 4.80958C21.0648 4.96128 22.6345 5.51606 22.8892 5.80908L22.9995 5.83601L23.3437 6.02286C23.564 6.29728 24.6672 6.94502 25.04 7.22743C25.5628 7.62367 25.9129 7.92467 26.4007 8.37258C26.7811 8.80463 27.3267 9.37187 27.6667 9.80747C28.7908 11.2465 30.1001 14.1998 29.9737 16.0564C29.9726 16.0697 29.9715 16.083 29.9702 16.0963C29.7643 15.4688 29.6007 14.8051 29.3787 14.158C28.6044 11.9018 27.6149 10.6521 26.0618 8.94693L25.6054 8.54151C24.7366 7.85995 24.0543 7.36423 23.0824 6.81386C22.784 6.65135 22.4843 6.49113 22.1833 6.3332C20.972 5.93032 20.5142 5.71943 19.1978 5.45845C18.9012 5.42508 18.4743 5.39193 18.2001 5.30437Z" fill="#BE5B03"/>
<path d="M18.2001 5.30437C18.2416 5.06407 18.7294 4.5359 18.9146 4.34875C19.4625 4.55454 20.1448 4.60586 20.6397 4.80958C21.0648 4.96128 22.6345 5.51605 22.8892 5.80908C22.6762 5.86713 21.7009 5.29976 21.3286 5.16453C21.0637 5.26652 20.8054 5.36994 20.5329 5.45049C19.8971 5.63853 19.3555 4.65888 18.7755 4.75566C18.6195 4.88245 18.6484 4.82218 18.6219 4.99829C18.9376 5.44742 21.7167 5.70336 22.2675 6.2608L22.1833 6.3332C20.972 5.93032 20.5142 5.71943 19.1978 5.45845C18.9012 5.42508 18.4743 5.39193 18.2001 5.30437Z" fill="#E37205"/>
<path d="M23.0824 6.81385L23.0861 6.59306C23.413 6.40501 24.2193 7.00692 24.4381 7.26178L24.3492 7.36973C24.846 7.61029 25.3486 7.85141 25.774 8.20805C26.0383 8.42969 25.9064 8.66049 26.0618 8.94693L25.6054 8.5415C24.7366 7.85994 24.0543 7.36422 23.0824 6.81385Z" fill="#A55511"/>
<path d="M7.5251 30.2781C7.85341 30.1344 9.35778 31.559 9.79526 31.2591C9.53726 31.027 8.24409 30.4912 7.92795 30.1773C8.0835 30.1998 9.96529 31.2334 10.4301 31.4201C14.6541 33.1158 18.8052 33.2269 23.0737 31.6104C24.2521 31.1644 24.8928 30.6654 25.8522 30.262C25.8394 30.5272 24.297 31.0053 23.9651 31.4754L24.0214 31.5156C24.147 31.4359 24.275 31.3632 24.4098 31.3002C25.2102 30.9259 25.9442 30.4504 26.6826 29.9684L26.7102 30.0658C25.4566 30.9685 24.8798 31.1538 23.5988 31.8619C21.2486 32.6946 20.2463 32.9977 17.7045 33.2394C17.2492 33.3908 16.3615 33.3058 15.7899 33.3958C15.8222 33.4639 15.8311 33.4752 15.8825 33.5311L15.8954 33.5451C15.8808 33.5533 15.8661 33.561 15.8512 33.5687C14.8603 34.0788 12.4844 33.192 11.4695 32.8709C11.4568 32.8675 11.4442 32.864 11.4315 32.8603C10.9048 32.7065 10.7968 32.3624 10.3983 32.0347C10.1657 31.8433 9.96125 31.8891 9.80361 31.6022C9.1082 31.1416 8.37916 30.9076 7.5251 30.2781Z" fill="url(#paint28_linear_2018_6731)"/>
<path d="M9.80361 31.6022C12.6264 32.7663 14.645 33.2224 17.7045 33.2394C17.2492 33.3908 16.3615 33.3058 15.7899 33.3958C15.8222 33.4638 15.8311 33.4752 15.8825 33.5311L15.8954 33.5451C15.8808 33.5533 15.8661 33.561 15.8512 33.5687C14.8603 34.0788 12.4844 33.192 11.4695 32.8709C11.4568 32.8675 11.4442 32.864 11.4315 32.8603C10.9048 32.7065 10.7968 32.3624 10.3983 32.0347C10.1657 31.8433 9.96126 31.8891 9.80361 31.6022Z" fill="url(#paint29_linear_2018_6731)"/>
<path d="M10.4151 6.03426L10.6248 5.9836C10.8022 6.48537 10.7552 6.36443 10.6416 6.84392C9.92784 7.34204 9.34203 7.66768 8.63701 8.2269C7.38884 9.1228 6.28639 10.6188 5.48157 11.9045L5.38632 11.8473C5.18115 12.087 5.05429 12.5667 4.89991 12.6206C4.79804 12.2687 5.10037 12.1989 4.95075 11.9444C5.3337 10.8428 6.60979 9.2579 7.38632 8.3903C8.15647 7.68391 8.90816 7.0934 9.7873 6.53051C9.98468 6.40413 10.2785 6.21784 10.4151 6.03426Z" fill="#A55511"/>
<path d="M15.9802 31.3936C16.2676 30.7075 16.6429 30.465 17.3809 30.6434C17.6572 30.861 17.7415 30.9131 17.9042 31.2165L17.9165 31.2393C17.9216 31.5791 17.8347 31.8656 17.5918 32.117C17.4397 32.2748 17.2309 32.3653 17.0115 32.369C16.7555 32.3733 16.5084 32.2748 16.3258 32.0961C16.1346 31.9053 16.0486 31.6474 15.9802 31.3936Z" fill="#FEFEFD"/>
<path d="M14.8506 29.7598L16.5144 29.9398L16.9391 29.9456L17.738 29.9062C17.6077 30.109 17.5368 30.2101 17.3788 30.3925L17.4019 30.461L17.3809 30.6434C16.6429 30.465 16.2676 30.7075 15.9802 31.3936C16.0032 30.6101 16.4161 30.4041 15.2982 30.2061C15.2058 30.0783 14.9758 29.8763 14.8506 29.7598Z" fill="#FEE357"/>
<path d="M11.4236 28.7174C12.0499 28.8836 12.83 29.2368 13.5233 29.4438C13.6847 29.4803 14.7581 29.7053 14.8506 29.7598C14.9758 29.8763 15.2058 30.0783 15.2982 30.2061C14.8996 30.2093 14.2456 30.0028 13.8685 29.8824C13.3562 29.884 11.593 29.0732 11.4236 28.7174Z" fill="#FEC63C"/>
<path d="M23.3607 5.96367C24.2941 5.98662 25.4249 6.88021 25.9529 7.61326L25.6036 7.30414C25.8125 7.57152 26.3333 8.12039 26.438 8.28191L26.4007 8.37257C25.9129 7.92466 25.5628 7.62367 25.04 7.22743C24.6672 6.94501 23.564 6.29728 23.3437 6.02286L23.3607 5.96367Z" fill="#FEE357"/>
<path d="M10.3053 5.93021L10.4151 6.03426C10.2785 6.21784 9.98468 6.40414 9.7873 6.53051C8.90816 7.0934 8.15647 7.68391 7.38631 8.3903L7.35428 8.26171C7.74262 7.46119 9.45033 6.10219 10.3053 5.93021Z" fill="#FEE357"/>
<path d="M17.738 29.9062C18.6944 29.8321 19.3344 29.7312 20.2617 29.5459C20.2128 29.5962 20.1522 29.6584 20.0799 29.7326C19.3012 29.911 18.817 30.2787 18.0184 30.3424L17.4019 30.461L17.3788 30.3925C17.5368 30.2101 17.6077 30.109 17.738 29.9062Z" fill="#FFD13C"/>
<path d="M9.98556 27.8751C10.1918 27.99 11.3691 28.6062 11.4236 28.7174C10.871 28.8363 9.8834 28.5369 9.98556 27.8751Z" fill="#FEC63C"/>
<path d="M17.4019 30.461L18.0184 30.3424C18.0353 30.7331 18.0006 30.8687 17.9165 31.2393L17.9042 31.2165C17.7415 30.9131 17.6572 30.861 17.3809 30.6434L17.4019 30.461Z" fill="#FEC63C"/>
<path d="M29.4073 23.8036C29.9142 23.7172 30.3949 24.0588 30.4778 24.5646C30.5607 25.0704 30.2143 25.5467 29.7062 25.6256C29.2033 25.7036 28.7316 25.3628 28.6495 24.8624C28.5674 24.3619 28.9058 23.8892 29.4073 23.8036Z" fill="#FEFEFD"/>
<path d="M4.15331 23.82C4.63351 23.6635 5.15065 23.9214 5.31284 24.3982C5.47504 24.875 5.22187 25.3931 4.74515 25.5599C4.43217 25.6694 4.08428 25.6029 3.83419 25.3857C3.5841 25.1685 3.47039 24.8342 3.53642 24.5103C3.60243 24.1863 3.83802 23.9227 4.15331 23.82Z" fill="#FEFEFD"/>
<path d="M28.9749 8.65932C29.4552 8.54187 29.942 8.82627 30.0738 9.30123C30.2058 9.77619 29.9346 10.2695 29.4621 10.4147C29.1438 10.5124 28.7975 10.43 28.5579 10.1996C28.3183 9.96916 28.2235 9.62716 28.3103 9.30682C28.3969 8.98644 28.6516 8.73841 28.9749 8.65932Z" fill="#FEFEFD"/>
<path d="M4.46144 8.66511C4.94344 8.5474 5.42972 8.8422 5.54638 9.32288C5.66307 9.80356 5.36576 10.2873 4.88306 10.4021C4.40242 10.5164 3.91956 10.2216 3.80341 9.74302C3.68722 9.26441 3.98151 8.78233 4.46144 8.66511Z" fill="#FEFEFD"/>
</g>
<defs>
<linearGradient id="paint0_linear_2018_6731" x1="17.6694" y1="32.6068" x2="16.1576" y2="3.49638" gradientUnits="userSpaceOnUse">
<stop stop-color="#FEB924"/>
<stop offset="1" stop-color="#FEE859"/>
</linearGradient>
<linearGradient id="paint1_linear_2018_6731" x1="9.95043" y1="16.8136" x2="10.5566" y2="18.397" gradientUnits="userSpaceOnUse">
<stop stop-color="#86DEFA" stop-opacity="0.984314"/>
<stop offset="1" stop-color="#C5FAF6"/>
</linearGradient>
<linearGradient id="paint2_linear_2018_6731" x1="25.1029" y1="3.05722" x2="18.4058" y2="3.09021" gradientUnits="userSpaceOnUse">
<stop stop-color="#FCB426"/>
<stop offset="1" stop-color="#FFFD66"/>
</linearGradient>
<linearGradient id="paint3_linear_2018_6731" x1="13.433" y1="8.70461" x2="14.323" y2="11.6633" gradientUnits="userSpaceOnUse">
<stop stop-color="#2057C0"/>
<stop offset="1" stop-color="#2B76D5"/>
</linearGradient>
<linearGradient id="paint4_linear_2018_6731" x1="14.6967" y1="11.0336" x2="14.6639" y2="14.2993" gradientUnits="userSpaceOnUse">
<stop stop-color="#3B92E2"/>
<stop offset="1" stop-color="#4AAEED"/>
</linearGradient>
<linearGradient id="paint5_linear_2018_6731" x1="13.0158" y1="3.91614" x2="13.0158" y2="10.2639" gradientUnits="userSpaceOnUse">
<stop stop-color="#231489"/>
<stop offset="1" stop-color="#040307"/>
</linearGradient>
<linearGradient id="paint6_linear_2018_6731" x1="8.6576" y1="2.35675" x2="17.4448" y2="2.87203" gradientUnits="userSpaceOnUse">
<stop stop-color="#FCB125"/>
<stop offset="1" stop-color="#FFFF79"/>
</linearGradient>
<linearGradient id="paint7_linear_2018_6731" x1="16.8144" y1="2.29801" x2="16.9572" y2="3.97042" gradientUnits="userSpaceOnUse">
<stop stop-color="#FEAD23"/>
<stop offset="1" stop-color="#FFD14E"/>
</linearGradient>
<linearGradient id="paint8_linear_2018_6731" x1="14.3369" y1="18.1906" x2="15.131" y2="18.2011" gradientUnits="userSpaceOnUse">
<stop stop-color="#FE9311"/>
<stop offset="1" stop-color="#FFAC23"/>
</linearGradient>
<linearGradient id="paint9_linear_2018_6731" x1="7.89326" y1="13.5385" x2="11.0824" y2="14.8398" gradientUnits="userSpaceOnUse">
<stop stop-color="#4390F5"/>
<stop offset="1" stop-color="#65CCFF"/>
</linearGradient>
<linearGradient id="paint10_linear_2018_6731" x1="10.542" y1="14.9766" x2="13.0122" y2="15.9959" gradientUnits="userSpaceOnUse">
<stop stop-color="#7ED5FC"/>
<stop offset="1" stop-color="#AAF0FF"/>
</linearGradient>
<linearGradient id="paint11_linear_2018_6731" x1="19.8501" y1="24.8061" x2="18.6794" y2="21.8542" gradientUnits="userSpaceOnUse">
<stop stop-color="#2C7FDA"/>
<stop offset="1" stop-color="#429BE7"/>
</linearGradient>
<linearGradient id="paint12_linear_2018_6731" x1="23.2605" y1="26.2393" x2="20.962" y2="24.1816" gradientUnits="userSpaceOnUse">
<stop stop-color="#1D53BB"/>
<stop offset="1" stop-color="#236BCB"/>
</linearGradient>
<linearGradient id="paint13_linear_2018_6731" x1="8.08848" y1="23.4826" x2="10.56" y2="20.8739" gradientUnits="userSpaceOnUse">
<stop stop-color="#2055BC"/>
<stop offset="1" stop-color="#2B74D3"/>
</linearGradient>
<linearGradient id="paint14_linear_2018_6731" x1="10.528" y1="21.778" x2="13.2555" y2="19.1295" gradientUnits="userSpaceOnUse">
<stop stop-color="#3287DF"/>
<stop offset="1" stop-color="#4AAFEF"/>
</linearGradient>
<linearGradient id="paint15_linear_2018_6731" x1="26.0391" y1="13.7707" x2="22.9633" y2="15.4733" gradientUnits="userSpaceOnUse">
<stop stop-color="#215CC5"/>
<stop offset="1" stop-color="#2B7FDD"/>
</linearGradient>
<linearGradient id="paint16_linear_2018_6731" x1="23.3169" y1="15.1022" x2="20.5917" y2="16.1448" gradientUnits="userSpaceOnUse">
<stop stop-color="#3F9EED"/>
<stop offset="1" stop-color="#53BAF4"/>
</linearGradient>
<linearGradient id="paint17_linear_2018_6731" x1="13.0237" y1="27.3816" x2="14.0726" y2="24.188" gradientUnits="userSpaceOnUse">
<stop stop-color="#4192F3"/>
<stop offset="1" stop-color="#65CBFF"/>
</linearGradient>
<linearGradient id="paint18_linear_2018_6731" x1="20.445" y1="8.5171" x2="19.8854" y2="12.3449" gradientUnits="userSpaceOnUse">
<stop stop-color="#3D8AF2"/>
<stop offset="1" stop-color="#60CAFF"/>
</linearGradient>
<linearGradient id="paint19_linear_2018_6731" x1="26.4776" y1="21.4455" x2="23.4496" y2="20.3856" gradientUnits="userSpaceOnUse">
<stop stop-color="#479FF9"/>
<stop offset="1" stop-color="#60C3FE"/>
</linearGradient>
<linearGradient id="paint20_linear_2018_6731" x1="23.6995" y1="20.3977" x2="20.6496" y2="19.7655" gradientUnits="userSpaceOnUse">
<stop stop-color="#7FD5FC"/>
<stop offset="1" stop-color="#AAEAFA"/>
</linearGradient>
<linearGradient id="paint21_linear_2018_6731" x1="5.32876" y1="12.4041" x2="8.36986" y2="13.9614" gradientUnits="userSpaceOnUse">
<stop stop-color="#315EE3"/>
<stop offset="1" stop-color="#417EF2"/>
</linearGradient>
<linearGradient id="paint22_linear_2018_6731" x1="26.9636" y1="8.5415" x2="26.9636" y2="17.7213" gradientUnits="userSpaceOnUse">
<stop stop-color="#231489"/>
<stop offset="1" stop-color="#040307"/>
</linearGradient>
<linearGradient id="paint23_linear_2018_6731" x1="17.4538" y1="34.8878" x2="17.3579" y2="32.3121" gradientUnits="userSpaceOnUse">
<stop stop-color="#EF7F06"/>
<stop offset="1" stop-color="#F69F10"/>
</linearGradient>
<linearGradient id="paint24_linear_2018_6731" x1="6.70424" y1="17.8768" x2="6.70424" y2="26.5791" gradientUnits="userSpaceOnUse">
<stop stop-color="#231489"/>
<stop offset="1" stop-color="#040307"/>
</linearGradient>
<linearGradient id="paint25_linear_2018_6731" x1="28.8441" y1="22.2921" x2="26.0169" y2="21.2441" gradientUnits="userSpaceOnUse">
<stop stop-color="#366AE6"/>
<stop offset="1" stop-color="#4186F5"/>
</linearGradient>
<linearGradient id="paint26_linear_2018_6731" x1="21.4865" y1="5.91282" x2="20.976" y2="9.74834" gradientUnits="userSpaceOnUse">
<stop stop-color="#2349CB"/>
<stop offset="1" stop-color="#306DE5"/>
</linearGradient>
<linearGradient id="paint27_linear_2018_6731" x1="21.4313" y1="25.051" x2="21.4313" y2="29.9456" gradientUnits="userSpaceOnUse">
<stop stop-color="#231489"/>
<stop offset="1" stop-color="#040307"/>
</linearGradient>
<linearGradient id="paint28_linear_2018_6731" x1="16.766" y1="31.2448" x2="16.7805" y2="33.0335" gradientUnits="userSpaceOnUse">
<stop stop-color="#FFF456"/>
<stop offset="1" stop-color="#FFFEAB"/>
</linearGradient>
<linearGradient id="paint29_linear_2018_6731" x1="12.1885" y1="33.614" x2="13.8391" y2="31.8312" gradientUnits="userSpaceOnUse">
<stop stop-color="#F3900A"/>
<stop offset="1" stop-color="#FFB618"/>
</linearGradient>
<clipPath id="clip0_2018_6731">
<rect width="34" height="36" fill="white"/>
</clipPath>
</defs>
</svg>
