<svg width="30" height="30" viewBox="0 0 30 30" fill="none" xmlns="http://www.w3.org/2000/svg">
<path d="M15 30C23.2843 30 30 23.2843 30 15C30 6.71573 23.2843 0 15 0C6.71573 0 0 6.71573 0 15C0 23.2843 6.71573 30 15 30Z" fill="#F49B33"/>
<path d="M20.5254 11.9367C20.3787 10.0556 18.7651 9.39689 16.7229 9.18116L16.769 6.57522L15.1841 6.54933L15.1381 9.08625C14.721 9.07762 14.2953 9.08049 13.8696 9.08049L13.9156 6.52632L12.3308 6.49756L12.2848 9.1035C11.9425 9.1035 11.6031 9.10638 11.2752 9.09775V9.08912L9.08631 9.05173L9.05754 10.7459C9.05754 10.7459 10.2311 10.743 10.2109 10.766C10.8524 10.7775 11.0566 11.1543 11.1112 11.4765L11.0595 14.4448C11.1026 14.4448 11.1601 14.4477 11.2263 14.4592L11.0595 14.4563L10.9876 18.6155C10.9559 18.8168 10.8322 19.1361 10.3807 19.1303C10.4008 19.1476 9.22725 19.1102 9.22725 19.1102L8.87921 20.9971L10.9444 21.0345C11.327 21.0431 11.7066 21.0546 12.0777 21.0632L12.0317 23.6979L13.6165 23.7238L13.6625 21.1179C14.0969 21.1323 14.5197 21.1438 14.931 21.1524L14.885 23.7468L16.4698 23.7727L16.5158 21.1438C19.1851 21.0373 21.0633 20.3988 21.3394 17.8964C21.5609 15.883 20.629 14.9654 19.1218 14.5771C20.048 14.1284 20.6376 13.3144 20.5254 11.9367ZM18.2071 17.534C18.1755 19.5043 14.8044 19.2195 13.7287 19.2023L13.792 15.7104C14.8677 15.7277 18.2445 15.4774 18.2071 17.534ZM17.5571 12.5925C17.5254 14.3844 14.7153 14.1256 13.8207 14.1112L13.8754 10.9443C14.7699 10.9587 17.5887 10.7229 17.5571 12.5925Z" fill="white"/>
</svg>
