<svg width="30" height="30" viewBox="0 0 30 30" fill="none" xmlns="http://www.w3.org/2000/svg">
<path d="M15 30C23.2843 30 30 23.2843 30 15C30 6.71573 23.2843 0 15 0C6.71573 0 0 6.71573 0 15C0 23.2843 6.71573 30 15 30Z" fill="#627EEA"/>
<path d="M15.4669 3.75V12.0656L22.4953 15.2063L15.4669 3.75Z" fill="white" fill-opacity="0.602"/>
<path d="M15.4669 3.75L8.4375 15.2063L15.4669 12.0656V3.75Z" fill="white"/>
<path d="M15.4669 20.5949V26.2452L22.4999 16.5149L15.4669 20.5949Z" fill="white" fill-opacity="0.602"/>
<path d="M15.4669 26.2452V20.5939L8.4375 16.5149L15.4669 26.2452Z" fill="white"/>
<path d="M15.4669 19.2873L22.4953 15.2063L15.4669 12.0676V19.2873Z" fill="white" fill-opacity="0.2"/>
<path d="M8.43738 15.2063L15.4667 19.2873V12.0676L8.43738 15.2063Z" fill="white" fill-opacity="0.602"/>
</svg>
