<svg width="180" height="180" viewBox="0 0 180 180" fill="none" xmlns="http://www.w3.org/2000/svg">
<path d="M72.1059 0.000976619H64.9193V7.188H72.1059V0.000976619Z" fill="white"/>
<path d="M64.9203 7.18873H57.7337V14.3757H64.9203V7.18873Z" fill="white"/>
<path d="M114.731 7.18873H107.544V14.3757H114.731V7.18873Z" fill="white"/>
<path d="M121.65 7.18873H114.463V14.3757H121.65V7.18873Z" fill="white"/>
<path d="M72.1059 7.188H64.9193V14.3757H72.1059V7.188Z" fill="white"/>
<path d="M86.4802 7.18873H79.2936V14.3757H86.4802V7.18873Z" fill="white"/>
<path d="M93.6677 7.18873H86.4811V14.3757H93.6677V7.18873Z" fill="white"/>
<path d="M72.1059 14.3757H64.9193V21.5624H72.1059V14.3757Z" fill="white"/>
<path d="M79.2914 14.3753H72.1048V21.5624H79.2914V14.3753Z" fill="white"/>
<path d="M86.4802 14.3757H79.2936V21.5624H86.4802V14.3757Z" fill="white"/>
<path d="M108.039 14.3753H100.852V21.5624H108.039V14.3753Z" fill="white"/>
<path d="M64.9203 21.5621H57.7337V28.7491H64.9203V21.5621Z" fill="white"/>
<path d="M114.731 21.5621H107.544V28.7491H114.731V21.5621Z" fill="white"/>
<path d="M72.1059 21.5624H64.9193V28.7491H72.1059V21.5624Z" fill="white"/>
<path d="M86.4802 21.5624H79.2936V28.7491H86.4802V21.5624Z" fill="white"/>
<path d="M100.853 21.5621H93.6667V28.7491H100.853V21.5621Z" fill="white"/>
<path d="M108.039 21.5624H100.852V28.7491H108.039V21.5624Z" fill="white"/>
<path d="M79.2908 28.7499H72.1042V35.9369H79.2908V28.7499Z" fill="white"/>
<path d="M93.6677 28.7499H86.4811V35.9369H93.6677V28.7499Z" fill="white"/>
<path d="M122.724 28.7499H115.538V35.9369H122.724V28.7499Z" fill="white"/>
<path d="M108.039 28.7491H100.852V35.9369H108.039V28.7491Z" fill="white"/>
<path d="M64.9203 35.9384H57.7337V43.1254H64.9203V35.9384Z" fill="white"/>
<path d="M114.731 35.9384H107.544V43.1254H114.731V35.9384Z" fill="white"/>
<path d="M79.2914 35.9384H72.1048V43.1254H79.2914V35.9384Z" fill="white"/>
<path d="M100.853 35.9384H93.6667V43.1254H100.853V35.9384Z" fill="white"/>
<path d="M64.9203 43.1254H57.7337V50.3122H64.9203V43.1254Z" fill="white"/>
<path d="M114.731 43.1254H107.544V50.3122H114.731V43.1254Z" fill="white"/>
<path d="M79.2914 43.1254H72.1048V50.3122H79.2914V43.1254Z" fill="white"/>
<path d="M93.6677 43.1252H86.4811V50.3122H93.6677V43.1252Z" fill="white"/>
<path d="M108.039 43.1252H100.852V50.3122H108.039V43.1252Z" fill="white"/>
<path d="M93.6677 50.3122H86.4811V57.499H93.6677V50.3122Z" fill="white"/>
<path d="M122.724 50.312H115.538V57.499H122.724V50.312Z" fill="white"/>
<path d="M108.039 50.3122H100.852V57.499H108.039V50.3122Z" fill="white"/>
<path d="M7.42619 57.4987H0.239583V64.6858H7.42619V57.4987Z" fill="white"/>
<path d="M14.6111 57.4987H7.42448V64.6858H14.6111V57.4987Z" fill="white"/>
<path d="M21.7966 57.4987H14.61V64.6858H21.7966V57.4987Z" fill="white"/>
<path d="M28.9861 57.4987H21.7995V64.6858H28.9861V57.4987Z" fill="white"/>
<path d="M36.171 57.4987H28.9844V64.6858H36.171V57.4987Z" fill="white"/>
<path d="M50.546 57.4987H43.3594V64.6858H50.546V57.4987Z" fill="white"/>
<path d="M57.7315 57.4987H50.5449V64.6858H57.7315V57.4987Z" fill="white"/>
<path d="M64.9203 57.4987H57.7337V64.6858H64.9203V57.4987Z" fill="white"/>
<path d="M72.1059 57.4987H64.9193V64.6858H72.1059V57.4987Z" fill="white"/>
<path d="M79.2914 57.4987H72.1048V64.6858H79.2914V57.4987Z" fill="white"/>
<path d="M93.6677 57.499H86.4811V64.6858H93.6677V57.499Z" fill="white"/>
<path d="M122.724 57.499H115.538V64.6858H122.724V57.499Z" fill="white"/>
<path d="M100.853 57.4987H93.6667V64.6858H100.853V57.4987Z" fill="white"/>
<path d="M108.039 57.499H100.852V64.6858H108.039V57.499Z" fill="white"/>
<path d="M14.6111 64.6858H7.42448V71.8735H14.6111V64.6858Z" fill="white"/>
<path d="M43.3604 64.6865H36.1738V71.8735H43.3604V64.6865Z" fill="white"/>
<path d="M72.1059 64.6858H64.9193V71.8735H72.1059V64.6858Z" fill="white"/>
<path d="M21.7966 71.8733H14.61V79.0603H21.7966V71.8733Z" fill="white"/>
<path d="M28.9861 71.8733H21.7995V79.0603H28.9861V71.8733Z" fill="white"/>
<path d="M43.3604 71.8735H36.1738V79.0603H43.3604V71.8735Z" fill="white"/>
<path d="M50.546 71.8733H43.3594V79.0603H50.546V71.8733Z" fill="white"/>
<path d="M57.7315 71.8733H50.5449V79.0603H57.7315V71.8733Z" fill="white"/>
<path d="M64.9203 71.8733H57.7337V79.0603H64.9203V71.8733Z" fill="white"/>
<path d="M72.1059 71.8735H64.9193V79.0603H72.1059V71.8735Z" fill="white"/>
<path d="M86.4802 71.8733H79.2936V79.0603H86.4802V71.8733Z" fill="white"/>
<path d="M93.6677 71.8733H86.4811V79.0603H93.6677V71.8733Z" fill="white"/>
<path d="M100.853 71.8733H93.6667V79.0603H100.853V71.8733Z" fill="white"/>
<path d="M108.039 71.8733H100.852V79.0603H108.039V71.8733Z" fill="white"/>
<path d="M115.228 71.8733H108.041V79.0603H115.228V71.8733Z" fill="white"/>
<path d="M122.413 71.8733H115.227V79.0603H122.413V71.8733Z" fill="white"/>
<path d="M129.602 71.8733H122.415V79.0603H129.602V71.8733Z" fill="white"/>
<path d="M136.788 71.8733H129.601V79.0603H136.788V71.8733Z" fill="white"/>
<path d="M151.163 71.8733H143.976V79.0603H151.163V71.8733Z" fill="white"/>
<path d="M158.347 71.8733H151.161V79.0603H158.347V71.8733Z" fill="white"/>
<path d="M172.722 71.8733H165.536V79.0603H172.722V71.8733Z" fill="white"/>
<path d="M179.908 71.8733H172.721V79.0603H179.908V71.8733Z" fill="white"/>
<path d="M21.7966 79.0618H14.61V86.2489H21.7966V79.0618Z" fill="white"/>
<path d="M28.9861 79.0618H21.7995V86.2489H28.9861V79.0618Z" fill="white"/>
<path d="M64.9203 79.0618H57.7337V86.2489H64.9203V79.0618Z" fill="white"/>
<path d="M72.1059 79.0618H64.9193V86.2489H72.1059V79.0618Z" fill="white"/>
<path d="M79.2908 79.0618H72.1042V86.2489H79.2908V79.0618Z" fill="white"/>
<path d="M86.4802 79.0618H79.2936V86.2489H86.4802V79.0618Z" fill="white"/>
<path d="M115.228 79.0618H108.041V86.2489H115.228V79.0618Z" fill="white"/>
<path d="M122.413 79.0618H115.227V86.2489H122.413V79.0618Z" fill="white"/>
<path d="M129.602 79.0618H122.415V86.2489H129.602V79.0618Z" fill="white"/>
<path d="M136.788 79.0618H129.601V86.2489H136.788V79.0618Z" fill="white"/>
<path d="M143.977 79.0618H136.79V86.2489H143.977V79.0618Z" fill="white"/>
<path d="M151.163 79.0618H143.976V86.2489H151.163V79.0618Z" fill="white"/>
<path d="M179.908 79.0618H172.721V86.2489H179.908V79.0618Z" fill="white"/>
<path d="M43.3604 86.2486H36.1738V93.4356H43.3604V86.2486Z" fill="white"/>
<path d="M50.546 86.2486H43.3594V93.4356H50.546V86.2486Z" fill="white"/>
<path d="M72.1059 86.2489H64.9193V93.4356H72.1059V86.2489Z" fill="white"/>
<path d="M86.4802 86.2489H79.2936V93.4356H86.4802V86.2489Z" fill="white"/>
<path d="M108.039 86.2486H100.852V93.4356H108.039V86.2486Z" fill="white"/>
<path d="M115.228 86.2489H108.041V93.4356H115.228V86.2489Z" fill="white"/>
<path d="M129.602 86.2489H122.415V93.4356H129.602V86.2489Z" fill="white"/>
<path d="M136.788 86.2489H129.601V93.4356H136.788V86.2489Z" fill="white"/>
<path d="M151.163 86.2489H143.976V93.4356H151.163V86.2489Z" fill="white"/>
<path d="M165.537 86.2486H158.35V93.4356H165.537V86.2486Z" fill="white"/>
<path d="M172.722 86.2486H165.536V93.4356H172.722V86.2486Z" fill="white"/>
<path d="M179.908 86.2489H172.721V93.4356H179.908V86.2489Z" fill="white"/>
<path d="M7.42554 93.4354H0.238932V100.622H7.42554V93.4354Z" fill="white"/>
<path d="M14.6117 93.4354H7.42554V100.622H14.6117V93.4354Z" fill="white"/>
<path d="M21.7966 93.4354H14.61V100.622H21.7966V93.4354Z" fill="white"/>
<path d="M36.1716 93.4354H28.985V100.622H36.1716V93.4354Z" fill="white"/>
<path d="M64.9203 93.4354H57.7337V100.622H64.9203V93.4354Z" fill="white"/>
<path d="M72.1059 93.4356H64.9193V100.622H72.1059V93.4356Z" fill="white"/>
<path d="M79.2908 93.4354H72.1042V100.622H79.2908V93.4354Z" fill="white"/>
<path d="M93.6677 93.4354H86.4811V100.622H93.6677V93.4354Z" fill="white"/>
<path d="M122.413 93.4354H115.227V100.622H122.413V93.4354Z" fill="white"/>
<path d="M158.347 93.4354H151.161V100.622H158.347V93.4354Z" fill="white"/>
<path d="M172.722 93.4356H165.536V100.622H172.722V93.4356Z" fill="white"/>
<path d="M7.42619 100.623H0.239583V107.81H7.42619V100.623Z" fill="white"/>
<path d="M21.7966 100.622H14.61V107.81H21.7966V100.622Z" fill="white"/>
<path d="M28.9861 100.623H21.7995V107.81H28.9861V100.623Z" fill="white"/>
<path d="M43.3604 100.623H36.1738V107.81H43.3604V100.623Z" fill="white"/>
<path d="M50.546 100.623H43.3594V107.81H50.546V100.623Z" fill="white"/>
<path d="M115.228 100.623H108.041V107.81H115.228V100.623Z" fill="white"/>
<path d="M122.413 100.622H115.227V107.81H122.413V100.622Z" fill="white"/>
<path d="M136.788 107.541H129.601V114.728H136.788V107.541Z" fill="white"/>
<path d="M158.347 100.622H151.161V107.81H158.347V100.622Z" fill="white"/>
<path d="M172.722 100.622H165.536V107.81H172.722V100.622Z" fill="white"/>
<path d="M179.908 100.623H172.721V107.81H179.908V100.623Z" fill="white"/>
<path d="M7.42554 107.811H0.238932V114.998H7.42554V107.811Z" fill="white"/>
<path d="M64.9203 107.811H57.7337V114.998H64.9203V107.811Z" fill="white"/>
<path d="M93.6677 107.811H86.4811V114.998H93.6677V107.811Z" fill="white"/>
<path d="M108.039 107.811H100.852V114.998H108.039V107.811Z" fill="white"/>
<path d="M115.228 107.81H108.041V114.998H115.228V107.81Z" fill="white"/>
<path d="M122.413 107.81H115.227V114.998H122.413V107.81Z" fill="white"/>
<path d="M129.602 107.811H122.415V114.998H129.602V107.811Z" fill="white"/>
<path d="M136.788 114.73H129.601V121.917H136.788V114.73Z" fill="white"/>
<path d="M143.977 107.811H136.79V114.998H143.977V107.811Z" fill="white"/>
<path d="M151.163 107.811H143.976V114.998H151.163V107.811Z" fill="white"/>
<path d="M158.347 107.81H151.161V114.998H158.347V107.81Z" fill="white"/>
<path d="M179.908 107.81H172.721V114.998H179.908V107.81Z" fill="white"/>
<path d="M7.42554 114.998H0.238932V122.185H7.42554V114.998Z" fill="white"/>
<path d="M28.9861 114.997H21.7995V122.185H28.9861V114.997Z" fill="white"/>
<path d="M36.1716 114.997H28.985V122.185H36.1716V114.997Z" fill="white"/>
<path d="M43.3604 114.997H36.1738V122.185H43.3604V114.997Z" fill="white"/>
<path d="M50.546 114.997H43.3594V122.185H50.546V114.997Z" fill="white"/>
<path d="M72.1059 114.997H64.9193V122.185H72.1059V114.997Z" fill="white"/>
<path d="M79.2908 114.997H72.1042V122.185H79.2908V114.997Z" fill="white"/>
<path d="M93.6677 114.998H86.4811V122.185H93.6677V114.998Z" fill="white"/>
<path d="M100.853 114.997H93.6667V122.185H100.853V114.997Z" fill="white"/>
<path d="M108.039 114.998H100.852V122.185H108.039V114.998Z" fill="white"/>
<path d="M122.413 114.998H115.227V122.185H122.413V114.998Z" fill="white"/>
<path d="M129.602 114.998H122.415V122.185H129.602V114.998Z" fill="white"/>
<path d="M136.788 121.917H129.601V129.104H136.788V121.917Z" fill="white"/>
<path d="M136.788 65.1844H129.601V72.3714H136.788V65.1844Z" fill="white"/>
<path d="M143.977 114.998H136.79V122.185H143.977V114.998Z" fill="white"/>
<path d="M143.977 58.2654H136.79V65.4524H143.977V58.2654Z" fill="white"/>
<path d="M151.163 114.998H143.976V122.185H151.163V114.998Z" fill="white"/>
<path d="M151.163 58.2654H143.976V65.4524H151.163V58.2654Z" fill="white"/>
<path d="M165.537 114.997H158.35V122.185H165.537V114.997Z" fill="white"/>
<path d="M165.537 58.2654H158.35V65.4524H165.537V58.2654Z" fill="white"/>
<path d="M64.9203 122.185H57.7337V129.372H64.9203V122.185Z" fill="white"/>
<path d="M79.2908 122.185H72.1042V129.372H79.2908V122.185Z" fill="white"/>
<path d="M108.039 122.185H100.852V129.372H108.039V122.185Z" fill="white"/>
<path d="M115.228 122.185H108.041V129.372H115.228V122.185Z" fill="white"/>
<path d="M122.413 122.185H115.227V129.372H122.413V122.185Z" fill="white"/>
<path d="M64.9203 129.372H57.7337V136.559H64.9203V129.372Z" fill="white"/>
<path d="M72.1059 129.372H64.9193V136.559H72.1059V129.372Z" fill="white"/>
<path d="M79.2908 129.372H72.1042V136.559H79.2908V129.372Z" fill="white"/>
<path d="M86.4802 129.372H79.2936V136.559H86.4802V129.372Z" fill="white"/>
<path d="M93.6677 129.372H86.4811V136.559H93.6677V129.372Z" fill="white"/>
<path d="M86.4802 136.559H79.2936V143.746H86.4802V136.559Z" fill="white"/>
<path d="M122.413 136.559H115.227V143.746H122.413V136.559Z" fill="white"/>
<path d="M64.9203 143.747H57.7337V150.934H64.9203V143.747Z" fill="white"/>
<path d="M79.2914 143.747H72.1048V150.934H79.2914V143.747Z" fill="white"/>
<path d="M86.4802 143.747H79.2936V150.934H86.4802V143.747Z" fill="white"/>
<path d="M115.228 143.747H108.041V150.934H115.228V143.747Z" fill="white"/>
<path d="M64.9203 150.934H57.7337V158.121H64.9203V150.934Z" fill="white"/>
<path d="M79.2914 150.934H72.1048V158.121H79.2914V150.934Z" fill="white"/>
<path d="M93.6677 150.934H86.4811V158.121H93.6677V150.934Z" fill="white"/>
<path d="M100.853 150.934H93.6667V158.121H100.853V150.934Z" fill="white"/>
<path d="M115.228 150.934H108.041V158.121H115.228V150.934Z" fill="white"/>
<path d="M64.9203 158.121H57.7337V165.308H64.9203V158.121Z" fill="white"/>
<path d="M72.1059 158.121H64.9193V165.308H72.1059V158.121Z" fill="white"/>
<path d="M100.853 158.121H93.6667V165.308H100.853V158.121Z" fill="white"/>
<path d="M108.039 158.121H100.852V165.308H108.039V158.121Z" fill="white"/>
<path d="M122.413 158.121H115.227V165.308H122.413V158.121Z" fill="white"/>
<path d="M64.9203 165.308H57.7337V172.496H64.9203V165.308Z" fill="white"/>
<path d="M93.6677 165.309H86.4811V172.496H93.6677V165.309Z" fill="white"/>
<path d="M100.853 165.308H93.6667V172.496H100.853V165.308Z" fill="white"/>
<path d="M115.228 165.309H108.041V172.496H115.228V165.309Z" fill="white"/>
<path d="M122.413 165.308H115.227V172.496H122.413V165.308Z" fill="white"/>
<path d="M64.9203 172.496H57.7337V179.682H64.9203V172.496Z" fill="white"/>
<path d="M93.6677 172.496H86.4811V179.682H93.6677V172.496Z" fill="white"/>
<path d="M108.039 172.495H100.852V179.682H108.039V172.495Z" fill="white"/>
<path d="M115.228 172.496H108.041V179.682H115.228V172.496Z" fill="white"/>
<path d="M32.8877 128.687H17.0492C13.3894 128.678 9.82407 129.847 6.87978 132.021C3.93548 134.195 1.76842 137.258 0.698739 140.758C0.480825 141.484 0.31301 142.223 0.196479 142.972C0.0651927 143.822 -0.00049348 144.68 2.79101e-06 145.54V161.757C0.0307351 166.252 1.84293 170.552 5.03909 173.712C8.23525 176.873 12.5544 178.636 17.0492 178.617H32.8877C37.3827 178.636 41.702 176.873 44.8982 173.712C48.0944 170.551 49.9065 166.251 49.9368 161.756V145.54C49.905 141.046 48.0923 136.748 44.8962 133.589C41.7001 130.429 37.3816 128.666 32.8877 128.687ZM42.4458 161.757C42.4177 164.267 41.3952 166.663 39.6028 168.419C37.8103 170.176 35.3943 171.149 32.8849 171.127H17.0506C14.5414 171.149 12.1263 170.176 10.3339 168.42C8.54151 166.663 7.51811 164.268 7.48963 161.759V145.54C7.48808 143.979 7.88578 142.442 8.64496 141.078C9.35872 139.799 10.3584 138.703 11.5658 137.874C13.1786 136.766 15.0906 136.174 17.0478 136.178L32.8875 136.178C35.396 136.155 37.8113 137.128 39.6034 138.883C41.3953 140.639 42.417 143.033 42.4458 145.542V161.757Z" fill="white"/>
<path d="M32.8877 1.38437H17.0492C13.3894 1.37597 9.82407 2.54501 6.87978 4.71878C3.93548 6.89256 1.76842 9.95578 0.698739 13.4559C0.480825 14.1815 0.31301 14.9212 0.196479 15.6699C0.0651927 16.5196 -0.00049348 17.3782 2.79101e-06 18.238V34.4552C0.0307351 38.9501 1.84293 43.2494 5.03909 46.41C8.23525 49.5705 12.5544 51.3343 17.0492 51.3144H32.8877C37.3827 51.3343 41.702 49.5703 44.8982 46.4095C48.0944 43.2486 49.9065 38.949 49.9368 34.4538V18.238C49.905 13.7439 48.0923 9.44585 44.8962 6.28642C41.7001 3.12699 37.3816 1.3641 32.8877 1.38437ZM42.4458 34.4552C42.4177 36.9647 41.3952 39.3606 39.6028 41.1171C37.8103 42.8736 35.3943 43.8472 32.8849 43.8243H17.0506C14.5414 43.8472 12.1263 42.8737 10.3339 41.1175C8.54151 39.3613 7.51811 36.9658 7.48963 34.4566V18.238C7.48808 16.6764 7.88578 15.1402 8.64496 13.7755C9.35872 12.4969 10.3584 11.4006 11.5658 10.5722C13.1786 9.46334 15.0906 8.87164 17.0478 8.8758L32.8875 8.87624C35.396 8.85299 37.8113 9.82579 39.6034 11.5812C41.3953 13.3366 42.417 15.7311 42.4458 18.2394V34.4552Z" fill="white"/>
<path d="M162.951 130.07H147.112C143.453 130.061 139.887 131.23 136.943 133.404C133.999 135.578 131.832 138.641 130.762 142.141C130.544 142.867 130.376 143.607 130.26 144.355C130.128 145.205 130.063 146.064 130.063 146.923V163.141C130.094 167.636 131.906 171.935 135.102 175.095C138.298 178.256 142.618 180.02 147.112 180H162.951C167.446 180.02 171.765 178.256 174.961 175.095C178.158 171.934 179.97 167.634 180 163.139V146.923C179.968 142.429 178.155 138.131 174.959 134.972C171.763 131.812 167.445 130.05 162.951 130.07ZM172.509 163.141C172.481 165.65 171.458 168.046 169.666 169.803C167.874 171.559 165.458 172.533 162.948 172.51H147.114C144.605 172.533 142.189 171.559 140.396 169.803C138.604 168.047 137.581 165.651 137.553 163.142V146.923C137.551 145.362 137.949 143.826 138.708 142.461C139.422 141.182 140.422 140.086 141.629 139.258C143.242 138.149 145.154 137.557 147.111 137.561L162.951 137.561C165.459 137.538 167.874 138.511 169.666 140.267C171.458 142.022 172.48 144.417 172.509 146.925V163.141Z" fill="white"/>
<path d="M162.951 0.000172765H147.112C143.453 -0.0082283 139.887 1.16081 136.943 3.33459C133.999 5.50837 131.832 8.57159 130.762 12.0717C130.544 12.7973 130.376 13.537 130.26 14.2857C130.128 15.1354 130.063 15.994 130.063 16.8538V33.071C130.094 37.5659 131.906 41.8652 135.102 45.0258C138.298 48.1863 142.618 49.9501 147.112 49.9302H162.951C167.446 49.9501 171.765 48.1861 174.961 45.0253C178.158 41.8644 179.97 37.5648 180 33.0696V16.8538C179.968 12.3597 178.155 8.06165 174.959 4.90223C171.763 1.7428 167.445 -0.0200901 162.951 0.000172765ZM172.509 33.071C172.481 35.5805 171.458 37.9764 169.666 39.7329C167.874 41.4894 165.458 42.463 162.948 42.4401H147.114C144.605 42.463 142.189 41.4896 140.396 39.7334C138.604 37.9772 137.581 35.5816 137.553 33.0724V16.8538C137.551 15.2922 137.949 13.756 138.708 12.3913C139.422 11.1127 140.422 10.0164 141.629 9.18805C143.242 8.07915 145.154 7.48745 147.111 7.49161L162.951 7.492C165.459 7.46912 167.874 8.44169 169.666 10.1971C171.458 11.9524 172.48 14.3469 172.509 16.8552V33.071Z" fill="white"/>
<path d="M20.1259 164.354C18.5891 164.367 17.11 163.77 16.0121 162.694C14.9142 161.619 14.2869 160.152 14.2676 158.616V148.685C14.2677 147.729 14.511 146.79 14.9746 145.955C15.4108 145.17 16.0233 144.498 16.7637 143.991C17.7527 143.311 18.9255 142.948 20.1259 142.951H29.8266C31.3627 142.937 32.8416 143.532 33.9391 144.607C35.0365 145.682 35.6629 147.149 35.6807 148.685V158.616C35.6614 160.152 35.0347 161.618 33.9377 162.693C32.8407 163.768 31.3626 164.365 29.8266 164.354H20.1259Z" fill="white"/>
<path d="M20.1259 37.0518C18.5891 37.0643 17.11 36.4676 16.0121 35.3922C14.9142 34.3168 14.2869 32.8503 14.2676 31.3135V21.3826C14.2677 20.4273 14.511 19.4877 14.9746 18.6525C15.4108 17.8682 16.0233 17.1961 16.7637 16.689C17.7527 16.0086 18.9255 15.6456 20.1259 15.6484H29.8266C31.3627 15.6344 32.8416 16.2302 33.9391 17.3051C35.0365 18.3801 35.6629 19.8464 35.6807 21.3826V31.3135C35.6614 32.8495 35.0347 34.3154 33.9377 35.3907C32.8407 36.466 31.3626 37.0632 29.8266 37.0518H20.1259Z" fill="white"/>
<path d="M150.182 165.738C148.645 165.751 147.166 165.154 146.068 164.079C144.97 163.003 144.343 161.537 144.324 160V150.069C144.324 149.114 144.567 148.174 145.031 147.339C145.467 146.555 146.079 145.882 146.82 145.375C147.809 144.695 148.981 144.332 150.182 144.335H159.883C161.419 144.321 162.898 144.917 163.995 145.992C165.093 147.067 165.719 148.533 165.737 150.069V160C165.717 161.536 165.091 163.002 163.994 164.077C162.897 165.152 161.419 165.75 159.883 165.738H150.182Z" fill="white"/>
<path d="M150.182 35.6676C148.645 35.6801 147.166 35.0834 146.068 34.008C144.97 32.9326 144.343 31.4661 144.324 29.9293V19.9984C144.324 19.0431 144.567 18.1035 145.031 17.2683C145.467 16.484 146.079 15.8119 146.82 15.3048C147.809 14.6244 148.981 14.2614 150.182 14.2642H159.883C161.419 14.2502 162.898 14.846 163.995 15.921C165.093 16.9959 165.719 18.4622 165.737 19.9984V29.9293C165.717 31.4653 165.091 32.9312 163.994 34.0065C162.897 35.0818 161.419 35.679 159.883 35.6676H150.182Z" fill="white"/>
</svg>
