<svg width="30" height="30" viewBox="0 0 30 30" fill="none" xmlns="http://www.w3.org/2000/svg">
<path d="M15 30C23.2848 30 30 23.2848 30 15C30 6.71524 23.2848 0 15 0C6.71525 0 0 6.71524 0 15C0 23.2848 6.71525 30 15 30Z" fill="#0098EA"/>
<path d="M20.1232 8.37451H9.87659C7.99318 8.37451 6.80484 10.4037 7.74654 12.0516L14.0694 23.0158C14.4842 23.7333 15.5156 23.7333 15.9304 23.0158L22.2533 12.0516C23.195 10.4037 22.0066 8.37451 20.1232 8.37451ZM14.0582 19.7198L12.6793 17.0516L9.36089 11.1099C9.20394 10.8297 9.30484 10.4821 9.5739 10.314C9.66358 10.2579 9.76448 10.2355 9.86538 10.2355H14.047L14.0582 19.7198ZM20.6277 11.1099L17.3093 17.0516L15.9304 19.7198V10.2467H20.1232C20.5829 10.2355 20.8519 10.7288 20.6277 11.1099Z" fill="white"/>
</svg>
