<svg width="30" height="30" viewBox="0 0 30 30" fill="none" xmlns="http://www.w3.org/2000/svg">
<path d="M15 30C23.2843 30 30 23.2843 30 15C30 6.71573 23.2843 0 15 0C6.71573 0 0 6.71573 0 15C0 23.2843 6.71573 30 15 30Z" fill="#26A17B"/>
<path d="M16.6024 16.39C16.5059 16.39 15.9653 16.4286 14.7684 16.4286C13.8225 16.4286 13.1468 16.4093 12.9151 16.39C9.24718 16.2355 6.52518 15.5984 6.52518 14.8262C6.52518 14.054 9.26649 13.417 12.9151 13.2625V15.7529C13.1468 15.7722 13.8418 15.8108 14.7877 15.8108C15.9267 15.8108 16.4866 15.7722 16.6024 15.7529V13.2625C20.251 13.417 22.9924 14.054 22.9924 14.8262C22.9924 15.5791 20.251 16.2162 16.6024 16.39ZM16.6024 12.9923V10.7722H21.6989V7.37451H7.79931V10.7722H12.8958V12.9923C8.74525 13.1853 5.63715 13.9961 5.63715 14.9807C5.63715 15.9652 8.76456 16.7761 12.8958 16.9691V24.112H16.5831V16.9691C20.753 16.7954 23.8611 15.9845 23.8611 15C23.8611 14.0154 20.753 13.1853 16.6024 12.9923Z" fill="white"/>
</svg>
