<svg width="375" height="252" viewBox="0 0 375 252" fill="none" xmlns="http://www.w3.org/2000/svg">
<path style="mix-blend-mode:screen" d="M610 291.349C529.248 181.558 372.652 107.107 192.694 107.107C-0.896133 107.107 -167.45 193.265 -241.63 316.888V392.522H610V291.349Z" fill="url(#paint0_radial_278_46102)"/>
<path style="mix-blend-mode:screen" d="M554.978 285.978C484.663 190.375 348.305 125.544 191.597 125.544C23.024 125.544 -122.003 200.568 -186.6 308.218V374.077H554.978V285.978Z" fill="url(#paint1_radial_278_46102)"/>
<path style="mix-blend-mode:screen" d="M513.858 287.762C451.342 208.107 330.104 154.086 190.77 154.086C40.8858 154.086 -88.0551 216.594 -145.488 306.294V361.168H513.858V287.762Z" fill="url(#paint2_radial_278_46102)"/>
<path style="mix-blend-mode:screen" d="M-39.44 220.537C-42.5389 253.832 54.0994 257.993 164.36 247.817C274.621 237.641 352.057 275.558 402.848 247.356C422.965 236.188 421.998 220.519 411.414 205.33C349.933 173.149 273.542 154.086 190.77 154.086C107.998 154.086 26.1142 174.559 -36.4631 208.873C-38.0212 212.65 -39.0657 216.55 -39.44 220.537Z" fill="url(#paint3_radial_278_46102)"/>
<path opacity="0.5" d="M339.54 203.519C338.53 210.849 323.576 214.531 306.132 211.737C288.697 208.942 275.379 200.725 276.388 193.396C277.398 186.067 292.353 182.385 309.796 185.179C327.232 187.973 340.55 196.19 339.54 203.519ZM17.6098 193.614C1.14948 200.412 -10.21 211.545 -7.74661 218.465C-5.29192 225.385 10.0542 225.49 26.5146 218.683C42.975 211.876 54.3344 200.751 51.8711 193.831C49.4164 186.911 34.0702 186.807 17.6098 193.614ZM73.3104 205.591C61.4461 210.161 53.1767 217.917 54.8306 222.905C56.4845 227.892 67.4349 228.232 79.2992 223.653C91.1635 219.083 99.4329 211.327 97.779 206.34C96.1252 201.352 85.1748 201.012 73.3104 205.591ZM99.9552 169.241C90.9895 172.287 84.609 177.806 85.7145 181.575C86.8112 185.344 94.9761 185.936 103.942 182.89C112.908 179.843 119.288 174.324 118.183 170.555C117.086 166.786 108.921 166.194 99.9552 169.241ZM387.746 212.372C379.155 208.263 370.981 207.863 369.501 211.484C368.021 215.096 373.784 221.355 382.375 225.464C390.967 229.572 399.14 229.973 400.62 226.352C402.1 222.73 396.337 216.481 387.746 212.372ZM346.904 227.892C336.293 226.569 327.31 229.111 326.831 233.576C326.353 238.042 334.57 242.725 345.172 244.048C355.783 245.371 364.766 242.829 365.245 238.364C365.723 233.907 357.506 229.215 346.904 227.892Z" fill="url(#paint4_radial_278_46102)"/>
<path style="mix-blend-mode:screen" d="M31.572 218.187C24.0338 221.303 16.7394 222.965 10.8029 223.192C15.6252 222.46 21.0046 220.963 26.5146 218.683C42.975 211.884 54.3345 200.751 51.8711 193.831C50.5393 190.079 45.4123 188.33 38.379 188.608C47.954 187.155 55.292 188.73 56.9284 193.335C59.3831 200.255 48.0323 211.388 31.572 218.187ZM88.1082 202.379C93.1917 202.283 96.8738 203.615 97.779 206.34C99.4329 211.327 91.1548 219.074 79.2992 223.653C75.9131 224.959 72.6054 225.855 69.5588 226.36C73.7805 226.282 78.9684 225.229 84.3566 223.157C96.2209 218.587 104.49 210.831 102.836 205.843C101.653 202.283 95.7247 201.108 88.1082 202.379ZM309.796 185.179C327.232 187.973 340.55 196.19 339.54 203.519C338.948 207.837 333.508 210.892 325.569 212.093C336.189 211.562 343.884 208.211 344.597 203.023C345.607 195.694 332.289 187.477 314.854 184.683C307.69 183.534 300.953 183.481 295.416 184.317C299.804 184.099 304.696 184.361 309.796 185.179ZM392.803 211.876C386.249 208.742 379.955 207.776 376.674 209.09C379.86 209.369 383.751 210.466 387.746 212.372C396.337 216.48 402.109 222.739 400.62 226.351C400.263 227.213 399.523 227.84 398.505 228.249C402.17 228.562 404.885 227.796 405.677 225.855C407.157 222.243 401.395 215.984 392.803 211.876ZM351.961 227.396C347.679 226.865 343.675 226.969 340.376 227.561C342.439 227.509 344.632 227.605 346.904 227.883C357.515 229.207 365.723 233.89 365.245 238.355C364.957 241.019 361.632 242.986 356.758 243.865C364.296 243.674 369.928 241.358 370.302 237.859C370.781 233.402 362.564 228.71 351.961 227.387V227.396ZM110.575 167.3C114.631 167.3 117.556 168.414 118.183 170.555C119.279 174.324 112.908 179.852 103.942 182.889C102.027 183.542 100.155 184.012 98.3796 184.334C101.444 184.334 105.143 183.699 108.999 182.393C117.965 179.347 124.345 173.828 123.24 170.059C122.378 167.091 117.138 166.107 110.575 167.3Z" fill="url(#paint5_radial_278_46102)"/>
<path opacity="0.5" d="M361.458 242.481C358.176 240.723 353.702 239.339 348.68 238.712C342.064 237.885 336.084 238.564 332.402 240.279C335.684 242.037 340.158 243.421 345.181 244.048C351.796 244.875 357.776 244.196 361.458 242.481Z" fill="url(#paint6_radial_278_46102)"/>
<path opacity="0.5" d="M337.877 206.914C332.924 202.118 323.158 197.861 311.563 195.999C297.07 193.675 284.309 195.825 279.818 200.821C284.771 205.617 294.537 209.874 306.132 211.737C320.625 214.061 333.386 211.911 337.877 206.914Z" fill="url(#paint7_radial_278_46102)"/>
<path opacity="0.5" d="M374.114 220.171C376.308 222.069 379.137 223.914 382.375 225.464C388.468 228.38 394.344 229.415 397.774 228.484C395.58 226.587 392.751 224.741 389.513 223.192C383.42 220.276 377.544 219.24 374.114 220.171Z" fill="url(#paint8_radial_278_46102)"/>
<path opacity="0.5" d="M-4.56949 221.938C1.25387 225.115 13.5273 224.053 26.5146 218.683C37.9089 213.974 46.8485 207.201 50.4609 201.178C44.6375 198.001 32.364 199.063 19.3768 204.433C7.98252 209.142 -0.957093 215.915 -4.56949 221.938Z" fill="url(#paint9_radial_278_46102)"/>
<path opacity="0.5" d="M101.722 180.061C98.014 181.314 94.7672 183.003 92.2951 184.804C95.5332 184.97 99.6418 184.352 103.942 182.89C107.65 181.636 110.897 179.947 113.369 178.145C110.131 177.98 106.022 178.598 101.722 180.061Z" fill="url(#paint10_radial_278_46102)"/>
<path opacity="0.5" d="M59.383 226.334C64.0052 227.535 71.4389 226.674 79.2991 223.644C86.1322 221.007 91.7554 217.325 95.0022 213.712C90.38 212.511 82.9463 213.373 75.0861 216.402C68.253 219.04 62.6298 222.722 59.383 226.334Z" fill="url(#paint11_radial_278_46102)"/>
<path opacity="0.25" d="M42.1829 226.334C42.9837 229.093 38.2484 233.15 31.6068 235.404C24.9652 237.659 18.9243 237.249 18.1235 234.49C17.3226 231.731 22.0579 227.674 28.6995 225.42C35.3411 223.165 41.3821 223.575 42.1829 226.334Z" fill="url(#paint12_radial_278_46102)"/>
<path opacity="0.25" d="M290.672 175.256C290.307 178.119 284.414 179.608 277.52 178.581C270.617 177.554 265.325 174.403 265.69 171.539C266.056 168.675 271.949 167.187 278.843 168.214C285.746 169.241 291.038 172.392 290.672 175.256Z" fill="url(#paint13_radial_278_46102)"/>
<path opacity="0.25" d="M307.107 178.259C306.95 179.477 304.452 180.104 301.518 179.669C298.594 179.233 296.339 177.893 296.496 176.683C296.653 175.464 299.151 174.838 302.084 175.273C305.009 175.708 307.263 177.049 307.107 178.259Z" fill="url(#paint14_radial_278_46102)"/>
<path opacity="0.25" d="M335.614 219.562C335.458 220.78 332.959 221.407 330.026 220.972C327.101 220.537 324.847 219.196 325.003 217.986C325.16 216.768 327.658 216.141 330.592 216.576C333.525 217.011 335.771 218.352 335.614 219.562Z" fill="url(#paint15_radial_278_46102)"/>
<path opacity="0.25" d="M363.33 192.168C363.173 193.387 360.675 194.014 357.741 193.579C354.808 193.143 352.562 191.803 352.719 190.593C352.875 189.374 355.374 188.748 358.307 189.183C361.232 189.618 363.486 190.959 363.33 192.168Z" fill="url(#paint16_radial_278_46102)"/>
<path opacity="0.25" d="M380.547 202.109C380.069 204.007 375.969 204.468 371.39 203.127C366.811 201.787 363.486 199.167 363.965 197.269C364.444 195.372 368.544 194.91 373.122 196.251C377.701 197.591 381.026 200.211 380.547 202.109Z" fill="url(#paint17_radial_278_46102)"/>
<path opacity="0.25" d="M294.918 214.96C295.264 213.024 291.749 210.778 287.068 209.944C282.388 209.109 278.313 210.002 277.968 211.937C277.623 213.873 281.138 216.119 285.818 216.953C290.499 217.788 294.573 216.895 294.918 214.96Z" fill="url(#paint18_radial_278_46102)"/>
<path opacity="0.25" d="M106.135 190.784C106.545 192.499 103.515 194.823 99.3807 195.964C95.2373 197.113 91.5552 196.643 91.1461 194.928C90.737 193.213 93.7662 190.889 97.9009 189.749C102.044 188.6 105.726 189.07 106.135 190.784Z" fill="url(#paint19_radial_278_46102)"/>
<path opacity="0.25" d="M101.87 223.401C102.279 225.115 99.2501 227.44 95.1154 228.58C90.972 229.729 87.29 229.259 86.8809 227.544C86.4717 225.829 89.5009 223.505 93.6356 222.365C97.779 221.216 101.461 221.686 101.87 223.401Z" fill="url(#paint20_radial_278_46102)"/>
<path opacity="0.25" d="M110.383 215.436C110.636 216.506 108.756 217.951 106.17 218.665C103.594 219.379 101.296 219.092 101.043 218.021C100.791 216.95 102.671 215.505 105.256 214.792C107.842 214.078 110.131 214.365 110.383 215.436Z" fill="url(#paint21_radial_278_46102)"/>
<path opacity="0.25" d="M84.9484 172.435C85.2008 173.506 83.3206 174.951 80.7354 175.665C78.1588 176.378 75.8608 176.091 75.6084 175.021C75.356 173.95 77.2362 172.505 79.8214 171.791C82.398 171.077 84.696 171.365 84.9484 172.435Z" fill="url(#paint22_radial_278_46102)"/>
<path opacity="0.25" d="M52.3062 215.436C52.5587 216.506 50.6785 217.951 48.0932 218.665C45.5079 219.379 43.2187 219.092 42.9662 218.021C42.7138 216.95 44.594 215.505 47.1792 214.792C49.7558 214.078 52.0538 214.365 52.3062 215.436Z" fill="url(#paint23_radial_278_46102)"/>
<path opacity="0.25" d="M142.024 186.293C142.825 189.052 138.09 193.109 131.448 195.363C124.807 197.618 118.766 197.208 117.965 194.449C117.164 191.69 121.899 187.633 128.541 185.379C135.183 183.124 141.224 183.534 142.024 186.293Z" fill="url(#paint24_radial_278_46102)"/>
<path opacity="0.25" d="M152.148 175.395C152.4 176.465 150.52 177.91 147.935 178.624C145.358 179.338 143.06 179.051 142.808 177.98C142.555 176.909 144.436 175.464 147.021 174.751C149.606 174.037 151.895 174.324 152.148 175.395Z" fill="url(#paint25_radial_278_46102)"/>
<path opacity="0.25" d="M54.1082 180.809C54.3606 181.88 52.4804 183.325 49.8951 184.038C47.3186 184.752 45.0206 184.465 44.7681 183.394C44.5157 182.324 46.3959 180.879 48.9811 180.165C51.5577 179.451 53.8557 179.738 54.1082 180.809Z" fill="url(#paint26_radial_278_46102)"/>
<path d="M76.2698 167.625L50.3381 58.3141L50.7804 58.1878L77.4333 167.293L76.2698 167.625Z" fill="#400C3A"/>
<path d="M91.8183 163.185L56.3478 56.5981L55.7901 56.7573L90.5106 163.559L91.8183 163.185Z" fill="#400C3A"/>
<path d="M76.644 164.055L86.6085 151.569L86.0895 149.97L72.7442 145.191L80.6483 133.21L80.0456 131.354L68.4239 128.35L76.381 120.088L75.4515 117.233L66.1234 117.162L72.5325 108.249L72.0025 106.612L63.3723 105.634L69.9815 100.408L69.5188 98.9701L60.448 95.6117L65.6895 87.1991L65.1567 85.5521L58.1912 85.2324L61.4812 74.2468L60.8002 72.1533L54.4571 71.0631L58.3549 64.6462L58.0007 63.5514L51.5465 60.8706L55.7901 56.7572L51.2842 60.2799L51.5176 61.3156L57.877 64.0651L53.957 71.2059L54.0861 71.8763L60.7369 72.8786L57.47 85.584L65.1498 86.1469L60.0084 95.966L69.2068 99.7352L62.4396 105.9L71.9117 107.532L65.2936 117.607L75.3826 118.521L67.6546 128.788L79.6608 132.265L72.0808 145.38L85.9534 150.841L76.4724 163.345L76.644 164.055Z" fill="#400C3A"/>
<path d="M72.9428 168.575L49.0977 58.6685L49.7323 58.4872L74.6063 168.1L72.9428 168.575Z" fill="url(#paint27_linear_278_46102)"/>
<path d="M95.1453 162.235L57.6748 56.2192L56.8863 56.4443L93.2799 162.768L95.1453 162.235Z" fill="url(#paint28_linear_278_46102)"/>
<path d="M73.8747 164.846L89.1951 150.831L88.6473 149.24L70.5519 145.817L82.9368 132.557L82.3052 130.709L66.4335 128.919L78.4676 119.492L77.49 116.651L64.4887 117.629L74.4364 107.706L73.8776 106.077L61.9492 106.041L71.7604 99.9006L71.2688 98.4706L58.996 96.0266L67.2568 86.7518L66.6953 85.113L57.0277 85.5649L62.8466 73.8571L62.1368 71.7719L53.409 71.3627L59.5761 64.2977L59.2026 63.2084L50.4984 61.1701L56.8863 56.4444L50.2072 60.5876L50.4118 61.6316L58.9732 63.7523L52.6974 71.5659L52.8072 72.2417L61.9677 72.5273L55.9796 86.0098L66.6306 85.7242L58.3449 96.4413L70.7646 99.2905L60.6126 106.422L73.6522 107.035L63.284 118.181L77.2481 117.989L65.3084 129.458L81.6705 131.691L69.6095 146.086L88.3573 150.155L73.7127 164.133L73.8747 164.846Z" fill="url(#paint29_linear_278_46102)"/>
<path d="M41.7913 59.4861L44.5382 62.1128L63.1156 56.8079L64.9265 52.8796L41.7913 59.4861Z" fill="url(#paint30_radial_278_46102)"/>
<path d="M45.4324 61.8574L50.005 62.8292L49.5383 60.685L45.4324 61.8574Z" fill="#400C3A"/>
<path d="M58.9819 59.9224L62.404 57.0108L58.3654 58.1641L58.9819 59.9224Z" fill="#400C3A"/>
<path d="M46.7056 43.9183L46.522 40.2892L50.0125 39.2925L51.7922 42.4658L46.7056 43.9183Z" fill="#00FCDD"/>
<path d="M44.5318 58.7035L44.8731 44.348L53.7319 41.3919L62.2149 53.6539L44.5318 58.7035Z" fill="url(#paint31_linear_278_46102)"/>
<path d="M63.9938 53.1459L55.9358 27.6589L55.6322 28.0888L63.1861 53.3766L63.9938 53.1459Z" fill="#400C3A"/>
<path d="M43.6375 58.9586L41.0885 46.6453L41.3098 45.8541L44.5318 58.7033L43.6375 58.9586Z" fill="#400C3A"/>
<path d="M45.6099 50.1694L57.466 46.7838L57.9782 47.5215L45.8433 50.9868L45.6099 50.1694Z" fill="#00FCDD"/>
<path d="M53.026 50.5371L53.6124 51.1704L59.3626 49.5284L58.9011 48.8594L53.026 50.5371Z" fill="#00FCDD"/>
<path d="M55.6322 28.0888L58.5181 37.758L59.0758 37.5988L55.9358 27.6589L55.6322 28.0888Z" fill="#00FCDD"/>
<path d="M41.3098 45.8543L41.0885 46.6455L41.7817 49.9834L42.3106 49.8324L41.3098 45.8543Z" fill="#00FCDD"/>
<path style="mix-blend-mode:color-dodge" d="M52.9244 50.1813C59.5732 48.2827 64.7148 45.8739 64.4085 44.8012C64.1021 43.7284 58.4639 44.398 51.815 46.2966C45.1662 48.1952 40.0246 50.604 40.3309 51.6767C40.6373 52.7495 46.2755 52.08 52.9244 50.1813Z" fill="url(#paint32_radial_278_46102)"/>
<path style="mix-blend-mode:color-dodge" d="M58.0413 39.038C58.6481 41.163 55.0076 44.0745 49.9113 45.5298C44.815 46.9851 40.1888 46.4447 39.5792 44.31C38.9697 42.1753 42.6129 39.2734 47.7092 37.8181C52.8055 36.3628 57.4317 36.9033 58.0413 39.038Z" fill="url(#paint33_radial_278_46102)"/>
<path style="mix-blend-mode:color-dodge" d="M66.1896 47.5789C117.352 32.9691 158.715 20.7338 158.577 20.2505C158.439 19.7673 116.852 31.2191 65.6899 45.8289C14.5279 60.4387 -26.8352 72.674 -26.6972 73.1573C-26.5592 73.6405 15.0276 62.1887 66.1896 47.5789Z" fill="url(#paint34_radial_278_46102)"/>
<path d="M26.4512 181.852L20.7705 149.394L45.605 141.491L55.6635 173.51L26.4512 181.852Z" fill="url(#paint35_linear_278_46102)"/>
<path d="M69.4042 169.586L54.8173 173.751L45.605 141.491L58.3194 139.399L69.4042 169.586Z" fill="#6B36C6"/>
<path d="M15.3664 151.665L47.9345 142.365L47.0765 138.887L14.3834 148.223L15.3664 151.665Z" fill="#400C3A"/>
<path d="M60.116 140.082L47.9345 142.365L47.0765 138.887L59.3087 137.255L60.116 140.082Z" fill="#DB4559"/>
<path d="M21.8355 146.095L22.0914 142.912L38.9011 137.134L36.3959 125.63L36.7324 125.534L39.8803 137.832L42.765 137.008L43.213 135.809L50.9838 133.85L52.4807 135.815L55.1634 135.777L56.1535 137.678L47.0765 138.887L21.8355 146.095Z" fill="#400C3A"/>
<path d="M35.6705 126.149L36.1498 126.917L37.5633 126.513L37.536 125.616L35.6705 126.149Z" fill="url(#paint36_linear_278_46102)"/>
<path d="M29.4151 135.891L32.1878 140.029L27.1519 142.132L29.4151 135.891Z" fill="#400C3A"/>
<path d="M29.2254 137.412C28.4253 141.675 25.5582 144.709 22.8234 144.201C20.0859 143.682 18.5233 139.813 19.3233 135.549C20.1233 131.286 22.9905 128.252 25.7253 128.76C28.4628 129.279 30.0254 133.148 29.2254 137.412Z" fill="url(#paint37_linear_278_46102)"/>
<path d="M28.1704 137.214C27.3704 141.477 24.7354 144.559 22.2959 144.102C19.8565 143.644 18.5232 139.813 19.3233 135.549C20.1233 131.285 22.7583 128.203 25.1978 128.661C27.6373 129.119 28.9705 132.95 28.1704 137.214Z" fill="url(#paint38_radial_278_46102)"/>
<path d="M32.3071 180.179L30.2171 165.905L31.3563 163.011L41.8085 160.026L44.6694 161.778L49.6152 175.237L32.3071 180.179Z" fill="#400C3A"/>
<path d="M31.6244 180.374L30.2171 165.905L31.3563 163.011L33.8083 162.31L32.496 165.254L34.4514 179.567L31.6244 180.374Z" fill="#400C3A"/>
<path d="M38.2583 155.424L48.7298 152.433L48.9824 153.318L38.2513 156.382L38.2583 155.424Z" fill="#00FCDD"/>
<path style="mix-blend-mode:color-dodge" d="M45.5999 157.862C50.6981 156.406 54.338 153.499 53.7298 151.37C53.1217 149.24 48.4959 148.694 43.3978 150.15C38.2996 151.606 34.6597 154.512 35.2678 156.642C35.8759 158.771 40.5018 159.317 45.5999 157.862Z" fill="url(#paint39_radial_278_46102)"/>
<path d="M54.1407 169.234L58.4197 168.012L58.9746 168.28L54.2533 169.628L54.1407 169.234Z" fill="url(#paint40_radial_278_46102)"/>
<path d="M53.5988 145.812L57.0027 144.84L56.7884 145.255L53.6921 146.139L53.5988 145.812Z" fill="url(#paint41_radial_278_46102)"/>
<g style="mix-blend-mode:soft-light">
<path d="M46.8217 162.723L46.1817 162.521L48.1625 161.955L49.4798 161.579L48.3602 162.648L46.8217 162.723Z" fill="white"/>
</g>
<g style="mix-blend-mode:soft-light">
<path d="M57.8858 155.435L57.243 155.223L59.2142 154.66L60.5315 154.284L59.4119 155.353L57.8858 155.435Z" fill="white"/>
</g>
<g style="mix-blend-mode:color-dodge">
<path d="M40.9417 160.377L42.0462 159.438L43.8347 158.927L45.2729 158.829L43.9994 159.504L40.9417 160.377Z" fill="white"/>
</g>
<path d="M19.9127 183.719L10.7607 162.34L-26.6153 173.013L-22.5884 195.855L19.9127 183.719Z" fill="#FF8158"/>
<path d="M12.977 157.974L14.1593 159.966L-13.8111 167.339L-14.3657 165.397L12.977 157.974Z" fill="#DB4559"/>
<path d="M-14.3657 165.397L-30.3776 173.204L-30.4356 175.404L-11.1341 168.592L10.7607 162.34L14.1593 159.966L-13.8111 167.339L-14.3657 165.397Z" fill="#400C3A"/>
<path d="M1.09493 189.092L0.714303 180.476L11.6088 177.365L16.4223 184.716L1.09493 189.092Z" fill="#B9004E"/>
<path d="M8.76259 178.177L13.076 185.671L16.4223 184.716L11.6088 177.365L8.76259 178.177Z" fill="url(#paint42_linear_278_46102)"/>
<path d="M-23.1299 169.668L-21.1115 165.191L-16.7774 163.07L-15.3201 163.621L-9.77464 161.954L-12.2239 153.377L-12.0233 153.132L-9.72909 160.402L-8.77579 160.317L-9.33311 157.782L-9.08586 157.774L-7.42171 162.364L1.55656 159.644L4.25433 159.622L4.12407 158.037L4.64473 157.493L5.17743 159.359L10.8052 158.563L-14.3657 165.397L-23.1299 169.668Z" fill="#400C3A"/>
<path d="M3.62333 182.359L7.76767 181.176L8.38291 182.165L3.63278 183.522L3.62333 182.359Z" fill="#00FCDD"/>
<path style="mix-blend-mode:color-dodge" d="M11.6331 180.655C12.0147 181.991 9.73568 183.807 6.54329 184.718C3.3509 185.63 0.456753 185.292 0.0750817 183.955C-0.306589 182.618 1.97248 180.803 5.16487 179.891C8.35726 178.98 11.2514 179.318 11.6331 180.655Z" fill="url(#paint43_radial_278_46102)"/>
<path d="M286.073 164.832L294.135 143.019L331.992 151.792L329.132 174.811L286.073 164.832Z" fill="#DC7B88"/>
<path d="M316.317 148.16L311.109 170.634L329.132 174.811L331.992 151.792L316.317 148.16Z" fill="url(#paint44_linear_278_46102)"/>
<path d="M319.384 144.805L288.697 137.694L288.241 139.662L318.928 146.773L319.384 144.805Z" fill="#DB4559"/>
<path d="M319.384 144.805L335.759 151.792L335.136 154.481L316.317 148.16L294.135 143.019L288.241 139.662L318.928 146.773L319.384 144.805Z" fill="url(#paint45_linear_278_46102)"/>
<path d="M317.588 172.135L328.887 146.278L345.506 138.746L411.346 153.983L423.081 168.106L423.696 196.724L317.588 172.135Z" fill="#DC7B88"/>
<path d="M345.506 138.746L369.785 144.362L380.62 157.405L378.552 186.263L423.696 196.724L423.081 168.106L411.346 153.983L345.506 138.746Z" fill="url(#paint46_linear_278_46102)"/>
<path d="M423.081 168.106L380.62 157.405L378.552 186.263L423.696 196.724L423.081 168.106Z" fill="url(#paint47_linear_278_46102)"/>
<g style="mix-blend-mode:multiply" opacity="0.5">
<path d="M423.467 186.016L379.353 175.054L379.739 169.713L323.907 157.668L323.366 158.806L378.574 170.665L379.222 176.861L423.489 187.119L423.467 186.016Z" fill="#6893D6"/>
</g>
<path d="M330.359 175.095L335.747 158.534L341.75 154.956L355.554 158.155L359.768 163.936L357.607 181.409L330.359 175.095Z" fill="#B9004E"/>
<path d="M333.74 175.878L338.371 160.856L347.03 156.18L341.75 154.956L335.747 158.534L330.359 175.095L333.74 175.878Z" fill="url(#paint48_linear_278_46102)"/>
<path d="M349.485 139.647L355.686 136.722L364.76 138.671L366.378 143.562L349.485 139.647Z" fill="#DB4559"/>
<path d="M405.988 152.741L402.242 147.336L364.76 138.671L366.378 143.562L405.988 152.741Z" fill="#401838"/>
<path d="M364.76 138.671L362.271 131.74L362.397 131.194L366.888 139.143L364.76 138.671Z" fill="url(#paint49_linear_278_46102)"/>
<path d="M365.607 133.201C362.841 136.543 358.863 137.807 356.717 136.037C354.574 134.257 355.082 130.115 357.848 126.773C360.613 123.431 364.592 122.167 366.737 123.937C368.881 125.717 368.373 129.859 365.607 133.201Z" fill="#401838"/>
<path d="M364.78 132.516C362.014 135.858 358.216 137.277 356.304 135.695C354.392 134.112 355.082 130.115 357.848 126.773C360.613 123.431 364.412 122.012 366.324 123.594C368.236 125.177 367.546 129.174 364.78 132.516Z" fill="#FF8158"/>
<g style="mix-blend-mode:multiply" opacity="0.5">
<path d="M348.998 156.636L346.494 167.44L347.819 170.847L345.995 178.718L346.891 178.926L348.715 171.054L347.283 167.623L349.787 156.819L348.998 156.636Z" fill="#6893D6"/>
</g>
<path d="M364.665 166.456L365.049 164.8L376.901 167.342L377.303 169.149L364.665 166.456Z" fill="url(#paint50_radial_278_46102)"/>
<path d="M340.127 164.527L345.251 165.715L345.739 163.61L340.907 162.491L340.127 164.527Z" fill="url(#paint51_radial_278_46102)"/>
<path style="mix-blend-mode:color-dodge" d="M450.144 192.537C450.024 193.053 428.281 188.456 401.588 182.27C374.896 176.085 353.346 170.65 353.466 170.133C353.586 169.617 375.329 174.214 402.022 180.4C428.714 186.585 450.264 192.02 450.144 192.537Z" fill="url(#paint52_radial_278_46102)"/>
<path style="mix-blend-mode:color-dodge" d="M378.284 168.637C377.916 170.225 374.528 170.805 370.719 169.923C366.91 169.04 364.12 167.038 364.49 165.441C364.86 163.843 368.246 163.273 372.055 164.155C375.864 165.038 378.655 167.04 378.284 168.637Z" fill="url(#paint53_radial_278_46102)"/>
<path style="mix-blend-mode:color-dodge" d="M342.249 167.021C346.058 167.903 349.445 167.328 349.815 165.735C350.184 164.143 347.395 162.136 343.586 161.253C339.776 160.371 336.389 160.946 336.02 162.539C335.651 164.131 338.44 166.138 342.249 167.021Z" fill="url(#paint54_radial_278_46102)"/>
<path d="M332.73 156.048L336.237 156.861L337.388 156.635L332.873 155.435L332.73 156.048Z" fill="url(#paint55_radial_278_46102)"/>
<path d="M302.448 42.2958L300.558 41.8579L303.671 30.3329L304.616 30.5519L302.448 42.2958Z" fill="url(#paint56_linear_278_46102)"/>
<path d="M277.402 161.54L302.842 42.3252L301.375 41.2153L276.594 161.352L277.402 161.54Z" fill="url(#paint57_linear_278_46102)"/>
<path d="M270.291 159.892L299.832 41.6277L301.686 41.2876L271.099 160.079L270.291 159.892Z" fill="url(#paint58_linear_278_46102)"/>
<path d="M304.194 31.2649L308.965 9.87986L303.707 31.152L304.194 31.2649Z" fill="url(#paint59_linear_278_46102)"/>
<path d="M271.099 160.079L283.949 125.713L284.986 121.242L273.287 150.639L271.099 160.079Z" fill="url(#paint60_linear_278_46102)"/>
<path d="M290.304 94.8815L282.873 114.367L284.205 109.194L291.566 89.4358L290.304 94.8815Z" fill="url(#paint61_linear_278_46102)"/>
<path d="M276.781 160.544L280.131 125.003L280.853 121.885L278.138 154.689L276.781 160.544Z" fill="url(#paint62_linear_278_46102)"/>
<path d="M286.61 112.769L289.856 87.2433L288.749 91.5342L285.962 115.565L286.61 112.769Z" fill="url(#paint63_linear_278_46102)"/>
<path d="M297.792 62.7013L290.361 82.1869L291.693 77.014L299.054 57.2556L297.792 62.7013Z" fill="url(#paint64_linear_278_46102)"/>
<path d="M294.098 80.5892L297.344 55.0632L296.237 59.354L293.448 83.3949L294.098 80.5892Z" fill="url(#paint65_linear_278_46102)"/>
<path d="M285.645 117.555L282.249 116.748L281.976 117.927L285.396 118.627L285.645 117.555Z" fill="url(#paint66_linear_278_46102)"/>
<path d="M269.921 159.806L298.942 45.1993L270.768 160.003L269.921 159.806Z" fill="#FF792C"/>
<path d="M293.627 83.1079L290.232 82.3005L289.959 83.4793L293.377 84.1892L293.627 83.1079Z" fill="url(#paint67_linear_278_46102)"/>
<path d="M295.85 68.5541C295.792 68.8074 295.54 68.9646 295.286 68.9059C295.033 68.8472 294.876 68.5952 294.934 68.3419C294.993 68.0886 295.245 67.9314 295.498 67.9901C295.752 68.0488 295.909 68.3008 295.85 68.5541Z" fill="#BDD3FF"/>
<path d="M293.952 83.7887C293.893 84.042 293.641 84.1992 293.388 84.1405C293.135 84.0818 292.978 83.8298 293.036 83.5765C293.095 83.3232 293.347 83.1661 293.6 83.2248C293.853 83.2835 294.011 83.5354 293.952 83.7887Z" fill="#BDD3FF"/>
<path d="M290.338 82.9513C290.279 83.2046 290.027 83.3618 289.774 83.3031C289.52 83.2444 289.363 82.9924 289.422 82.7391C289.481 82.4858 289.733 82.3287 289.986 82.3874C290.239 82.446 290.396 82.698 290.338 82.9513Z" fill="#BDD3FF"/>
<path d="M300.38 42.494C300.322 42.7473 300.07 42.9045 299.816 42.8458C299.563 42.7871 299.406 42.5351 299.465 42.2818C299.523 42.0286 299.775 41.8714 300.029 41.9301C300.282 41.9888 300.439 42.2408 300.38 42.494Z" fill="#BDD3FF"/>
<path d="M302.757 43.0448C302.699 43.2981 302.447 43.4553 302.193 43.3966C301.94 43.3379 301.783 43.0859 301.842 42.8326C301.9 42.5793 302.152 42.4222 302.406 42.4809C302.659 42.5396 302.816 42.7915 302.757 43.0448Z" fill="#BDD3FF"/>
<path d="M287.687 100.989C287.94 101.047 288.193 100.89 288.251 100.637C288.31 100.384 288.152 100.131 287.9 100.073C287.647 100.014 287.394 100.172 287.336 100.425C287.277 100.678 287.434 100.93 287.687 100.989Z" fill="#BDD3FF"/>
<path d="M286.43 118.332C286.371 118.586 286.119 118.743 285.866 118.684C285.612 118.625 285.455 118.374 285.514 118.12C285.572 117.867 285.824 117.71 286.078 117.768C286.331 117.827 286.488 118.079 286.43 118.332Z" fill="#BDD3FF"/>
<path d="M281.773 117.253C281.714 117.507 281.462 117.664 281.209 117.605C280.956 117.546 280.798 117.294 280.857 117.041C280.916 116.788 281.168 116.631 281.421 116.689C281.674 116.748 281.832 117 281.773 117.253Z" fill="#BDD3FF"/>
<path d="M279.58 137.347C279.521 137.6 279.269 137.758 279.016 137.699C278.763 137.64 278.606 137.388 278.664 137.135C278.723 136.882 278.975 136.724 279.228 136.783C279.482 136.842 279.639 137.094 279.58 137.347Z" fill="#BDD3FF"/>
<path d="M303.854 31.4017C304.22 31.4865 304.585 31.2587 304.67 30.8928C304.755 30.527 304.527 30.1616 304.161 30.0769C303.795 29.9921 303.43 30.2199 303.345 30.5858C303.26 30.9517 303.488 31.317 303.854 31.4017Z" fill="#BDD3FF"/>
<defs>
<radialGradient id="paint0_radial_278_46102" cx="0" cy="0" r="1" gradientUnits="userSpaceOnUse" gradientTransform="translate(177.045 105.728) scale(438.409 493.21)">
<stop stop-color="#4A289C" stop-opacity="0"/>
<stop offset="0.96" stop-color="#00092B"/>
</radialGradient>
<radialGradient id="paint1_radial_278_46102" cx="0" cy="0" r="1" gradientUnits="userSpaceOnUse" gradientTransform="translate(177.747 124.505) scale(381.756 429.476)">
<stop stop-color="#4A289C" stop-opacity="0"/>
<stop offset="0.96" stop-color="#00092B"/>
</radialGradient>
<radialGradient id="paint2_radial_278_46102" cx="0" cy="0" r="1" gradientUnits="userSpaceOnUse" gradientTransform="translate(168.008 108.771) scale(339.416 357.599)">
<stop stop-color="#4A289C"/>
<stop offset="0.96" stop-color="#00092B"/>
</radialGradient>
<radialGradient id="paint3_radial_278_46102" cx="0" cy="0" r="1" gradientUnits="userSpaceOnUse" gradientTransform="translate(179.576 131.054) scale(219.512 219.512)">
<stop stop-color="#4A289C"/>
<stop offset="0.96" stop-color="#00092B"/>
</radialGradient>
<radialGradient id="paint4_radial_278_46102" cx="0" cy="0" r="1" gradientUnits="userSpaceOnUse" gradientTransform="translate(192.135 146.571) rotate(9.11) scale(190.251 203.72)">
<stop stop-color="#4A289C"/>
<stop offset="0.96" stop-color="#00092B"/>
</radialGradient>
<radialGradient id="paint5_radial_278_46102" cx="0" cy="0" r="1" gradientUnits="userSpaceOnUse" gradientTransform="translate(206.527 204.263) scale(141.401 152.764)">
<stop stop-color="#4A289C"/>
<stop offset="0.96" stop-color="#00092B"/>
</radialGradient>
<radialGradient id="paint6_radial_278_46102" cx="0" cy="0" r="1" gradientUnits="userSpaceOnUse" gradientTransform="translate(254.6 106.384) scale(174.685 188.722)">
<stop stop-color="#4A289C"/>
<stop offset="0.96" stop-color="#00092B"/>
</radialGradient>
<radialGradient id="paint7_radial_278_46102" cx="0" cy="0" r="1" gradientUnits="userSpaceOnUse" gradientTransform="translate(254.6 106.395) scale(174.685 188.722)">
<stop stop-color="#4A289C"/>
<stop offset="0.96" stop-color="#00092B"/>
</radialGradient>
<radialGradient id="paint8_radial_278_46102" cx="0" cy="0" r="1" gradientUnits="userSpaceOnUse" gradientTransform="translate(254.6 106.395) scale(174.685 188.722)">
<stop stop-color="#4A289C"/>
<stop offset="0.96" stop-color="#00092B"/>
</radialGradient>
<radialGradient id="paint9_radial_278_46102" cx="0" cy="0" r="1" gradientUnits="userSpaceOnUse" gradientTransform="translate(254.6 106.394) scale(174.685 188.722)">
<stop stop-color="#4A289C"/>
<stop offset="0.96" stop-color="#00092B"/>
</radialGradient>
<radialGradient id="paint10_radial_278_46102" cx="0" cy="0" r="1" gradientUnits="userSpaceOnUse" gradientTransform="translate(254.6 106.394) scale(174.685 188.722)">
<stop stop-color="#4A289C"/>
<stop offset="0.96" stop-color="#00092B"/>
</radialGradient>
<radialGradient id="paint11_radial_278_46102" cx="0" cy="0" r="1" gradientUnits="userSpaceOnUse" gradientTransform="translate(254.6 106.395) scale(174.685 188.722)">
<stop stop-color="#4A289C"/>
<stop offset="0.96" stop-color="#00092B"/>
</radialGradient>
<radialGradient id="paint12_radial_278_46102" cx="0" cy="0" r="1" gradientUnits="userSpaceOnUse" gradientTransform="translate(24.5495 197.68) scale(53.2985 57.5814)">
<stop stop-color="#4A289C"/>
<stop offset="0.96" stop-color="#00092B"/>
</radialGradient>
<radialGradient id="paint13_radial_278_46102" cx="0" cy="0" r="1" gradientUnits="userSpaceOnUse" gradientTransform="translate(281.361 140.399) rotate(27.02) scale(54.2503 57.1055)">
<stop stop-color="#4A289C"/>
<stop offset="0.96" stop-color="#00092B"/>
</radialGradient>
<radialGradient id="paint14_radial_278_46102" cx="0" cy="0" r="1" gradientTransform="matrix(20.5178 10.4634 -11.0141 21.5977 299.488 161.884)" gradientUnits="userSpaceOnUse">
<stop stop-color="#4A289C"/>
<stop offset="0.96" stop-color="#00092B"/>
</radialGradient>
<radialGradient id="paint15_radial_278_46102" cx="0" cy="0" r="1" gradientTransform="matrix(20.5178 10.4634 -11.0141 21.5978 326.673 202.61)" gradientUnits="userSpaceOnUse">
<stop stop-color="#4A289C"/>
<stop offset="0.96" stop-color="#00092B"/>
</radialGradient>
<radialGradient id="paint16_radial_278_46102" cx="0" cy="0" r="1" gradientTransform="matrix(20.5178 10.4634 -11.0141 21.5978 356.37 176.071)" gradientUnits="userSpaceOnUse">
<stop stop-color="#4A289C"/>
<stop offset="0.96" stop-color="#00092B"/>
</radialGradient>
<radialGradient id="paint17_radial_278_46102" cx="0" cy="0" r="1" gradientUnits="userSpaceOnUse" gradientTransform="translate(380.069 179.523) rotate(34.6) scale(37.2783 38.5749)">
<stop stop-color="#4A289C"/>
<stop offset="0.96" stop-color="#00092B"/>
</radialGradient>
<radialGradient id="paint18_radial_278_46102" cx="0" cy="0" r="1" gradientUnits="userSpaceOnUse" gradientTransform="translate(285.118 188.194) rotate(28.35) scale(36.9541 38.5748)">
<stop stop-color="#4A289C"/>
<stop offset="0.96" stop-color="#00092B"/>
</radialGradient>
<radialGradient id="paint19_radial_278_46102" cx="0" cy="0" r="1" gradientUnits="userSpaceOnUse" gradientTransform="translate(92.2934 172.151) rotate(3.31) scale(32.7083 35.3367)">
<stop stop-color="#4A289C"/>
<stop offset="0.96" stop-color="#00092B"/>
</radialGradient>
<radialGradient id="paint20_radial_278_46102" cx="0" cy="0" r="1" gradientUnits="userSpaceOnUse" gradientTransform="translate(87.7748 204.69) rotate(3.31) scale(32.7083 35.3367)">
<stop stop-color="#4A289C"/>
<stop offset="0.96" stop-color="#00092B"/>
</radialGradient>
<radialGradient id="paint21_radial_278_46102" cx="0" cy="0" r="1" gradientUnits="userSpaceOnUse" gradientTransform="translate(99.7487 203.315) rotate(3.31) scale(20.3756 22.013)">
<stop stop-color="#4A289C"/>
<stop offset="0.96" stop-color="#00092B"/>
</radialGradient>
<radialGradient id="paint22_radial_278_46102" cx="0" cy="0" r="1" gradientUnits="userSpaceOnUse" gradientTransform="translate(74.768 160.44) rotate(3.31) scale(20.3756 22.013)">
<stop stop-color="#4A289C"/>
<stop offset="0.96" stop-color="#00092B"/>
</radialGradient>
<radialGradient id="paint23_radial_278_46102" cx="0" cy="0" r="1" gradientUnits="userSpaceOnUse" gradientTransform="translate(41.888 203.323) rotate(3.31) scale(20.3756 22.013)">
<stop stop-color="#4A289C"/>
<stop offset="0.96" stop-color="#00092B"/>
</radialGradient>
<radialGradient id="paint24_radial_278_46102" cx="0" cy="0" r="1" gradientUnits="userSpaceOnUse" gradientTransform="translate(124 157.73) scale(53.2985 57.5814)">
<stop stop-color="#4A289C"/>
<stop offset="0.96" stop-color="#00092B"/>
</radialGradient>
<radialGradient id="paint25_radial_278_46102" cx="0" cy="0" r="1" gradientUnits="userSpaceOnUse" gradientTransform="translate(141.686 163.381) rotate(3.30999) scale(20.3757 22.013)">
<stop stop-color="#4A289C"/>
<stop offset="0.96" stop-color="#00092B"/>
</radialGradient>
<radialGradient id="paint26_radial_278_46102" cx="0" cy="0" r="1" gradientUnits="userSpaceOnUse" gradientTransform="translate(43.9637 168.786) rotate(3.30999) scale(20.3757 22.013)">
<stop stop-color="#4A289C"/>
<stop offset="0.96" stop-color="#00092B"/>
</radialGradient>
<linearGradient id="paint27_linear_278_46102" x1="76.741" y1="167.491" x2="45.9245" y2="59.5746" gradientUnits="userSpaceOnUse">
<stop stop-color="#360068"/>
<stop offset="1" stop-color="#4B0083"/>
</linearGradient>
<linearGradient id="paint28_linear_278_46102" x1="91.4241" y1="163.298" x2="60.6076" y2="55.3817" gradientUnits="userSpaceOnUse">
<stop stop-color="#360068"/>
<stop offset="1" stop-color="#4B0083"/>
</linearGradient>
<linearGradient id="paint29_linear_278_46102" x1="82.8076" y1="162.295" x2="52.9054" y2="57.5812" gradientUnits="userSpaceOnUse">
<stop stop-color="#360068"/>
<stop offset="1" stop-color="#4B0083"/>
</linearGradient>
<radialGradient id="paint30_radial_278_46102" cx="0" cy="0" r="1" gradientUnits="userSpaceOnUse" gradientTransform="translate(53.8093 57.7598) rotate(-15.9372) scale(8.58 8.58)">
<stop stop-color="#3D4DF9"/>
<stop offset="1" stop-color="#3B6FFF"/>
</radialGradient>
<linearGradient id="paint31_linear_278_46102" x1="53.3782" y1="56.1773" x2="49.5011" y2="42.6001" gradientUnits="userSpaceOnUse">
<stop stop-color="#360068"/>
<stop offset="1" stop-color="#4B0083"/>
</linearGradient>
<radialGradient id="paint32_radial_278_46102" cx="0" cy="0" r="1" gradientUnits="userSpaceOnUse" gradientTransform="translate(53.4102 48.0983) rotate(-15.9372) scale(12.5489 2.0384)">
<stop stop-color="#2AFF9D"/>
<stop offset="0.09" stop-color="#28F496"/>
<stop offset="0.23" stop-color="#23D885"/>
<stop offset="0.43" stop-color="#1CAB69"/>
<stop offset="0.65" stop-color="#116C42"/>
<stop offset="0.91" stop-color="#041C11"/>
<stop offset="1"/>
</radialGradient>
<radialGradient id="paint33_radial_278_46102" cx="0" cy="0" r="1" gradientUnits="userSpaceOnUse" gradientTransform="translate(49.3945 41.3689) rotate(-15.9372) scale(9.63041 3.9818)">
<stop stop-color="#2AFF9D"/>
<stop offset="0.09" stop-color="#28F496"/>
<stop offset="0.23" stop-color="#23D885"/>
<stop offset="0.43" stop-color="#1CAB69"/>
<stop offset="0.65" stop-color="#116C42"/>
<stop offset="0.91" stop-color="#041C11"/>
<stop offset="1"/>
</radialGradient>
<radialGradient id="paint34_radial_278_46102" cx="0" cy="0" r="1" gradientUnits="userSpaceOnUse" gradientTransform="translate(66.9644 46.1272) rotate(-15.9372) scale(96.3781 0.891804)">
<stop stop-color="#2AFF9D"/>
<stop offset="0.09" stop-color="#28F496"/>
<stop offset="0.23" stop-color="#23D885"/>
<stop offset="0.43" stop-color="#1CAB69"/>
<stop offset="0.65" stop-color="#116C42"/>
<stop offset="0.91" stop-color="#041C11"/>
<stop offset="1"/>
</radialGradient>
<linearGradient id="paint35_linear_278_46102" x1="41.0573" y1="177.681" x2="31.845" y2="145.42" gradientUnits="userSpaceOnUse">
<stop stop-color="#360068"/>
<stop offset="1" stop-color="#4B0083"/>
</linearGradient>
<linearGradient id="paint36_linear_278_46102" x1="35.7914" y1="126.572" x2="37.6568" y2="126.04" gradientUnits="userSpaceOnUse">
<stop stop-color="#551D47"/>
<stop offset="1" stop-color="#593852"/>
</linearGradient>
<linearGradient id="paint37_linear_278_46102" x1="18.7776" y1="138.045" x2="29.7683" y2="134.906" gradientUnits="userSpaceOnUse">
<stop stop-color="#FF0061"/>
<stop offset="1" stop-color="#FF6600"/>
</linearGradient>
<radialGradient id="paint38_radial_278_46102" cx="0" cy="0" r="1" gradientUnits="userSpaceOnUse" gradientTransform="translate(23.7546 136.39) rotate(10.6528) scale(6.4 6.4)">
<stop stop-color="#3D4DF9"/>
<stop offset="1" stop-color="#3B6FFF"/>
</radialGradient>
<radialGradient id="paint39_radial_278_46102" cx="0" cy="0" r="1" gradientUnits="userSpaceOnUse" gradientTransform="translate(44.7911 153.041) rotate(-15.9372) scale(9.6304 3.98179)">
<stop stop-color="#2AFF9D"/>
<stop offset="0.09" stop-color="#28F496"/>
<stop offset="0.23" stop-color="#23D885"/>
<stop offset="0.43" stop-color="#1CAB69"/>
<stop offset="0.65" stop-color="#116C42"/>
<stop offset="0.91" stop-color="#041C11"/>
<stop offset="1"/>
</radialGradient>
<radialGradient id="paint40_radial_278_46102" cx="0" cy="0" r="1" gradientUnits="userSpaceOnUse" gradientTransform="translate(56.5611 168.75) rotate(-15.9372) scale(1.74 1.74002)">
<stop stop-color="#51CCFE"/>
<stop offset="1" stop-color="#33FCE9"/>
</radialGradient>
<radialGradient id="paint41_radial_278_46102" cx="0" cy="0" r="1" gradientUnits="userSpaceOnUse" gradientTransform="translate(55.3474 145.489) rotate(-15.9372) scale(1.26 1.2601)">
<stop stop-color="#51CCFE"/>
<stop offset="1" stop-color="#33FCE9"/>
</radialGradient>
<linearGradient id="paint42_linear_278_46102" x1="9.91584" y1="182.216" x2="15.2718" y2="180.687" gradientUnits="userSpaceOnUse">
<stop stop-color="#360068"/>
<stop offset="1" stop-color="#4B0083"/>
</linearGradient>
<radialGradient id="paint43_radial_278_46102" cx="0" cy="0" r="1" gradientUnits="userSpaceOnUse" gradientTransform="translate(5.98705 181.267) rotate(-15.9372) scale(6.032 2.49401)">
<stop stop-color="#2AFF9D"/>
<stop offset="0.09" stop-color="#28F496"/>
<stop offset="0.23" stop-color="#23D885"/>
<stop offset="0.43" stop-color="#1CAB69"/>
<stop offset="0.65" stop-color="#116C42"/>
<stop offset="0.91" stop-color="#041C11"/>
<stop offset="1"/>
</radialGradient>
<linearGradient id="paint44_linear_278_46102" x1="313.712" y1="159.402" x2="331.735" y2="163.578" gradientUnits="userSpaceOnUse">
<stop stop-color="#360068"/>
<stop offset="1" stop-color="#4B0083"/>
</linearGradient>
<linearGradient id="paint45_linear_278_46102" x1="311.259" y1="148.948" x2="312.584" y2="143.23" gradientUnits="userSpaceOnUse">
<stop stop-color="#360068"/>
<stop offset="1" stop-color="#4B0083"/>
</linearGradient>
<linearGradient id="paint46_linear_278_46102" x1="341.127" y1="157.645" x2="428.082" y2="177.796" gradientUnits="userSpaceOnUse">
<stop stop-color="#450068"/>
<stop offset="1" stop-color="#6D0083"/>
</linearGradient>
<linearGradient id="paint47_linear_278_46102" x1="377.394" y1="171.326" x2="426.922" y2="182.803" gradientUnits="userSpaceOnUse">
<stop stop-color="#360068"/>
<stop offset="1" stop-color="#4B0083"/>
</linearGradient>
<linearGradient id="paint48_linear_278_46102" x1="332.865" y1="164.281" x2="344.526" y2="166.984" gradientUnits="userSpaceOnUse">
<stop stop-color="#360068"/>
<stop offset="1" stop-color="#4B0083"/>
</linearGradient>
<linearGradient id="paint49_linear_278_46102" x1="363.883" y1="138.467" x2="365.407" y2="131.892" gradientUnits="userSpaceOnUse">
<stop stop-color="#551D47"/>
<stop offset="1" stop-color="#593852"/>
</linearGradient>
<radialGradient id="paint50_radial_278_46102" cx="0" cy="0" r="1" gradientUnits="userSpaceOnUse" gradientTransform="translate(371.173 166.989) rotate(13.0471) scale(4.61999 4.61999)">
<stop stop-color="#51CCFE"/>
<stop offset="1" stop-color="#33FCE9"/>
</radialGradient>
<radialGradient id="paint51_radial_278_46102" cx="0" cy="0" r="1" gradientUnits="userSpaceOnUse" gradientTransform="translate(342.933 164.069) rotate(13.0471) scale(2.01)">
<stop stop-color="#51CCFE"/>
<stop offset="1" stop-color="#33FCE9"/>
</radialGradient>
<radialGradient id="paint52_radial_278_46102" cx="0" cy="0" r="1" gradientUnits="userSpaceOnUse" gradientTransform="translate(404.831 181.706) rotate(13.0471) scale(49.6541 0.956207)">
<stop stop-color="#2AFF9D"/>
<stop offset="0.09" stop-color="#28F496"/>
<stop offset="0.23" stop-color="#23D885"/>
<stop offset="0.43" stop-color="#1CAB69"/>
<stop offset="0.65" stop-color="#116C42"/>
<stop offset="0.91" stop-color="#041C11"/>
<stop offset="1"/>
</radialGradient>
<radialGradient id="paint53_radial_278_46102" cx="0" cy="0" r="1" gradientUnits="userSpaceOnUse" gradientTransform="translate(373.222 166.557) rotate(13.0471) scale(7.10319 2.93691)">
<stop stop-color="#2AFF9D"/>
<stop offset="0.09" stop-color="#28F496"/>
<stop offset="0.23" stop-color="#23D885"/>
<stop offset="0.43" stop-color="#1CAB69"/>
<stop offset="0.65" stop-color="#116C42"/>
<stop offset="0.91" stop-color="#041C11"/>
<stop offset="1"/>
</radialGradient>
<radialGradient id="paint54_radial_278_46102" cx="0" cy="0" r="1" gradientUnits="userSpaceOnUse" gradientTransform="translate(344.694 163.619) rotate(13.0471) scale(7.10319 2.93691)">
<stop stop-color="#2AFF9D"/>
<stop offset="0.09" stop-color="#28F496"/>
<stop offset="0.23" stop-color="#23D885"/>
<stop offset="0.43" stop-color="#1CAB69"/>
<stop offset="0.65" stop-color="#116C42"/>
<stop offset="0.91" stop-color="#041C11"/>
<stop offset="1"/>
</radialGradient>
<radialGradient id="paint55_radial_278_46102" cx="0" cy="0" r="1" gradientUnits="userSpaceOnUse" gradientTransform="translate(335.072 156.263) rotate(13.0471) scale(1.66 1.66001)">
<stop stop-color="#51CCFE"/>
<stop offset="1" stop-color="#33FCE9"/>
</radialGradient>
<linearGradient id="paint56_linear_278_46102" x1="301.503" y1="42.0768" x2="304.197" y2="30.4548" gradientUnits="userSpaceOnUse">
<stop stop-color="#360068"/>
<stop offset="1" stop-color="#4B0083"/>
</linearGradient>
<linearGradient id="paint57_linear_278_46102" x1="275.542" y1="161.109" x2="303.226" y2="41.6443" gradientUnits="userSpaceOnUse">
<stop stop-color="#360068"/>
<stop offset="1" stop-color="#4B0083"/>
</linearGradient>
<linearGradient id="paint58_linear_278_46102" x1="272.151" y1="160.323" x2="299.835" y2="40.8587" gradientUnits="userSpaceOnUse">
<stop stop-color="#360068"/>
<stop offset="1" stop-color="#4B0083"/>
</linearGradient>
<linearGradient id="paint59_linear_278_46102" x1="303.95" y1="31.2084" x2="308.896" y2="9.86405" gradientUnits="userSpaceOnUse">
<stop stop-color="#360068"/>
<stop offset="1" stop-color="#4B0083"/>
</linearGradient>
<linearGradient id="paint60_linear_278_46102" x1="273.418" y1="160.617" x2="282.667" y2="120.704" gradientUnits="userSpaceOnUse">
<stop stop-color="#360068"/>
<stop offset="1" stop-color="#4B0083"/>
</linearGradient>
<linearGradient id="paint61_linear_278_46102" x1="284.256" y1="114.688" x2="290.182" y2="89.1152" gradientUnits="userSpaceOnUse">
<stop stop-color="#360068"/>
<stop offset="1" stop-color="#4B0083"/>
</linearGradient>
<linearGradient id="paint62_linear_278_46102" x1="274.463" y1="160.007" x2="283.172" y2="122.423" gradientUnits="userSpaceOnUse">
<stop stop-color="#360068"/>
<stop offset="1" stop-color="#4B0083"/>
</linearGradient>
<linearGradient id="paint63_linear_278_46102" x1="284.637" y1="115.258" x2="291.064" y2="87.5233" gradientUnits="userSpaceOnUse">
<stop stop-color="#360068"/>
<stop offset="1" stop-color="#4B0083"/>
</linearGradient>
<linearGradient id="paint64_linear_278_46102" x1="291.744" y1="82.5074" x2="297.67" y2="56.9351" gradientUnits="userSpaceOnUse">
<stop stop-color="#360068"/>
<stop offset="1" stop-color="#4B0083"/>
</linearGradient>
<linearGradient id="paint65_linear_278_46102" x1="292.123" y1="83.0879" x2="298.552" y2="55.3431" gradientUnits="userSpaceOnUse">
<stop stop-color="#360068"/>
<stop offset="1" stop-color="#4B0083"/>
</linearGradient>
<linearGradient id="paint66_linear_278_46102" x1="283.671" y1="118.319" x2="283.944" y2="117.141" gradientUnits="userSpaceOnUse">
<stop stop-color="#360068"/>
<stop offset="1" stop-color="#4B0083"/>
</linearGradient>
<linearGradient id="paint67_linear_278_46102" x1="291.654" y1="83.8721" x2="291.927" y2="82.6933" gradientUnits="userSpaceOnUse">
<stop stop-color="#360068"/>
<stop offset="1" stop-color="#4B0083"/>
</linearGradient>
</defs>
</svg>
