<svg width="122" height="125" viewBox="0 0 122 125" fill="none" xmlns="http://www.w3.org/2000/svg">
<path fill-rule="evenodd" clip-rule="evenodd" d="M75.0241 82.9291L82.1309 81.7328C82.1309 81.7328 83.0426 94.9339 74.3013 109.517L73.628 109.509L74.4861 89.7786L73.0641 89.7032L75.0147 82.9218L75.0241 82.9291Z" fill="url(#paint0_linear_278_46263)"/>
<path fill-rule="evenodd" clip-rule="evenodd" d="M42.6705 82.433L35.4155 80.9763C35.4155 80.9763 34.0592 94.1408 42.3204 109.008L42.9937 109.016L42.7775 89.2691L44.1941 89.2347L42.6705 82.433Z" fill="url(#paint1_linear_278_46263)"/>
<path fill-rule="evenodd" clip-rule="evenodd" d="M60.0782 6.1032C50.9037 5.95275 36.1772 27.8444 37.0008 48.4253C37.8172 69.0156 46.7881 99.3897 46.7881 99.3897L58.5438 99.6988L70.2961 99.7786C70.2961 99.7786 80.2544 69.7172 81.7563 49.1571C83.2509 28.6065 69.1858 6.26213 60.0782 6.1032Z" fill="url(#paint2_radial_278_46263)"/>
<path fill-rule="evenodd" clip-rule="evenodd" d="M46.7881 99.3896C46.7881 99.3896 60.1859 98.419 70.2867 99.7712C70.2867 99.7712 57.133 100.856 46.7881 99.3896Z" fill="#31165F"/>
<path fill-rule="evenodd" clip-rule="evenodd" d="M47.5999 15.2196C47.5999 15.2196 60.6606 11.3136 72.9481 16.7033C72.9481 16.7033 66.7453 6.27285 60.0785 6.10316C54.0943 5.94928 47.5999 15.2196 47.5999 15.2196Z" fill="url(#paint3_radial_278_46263)"/>
<path d="M72.8539 16.9023C61.4746 11.7636 47.7904 15.3826 47.6586 15.4163L47.5386 15.0061C47.6778 14.9629 61.5033 11.3175 73.0251 16.5063L72.8445 16.895L72.8539 16.9023Z" fill="#53345F"/>
<path fill-rule="evenodd" clip-rule="evenodd" d="M56.982 6.78402L63.8472 7.24346C63.8472 7.24346 60.4019 4.69243 56.982 6.78402Z" fill="#53345F"/>
<path fill-rule="evenodd" clip-rule="evenodd" d="M57.9376 6.46721C57.9376 6.46721 59.7883 6.16515 61.8043 6.42932C61.8043 6.42932 61.1003 3.14883 59.9347 3.01539C58.7524 2.88408 57.9449 6.45778 57.9449 6.45778L57.9376 6.46721Z" fill="url(#paint4_linear_278_46263)"/>
<path style="mix-blend-mode:multiply" opacity="0.5" fill-rule="evenodd" clip-rule="evenodd" d="M41.6816 79.3247C41.6816 79.3247 61.6111 73.1462 76.5489 77.9627C74.4574 86.5232 70.2867 99.7712 70.2867 99.7712C70.2867 99.7712 61.3282 98.3682 46.7881 99.3896C46.7881 99.3896 43.3051 89.4066 41.6816 79.3247Z" fill="url(#paint5_radial_278_46263)"/>
<path style="mix-blend-mode:multiply" opacity="0.5" fill-rule="evenodd" clip-rule="evenodd" d="M59.0646 20.9687C50.7726 21.4725 44.7165 31.249 44.1957 39.8492C43.6748 48.4494 51.461 53.8382 59.8467 53.7395C68.2419 53.6481 75.2848 47.9757 74.4747 38.5397C73.7529 30.003 68.2507 20.4029 59.0552 20.9614L59.0646 20.9687Z" fill="url(#paint6_radial_278_46263)"/>
<path fill-rule="evenodd" clip-rule="evenodd" d="M59.0867 19.5959C50.7947 20.0997 44.7387 29.8762 44.2178 38.4764C43.6969 47.0766 51.4831 52.4654 59.8688 52.3667C68.264 52.2753 75.307 46.6029 74.4969 37.1669C73.775 28.6302 68.2728 19.0301 59.0773 19.5886L59.0867 19.5959Z" fill="#31165F"/>
<path fill-rule="evenodd" clip-rule="evenodd" d="M59.1022 18.6408C50.8102 19.1446 44.7541 28.9211 44.2333 37.5213C43.7124 46.1215 51.4986 51.5103 59.8843 51.4116C68.2795 51.3202 75.3224 45.6478 74.5123 36.2118C73.7905 27.6751 68.2883 18.0751 59.0928 18.6335L59.1022 18.6408Z" fill="url(#paint7_radial_278_46263)"/>
<path fill-rule="evenodd" clip-rule="evenodd" d="M59.6093 21.7083C52.1893 22.0422 48.3375 29.7362 47.9354 36.4494C47.5333 43.1627 53.6384 47.3685 60.24 47.2912C66.8416 47.2139 72.367 42.7969 71.7409 35.4223C71.1703 28.7555 67.3759 21.356 59.626 21.7061L59.6093 21.7083Z" fill="#A6345F"/>
<path fill-rule="evenodd" clip-rule="evenodd" d="M67.207 44.9892L67.1923 45.0081C65.274 46.3908 62.826 47.1512 60.1916 47.178C53.9125 47.2486 47.5339 42.8306 47.9186 36.4513C48.0559 34.3068 48.5784 32.1135 49.4939 30.1343C51.3051 26.221 54.667 23.1327 59.5888 22.8253C66.8652 22.3648 70.5798 29.5362 71.1269 35.8827C71.4719 39.9573 69.8502 43.0809 67.1902 44.9913L67.207 44.9892Z" fill="url(#paint8_linear_278_46263)"/>
<path d="M59.9167 52.3672L59.7019 52.3638L59.316 76.2731L59.5309 76.2765L59.9167 52.3672Z" fill="#53345F"/>
<path d="M76.5114 78.0694C76.3951 78.0246 64.4415 73.2563 41.7206 79.4303L41.669 79.2241C64.4715 73.0228 76.4796 77.8182 76.6054 77.8703L76.5282 78.0673L76.5114 78.0694Z" fill="#53345F"/>
<path d="M59.5884 66.5012C47.1824 66.972 40.1336 71.3859 40.0614 71.4205L39.9449 71.2395C40.015 71.1881 47.112 66.7512 59.5776 66.2814L59.5789 66.4939L59.5884 66.5012Z" fill="#53345F"/>
<path fill-rule="evenodd" clip-rule="evenodd" d="M61.8722 93.5175L61.7164 83.1989L64.5498 82.5259L64.0805 93.5531L61.8722 93.5175Z" fill="#31165F"/>
<path fill-rule="evenodd" clip-rule="evenodd" d="M48.7255 99.6382C48.7255 99.6382 58.952 98.8218 68.9382 99.8736L68.262 104.486L49.2264 103.668L48.7255 99.6382Z" fill="url(#paint9_radial_278_46263)"/>
<path opacity="0.5" fill-rule="evenodd" clip-rule="evenodd" d="M48.9744 101.674C48.9744 101.674 52.4543 99.856 57.0365 100.025C61.6187 100.195 68.4154 103.411 68.4154 103.411L68.9382 99.8736C68.9382 99.8736 58.0523 98.6377 48.7255 99.6382L48.9744 101.674Z" fill="#31165F"/>
<path d="M64.1078 25.7256C64.1078 25.7256 65.8272 27.3461 67.3235 30.3648L68.9285 29.4642C68.9285 29.4642 67.7537 26.4984 65.4905 25.4232L64.1078 25.7256Z" fill="white"/>
<path d="M50.2031 38.5705L51.4785 40.9194L50.153 41.6741L49.2341 39.7226L50.2031 38.5705Z" fill="white"/>
<path style="mix-blend-mode:multiply" opacity="0.5" fill-rule="evenodd" clip-rule="evenodd" d="M44.88 19.3497C44.88 19.3497 57.9968 12.8584 74.8056 19.8208L72.9574 16.7105C72.9574 16.7105 63.2529 11.9642 47.5997 15.2195L44.88 19.3497Z" fill="url(#paint10_radial_278_46263)"/>
<path fill-rule="evenodd" clip-rule="evenodd" d="M58.9538 67.943C58.9449 68.344 58.6124 68.6753 58.2114 68.6665C57.8104 68.6576 57.479 68.3251 57.4879 67.9241C57.4967 67.5231 57.8292 67.1917 58.2303 67.2006C58.6313 67.2094 58.9626 67.5419 58.9538 67.943Z" fill="url(#paint11_linear_278_46263)"/>
<path fill-rule="evenodd" clip-rule="evenodd" d="M58.8011 67.9452C58.7984 68.2604 58.5338 68.5235 58.2092 68.5135C57.8846 68.5035 57.6309 68.2463 57.6409 67.9217C57.6436 67.6065 57.9081 67.3433 58.2327 67.3534C58.5479 67.3561 58.8111 67.6206 58.8011 67.9452Z" fill="url(#paint12_radial_278_46263)"/>
<path fill-rule="evenodd" clip-rule="evenodd" d="M59.022 64.3097C59.0131 64.7107 58.6806 65.042 58.2796 65.0332C57.8786 65.0243 57.5472 64.6918 57.5561 64.2908C57.5649 63.8898 57.8974 63.5584 58.2985 63.5673C58.6995 63.5761 59.0309 63.9086 59.022 64.3097Z" fill="url(#paint13_linear_278_46263)"/>
<path fill-rule="evenodd" clip-rule="evenodd" d="M58.8597 64.3048C58.857 64.62 58.5925 64.8832 58.2679 64.8731C57.9433 64.8631 57.6896 64.6059 57.6996 64.2813C57.7023 63.9661 57.9668 63.703 58.2914 63.713C58.616 63.723 58.8698 63.9802 58.8597 64.3048Z" fill="url(#paint14_radial_278_46263)"/>
<path fill-rule="evenodd" clip-rule="evenodd" d="M47.3102 39.3788C47.3013 39.7798 46.9688 40.1111 46.5678 40.1023C46.1667 40.0934 45.8354 39.7609 45.8443 39.3599C45.8531 38.9588 46.1856 38.6275 46.5867 38.6364C46.9877 38.6452 47.319 38.9777 47.3102 39.3788Z" fill="#31165F"/>
<path fill-rule="evenodd" clip-rule="evenodd" d="M47.1574 39.381C47.1547 39.6962 46.8901 39.9593 46.5655 39.9493C46.2409 39.9393 45.9872 39.6821 45.9972 39.3575C45.9999 39.0423 46.2644 38.7791 46.589 38.7892C46.9136 38.7992 47.1674 39.0564 47.1574 39.381Z" fill="url(#paint15_radial_278_46263)"/>
<path fill-rule="evenodd" clip-rule="evenodd" d="M48.7791 28.9908C48.7703 29.3919 48.4378 29.7232 48.0367 29.7143C47.6357 29.7055 47.3044 29.373 47.3132 28.9719C47.3221 28.5709 47.6546 28.2396 48.0556 28.2484C48.4567 28.2573 48.788 28.5898 48.7791 28.9908Z" fill="#31165F"/>
<path fill-rule="evenodd" clip-rule="evenodd" d="M48.6167 28.9857C48.614 29.3009 48.3495 29.5641 48.0249 29.5541C47.7097 29.5514 47.4465 29.2868 47.4565 28.9622C47.4592 28.6471 47.7238 28.3839 48.0484 28.3939C48.3635 28.3966 48.6267 28.6611 48.6167 28.9857Z" fill="url(#paint16_radial_278_46263)"/>
<path fill-rule="evenodd" clip-rule="evenodd" d="M54.0648 47.7142C54.056 48.1152 53.7235 48.4466 53.3224 48.4377C52.9214 48.4289 52.59 48.0964 52.5989 47.6953C52.6078 47.2943 52.9403 46.963 53.3413 46.9718C53.7423 46.9807 54.0737 47.3132 54.0648 47.7142Z" fill="#31165F"/>
<path fill-rule="evenodd" clip-rule="evenodd" d="M53.9024 47.7091C53.8997 48.0243 53.6352 48.2875 53.3106 48.2774C52.9954 48.2747 52.7322 48.0102 52.7422 47.6856C52.7522 47.361 53.0094 47.1073 53.3341 47.1173C53.6587 47.1273 53.9124 47.3845 53.9024 47.7091Z" fill="url(#paint17_radial_278_46263)"/>
<path fill-rule="evenodd" clip-rule="evenodd" d="M65.4406 48.7862C65.4317 49.1873 65.0992 49.5186 64.6982 49.5097C64.2971 49.5009 63.9658 49.1684 63.9747 48.7674C63.9835 48.3663 64.316 48.035 64.7171 48.0438C65.1181 48.0527 65.4494 48.3852 65.4406 48.7862Z" fill="#31165F"/>
<path fill-rule="evenodd" clip-rule="evenodd" d="M65.2878 48.7887C65.2851 49.1039 65.0206 49.3671 64.696 49.357C64.3714 49.347 64.1176 49.0898 64.1276 48.7652C64.1303 48.45 64.3949 48.1869 64.7195 48.1969C65.0346 48.1996 65.2978 48.4641 65.2878 48.7887Z" fill="url(#paint18_radial_278_46263)"/>
<path fill-rule="evenodd" clip-rule="evenodd" d="M73.2599 42.0543C73.2511 42.4553 72.9186 42.7867 72.5175 42.7778C72.1165 42.769 71.7852 42.4365 71.794 42.0354C71.8029 41.6344 72.1354 41.303 72.5364 41.3119C72.9374 41.3208 73.2688 41.6533 73.2599 42.0543Z" fill="#31165F"/>
<path fill-rule="evenodd" clip-rule="evenodd" d="M73.1072 42.0565C73.1045 42.3717 72.8399 42.6349 72.5153 42.6249C72.2002 42.6222 71.937 42.3576 71.947 42.033C71.957 41.7084 72.2142 41.4547 72.5388 41.4647C72.854 41.4674 73.1172 41.7319 73.1072 42.0565Z" fill="url(#paint19_radial_278_46263)"/>
<path fill-rule="evenodd" clip-rule="evenodd" d="M72.2981 28.9955C72.2892 29.3965 71.9567 29.7278 71.5557 29.719C71.1547 29.7101 70.8233 29.3776 70.8322 28.9766C70.8411 28.5755 71.1736 28.2442 71.5746 28.2531C71.9756 28.2619 72.307 28.5944 72.2981 28.9955Z" fill="#31165F"/>
<path fill-rule="evenodd" clip-rule="evenodd" d="M72.1454 28.9977C72.1427 29.3129 71.8782 29.576 71.5536 29.566C71.229 29.556 70.9753 29.2988 70.9853 28.9742C70.9953 28.6496 71.2525 28.3958 71.5771 28.4059C71.8923 28.4085 72.1555 28.6731 72.1454 28.9977Z" fill="url(#paint20_radial_278_46263)"/>
<path fill-rule="evenodd" clip-rule="evenodd" d="M66.6125 22.1842C66.6037 22.5852 66.2712 22.9166 65.8701 22.9077C65.4691 22.8988 65.1378 22.5663 65.1466 22.1653C65.1555 21.7643 65.488 21.4329 65.889 21.4418C66.2901 21.4506 66.6214 21.7831 66.6125 22.1842Z" fill="#31165F"/>
<path fill-rule="evenodd" clip-rule="evenodd" d="M66.4503 22.1793C66.4476 22.4945 66.183 22.7577 65.8584 22.7477C65.5338 22.7376 65.2801 22.4804 65.2901 22.1558C65.2928 21.8407 65.5573 21.5775 65.8819 21.5875C66.1971 21.5902 66.4603 21.8547 66.4503 22.1793Z" fill="url(#paint21_radial_278_46263)"/>
<path fill-rule="evenodd" clip-rule="evenodd" d="M56.8701 20.9737C56.8613 21.3748 56.5288 21.7061 56.1277 21.6972C55.7267 21.6884 55.3954 21.3559 55.4042 20.9549C55.4131 20.5538 55.7456 20.2225 56.1466 20.2313C56.5476 20.2402 56.879 20.5727 56.8701 20.9737Z" fill="#31165F"/>
<path fill-rule="evenodd" clip-rule="evenodd" d="M56.7079 20.9686C56.7052 21.2838 56.4406 21.547 56.116 21.537C55.8009 21.5343 55.5377 21.2697 55.5477 20.9451C55.5577 20.6205 55.8149 20.3668 56.1395 20.3768C56.4547 20.3795 56.7179 20.644 56.7079 20.9686Z" fill="url(#paint22_radial_278_46263)"/>
<path fill-rule="evenodd" clip-rule="evenodd" d="M43.0008 109.007L43.5379 109.016L43.3196 89.2517L42.7846 89.2598L43.0008 109.007Z" fill="#6F2561"/>
<path fill-rule="evenodd" clip-rule="evenodd" d="M74.4955 89.7858L73.9562 89.7604L73.2698 109.503L73.6374 109.516L74.4955 89.7858Z" fill="#6F2561"/>
<path fill-rule="evenodd" clip-rule="evenodd" d="M64.0205 78.3384L65.9566 78.3744L63.5081 109.35L62.1688 109.323L64.0205 78.3384Z" fill="url(#paint23_linear_278_46263)"/>
<path fill-rule="evenodd" clip-rule="evenodd" d="M64.0205 78.3384L62.5631 85.185L62.1688 109.323L64.0205 78.3384Z" fill="#FF4C61"/>
<path opacity="0.5" fill-rule="evenodd" clip-rule="evenodd" d="M65.8814 79.3284L70.2963 99.7785L65.6092 99.4522L65.4653 104.371L63.9136 104.346L65.8814 79.3284Z" fill="#31165F"/>
<path d="M43.3019 25.2417C43.3019 25.2417 43.1429 23.1091 44.5201 21.8203L45.6269 21.8931C45.6269 21.8931 44.7334 23.844 43.8579 25.265L43.304 25.2585L43.3019 25.2417Z" fill="white"/>
<g style="mix-blend-mode:soft-light">
<path d="M76.6285 72.7367L78.8113 63.552L79.3747 63.5659L77.3018 72.7452L76.6285 72.7367Z" fill="white"/>
</g>
<path fill-rule="evenodd" clip-rule="evenodd" d="M79.6532 31.5118C79.6532 31.5118 83.0856 30.8651 80.5237 34.8308L79.6532 31.5118Z" fill="url(#paint24_linear_278_46263)"/>
<path fill-rule="evenodd" clip-rule="evenodd" d="M39.8183 30.3961C39.8183 30.3961 36.6375 31.2832 38.8479 33.5564L39.8183 30.3961Z" fill="url(#paint25_linear_278_46263)"/>
<g style="mix-blend-mode:soft-light" opacity="0.5">
<path fill-rule="evenodd" clip-rule="evenodd" d="M50.1144 99.1139C50.1144 99.1139 41.7318 71.6435 38.6111 51.1999L37.7448 51.6158C37.7448 51.6158 41.3771 82.9711 47.2615 99.364L50.1144 99.1139Z" fill="white"/>
</g>
<g style="mix-blend-mode:soft-light">
<path fill-rule="evenodd" clip-rule="evenodd" d="M79.1509 61.4585L80.2643 55.7955L80.8015 55.8042L79.688 61.4672L79.1509 61.4585Z" fill="white"/>
</g>
<g style="mix-blend-mode:soft-light">
<path fill-rule="evenodd" clip-rule="evenodd" d="M43.366 70.1008C43.366 70.1008 49.2595 67.5858 54.8523 67.134C54.8523 67.134 49.272 68.2905 43.366 70.1008Z" fill="white"/>
</g>
<g style="mix-blend-mode:soft-light">
<path fill-rule="evenodd" clip-rule="evenodd" d="M60.0502 54.6072L59.8409 75.5654C59.8409 75.5654 60.3265 67.9652 60.0502 54.6072Z" fill="white"/>
</g>
<g style="mix-blend-mode:soft-light">
<path fill-rule="evenodd" clip-rule="evenodd" d="M45.938 78.5312C45.938 78.5312 59.9558 74.6573 73.2847 77.5159C73.2847 77.5159 63.4094 74.9184 45.938 78.5312Z" fill="white"/>
</g>
<path fill-rule="evenodd" clip-rule="evenodd" d="M49.9559 23.5583C49.9559 23.5583 51.8438 24.3576 53.0136 20.8232C53.0136 20.8232 51.1108 22.1274 49.9559 23.5583Z" fill="white"/>
<g style="mix-blend-mode:soft-light">
<path fill-rule="evenodd" clip-rule="evenodd" d="M61.5575 51.3194C61.5575 51.3194 66.1235 51.159 71.6085 46.2877C71.6085 46.2877 68.2914 50.7403 61.5575 51.3194Z" fill="white"/>
</g>
<g style="mix-blend-mode:soft-light">
<path fill-rule="evenodd" clip-rule="evenodd" d="M59.9005 47.3C59.9005 47.3 63.8552 49.5059 66.6402 45.6226C66.6402 45.6226 64.4921 47.4768 59.9005 47.3Z" fill="white"/>
</g>
<g style="mix-blend-mode:soft-light" opacity="0.36">
<path fill-rule="evenodd" clip-rule="evenodd" d="M58.9728 56.2495C58.7291 56.408 58.2718 56.6274 58.3425 56.9844C58.3804 57.1498 58.4759 57.2994 58.5211 57.4553C58.5643 57.5945 58.5927 57.7526 58.6024 57.896C58.611 58.0991 58.7183 58.4089 58.8661 58.5689C58.9741 58.6829 59.0954 58.5654 59.1665 58.4543C59.2543 58.3411 59.3305 58.2039 59.3471 58.0656C59.3573 57.8771 59.3675 57.6887 59.4206 57.5033C59.4457 57.432 59.4969 57.366 59.5125 57.2874C59.5333 57.1827 59.5373 57.0801 59.5246 56.9796C59.5232 56.767 59.3677 56.3442 58.9728 56.2495Z" fill="white"/>
<path fill-rule="evenodd" clip-rule="evenodd" d="M57.972 59.2349C57.9426 59.1365 57.9582 59.058 58.0261 58.9898C58.3769 59.005 58.4899 59.697 58.1582 59.8325C57.7689 59.9838 57.7368 59.4603 57.8527 59.233L57.972 59.2349Z" fill="white"/>
<path fill-rule="evenodd" clip-rule="evenodd" d="M51.3846 63.5988C51.5698 63.5158 51.7246 63.3941 51.9268 63.4451C52.1028 63.491 52.2348 63.5934 52.345 63.7241C52.4855 63.8935 52.5371 64.0997 52.6054 64.3038C52.6349 64.4022 52.6811 64.4985 52.653 64.6126C52.5436 65.0264 52.0519 65.3098 51.6751 65.4255C51.4543 65.4959 51.2502 65.5643 51.023 65.5845C50.8629 65.5962 50.7121 65.6153 50.554 65.6438C50.42 65.6607 50.2997 65.7185 50.1667 65.6758C50.0692 65.6455 49.9487 65.5672 49.8638 65.5013C49.6185 65.3111 49.4632 65.0244 49.4753 64.7166C49.5007 64.1773 50.1619 63.7534 50.6024 63.536C50.9634 63.3627 51.54 63.1452 51.3679 63.6009L51.3846 63.5988Z" fill="white"/>
<path fill-rule="evenodd" clip-rule="evenodd" d="M53.0989 62.8885C53.0415 63.0404 53.005 63.0875 53.1182 63.1753C53.2031 63.2412 53.3297 63.2337 53.4281 63.2042C53.6249 63.1453 53.8611 62.8602 53.7258 62.6646C53.6534 62.5631 53.4867 62.3885 53.3746 62.3771C53.1411 62.3471 52.8421 62.6742 52.8696 62.8919L53.0916 62.8979L53.0989 62.8885Z" fill="white"/>
<path fill-rule="evenodd" clip-rule="evenodd" d="M60.0799 68.3025C60.057 68.3905 60.0487 68.4596 60.0425 68.5454C60.0439 68.758 60.0358 68.9632 60.0371 69.1758C60.0356 69.5674 59.967 69.9675 59.9582 70.3685C59.9512 70.6502 59.9967 70.9422 60.0327 71.227C60.0517 71.3777 60.0875 71.5264 60.1139 71.6677C60.1474 71.6634 60.1557 71.5943 60.1682 71.5587C60.2225 71.4497 60.2506 71.3356 60.3049 71.2266C60.4376 70.9971 60.5681 70.7509 60.6892 70.4973C60.7185 70.4596 60.7194 70.3999 60.7487 70.3621C60.7853 70.315 60.8459 70.2562 60.8919 70.2164C60.9651 70.1221 61.0383 70.0277 61.0852 69.9282C61.199 69.6841 61.2038 69.3856 61.1867 69.1155C61.1834 69.0223 61.1561 68.9407 61.1528 68.8475C61.1496 68.7543 61.1536 68.6517 61.1409 68.5512C61.1155 68.3502 61.0136 68.1504 60.9139 67.9673C60.7932 67.7528 60.6607 67.3781 60.3895 67.3188C60.2585 67.2928 60.2085 67.4353 60.1877 67.5401C60.1617 67.671 60.1546 67.8165 60.138 67.9548C60.1089 68.1286 60.0433 68.3496 60.0631 68.3046L60.0799 68.3025Z" fill="white"/>
<path fill-rule="evenodd" clip-rule="evenodd" d="M60.3965 66.4331C60.4602 66.3314 60.5395 66.1512 60.6893 66.1918C60.8391 66.2325 60.831 66.4377 60.8196 66.5497C60.7771 66.8189 60.4259 66.5314 60.455 66.3576L60.3891 66.4425L60.3965 66.4331Z" fill="white"/>
<path fill-rule="evenodd" clip-rule="evenodd" d="M63.0545 68.2073C63.0002 68.3162 62.9533 68.4158 62.9754 68.5236C63.006 68.6984 63.1339 68.7673 63.2962 68.7723C63.5443 68.7835 63.7243 68.7267 63.7763 68.4649C63.8075 68.3078 63.7088 68.065 63.5913 67.9437C63.5347 67.8998 63.4614 67.858 63.3849 67.8592C63.2299 67.8447 63.1516 67.9653 63.0732 68.0858L63.0451 68.2L63.0545 68.2073Z" fill="white"/>
<path fill-rule="evenodd" clip-rule="evenodd" d="M68.5825 76.1959C68.9697 76.0278 69.3496 75.8692 69.7641 75.7827C70.1305 75.7194 70.4928 75.7587 70.8634 75.7288C71.3775 75.6893 71.8505 75.5274 72.3634 75.4115C72.802 75.3135 73.2281 75.2512 73.6774 75.373C74.0126 75.4668 74.3721 75.6851 74.5317 76.0053C74.6241 76.1978 74.6778 76.4208 74.7053 76.6385C74.718 76.739 74.7213 76.8322 74.7267 76.9422C74.7351 77.0092 74.7583 77.0573 74.75 77.1264C74.7459 77.229 74.703 77.2259 74.6171 77.2198C74.4381 77.2169 74.3166 77.1982 74.1678 77.0979C73.9362 76.9485 73.6387 76.884 73.3769 76.832C73.115 76.78 72.8605 76.7186 72.5914 76.6761C72.3316 76.6408 72.0719 76.6056 71.8028 76.563C71.5765 76.5236 71.3503 76.4841 71.1335 76.4519C70.9167 76.4198 70.6853 76.4065 70.4539 76.3932C70.2727 76.3736 70.0791 76.3896 69.8979 76.3699C69.7858 76.3586 69.6738 76.3472 69.5544 76.3453C69.4612 76.3485 69.3754 76.3424 69.2874 76.3195C69.1994 76.2966 69.1083 76.3166 69.0225 76.3104C68.9628 76.3095 68.7606 76.2584 68.5993 76.1937L68.5825 76.1959Z" fill="white"/>
<path fill-rule="evenodd" clip-rule="evenodd" d="M71.0084 74.5873C70.9551 74.6366 70.8756 74.6807 70.8579 74.7425C70.8527 74.7687 70.8517 74.8283 70.8633 74.8524C70.9012 75.0178 71.1755 75.0342 71.3117 75.034C71.6865 75.0376 72.1324 74.9302 72.4043 74.6576C72.5862 74.4814 72.7439 74.1807 72.7027 73.9221C72.6415 73.5725 72.258 73.3657 71.9416 73.2866C71.6347 73.2148 71.2148 73.1913 70.9722 73.4262C70.8897 73.5132 70.8186 73.6243 70.8072 73.7363C70.7938 73.8316 70.8305 73.9206 70.8338 74.0137C70.8319 74.1331 70.7703 74.2515 70.828 74.3719C70.8648 74.4608 70.9403 74.5193 71.0304 74.559L71.0084 74.5873Z" fill="white"/>
<path fill-rule="evenodd" clip-rule="evenodd" d="M73.2713 74.6502C73.2491 74.5424 73.2565 74.533 73.3223 74.4481C73.3808 74.3726 73.4457 74.3474 73.5337 74.3703C73.674 74.4036 73.7643 74.5794 73.6954 74.7072C73.6558 74.7973 73.5333 74.8383 73.4496 74.8489C73.3396 74.8543 73.2453 74.7811 73.2231 74.6733L73.2786 74.6408L73.2713 74.6502Z" fill="white"/>
<path fill-rule="evenodd" clip-rule="evenodd" d="M76.3255 66.504C76.1643 66.5755 76.1162 66.5986 76.0305 66.7285C75.9793 66.7946 75.9689 66.8469 75.9963 66.9286C76.0719 67.1232 76.3172 67.3134 76.5047 67.3833C76.6472 67.4334 76.8336 67.4268 76.9612 67.3596C77.0721 67.2946 77.1745 67.1625 77.2644 67.066C77.3376 66.9717 77.4108 66.8774 77.4839 66.783C77.6156 66.6132 77.7022 66.4236 77.5837 66.2258C77.4766 66.0522 77.245 65.9028 77.0346 65.9209C76.865 65.9253 76.7614 65.9809 76.6097 66.0597C76.4747 66.1363 76.3522 66.1773 76.3087 66.5062L76.3255 66.504Z" fill="white"/>
<path fill-rule="evenodd" clip-rule="evenodd" d="M75.5457 67.3344C75.6577 67.3458 75.7719 67.3739 75.8641 67.4303C75.8537 67.4827 75.925 67.5077 75.9072 67.5695C75.8749 67.6501 75.7367 67.6336 75.6675 67.6253C75.5817 67.6191 75.501 67.5868 75.4423 67.5262C75.414 67.5042 75.3248 67.4049 75.4086 67.3943L75.5551 67.3417L75.5457 67.3344Z" fill="white"/>
<path fill-rule="evenodd" clip-rule="evenodd" d="M65.2232 73.7872C65.1543 73.9151 65.0708 74.0618 65.1903 74.1998C65.3004 74.3306 65.5276 74.3103 65.6647 74.2505C65.7369 74.2158 65.8259 74.179 65.8414 74.1005C65.8476 74.0146 65.8349 73.9141 65.8411 73.8283C65.8565 73.6136 66.0594 73.4688 65.8717 73.2628C65.8014 73.1781 65.6306 73.1061 65.5061 73.1303C65.2904 73.1746 65.1819 73.3926 65.1025 73.5728L65.2159 73.7967L65.2232 73.7872Z" fill="white"/>
<path fill-rule="evenodd" clip-rule="evenodd" d="M47.9535 81.3481C47.7043 81.3966 47.4899 81.5173 47.3152 81.6841C47.3195 81.7176 47.3143 81.7437 47.3185 81.7772C47.2633 81.9459 47.2415 82.1103 47.3297 82.2693C47.5701 82.758 48.0821 82.7018 48.5428 82.7116C49.037 82.7172 49.6496 82.7844 49.4434 82.0957C49.353 81.7838 49.213 81.2825 48.9321 81.0797C48.7906 80.97 48.7038 81.0235 48.5573 81.0761C48.3699 81.1423 48.1229 81.2076 47.9702 81.346L47.9535 81.3481Z" fill="white"/>
<path fill-rule="evenodd" clip-rule="evenodd" d="M53.5397 82.1905C53.6159 82.0532 53.7297 81.8091 53.9234 81.7931C54.0836 81.7814 54.1371 81.8682 54.2409 81.9487C54.4861 82.1389 54.7189 82.3647 54.4607 82.6782C54.351 82.8197 54.0893 82.9038 53.906 82.8674C53.7489 82.8362 53.468 82.6335 53.5285 82.4387L53.5302 82.1832L53.5397 82.1905Z" fill="white"/>
<path fill-rule="evenodd" clip-rule="evenodd" d="M77.6735 39.8116C77.4907 40.1835 77.4761 40.2024 77.5656 40.574C77.6351 40.8545 77.6848 41.1801 77.8914 41.4007C78.1661 41.6893 78.5587 41.6312 78.9012 41.7155C79.1819 41.7821 79.3369 41.7966 79.5785 41.6214C79.8201 41.4462 80.049 41.1705 80.1942 40.9054C80.6852 40.0775 80.674 38.8451 80.3084 37.9724C80.0668 37.4073 79.7025 36.7471 79.0657 36.5554C78.5262 36.3938 77.9107 36.5057 77.5197 36.9125C77.1286 37.3193 77.0185 37.9288 77.1292 38.4679C77.1629 38.5998 77.1966 38.7317 77.2282 38.8468C77.2493 39.0143 77.2443 39.1766 77.232 39.3484C77.2459 39.5253 77.3435 39.6916 77.6452 39.7896L77.6735 39.8116Z" fill="white"/>
<path fill-rule="evenodd" clip-rule="evenodd" d="M76.6282 41.237C76.9793 41.5244 76.93 41.4711 76.9766 41.8396C76.9957 41.9903 77.0523 42.0342 77.0284 42.1819C76.9826 42.3579 76.7169 42.5446 76.5263 42.5176C76.3713 42.5032 76.1395 42.2177 76.0818 42.0974C75.9915 41.9216 76.0217 41.8242 76.1105 41.6513L76.6282 41.237Z" fill="white"/>
<path fill-rule="evenodd" clip-rule="evenodd" d="M40.8986 40.5553C40.81 40.8643 40.7111 41.2257 41.0444 41.4388C41.276 41.5882 41.6318 41.4411 41.842 41.2869C42.137 41.0624 42.4492 40.5039 42.5147 40.1468C42.5759 39.7561 42.1052 39.3306 41.7502 39.2819C41.014 39.1793 40.6156 40.3358 40.5567 40.8793L40.9059 40.5458L40.8986 40.5553Z" fill="white"/>
<path fill-rule="evenodd" clip-rule="evenodd" d="M40.3326 43.9539C40.2959 43.865 40.1185 43.6066 40.1488 43.5092C40.1592 43.4568 40.2262 43.4483 40.2554 43.4106C40.3484 43.2712 40.4508 43.1391 40.6257 43.1085C40.9847 43.0546 41.2739 43.1882 41.4503 43.5063C41.5615 43.7134 41.5629 43.926 41.3809 44.1022C41.1917 44.2878 40.7677 44.3669 40.5758 44.1274L40.3305 43.9371L40.3326 43.9539Z" fill="white"/>
<path fill-rule="evenodd" clip-rule="evenodd" d="M72.1891 83.8574C71.9301 84.3666 71.9519 84.9425 72.0501 85.5172C72.1134 85.8835 72.156 86.3547 72.5425 86.5185C73.4436 86.9151 74.1769 84.976 74.3541 84.358C74.5031 83.8541 74.5682 83.2248 74.4837 82.6909C74.434 82.3653 74.1891 81.7071 73.8695 81.5347C73.4671 81.3133 72.9974 81.5684 72.7392 81.8819C72.1518 82.6198 72.2819 83.5819 72.0056 84.4251L72.187 83.8406L72.1891 83.8574Z" fill="white"/>
<path fill-rule="evenodd" clip-rule="evenodd" d="M71.73 83.7282C71.6295 83.7409 71.216 83.7677 71.0831 83.861C70.9817 83.9334 70.8226 84.0216 70.7872 84.1452C70.7487 84.3117 70.8631 84.476 70.9711 84.5899C71.0466 84.6485 71.1859 84.7415 71.2916 84.7026C71.3733 84.6752 71.4443 84.5642 71.5028 84.4887C71.598 84.366 71.6648 84.2215 71.7316 84.0769C71.766 84.0129 71.8078 83.9396 71.8161 83.8705C71.8442 83.7563 71.7614 83.7072 71.732 83.6088L71.7227 83.7376L71.73 83.7282Z" fill="white"/>
<path fill-rule="evenodd" clip-rule="evenodd" d="M71.138 88.4659C71.2376 88.5128 71.3371 88.5598 71.4461 88.6141C71.4274 88.7356 71.4705 88.8748 71.3523 88.9493C71.2655 89.0028 71.0529 89.0042 70.9628 88.9645C70.8371 88.9123 70.7553 88.8036 70.7551 88.6674C70.7601 88.5051 70.9139 88.4432 71.0553 88.4168L71.1307 88.4753L71.138 88.4659Z" fill="white"/>
<path fill-rule="evenodd" clip-rule="evenodd" d="M56.9444 94.651C56.8943 94.7934 56.8757 94.9149 56.9931 95.0362C57.1598 95.2108 57.4122 95.2555 57.6152 95.1107C57.8787 94.9072 58.187 94.4513 58.1163 94.0944C58.0699 93.862 57.79 93.5996 57.5514 93.7318C57.4405 93.7969 57.2742 93.8945 57.1916 93.9815C57.0337 94.1461 56.9629 94.3934 56.9475 94.608L56.9444 94.651Z" fill="white"/>
<path fill-rule="evenodd" clip-rule="evenodd" d="M69.4292 19.8964C69.3226 19.995 69.2671 20.0275 69.2411 20.1584C69.21 20.3155 69.1861 20.4632 69.2721 20.6055C69.4443 20.89 69.8759 21.0737 70.1922 21.1528C70.4729 21.2195 70.7074 21.1898 70.9417 21.024C71.2074 20.8373 71.3809 20.5941 71.4338 20.2726C71.4847 19.9343 71.4194 19.6873 71.1364 19.4678C70.91 19.2923 70.5883 19.1032 70.3024 19.0628C70.0332 19.0202 69.8459 19.0864 69.6378 19.2574C69.461 19.4074 69.2059 19.6779 69.4292 19.8964Z" fill="white"/>
<path fill-rule="evenodd" clip-rule="evenodd" d="M71.7802 20.9949C71.7864 20.909 71.7737 20.8085 71.8721 20.7791C71.9966 20.7548 72.224 20.8707 72.3037 20.9627C72.3719 21.0307 72.436 21.2013 72.4225 21.2966C72.4069 21.3751 72.3295 21.436 72.2689 21.4947C72.1601 21.5765 72.0334 21.584 71.9223 21.513C71.8563 21.4618 71.6645 21.3584 71.7021 21.2515L71.7897 21.0022L71.7802 20.9949Z" fill="white"/>
<path fill-rule="evenodd" clip-rule="evenodd" d="M64.7113 9.63566C64.7063 9.79796 64.7074 9.8744 64.7935 10.0167C64.9121 10.2144 65.0977 10.4037 65.2916 10.5238C65.542 10.6878 65.8742 10.8245 66.1778 10.8032C66.3976 10.7924 66.6119 10.5356 66.6462 10.3355C66.6909 10.0831 66.594 9.72097 66.4492 9.51804C66.1691 9.11951 65.6514 8.79355 65.1374 8.83302C64.5636 8.87152 64.5282 9.73539 64.7019 9.62835L64.7113 9.63566Z" fill="white"/>
<path fill-rule="evenodd" clip-rule="evenodd" d="M67.1779 11.7147C67.1118 11.6635 67.0677 11.584 67.0571 11.5003C67.1461 11.4635 67.1669 11.3587 67.2579 11.3387C67.3469 11.302 67.4611 11.3301 67.5344 11.3718C67.6528 11.4335 67.7252 11.5349 67.7348 11.6783C67.7371 11.8312 67.6817 11.8638 67.5519 11.9142C67.463 11.951 67.441 11.9793 67.3488 11.9229C67.3016 11.8863 67.2167 11.8204 67.1696 11.7838L67.1757 11.698L67.1779 11.7147Z" fill="white"/>
</g>
<path fill-rule="evenodd" clip-rule="evenodd" d="M47.1696 77.9757C47.1692 78.4437 46.8766 78.8211 46.5352 78.8132C46.1939 78.8053 45.9326 78.4214 45.933 77.9534C45.9334 77.4853 46.226 77.108 46.5674 77.1159C46.9087 77.1238 47.17 77.5077 47.1696 77.9757Z" fill="url(#paint26_linear_278_46263)"/>
<path fill-rule="evenodd" clip-rule="evenodd" d="M47.0408 77.9663C47.0371 78.3412 46.8103 78.6336 46.5454 78.6246C46.2805 78.6155 46.0633 78.3112 46.0764 77.9436C46.0895 77.5761 46.3069 77.2763 46.5718 77.2854C46.8367 77.2944 47.0539 77.5988 47.0408 77.9663Z" fill="white"/>
<path fill-rule="evenodd" clip-rule="evenodd" d="M71.7494 76.6125C71.749 77.0805 71.4302 77.4527 71.0553 77.449C70.6805 77.4454 70.3763 77.0584 70.3934 76.5882C70.3938 76.1202 70.7127 75.748 71.0875 75.7517C71.4624 75.7553 71.7666 76.1423 71.7494 76.6125Z" fill="url(#paint27_linear_278_46263)"/>
<path fill-rule="evenodd" clip-rule="evenodd" d="M71.6037 76.6053C71.6 76.9801 71.3565 77.2747 71.0581 77.2699C70.7596 77.2651 70.5257 76.9628 70.5388 76.5953C70.5425 76.2204 70.786 75.9258 71.0844 75.9307C71.3829 75.9355 71.6168 76.2377 71.6037 76.6053Z" fill="white"/>
<path fill-rule="evenodd" clip-rule="evenodd" d="M60.2734 76.2935C60.273 76.7615 59.8777 77.1348 59.4097 77.1344C58.9417 77.1341 58.5683 76.7388 58.5687 76.2708C58.5691 75.8027 58.9644 75.4294 59.4324 75.4298C59.9005 75.4302 60.2738 75.8255 60.2734 76.2935Z" fill="url(#paint28_linear_278_46263)"/>
<path fill-rule="evenodd" clip-rule="evenodd" d="M60.0943 76.2905C60.0906 76.6654 59.7874 76.959 59.4198 76.9459C59.045 76.9422 58.7514 76.639 58.7645 76.2715C58.7681 75.8966 59.0714 75.603 59.4389 75.6161C59.8138 75.6198 60.1074 75.923 60.0943 76.2905Z" fill="white"/>
<path style="mix-blend-mode:screen" d="M64.3344 74.5634C65.2793 77.1243 63.963 79.971 61.4021 80.9159C58.8413 81.8608 55.9946 80.5444 55.0497 77.9836C54.1048 75.4228 55.4212 72.5761 57.982 71.6312C60.5428 70.6863 63.3895 72.0026 64.3344 74.5634Z" fill="url(#paint29_radial_278_46263)"/>
<path style="mix-blend-mode:screen" d="M84.1081 31.2805C84.8607 33.3296 83.8115 35.5979 81.7625 36.3505C79.7134 37.1031 77.445 36.054 76.6925 34.0049C75.9399 31.9558 76.989 29.6875 79.0381 28.9349C81.0872 28.1823 83.3555 29.2314 84.0986 31.2732L84.1081 31.2805Z" fill="url(#paint30_radial_278_46263)"/>
<path style="mix-blend-mode:screen" d="M63.4932 4.17379C64.2458 6.22288 63.1967 8.49123 61.1476 9.2438C59.0985 9.99638 56.8301 8.94727 56.0776 6.89819C55.325 4.8491 56.3835 2.58806 58.4159 1.83761C60.4723 1.0756 62.7333 2.13414 63.4932 4.17379Z" fill="url(#paint31_radial_278_46263)"/>
<path style="mix-blend-mode:screen" d="M40.8433 30.9642C41.2322 32.0212 40.6904 33.1873 39.6334 33.5762C38.5765 33.9651 37.4103 33.4233 37.0214 32.3664C36.6325 31.3094 37.1743 30.1432 38.2313 29.7543C39.2883 29.3654 40.4544 29.9072 40.8433 30.9642Z" fill="url(#paint32_radial_278_46263)"/>
<path style="mix-blend-mode:screen" d="M72.4554 75.9362C72.8191 76.9283 72.3191 78.0211 71.327 78.3847C70.3349 78.7484 69.2421 78.2484 68.8784 77.2563C68.5147 76.2642 69.0147 75.1714 70.0068 74.8077C70.9989 74.4441 72.0917 74.9441 72.4554 75.9362Z" fill="url(#paint33_radial_278_46263)"/>
<path style="mix-blend-mode:screen" d="M47.9519 77.2982C48.3155 78.2903 47.8155 79.3831 46.8234 79.7468C45.8313 80.1105 44.7385 79.6105 44.3749 78.6184C44.0112 77.6263 44.5112 76.5335 45.5033 76.1698C46.4954 75.8061 47.5882 76.3061 47.9519 77.2982Z" fill="url(#paint34_radial_278_46263)"/>
<defs>
<linearGradient id="paint0_linear_278_46263" x1="77.2358" y1="109.587" x2="77.6959" y2="81.6794" gradientUnits="userSpaceOnUse">
<stop stop-color="#A43440"/>
<stop offset="1" stop-color="#C73634"/>
</linearGradient>
<linearGradient id="paint1_linear_278_46263" x1="39.3847" y1="108.963" x2="39.8448" y2="81.0552" gradientUnits="userSpaceOnUse">
<stop stop-color="#A43440"/>
<stop offset="1" stop-color="#C73634"/>
</linearGradient>
<radialGradient id="paint2_radial_278_46263" cx="0" cy="0" r="1" gradientUnits="userSpaceOnUse" gradientTransform="translate(63.6235 46.2056) rotate(0.944497) scale(31.1739 57.1105)">
<stop stop-color="#F4BAB3"/>
<stop offset="0.77" stop-color="#8D6FC7"/>
<stop offset="0.96" stop-color="#B695E5"/>
</radialGradient>
<radialGradient id="paint3_radial_278_46263" cx="0" cy="0" r="1" gradientUnits="userSpaceOnUse" gradientTransform="translate(60.0841 8.24872) rotate(0.944499) scale(8.4165 7.65901)">
<stop offset="0.02" stop-color="#AB5E75"/>
<stop offset="0.25" stop-color="#9E577B"/>
<stop offset="0.67" stop-color="#7E448C"/>
<stop offset="0.99" stop-color="#61349C"/>
</radialGradient>
<linearGradient id="paint4_linear_278_46263" x1="59.8788" y1="6.52207" x2="59.9363" y2="3.03657" gradientUnits="userSpaceOnUse">
<stop stop-color="#FFFF18"/>
<stop offset="1" stop-color="#FF7400"/>
</linearGradient>
<radialGradient id="paint5_radial_278_46263" cx="0" cy="0" r="1" gradientUnits="userSpaceOnUse" gradientTransform="translate(58.5822 83.3173) rotate(0.944503) scale(14.8632 27.3482)">
<stop offset="0.02" stop-color="#8881BC"/>
<stop offset="0.29" stop-color="#8274B7"/>
<stop offset="0.77" stop-color="#7454AA"/>
<stop offset="0.99" stop-color="#6D43A3"/>
</radialGradient>
<radialGradient id="paint6_radial_278_46263" cx="0" cy="0" r="1" gradientUnits="userSpaceOnUse" gradientTransform="translate(59.4181 37.3555) rotate(0.944496) scale(15.8063)">
<stop offset="0.02" stop-color="#8881BC"/>
<stop offset="0.29" stop-color="#8274B7"/>
<stop offset="0.77" stop-color="#7454AA"/>
<stop offset="0.99" stop-color="#6D43A3"/>
</radialGradient>
<radialGradient id="paint7_radial_278_46263" cx="0" cy="0" r="1" gradientUnits="userSpaceOnUse" gradientTransform="translate(60.0165 26.0944) rotate(0.9445) scale(19.6982 32.9497)">
<stop offset="0.02" stop-color="#725EB0"/>
<stop offset="0.38" stop-color="#6D51AA"/>
<stop offset="0.99" stop-color="#61349C"/>
</radialGradient>
<linearGradient id="paint8_linear_278_46263" x1="59.3758" y1="47.1812" x2="59.7776" y2="22.8066" gradientUnits="userSpaceOnUse">
<stop stop-color="#FFFF29"/>
<stop offset="1" stop-color="#FF7E59"/>
</linearGradient>
<radialGradient id="paint9_radial_278_46263" cx="0" cy="0" r="1" gradientUnits="userSpaceOnUse" gradientTransform="translate(58.4552 106.229) rotate(0.944494) scale(5.83782 10.7416)">
<stop offset="0.02" stop-color="#725EB0"/>
<stop offset="0.38" stop-color="#6D51AA"/>
<stop offset="0.99" stop-color="#61349C"/>
</radialGradient>
<radialGradient id="paint10_radial_278_46263" cx="0" cy="0" r="1" gradientUnits="userSpaceOnUse" gradientTransform="translate(59.8874 16.8622) rotate(0.9445) scale(10.7564)">
<stop offset="0.02" stop-color="#8881BC"/>
<stop offset="0.29" stop-color="#8274B7"/>
<stop offset="0.77" stop-color="#7454AA"/>
<stop offset="0.99" stop-color="#6D43A3"/>
</radialGradient>
<linearGradient id="paint11_linear_278_46263" x1="58.2094" y1="68.6778" x2="58.2336" y2="67.2096" gradientUnits="userSpaceOnUse">
<stop stop-color="#8DC7FF"/>
<stop offset="0.32" stop-color="#5C4D86"/>
</linearGradient>
<radialGradient id="paint12_radial_278_46263" cx="0" cy="0" r="1" gradientUnits="userSpaceOnUse" gradientTransform="translate(58.322 67.6528) rotate(0.944499) scale(0.584976)">
<stop offset="0.02" stop-color="#8881BC"/>
<stop offset="0.29" stop-color="#8274B7"/>
<stop offset="0.77" stop-color="#7454AA"/>
<stop offset="1" stop-color="#6D43A3"/>
</radialGradient>
<linearGradient id="paint13_linear_278_46263" x1="58.2693" y1="65.0492" x2="58.2935" y2="63.581" gradientUnits="userSpaceOnUse">
<stop stop-color="#8DC7FF"/>
<stop offset="0.32" stop-color="#5C4D86"/>
</linearGradient>
<radialGradient id="paint14_radial_278_46263" cx="0" cy="0" r="1" gradientUnits="userSpaceOnUse" gradientTransform="translate(58.3817 64.0243) rotate(0.944499) scale(0.584975)">
<stop offset="0.02" stop-color="#8881BC"/>
<stop offset="0.29" stop-color="#8274B7"/>
<stop offset="0.77" stop-color="#7454AA"/>
<stop offset="1" stop-color="#6D43A3"/>
</radialGradient>
<radialGradient id="paint15_radial_278_46263" cx="0" cy="0" r="1" gradientUnits="userSpaceOnUse" gradientTransform="translate(46.6855 39.1036) rotate(0.944496) scale(0.584976)">
<stop stop-color="#F4BAB3"/>
<stop offset="1" stop-color="#8D6FC7"/>
</radialGradient>
<radialGradient id="paint16_radial_278_46263" cx="0" cy="0" r="1" gradientUnits="userSpaceOnUse" gradientTransform="translate(48.1459 28.7159) rotate(0.944482) scale(0.584976)">
<stop stop-color="#F4BAB3"/>
<stop offset="1" stop-color="#8D6FC7"/>
</radialGradient>
<radialGradient id="paint17_radial_278_46263" cx="0" cy="0" r="1" gradientUnits="userSpaceOnUse" gradientTransform="translate(53.4373 47.4294) rotate(0.944519) scale(0.584976)">
<stop stop-color="#F4BAB3"/>
<stop offset="1" stop-color="#8D6FC7"/>
</radialGradient>
<radialGradient id="paint18_radial_278_46263" cx="0" cy="0" r="1" gradientTransform="matrix(0.584897 0.00964233 -0.00964302 0.584897 64.8104 48.5128)" gradientUnits="userSpaceOnUse">
<stop stop-color="#F4BAB3"/>
<stop offset="1" stop-color="#8D6FC7"/>
</radialGradient>
<radialGradient id="paint19_radial_278_46263" cx="0" cy="0" r="1" gradientTransform="matrix(0.584897 0.00964302 -0.00964233 0.584897 72.6346 41.7762)" gradientUnits="userSpaceOnUse">
<stop stop-color="#F4BAB3"/>
<stop offset="1" stop-color="#8D6FC7"/>
</radialGradient>
<radialGradient id="paint20_radial_278_46263" cx="0" cy="0" r="1" gradientUnits="userSpaceOnUse" gradientTransform="translate(71.6677 28.7216) rotate(0.944516) scale(0.584976)">
<stop stop-color="#F4BAB3"/>
<stop offset="1" stop-color="#8D6FC7"/>
</radialGradient>
<radialGradient id="paint21_radial_278_46263" cx="0" cy="0" r="1" gradientUnits="userSpaceOnUse" gradientTransform="translate(65.9892 21.9063) rotate(0.944516) scale(0.584976)">
<stop stop-color="#F4BAB3"/>
<stop offset="1" stop-color="#8D6FC7"/>
</radialGradient>
<radialGradient id="paint22_radial_278_46263" cx="0" cy="0" r="1" gradientUnits="userSpaceOnUse" gradientTransform="translate(56.2426 20.6826) rotate(0.944499) scale(0.584976)">
<stop stop-color="#F4BAB3"/>
<stop offset="1" stop-color="#8D6FC7"/>
</radialGradient>
<linearGradient id="paint23_linear_278_46263" x1="63.7952" y1="109.366" x2="64.3065" y2="78.3542" gradientUnits="userSpaceOnUse">
<stop stop-color="#A43411"/>
<stop offset="1" stop-color="#C73634"/>
</linearGradient>
<linearGradient id="paint24_linear_278_46263" x1="79.6302" y1="33.1515" x2="81.4685" y2="33.1818" gradientUnits="userSpaceOnUse">
<stop stop-color="#FFFF18"/>
<stop offset="1" stop-color="#FF7400"/>
</linearGradient>
<linearGradient id="paint25_linear_278_46263" x1="38.063" y1="31.9647" x2="39.7938" y2="31.9932" gradientUnits="userSpaceOnUse">
<stop stop-color="#FFFF18"/>
<stop offset="1" stop-color="#FF7400"/>
</linearGradient>
<linearGradient id="paint26_linear_278_46263" x1="46.544" y1="78.8255" x2="46.5719" y2="77.1305" gradientUnits="userSpaceOnUse">
<stop stop-color="#8DC7FF"/>
<stop offset="0.32" stop-color="#5C4D86"/>
</linearGradient>
<linearGradient id="paint27_linear_278_46263" x1="71.0432" y1="77.4623" x2="71.0711" y2="75.7673" gradientUnits="userSpaceOnUse">
<stop stop-color="#8DC7FF"/>
<stop offset="0.32" stop-color="#5C4D86"/>
</linearGradient>
<linearGradient id="paint28_linear_278_46263" x1="59.4073" y1="77.1391" x2="59.4352" y2="75.4441" gradientUnits="userSpaceOnUse">
<stop stop-color="#8DC7FF"/>
<stop offset="0.32" stop-color="#5C4D86"/>
</linearGradient>
<radialGradient id="paint29_radial_278_46263" cx="0" cy="0" r="1" gradientUnits="userSpaceOnUse" gradientTransform="translate(59.5139 76.6628) rotate(-20.2355) scale(4.9489)">
<stop stop-color="#003CEE"/>
<stop offset="0.06" stop-color="#0035D5"/>
<stop offset="0.2" stop-color="#00279D"/>
<stop offset="0.34" stop-color="#001B6D"/>
<stop offset="0.48" stop-color="#001146"/>
<stop offset="0.62" stop-color="#000927"/>
<stop offset="0.75" stop-color="#000411"/>
<stop offset="0.88" stop-color="#000104"/>
<stop offset="1"/>
</radialGradient>
<radialGradient id="paint30_radial_278_46263" cx="0" cy="0" r="1" gradientUnits="userSpaceOnUse" gradientTransform="translate(80.2303 33.0588) rotate(-20.2355) scale(3.94859)">
<stop stop-color="#FF9A00"/>
<stop offset="0.09" stop-color="#D58100"/>
<stop offset="0.23" stop-color="#9D5F00"/>
<stop offset="0.36" stop-color="#6D4200"/>
<stop offset="0.5" stop-color="#462A00"/>
<stop offset="0.63" stop-color="#271700"/>
<stop offset="0.76" stop-color="#110A00"/>
<stop offset="0.89" stop-color="#040200"/>
<stop offset="1"/>
</radialGradient>
<radialGradient id="paint31_radial_278_46263" cx="0" cy="0" r="1" gradientUnits="userSpaceOnUse" gradientTransform="translate(59.6178 5.96174) rotate(-20.2355) scale(3.94859)">
<stop stop-color="#FF9A00"/>
<stop offset="0.09" stop-color="#D58100"/>
<stop offset="0.23" stop-color="#9D5F00"/>
<stop offset="0.36" stop-color="#6D4200"/>
<stop offset="0.5" stop-color="#462A00"/>
<stop offset="0.63" stop-color="#271700"/>
<stop offset="0.76" stop-color="#110A00"/>
<stop offset="0.89" stop-color="#040200"/>
<stop offset="1"/>
</radialGradient>
<radialGradient id="paint32_radial_278_46263" cx="0" cy="0" r="1" gradientUnits="userSpaceOnUse" gradientTransform="translate(38.7796 32.0853) rotate(-20.2355) scale(2.03572)">
<stop stop-color="#FF9A00"/>
<stop offset="0.09" stop-color="#D58100"/>
<stop offset="0.23" stop-color="#9D5F00"/>
<stop offset="0.36" stop-color="#6D4200"/>
<stop offset="0.5" stop-color="#462A00"/>
<stop offset="0.63" stop-color="#271700"/>
<stop offset="0.76" stop-color="#110A00"/>
<stop offset="0.89" stop-color="#040200"/>
<stop offset="1"/>
</radialGradient>
<radialGradient id="paint33_radial_278_46263" cx="0" cy="0" r="1" gradientUnits="userSpaceOnUse" gradientTransform="translate(70.4952 76.9727) rotate(-20.2355) scale(1.91287)">
<stop stop-color="#003CEE"/>
<stop offset="0.06" stop-color="#0035D5"/>
<stop offset="0.2" stop-color="#00279D"/>
<stop offset="0.34" stop-color="#001B6D"/>
<stop offset="0.48" stop-color="#001146"/>
<stop offset="0.62" stop-color="#000927"/>
<stop offset="0.75" stop-color="#000411"/>
<stop offset="0.88" stop-color="#000104"/>
<stop offset="1"/>
</radialGradient>
<radialGradient id="paint34_radial_278_46263" cx="0" cy="0" r="1" gradientUnits="userSpaceOnUse" gradientTransform="translate(45.9973 78.3536) rotate(-20.2355) scale(1.91287)">
<stop stop-color="#003CEE"/>
<stop offset="0.06" stop-color="#0035D5"/>
<stop offset="0.2" stop-color="#00279D"/>
<stop offset="0.34" stop-color="#001B6D"/>
<stop offset="0.48" stop-color="#001146"/>
<stop offset="0.62" stop-color="#000927"/>
<stop offset="0.75" stop-color="#000411"/>
<stop offset="0.88" stop-color="#000104"/>
<stop offset="1"/>
</radialGradient>
</defs>
</svg>
