<svg width="20" height="20" viewBox="0 0 20 20" fill="none" xmlns="http://www.w3.org/2000/svg">
<path fill-rule="evenodd" clip-rule="evenodd" d="M4.52261 2.93046C4.6666 2.06387 5.41399 1.42871 6.28973 1.42871H13.7105C14.5861 1.42871 15.3336 2.0639 15.4775 2.93054L16.3536 8.20406H17.6494C18.1586 8.20406 18.5714 8.61819 18.5714 9.12904C18.5714 9.63988 18.1586 10.054 17.6494 10.054H2.35061C1.84139 10.054 1.42859 9.63988 1.42859 9.12904C1.42859 8.61819 1.84139 8.20406 2.35061 8.20406H3.64638L4.52261 2.93046ZM12.1514 14.8711C12.1514 13.849 12.9773 13.0205 13.996 13.0205C15.0148 13.0205 15.8407 13.849 15.8407 14.8711C15.8407 15.8931 15.0148 16.7216 13.996 16.7216C12.9773 16.7216 12.1514 15.8931 12.1514 14.8711ZM13.996 11.1705C12.6892 11.1705 11.5411 11.8523 10.8858 12.8806C10.6203 12.7696 10.3227 12.712 9.99824 12.712C9.6746 12.712 9.37761 12.7693 9.11261 12.8798C8.45726 11.852 7.30948 11.1707 6.00307 11.1707C3.96589 11.1707 2.31444 12.8274 2.31444 14.8712C2.31444 16.9149 3.96589 18.5716 6.00307 18.5716C8.04025 18.5716 9.6917 16.9149 9.6917 14.8712V14.8686C9.69275 14.8586 9.69439 14.8456 9.69695 14.8302C9.7061 14.7751 9.72269 14.7158 9.74669 14.6677C9.76888 14.6232 9.78769 14.6068 9.79862 14.5995C9.80497 14.5953 9.85426 14.562 9.99824 14.562C10.1422 14.562 10.1912 14.595 10.1976 14.5992C10.2085 14.6065 10.2276 14.6232 10.2498 14.6677C10.2738 14.7158 10.2904 14.7751 10.2995 14.8302C10.3038 14.8556 10.3055 14.8748 10.3062 14.8839L10.3063 14.8867C10.3066 14.8994 10.307 14.9119 10.3077 14.9243C10.3362 16.9435 11.9766 18.5716 13.996 18.5716C16.0332 18.5716 17.6847 16.9148 17.6847 14.8711C17.6847 12.8273 16.0332 11.1705 13.996 11.1705ZM6.00307 13.0206C7.00636 13.0206 7.82257 13.8242 7.8471 14.8248L7.84705 14.8263L7.84639 14.8526L7.84627 14.8628L7.84624 14.8671V14.8692L7.84767 14.8702L7.84624 14.8711C7.84624 14.8852 7.84656 14.8994 7.8472 14.9136C7.82473 15.916 7.00769 16.7216 6.00307 16.7216C4.98433 16.7216 4.15847 15.8932 4.15847 14.8712C4.15847 13.8491 4.98433 13.0206 6.00307 13.0206Z" fill="white" fill-opacity="0.44"/>
</svg>
