<svg width="52" height="55" viewBox="0 0 52 55" fill="none" xmlns="http://www.w3.org/2000/svg">
<path d="M25.3478 0.0249116C25.3816 0.0221594 25.4154 0.0197556 25.4492 0.0177012C27.0766 -0.0820844 29.0131 0.247086 30.5266 0.826582C31.9113 1.35673 33.1735 2.19688 34.4589 2.94289L39.8609 6.07125L44.3319 8.63921C45.6861 9.42159 46.8238 10.0246 48.0242 11.0426C50.3689 13.0312 51.831 15.9236 51.9672 18.9386C52.017 20.0409 51.9952 21.3058 51.9956 22.4272L51.9952 33.2226C51.9945 34.6215 52.0558 36.108 51.7532 37.4726C51.3553 39.2674 50.3805 41.2016 49.1187 42.5825C48.4407 43.3369 47.6775 44.0158 46.8436 44.6067C45.9465 45.2441 44.7845 45.9059 43.8271 46.4761L39.7971 48.9004C37.9856 50.0195 36.1564 51.1119 34.3106 52.1772C33.1745 52.8445 32.1159 53.5482 30.8865 54.0553C29.5248 54.6169 28.0923 54.8886 26.6207 54.9764C24.8446 55.0917 23.0319 54.7797 21.3764 54.1579C20.0748 53.6689 18.8712 52.8585 17.6713 52.1527C15.9471 51.1609 14.2365 50.1469 12.5401 49.1111C10.7957 48.0792 9.06095 47.032 7.33609 45.9698C6.22729 45.2823 5.32289 44.7804 4.3142 43.9427C1.85611 41.9406 0.324333 39.0745 0.0575572 35.9781C-0.0229698 34.9379 0.00394217 33.835 0.00574491 32.7875L0.00779036 22.3368C0.0105289 20.6676 -0.0649024 18.8117 0.306416 17.1875C0.738463 15.3132 1.63543 13.5686 2.92002 12.1039C4.43438 10.4078 6.14881 9.53661 8.09651 8.40932L13.4119 5.34756L18.0946 2.62671C18.702 2.27472 19.3045 1.91655 19.9115 1.56444C21.5729 0.600585 23.4315 0.158692 25.3478 0.0249116Z" fill="#1E52A6"/>
<path d="M6.77689 10.3211C7.39994 10.1549 7.96553 9.69916 8.50248 9.35998C8.73514 9.21303 9.21027 9.05595 9.46461 8.8934C9.84519 8.65019 10.134 8.43671 10.5323 8.20868L12.8072 6.93023C13.381 6.61076 13.93 6.34548 14.4496 5.93978C14.615 5.92738 14.6541 5.91907 14.7695 5.80295C15.1875 5.38208 15.7659 5.28463 16.2782 5.01625C16.4271 4.94182 16.5726 4.69515 16.709 4.62552C17.679 4.13027 18.6371 3.59943 19.54 2.997C19.7351 2.86679 20.0312 2.77284 20.2406 2.65249C20.5664 2.46531 20.8979 2.28966 21.2395 2.13046C22.806 1.25963 24.6922 1.10758 26.4625 1.11701C27.2812 1.11263 28.1433 1.13659 28.9261 1.39643C29.2982 1.51996 29.5393 1.44349 29.8488 1.58745C30.3482 1.81974 30.8423 2.07355 31.3387 2.31547C32.4691 2.86641 33.4101 3.72902 34.6067 4.17216C34.7103 4.2106 34.9157 4.52429 35.0555 4.56835C35.6236 4.87348 36.2363 5.10585 36.7996 5.42476C37.0978 5.61769 37.3696 5.85265 37.6866 6.02031C38.4958 6.44834 39.2613 6.89393 40.0146 7.40909C40.1448 7.45189 40.2909 7.49131 40.406 7.56027C40.8406 7.777 41.3041 8.0493 41.7187 8.30381C41.9642 8.45451 42.2083 8.64821 42.4611 8.79049L44.6725 10.0515C45.3335 10.4204 46.0182 10.7697 46.6235 11.2223C47.0356 11.5304 47.3853 11.9333 47.7634 12.2777C48.3113 12.7767 48.7477 13.2645 49.0813 13.9229C49.1917 14.1386 49.5313 14.3575 49.5188 14.6441C49.5224 14.7387 49.5464 14.8055 49.5933 14.8888L49.5441 14.8943C49.4408 14.773 49.5104 14.502 49.3775 14.4394C49.3844 14.4676 49.3916 14.509 49.4069 14.5298C49.4878 14.6401 49.3369 15.4748 49.365 15.5359C49.4158 15.646 49.6169 16.0693 49.6812 16.248C49.9767 17.0658 50.1716 17.9144 50.2617 18.7762C50.3096 19.2382 50.2623 19.6654 50.2741 20.1187C50.3229 21.9917 50.2959 23.8894 50.2973 25.7672L50.3118 32.2085C50.3117 32.5754 50.3119 32.9452 50.3115 33.3093C50.3102 34.7203 50.3733 36.1505 49.9555 37.5197C49.9478 37.5447 49.9338 37.552 49.9143 37.5704C49.6937 38.1458 49.4694 38.836 49.211 39.3776C48.5856 40.6492 47.6355 41.8332 46.5575 42.7855C45.3297 43.8701 43.6768 44.6145 42.3102 45.5376C41.6756 45.9662 40.9074 46.3621 40.2497 46.762L35.077 49.8737C34.4734 50.2313 33.8967 50.6199 33.2709 50.9595C32.2934 51.4899 31.389 52.1921 30.3349 52.6039C27.7532 53.6127 24.4557 53.6306 21.8547 52.6756C20.8061 52.2906 19.6573 51.4742 18.7071 50.9136L13.4946 47.823L8.56174 44.805C7.31843 44.0359 6.05017 43.4127 5.00585 42.3938C3.16751 40.5925 2.02666 38.2343 1.77503 35.7157C1.66483 34.5407 1.72475 32.7583 1.72356 31.5449L1.75363 24.7315C1.67935 24.2283 1.72845 23.1207 1.72313 22.5778C1.70809 21.0451 1.66997 19.5516 1.8155 18.0236C1.71065 17.9411 1.6206 17.8733 1.52495 17.7798L1.56961 17.7634C1.71519 17.7845 1.68115 17.8978 1.81554 17.912C1.83508 17.8929 1.8546 17.8737 1.87412 17.8545C1.93192 17.5564 2.03767 17.1477 2.10975 16.8685C2.09519 16.8458 2.08062 16.8229 2.06606 16.8002C2.05621 16.7836 2.04634 16.767 2.03647 16.7504C1.99023 16.6664 2.0221 16.4956 2.03366 16.403C2.06843 16.1249 2.07052 15.8355 2.18117 15.5736C2.29082 15.2965 2.45836 15.0667 2.61444 14.8138C2.63357 14.7829 2.81466 14.4461 2.80906 14.4497C2.98649 14.3366 3.23776 14.2295 3.28042 14.0048C3.29902 13.9067 3.35317 13.8593 3.36977 13.7655C3.35717 13.3769 3.43489 13.2508 3.57738 12.8907C3.66746 12.7668 4.34655 12.0977 4.47558 12.021C4.96872 11.7277 5.37625 11.309 5.83248 10.9902C6.26501 10.6878 6.37746 10.7808 6.77689 10.3211Z" fill="#34B2F0"/>
<path d="M6.77689 10.3211C7.39994 10.1549 7.96553 9.69916 8.50248 9.35998C8.73514 9.21303 9.21027 9.05595 9.46461 8.8934C9.84519 8.65019 10.134 8.43671 10.5323 8.20868L12.8072 6.93023C13.381 6.61076 13.93 6.34548 14.4496 5.93978C14.615 5.92738 14.6541 5.91907 14.7695 5.80295C15.1875 5.38208 15.7659 5.28463 16.2782 5.01625C16.4271 4.94182 16.5726 4.69515 16.709 4.62552C17.679 4.13027 18.6371 3.59943 19.54 2.997C19.7351 2.86679 20.0312 2.77284 20.2406 2.65249C20.5664 2.46531 20.8979 2.28966 21.2395 2.13046C22.806 1.25963 24.6922 1.10758 26.4625 1.11701C27.2812 1.11263 28.1433 1.13659 28.9261 1.39643C29.2982 1.51996 29.5393 1.44349 29.8488 1.58745C30.3482 1.81974 30.8423 2.07355 31.3387 2.31547C32.4691 2.86641 33.4101 3.72902 34.6067 4.17216C34.7103 4.2106 34.9157 4.52429 35.0555 4.56835C35.6236 4.87348 36.2363 5.10585 36.7996 5.42476C37.0978 5.61769 37.3696 5.85265 37.6866 6.02031C38.4958 6.44834 39.2613 6.89393 40.0146 7.40909C40.1448 7.45189 40.2909 7.49131 40.406 7.56027C40.8406 7.777 41.3041 8.0493 41.7187 8.30381C41.9642 8.45451 42.2083 8.64821 42.4611 8.79049L44.6725 10.0515C45.3335 10.4204 46.0182 10.7697 46.6235 11.2223C47.0356 11.5304 47.3853 11.9333 47.7634 12.2777C48.3113 12.7767 48.7477 13.2645 49.0813 13.9229C49.1917 14.1386 49.5313 14.3575 49.5188 14.6441C49.5224 14.7387 49.5464 14.8055 49.5933 14.8888L49.5441 14.8943C49.4408 14.773 49.5104 14.502 49.3775 14.4394C49.3844 14.4676 49.3916 14.509 49.4069 14.5298C49.4878 14.6401 49.3369 15.4748 49.365 15.5359C49.4158 15.646 49.6169 16.0693 49.6812 16.248C49.9767 17.0658 50.1716 17.9144 50.2617 18.7762C50.3096 19.2382 50.2623 19.6654 50.2741 20.1187C50.3229 21.9917 50.2959 23.8894 50.2973 25.7672L50.3118 32.2085C50.3117 32.5754 50.3119 32.9452 50.3115 33.3093C50.3102 34.7203 50.3733 36.1505 49.9555 37.5197C49.9478 37.5447 49.9338 37.552 49.9143 37.5704C49.9187 37.4628 49.9961 37.1567 50.0224 37.0418C50.3341 35.6792 50.2608 34.2882 50.2609 32.8931L50.236 27.3353L50.242 22.3097C50.2493 20.8724 50.3186 19.1345 50.0398 17.739C49.6917 16.0393 48.927 14.558 47.8262 13.2101C46.7136 11.8479 45.6312 11.2814 44.1451 10.4001C41.7207 8.9622 39.2678 7.5706 36.8215 6.16583L32.8532 3.85125C32.1431 3.44164 31.4089 2.99773 30.6683 2.65071C28.1643 1.4719 25.0701 1.34899 22.4442 2.22332C21.6535 2.48665 20.868 2.85713 20.1692 3.30893C19.9313 3.46279 19.6841 3.6193 19.4375 3.76032L14.6556 6.54861C14.3709 6.71161 14.0584 6.84943 13.7796 7.01731C12.2581 7.93324 10.7006 8.79507 9.15175 9.66795C8.83262 9.84781 8.52723 10.0798 8.205 10.2515C6.62763 11.0922 5.18707 12.0511 4.05683 13.43C2.89011 14.881 2.05696 16.6471 1.83334 18.4788C1.74827 19.1757 1.78202 20.0034 1.78159 20.7067L1.77006 23.1086C1.76919 23.58 1.79342 24.2517 1.75662 24.6986L1.75363 24.7315C1.67935 24.2283 1.72845 23.1207 1.72313 22.5778C1.70809 21.0451 1.66997 19.5516 1.8155 18.0236C1.71065 17.9411 1.6206 17.8733 1.52495 17.7798L1.56961 17.7634C1.71519 17.7845 1.68115 17.8978 1.81554 17.912C1.83508 17.8929 1.8546 17.8737 1.87412 17.8545C1.93192 17.5564 2.03767 17.1477 2.10975 16.8685C2.09519 16.8458 2.08062 16.8229 2.06606 16.8002C2.05621 16.7836 2.04634 16.767 2.03647 16.7504C1.99023 16.6664 2.0221 16.4956 2.03366 16.403C2.06843 16.1249 2.07052 15.8355 2.18117 15.5736C2.29082 15.2965 2.45836 15.0667 2.61444 14.8138C2.63357 14.7829 2.81466 14.4461 2.80906 14.4497C2.98649 14.3366 3.23776 14.2295 3.28042 14.0048C3.29902 13.9067 3.35317 13.8593 3.36977 13.7655C3.35717 13.3769 3.43489 13.2508 3.57738 12.8907C3.66746 12.7668 4.34655 12.0977 4.47558 12.021C4.96872 11.7277 5.37625 11.309 5.83248 10.9902C6.26501 10.6878 6.37746 10.7808 6.77689 10.3211Z" fill="#2A7ED3"/>
<path d="M40.0146 7.40909C40.1448 7.45189 40.2909 7.49131 40.406 7.56027L40.3604 7.59028C40.3325 7.67818 40.356 7.67452 40.4063 7.78659C40.3835 7.8779 40.408 7.84161 40.3292 7.89841C40.2358 7.88645 40.2778 7.90368 40.2036 7.83574C40.1652 7.67567 40.1268 7.53578 40.0146 7.40909Z" fill="#2E88E3"/>
<path d="M4.37392 14.0673C4.56917 12.6794 7.68863 11.1246 8.86095 10.4281C11.1983 9.03915 13.5899 7.71189 15.9518 6.36162L19.7022 4.20673C20.5038 3.74056 21.0635 3.31578 21.9297 2.96509C23.2773 2.41941 24.6886 2.18834 26.1432 2.15074C26.4481 2.14286 27.082 2.10266 27.3645 2.21146L27.4636 2.24742C28.0824 2.28421 29.7103 2.77183 30.2839 3.04624C30.8303 3.3077 31.6475 3.81164 32.2036 4.13152L42.7935 10.228C44.247 11.0742 45.8582 11.7857 46.9841 13.024C47.1564 13.2135 47.6799 13.8925 47.764 14.1208C47.9937 14.404 48.1685 14.7599 48.3362 15.0796C48.8188 15.9996 49.2206 16.9453 49.3698 17.9753C49.5374 19.1323 49.4618 20.4087 49.4665 21.5919L49.4744 28.2942L49.4731 32.9334L49.4701 34.4201C49.469 34.6419 49.4696 35.0205 49.4532 35.2247C49.4173 35.6714 48.6399 36.1124 48.3822 36.4003C48.4696 36.356 48.5581 36.3138 48.6476 36.2738C48.3593 36.4736 48.0607 36.6905 47.7638 36.8837C47.7172 36.9141 47.6306 37.3697 47.6029 37.4518C47.4297 37.9113 47.1992 38.5499 46.8875 38.9321C46.7951 39.0453 46.7365 39.0753 46.6794 39.2069C46.7121 39.2473 46.7327 39.2727 46.7627 39.3154C46.5501 39.5113 46.5596 39.3769 46.3589 39.6962C46.0299 40.2193 44.0603 42.3521 43.5107 42.3678L43.398 42.3249L43.3561 42.3499C43.3819 42.3912 43.393 42.4075 43.4241 42.4451C43.2543 42.689 42.4905 43.0641 42.1844 43.242C42.3198 43.4576 41.9422 43.78 41.6664 43.573L41.646 43.5654C41.2031 43.8734 40.6569 44.1391 40.1944 44.4284C39.5611 44.8248 38.9424 45.2527 38.2845 45.6117C38.1047 45.7099 37.9046 45.7731 37.7168 45.852C37.5705 46.0499 37.422 46.1182 37.3209 46.2425C37.1447 46.3341 37.0537 46.4175 36.854 46.3595C36.7584 46.231 36.2773 46.1122 36.0939 46.1857C35.9319 46.385 36.2287 46.6937 36.3756 46.836C36.1293 46.9234 35.831 47.1203 35.6077 47.2626C34.8908 47.7193 34.1604 48.1446 33.4219 48.5673C33.1404 48.7283 33.041 48.9314 32.7066 48.9979L32.6652 49.0161C32.5894 49.0865 32.5459 49.1226 32.4618 49.1835C32.3784 49.2302 32.3648 49.261 32.3124 49.2959C31.7468 49.6713 30.8046 50.268 30.1659 50.4833C28.4502 51.0618 26.3818 51.3559 24.5683 51.1551L24.5366 51.1191C24.62 51.0943 24.8107 51.1291 24.9056 51.1391C25.5916 51.2115 26.277 51.1577 26.9631 51.1098C26.9151 51.1014 26.8273 51.0998 26.7997 51.0546C26.6412 50.7942 25.905 48.9943 25.5677 49.055C25.5101 49.1408 25.5125 49.2358 25.5008 49.3409C25.1388 49.7346 24.9147 50.2232 24.6964 50.7004C24.6355 50.8337 24.5821 50.9129 24.4893 51.026C24.1767 50.9999 23.8562 50.9082 23.5519 50.86C22.0811 50.6272 21.3807 50.2516 20.1507 49.5305C20.0172 49.4361 19.7236 49.274 19.5719 49.1839C19.1712 48.9609 18.7729 48.6806 18.3769 48.4501C17.4654 47.9195 16.5735 47.3355 15.6471 46.8321C15.5661 46.9656 15.4679 46.9598 15.3314 46.8957L15.3071 46.8657C15.1671 46.7375 14.6249 46.4808 14.6667 46.2837L14.7392 46.2618C14.4714 46.1345 14.2069 45.9313 13.9489 45.7891C13.404 45.4888 12.9012 45.1702 12.3767 44.8373C12.5533 44.6676 12.742 44.3929 12.5535 44.1712C12.2867 44.0519 12.0037 44.3575 11.831 44.5248C11.1511 44.132 10.4766 43.6724 9.81028 43.2848C8.68172 42.6284 7.72874 41.9431 6.82439 41.0137C6.52367 40.7047 6.11405 40.4245 5.85362 40.0616C5.34278 39.35 4.87511 38.5623 4.55194 37.7532C4.54975 37.7478 4.31814 36.8887 4.31848 36.9072C4.37937 36.8281 4.36902 36.8528 4.501 36.8253C4.38718 36.8241 4.33715 36.827 4.24156 36.781C3.87589 36.5799 2.65359 35.761 2.59664 35.3234C2.5058 34.6253 2.55043 33.1695 2.55266 32.4384L2.55307 26.9588L2.54364 21.3065C2.53527 17.7299 2.49368 17.1655 4.37392 14.0673Z" fill="#45ECE7"/>
<path d="M4.37392 14.0673C4.56917 12.6794 7.68863 11.1246 8.86095 10.4281C11.1983 9.03915 13.5899 7.71189 15.9518 6.36162L19.7022 4.20673C20.5038 3.74056 21.0635 3.31578 21.9297 2.96509C23.2773 2.41941 24.6886 2.18834 26.1432 2.15074C26.4481 2.14286 27.082 2.10266 27.3645 2.21146L27.4636 2.24742C28.0824 2.28421 29.7103 2.77183 30.2839 3.04624C30.8303 3.3077 31.6475 3.81164 32.2036 4.13152L42.7935 10.228C44.247 11.0742 45.8582 11.7857 46.9841 13.024C47.1564 13.2135 47.6799 13.8925 47.764 14.1208L47.7459 14.1323C47.5946 14.0324 47.5472 14.0399 47.3644 14.008L47.3702 14.0535C47.4613 14.7216 48.027 16.2087 47.6886 16.8516L47.6314 16.8878C47.4088 16.8421 47.0931 16.0068 46.7294 15.82C46.5495 15.9561 46.1733 16.067 45.9367 16.1599C44.8652 16.5808 43.6954 16.8638 42.6717 17.3853C42.5421 17.4511 42.361 17.644 42.2567 17.7477C42.2637 17.8193 42.2822 17.9325 42.2636 17.9962C42.2034 17.4394 41.1741 16.5924 40.7298 16.2142C40.7188 16.2173 40.7072 16.2184 40.697 16.2233C40.6694 16.2367 40.6475 16.2597 40.62 16.273C40.4935 16.3341 40.2514 16.3337 40.1108 16.3505C39.4042 16.4349 38.7083 16.2576 38.0882 15.9314C37.8207 15.7907 37.5351 15.623 37.2366 15.5566C36.9796 15.4994 36.6215 15.5789 36.3568 15.5988C35.6102 15.6548 35.1174 15.6991 34.6298 16.3112C34.4763 16.504 34.3422 16.7099 34.1743 16.892C33.9497 17.1357 33.635 17.3349 33.3703 17.5401C33.2 17.6722 33.0121 17.8545 32.822 17.9536C32.593 18.073 30.1141 18.3801 29.6807 18.4108C29.2798 18.4392 28.8753 18.42 28.4756 18.4532C28.081 18.486 27.6989 18.5653 27.2998 18.5571C26.8357 18.5475 26.4009 18.4613 25.943 18.4084C25.4441 18.3508 24.9695 18.3409 24.4792 18.2105C23.7513 18.0168 23.1512 17.7347 22.4973 17.3763C22.3841 17.3143 22.3268 17.1824 22.1994 17.1467L22.1565 17.184C21.8446 16.8609 21.5836 16.5753 21.332 16.2057C21.253 16.0896 20.9095 15.7953 20.7815 15.7102C20.6993 15.7895 20.4801 15.498 20.3815 15.5114C20.2197 15.5334 20.3784 15.5923 20.1398 15.6112C20.0817 15.5724 19.9191 15.4222 19.9053 15.4173C19.5888 15.3038 19.4249 15.3326 19.2605 15.0066C19.2246 14.9353 18.5957 14.6326 18.5279 14.6772C18.2389 14.8675 17.5932 15.3738 17.2427 15.3872L17.2155 15.3207C17.1919 15.3157 17.1682 15.3107 17.1446 15.3056C16.8653 15.4418 16.4332 15.6476 16.1291 15.7217C15.7831 15.7946 15.4874 15.8389 15.1372 15.9092C14.6084 16.0153 13.8527 16.2551 13.3167 16.1716C13.0879 16.1359 12.5161 15.5257 12.3054 15.4464C11.5064 15.9776 10.0996 17.0195 9.85647 17.9427L9.85085 17.8996C9.26963 17.1003 7.96822 16.876 7.0711 16.5426C6.4762 16.3215 5.87487 16.1189 5.28949 15.8746C4.95271 16.2559 4.63877 16.7422 4.45392 17.2082C4.39856 17.077 4.23623 16.6944 4.20223 16.5801C3.99696 15.8895 4.57672 14.361 4.93232 13.7663C4.68656 13.8542 4.59254 13.9269 4.37392 14.0673Z" fill="url(#paint0_linear_296_6261)"/>
<path d="M12.3054 15.4464C12.9106 15.0057 13.505 14.6215 14.1486 14.2216C16.9917 12.455 20.0023 10.8016 23.0806 9.45055C23.8908 9.09495 24.6816 8.87241 25.5256 8.62417C25.6416 8.59187 25.8792 8.43332 25.9327 8.32528C26.0011 8.32372 26.5631 8.666 26.7346 8.71084C28.4064 9.14808 29.8956 9.86069 31.4258 10.6205C33.2034 11.4988 34.9415 12.4498 36.6353 13.471C38.1611 14.384 39.3435 15.0418 40.7298 16.2142C40.7188 16.2173 40.7072 16.2184 40.697 16.2233C40.6694 16.2367 40.6475 16.2597 40.62 16.273C40.4935 16.3341 40.2514 16.3337 40.1108 16.3505C39.4042 16.4349 38.7083 16.2576 38.0882 15.9314C37.8207 15.7907 37.5351 15.623 37.2366 15.5566C36.9796 15.4994 36.6215 15.5789 36.3568 15.5988C35.6102 15.6548 35.1174 15.6991 34.6298 16.3112C34.4763 16.504 34.3422 16.7099 34.1743 16.892C33.9497 17.1357 33.635 17.3349 33.3703 17.5401C33.2 17.6722 33.0121 17.8545 32.822 17.9536C32.593 18.073 30.1141 18.3801 29.6807 18.4108C29.2798 18.4392 28.8753 18.42 28.4756 18.4532C28.081 18.486 27.6989 18.5653 27.2998 18.5571C26.8357 18.5475 26.4009 18.4613 25.943 18.4084C25.4441 18.3508 24.9695 18.3409 24.4792 18.2105C23.7513 18.0168 23.1512 17.7347 22.4973 17.3763C22.3841 17.3143 22.3268 17.1824 22.1994 17.1467L22.1565 17.184C21.8446 16.8609 21.5836 16.5753 21.332 16.2057C21.253 16.0896 20.9095 15.7953 20.7815 15.7102C20.6993 15.7895 20.4801 15.498 20.3815 15.5114C20.2197 15.5334 20.3784 15.5923 20.1398 15.6112C20.0817 15.5724 19.9191 15.4222 19.9053 15.4173C19.5888 15.3038 19.4249 15.3326 19.2605 15.0066C19.2246 14.9353 18.5957 14.6326 18.5279 14.6772C18.2389 14.8675 17.5932 15.3738 17.2427 15.3872L17.2155 15.3207C17.1919 15.3157 17.1682 15.3107 17.1446 15.3056C16.8653 15.4418 16.4332 15.6476 16.1291 15.7217C15.7831 15.7946 15.4874 15.8389 15.1372 15.9092C14.6084 16.0153 13.8527 16.2551 13.3167 16.1716C13.0879 16.1359 12.5161 15.5257 12.3054 15.4464Z" fill="#F3FED3"/>
<path d="M4.37392 14.0673C4.56917 12.6794 7.68863 11.1246 8.86095 10.4281C11.1983 9.03915 13.5899 7.71189 15.9518 6.36162L19.7022 4.20673C20.5038 3.74056 21.0635 3.31578 21.9297 2.96509C23.2773 2.41941 24.6886 2.18834 26.1432 2.15074C26.4481 2.14286 27.082 2.10266 27.3645 2.21146L27.4636 2.24742C28.0824 2.28421 29.7103 2.77183 30.2839 3.04624C30.8303 3.3077 31.6475 3.81164 32.2036 4.13152L42.7935 10.228C44.247 11.0742 45.8582 11.7857 46.9841 13.024C47.1564 13.2135 47.6799 13.8925 47.764 14.1208L47.7459 14.1323C47.5946 14.0324 47.5472 14.0399 47.3644 14.008L47.3702 14.0535C47.4613 14.7216 48.027 16.2087 47.6886 16.8516L47.6314 16.8878C47.4088 16.8421 47.0931 16.0068 46.7294 15.82C46.5634 15.5817 46.3943 15.2807 46.2131 15.0609C45.4715 14.1602 44.4564 13.346 43.4355 12.758C41.7978 11.8149 40.1378 10.9264 38.5236 9.94763C38.1249 9.70584 37.6647 9.51521 37.2628 9.27459C36.9146 9.06819 36.5732 8.85382 36.2231 8.65132L33.5954 7.1572C33.0654 6.85482 32.5461 6.54018 32.0005 6.26224C31.7952 6.12881 31.564 6.0403 31.3596 5.91526C28.0855 3.91331 23.6905 4.00427 20.4261 6.06567C19.8661 6.33497 19.276 6.73585 18.7393 6.98985C18.1909 7.27213 17.7147 7.58199 17.1825 7.86706C16.937 7.97141 16.2944 8.37124 16.0258 8.52347L12.7656 10.4094L9.92577 12.0074C9.2851 12.3598 8.24653 12.9193 7.67583 13.337C6.93442 13.8797 6.08018 14.7982 5.49737 15.5034C5.40693 15.6127 5.37317 15.7662 5.28949 15.8746C4.95271 16.2559 4.63877 16.7422 4.45392 17.2082C4.39856 17.077 4.23623 16.6944 4.20223 16.5801C3.99696 15.8895 4.57672 14.361 4.93232 13.7663C4.68656 13.8542 4.59254 13.9269 4.37392 14.0673Z" fill="url(#paint1_linear_296_6261)"/>
<path d="M4.37392 14.0673C4.56917 12.6794 7.68863 11.1246 8.86095 10.4281C11.1983 9.03915 13.5899 7.71189 15.9518 6.36162L19.7022 4.20673C20.5038 3.74056 21.0635 3.31578 21.9297 2.96509C23.2773 2.41941 24.6886 2.18834 26.1432 2.15074C26.4481 2.14286 27.082 2.10266 27.3645 2.21146L27.4636 2.24742L27.4325 2.24898C27.2992 2.25454 26.9367 2.22529 26.8749 2.24486C26.9452 2.28245 26.9845 2.27706 27.0684 2.28702C27.0217 2.30821 26.7864 2.35531 26.727 2.3614C26.4031 2.33952 26.0533 2.3368 25.7263 2.32892C24.5331 2.42455 23.6763 2.52404 22.528 2.96683C21.6206 3.3168 21.0164 3.79106 20.2011 4.25822L16.5002 6.33973L10.7051 9.66705C9.70716 10.2378 8.71658 10.8204 7.73351 11.4147C6.70421 12.048 6.09512 12.4151 5.28005 13.3408C5.15889 13.4785 5.04291 13.6205 4.93232 13.7663C4.68656 13.8542 4.59254 13.9269 4.37392 14.0673Z" fill="url(#paint2_linear_296_6261)"/>
<path d="M25.7263 2.32892C25.8407 2.29366 25.9739 2.28541 26.0947 2.27291L26.0156 2.27309C26.5923 2.18752 26.7844 2.20262 27.3645 2.21146L27.4636 2.24742L27.4325 2.24898C27.2992 2.25454 26.9367 2.22529 26.8749 2.24486C26.9452 2.28245 26.9845 2.27706 27.0684 2.28702C27.0217 2.30821 26.7864 2.35531 26.727 2.3614C26.4031 2.33952 26.0533 2.3368 25.7263 2.32892Z" fill="#45ECE7"/>
<path d="M26.727 2.3614C26.7864 2.35531 27.0217 2.30821 27.0684 2.28702C26.9845 2.27706 26.9452 2.28245 26.8749 2.24486C26.9367 2.22529 27.2992 2.25454 27.4325 2.24898L27.4636 2.24742C28.0824 2.28421 29.7103 2.77183 30.2839 3.04624C30.8303 3.3077 31.6475 3.81164 32.2036 4.13152L42.7935 10.228C44.247 11.0742 45.8582 11.7857 46.9841 13.024C47.1564 13.2135 47.6799 13.8925 47.764 14.1208L47.7459 14.1323C47.5946 14.0324 47.5472 14.0399 47.3644 14.008C47.3165 13.9213 47.231 13.8132 47.1665 13.735C46.682 13.1468 46.1093 12.5744 45.4821 12.1292C45.1862 11.9192 44.8555 11.7462 44.5436 11.5641L43.2131 10.7779L38.2336 7.90364L32.6731 4.71744C32.2153 4.46066 31.7587 4.20164 31.3035 3.94036C30.8961 3.7021 30.44 3.40449 30.0066 3.22077C29.4368 2.97923 28.7116 2.70026 28.1095 2.56181C27.7257 2.47361 27.1329 2.41236 26.727 2.3614Z" fill="url(#paint3_linear_296_6261)"/>
<path d="M20.4261 6.06567C23.6905 4.00427 28.0855 3.91331 31.3596 5.91526C31.564 6.0403 31.7952 6.12881 32.0005 6.26224L31.9954 6.29782C31.8373 6.27465 30.9741 5.73792 30.7721 5.65747C30.7204 5.70375 30.7316 5.86889 30.6782 5.99112C30.3001 6.34563 30.1311 6.27283 29.7902 6.10505C29.6368 6.02951 28.8918 6.0096 28.7464 6.07582C28.4182 6.2253 28.0155 6.13241 27.6579 6.17967C27.3735 6.15104 27.0435 6.38005 26.7742 6.34603C26.0856 6.25905 25.3261 5.73529 24.6368 5.76715C24.5081 5.77309 24.2371 5.91549 24.0931 5.92668C23.9026 5.94148 23.7381 5.92946 23.5531 5.9521C23.459 6.17121 23.0995 6.17774 22.8788 6.17257C22.7794 6.22494 22.3319 6.46766 22.2231 6.46719C21.6894 6.45329 21.053 6.39464 20.5813 6.14396C20.514 6.10825 20.5128 6.0963 20.4261 6.06567Z" fill="#95FCDC"/>
<path d="M17.1825 7.86706C17.7147 7.58199 18.1909 7.27213 18.7393 6.98985L18.7235 7.09901L18.81 7.19874C18.7044 7.5184 17.7785 8.02117 17.4299 7.93633C17.3969 7.8903 17.3834 7.87296 17.334 7.84356L17.1825 7.86706Z" fill="#95FCDC"/>
<path d="M12.3054 15.4464C12.5161 15.5257 13.0879 16.1359 13.3167 16.1716C13.8527 16.2551 14.6084 16.0153 15.1372 15.9092C15.4874 15.8389 15.7831 15.7946 16.1291 15.7217C16.4332 15.6476 16.8653 15.4418 17.1446 15.3056C17.1682 15.3107 17.1919 15.3157 17.2155 15.3207L17.2427 15.3872C17.5932 15.3738 18.2389 14.8675 18.5279 14.6772C18.5957 14.6326 19.2246 14.9353 19.2605 15.0066C19.4249 15.3326 19.5888 15.3038 19.9053 15.4173C19.9191 15.4222 20.0817 15.5724 20.1398 15.6112C20.3784 15.5923 20.2197 15.5334 20.3815 15.5114C20.4801 15.498 20.6993 15.7895 20.7815 15.7102C20.9095 15.7953 21.253 16.0896 21.332 16.2057C21.5836 16.5753 21.8446 16.8609 22.1565 17.184L22.1994 17.1467C22.3268 17.1824 22.3841 17.3143 22.4973 17.3763C23.1512 17.7347 23.7513 18.0168 24.4792 18.2105C24.9695 18.3409 25.4441 18.3508 25.943 18.4084C26.4009 18.4613 26.8357 18.5475 27.2998 18.5571C27.6989 18.5653 28.081 18.486 28.4756 18.4532C28.8753 18.42 29.2798 18.4392 29.6807 18.4108C30.1141 18.3801 32.593 18.073 32.822 17.9536C33.0121 17.8545 33.2 17.6722 33.3703 17.5401C33.635 17.3349 33.9497 17.1357 34.1743 16.892C34.3422 16.7099 34.4763 16.504 34.6298 16.3112C35.1174 15.6991 35.6102 15.6548 36.3568 15.5988C36.6215 15.5789 36.9796 15.4994 37.2366 15.5566C37.5351 15.623 37.8207 15.7907 38.0882 15.9314C38.7083 16.2576 39.4042 16.4349 40.1108 16.3505C40.2514 16.3337 40.4935 16.3341 40.62 16.273C40.6475 16.2597 40.6694 16.2367 40.697 16.2233C40.7072 16.2184 40.7188 16.2173 40.7298 16.2142C41.1741 16.5924 42.2034 17.4394 42.2636 17.9962C42.2488 18.5267 42.3867 19.0827 42.4426 19.6106C42.699 22.0318 42.6274 24.5078 42.6278 26.94C42.6434 28.4261 42.6091 29.9124 42.5249 31.3964C42.4954 31.8565 42.4839 32.3453 42.4095 32.7985C42.3956 32.8833 42.3865 32.9375 42.3777 33.0252C42.3114 32.9746 42.4628 31.8844 42.4718 31.7162C42.5264 30.6985 42.587 29.6791 42.5849 28.6597C42.5845 28.5113 42.6104 28.252 42.5246 28.1455L42.5225 28.3543L42.4957 28.3717C42.3696 28.0023 42.5454 26.2815 42.3792 26.0992C42.259 26.1924 42.4114 26.3705 42.1898 26.5151C41.8407 26.5934 41.7157 26.224 41.4588 26.2259C40.5992 26.2325 39.7718 26.3126 38.9296 26.0923C38.7921 26.0565 38.3681 26.193 38.1997 26.1303C38.403 25.8386 40.4367 26.3219 41.0038 26.1509L40.9749 26.0964L40.9806 26.0565L40.9379 26.0322C40.942 26.0536 40.9171 25.9464 40.9253 25.9647C40.8218 25.7328 40.3882 25.5581 40.1398 25.6129C40.0224 25.6313 39.9132 25.6497 39.797 25.679C39.3638 25.7882 38.897 25.7236 38.453 25.7997C38.4526 25.7998 38.2835 25.9307 38.269 25.9307C38.1341 25.9305 37.998 25.9263 37.8642 25.9452C37.6763 25.9819 37.4006 26.114 37.216 26.1358C37.0538 26.1548 36.7769 26.1564 36.6076 26.1565C36.1822 26.1567 35.6856 26.2949 35.3118 26.485C34.9444 26.6687 34.6718 26.9539 34.3681 27.2154C34.2605 27.3081 34.0135 27.325 33.9055 27.4282C33.8896 27.4403 33.8737 27.4524 33.8577 27.4645C33.6366 27.4148 33.1238 27.7269 32.7979 27.7831C32.4897 27.8362 31.6649 27.8133 31.4668 27.9793L31.4847 28.0654C31.5605 28.1624 31.6668 28.1526 31.7758 28.2142C32.4446 28.5932 33.1762 28.8806 33.7847 29.3516C33.8623 29.4116 34.0471 29.4563 34.1417 29.5161C34.6867 29.8599 35.26 30.0734 35.8588 30.3074C35.9764 30.3532 36.0737 30.4317 36.1806 30.4742C36.4891 30.5966 36.8311 30.6231 37.1001 30.8284L37.099 30.8652C36.9993 30.8638 36.924 30.7667 36.8245 30.7342C35.8254 30.4073 34.8068 29.9521 33.8798 29.4652C33.5819 29.3087 33.2725 29.0783 32.9676 28.9138C31.9897 28.3862 30.9817 27.9365 29.9697 27.4759C29.3099 27.1756 28.6514 26.8297 27.9815 26.5422C27.8212 26.4921 27.6465 26.4806 27.4822 26.4425C27.2825 26.3964 27.0035 26.1425 26.8219 26.1075C26.3904 26.0243 26.1502 26.0151 25.7572 25.8041C25.6587 25.8782 25.5622 25.9542 25.4493 26.0066C25.0465 26.2257 24.5455 26.3117 24.1346 26.4846C23.5608 26.7259 22.9228 26.9195 22.3571 27.1532C21.6501 27.4778 20.9934 27.9522 20.3662 28.4034C19.836 28.7849 19.5476 28.7265 18.955 28.9373C18.4011 29.1343 17.8586 29.4439 17.3107 29.6664C17.6318 29.4399 18.6004 29.0174 18.9848 28.8753C19.3065 28.7761 19.769 28.7152 20.0586 28.5426C20.7822 28.1112 21.4235 27.4826 22.2155 27.1479L22.2444 27.136L22.2377 27.081C21.8916 26.7244 21.602 26.9203 21.1523 26.824C20.3588 26.6539 19.5607 26.4959 18.7699 26.3136C18.4779 26.2571 18.1093 26.0574 17.8254 26.021C17.5137 25.9812 16.8715 25.8269 16.6376 25.6118C16.158 25.1706 15.6812 24.9165 15.09 24.6354C14.9831 24.5846 14.9347 24.5224 14.8588 24.4537C14.5376 24.3189 13.7178 23.6705 13.386 23.7018C12.7225 23.7646 11.875 23.6073 11.2773 23.588C10.1149 23.5505 9.91347 25.7171 9.96075 26.5333L9.99388 26.4859C10.0738 26.4555 10.0344 26.4567 10.1159 26.4814C10.0801 26.719 9.6318 27.0756 9.4009 27.0307C9.28282 27.4368 9.52029 31.8223 9.62649 32.4772C9.64895 32.6156 9.66412 32.5633 9.62393 32.7705C9.54687 32.2695 9.48717 31.6972 9.46583 31.1917C9.41354 29.9537 9.34179 28.716 9.34577 27.4768C9.35599 24.2921 9.27366 21.0894 9.85647 17.9427C10.0996 17.0195 11.5064 15.9776 12.3054 15.4464Z" fill="url(#paint4_linear_296_6261)"/>
<path d="M4.501 36.8253C5.11502 36.6229 5.69206 36.4326 6.29088 36.1576C7.181 35.7487 8.09477 35.2134 9.02338 34.8918C9.24553 34.815 9.87562 34.9274 10.0976 35.0142C10.2609 35.0817 10.5456 35.4933 10.6718 35.643C10.909 35.9195 11.1588 36.1858 11.4202 36.4411C12.1461 37.1423 13.0124 37.8179 13.8019 38.4629C13.9626 38.5867 14.2339 38.7825 14.3766 38.9113C15.1371 39.4404 15.8678 40.0056 16.6655 40.4827C16.8421 40.5883 17.0189 40.6951 17.1941 40.8031C17.9903 41.3323 18.8244 41.8061 19.6597 42.2751C20.1544 42.5472 20.7637 42.8964 21.2759 43.1238C21.4459 43.1933 22.2177 43.5127 22.34 43.5923C22.996 43.8839 23.3148 44.0197 24.0087 44.2156C24.3605 44.3148 25.2289 44.503 25.4842 44.6365C25.7735 44.7323 26.0497 44.7535 26.3426 44.6515C26.4272 44.6415 26.743 44.5391 26.8591 44.5126C27.6076 44.3417 28.2764 44.1034 28.9954 43.8442C29.0995 43.8192 29.2349 43.767 29.339 43.7309C32.1709 42.4922 35.258 40.7276 37.7001 38.8581C37.8769 38.75 38.1044 38.5206 38.3072 38.3794C38.6107 38.2029 38.8969 37.954 39.1627 37.7274C39.3359 37.568 39.6144 37.3522 39.8016 37.2116C40.2283 36.8539 40.6935 36.377 41.0703 35.9656C41.3395 35.6718 41.6213 35.2753 41.9097 35.0101C42.9789 34.7789 43.089 34.8977 44.054 35.3361C44.9307 35.7343 45.812 36.1645 46.703 36.532C46.9772 36.6451 47.3471 36.8042 47.635 36.8664C47.8215 36.77 48.1927 36.521 48.3822 36.4003C48.4696 36.356 48.5581 36.3138 48.6476 36.2738C48.3593 36.4736 48.0607 36.6905 47.7638 36.8837C47.7172 36.9141 47.6306 37.3697 47.6029 37.4518C47.4297 37.9113 47.1992 38.5499 46.8875 38.9321C46.7951 39.0453 46.7365 39.0753 46.6794 39.2069C46.7121 39.2473 46.7327 39.2727 46.7627 39.3154C46.5501 39.5113 46.5596 39.3769 46.3589 39.6962C46.0299 40.2193 44.0603 42.3521 43.5107 42.3678L43.398 42.3249L43.3561 42.3499C43.3819 42.3912 43.393 42.4075 43.4241 42.4451C43.2543 42.689 42.4905 43.0641 42.1844 43.242C42.3198 43.4576 41.9422 43.78 41.6664 43.573L41.646 43.5654C41.2031 43.8734 40.6569 44.1391 40.1944 44.4284C39.5611 44.8248 38.9424 45.2527 38.2845 45.6117C38.1047 45.7099 37.9046 45.7731 37.7168 45.852C37.5705 46.0499 37.422 46.1182 37.3209 46.2425C37.1447 46.3341 37.0537 46.4175 36.854 46.3595C36.7584 46.231 36.2773 46.1122 36.0939 46.1857C35.9319 46.385 36.2287 46.6937 36.3756 46.836C36.1293 46.9234 35.831 47.1203 35.6077 47.2626C34.8908 47.7193 34.1604 48.1446 33.4219 48.5673C33.1404 48.7283 33.041 48.9314 32.7066 48.9979L32.6652 49.0161C32.5894 49.0865 32.5459 49.1226 32.4618 49.1835C32.3784 49.2302 32.3648 49.261 32.3124 49.2959C31.7468 49.6713 30.8046 50.268 30.1659 50.4833C28.4502 51.0618 26.3818 51.3559 24.5683 51.1551L24.5366 51.1191C24.62 51.0943 24.8107 51.1291 24.9056 51.1391C25.5916 51.2115 26.277 51.1577 26.9631 51.1098C26.9151 51.1014 26.8273 51.0998 26.7997 51.0546C26.6412 50.7942 25.905 48.9943 25.5677 49.055C25.5101 49.1408 25.5125 49.2358 25.5008 49.3409C25.1388 49.7346 24.9147 50.2232 24.6964 50.7004C24.6355 50.8337 24.5821 50.9129 24.4893 51.026C24.1767 50.9999 23.8562 50.9082 23.5519 50.86C22.0811 50.6272 21.3807 50.2516 20.1507 49.5305C20.0172 49.4361 19.7236 49.274 19.5719 49.1839C19.1712 48.9609 18.7729 48.6806 18.3769 48.4501C17.4654 47.9195 16.5735 47.3355 15.6471 46.8321C15.5661 46.9656 15.4679 46.9598 15.3314 46.8957L15.3071 46.8657C15.1671 46.7375 14.6249 46.4808 14.6667 46.2837L14.7392 46.2618C14.4714 46.1345 14.2069 45.9313 13.9489 45.7891C13.404 45.4888 12.9012 45.1702 12.3767 44.8373C12.5533 44.6676 12.742 44.3929 12.5535 44.1712C12.2867 44.0519 12.0037 44.3575 11.831 44.5248C11.1511 44.132 10.4766 43.6724 9.81028 43.2848C8.68172 42.6284 7.72874 41.9431 6.82439 41.0137C6.52367 40.7047 6.11405 40.4245 5.85362 40.0616C5.34278 39.35 4.87511 38.5623 4.55194 37.7532C4.54975 37.7478 4.31814 36.8887 4.31848 36.9072C4.37937 36.8281 4.36902 36.8528 4.501 36.8253Z" fill="#2E88E3"/>
<path d="M21.2759 43.1238C21.4459 43.1933 22.2177 43.5127 22.34 43.5923C22.0739 43.8131 21.1571 44.9582 20.7525 44.6866C20.2227 44.3308 21.1726 43.5546 21.3515 43.2453C21.3434 43.1539 21.3611 43.1961 21.2759 43.1238Z" fill="#2A7ED3"/>
<path d="M39.8016 37.2116C39.9106 37.2812 39.9968 37.2393 40.1319 37.2546C40.5975 37.3073 40.9605 37.4086 41.1454 37.8526C40.6291 37.9142 39.5994 37.991 39.1627 37.7274C39.3359 37.568 39.6144 37.3522 39.8016 37.2116Z" fill="#34B2F0"/>
<path d="M37.7001 38.8581C37.8769 38.75 38.1044 38.5206 38.3072 38.3794C38.6908 38.7401 38.9698 38.8167 39.248 39.273C38.7317 39.1956 38.059 39.2258 37.7001 38.8581Z" fill="#3AD5ED"/>
<path d="M19.5719 49.1839C19.6482 49.0894 20.3475 48.398 20.5161 48.3786C20.6044 48.3686 20.6164 48.3851 20.6758 48.428C20.7939 48.6958 20.3519 49.3505 20.1507 49.5305C20.0172 49.4361 19.7236 49.274 19.5719 49.1839Z" fill="#2A7ED3"/>
<path d="M32.0686 48.8282C32.19 48.8029 32.4109 48.738 32.5106 48.7981C32.5506 48.8835 32.5758 48.9722 32.6652 49.0161C32.5894 49.0865 32.5459 49.1226 32.4618 49.1835C32.3784 49.2302 32.3648 49.261 32.3124 49.2959C31.7468 49.6713 30.8046 50.268 30.1659 50.4833C28.4502 51.0618 26.3818 51.3559 24.5683 51.1551L24.5366 51.1191C24.62 51.0943 24.8107 51.1291 24.9056 51.1391C25.5916 51.2115 26.277 51.1577 26.9631 51.1098C27.2501 50.985 27.7292 51.0057 28.0689 50.9488C29.6628 50.6821 31.1147 50.1654 32.3925 49.1616C32.2315 49.0416 32.1794 48.9838 32.0686 48.8282Z" fill="#3ABAF1"/>
<path d="M28.9954 43.8442C29.0995 43.8192 29.2349 43.767 29.339 43.7309C29.4722 43.7634 29.5718 43.7862 29.6824 43.8731C29.8787 44.0272 30.2384 44.3567 30.1955 44.6207C30.1277 44.7102 30.1708 44.6802 30.062 44.7141C29.7491 44.676 29.3202 44.2587 29.1035 44.0446C29.0555 43.9972 29.0343 43.9019 28.9954 43.8442Z" fill="#2A7ED3"/>
<path d="M14.865 46.3289C15.1251 46.2647 15.4661 46.1046 15.7099 46.2267C15.8542 46.3838 15.7337 46.6656 15.6471 46.8321C15.5661 46.9656 15.4679 46.9598 15.3314 46.8957L15.3071 46.8657C15.1671 46.7375 14.6249 46.4808 14.6667 46.2837L14.7392 46.2618L14.865 46.3289Z" fill="#3AD5ED"/>
<path d="M15.3071 46.8657C15.1671 46.7375 14.6249 46.4808 14.6667 46.2837L14.7392 46.2618L14.865 46.3289C15.0098 46.3736 15.4614 46.6926 15.4997 46.8344L15.4725 46.8721C15.3945 46.8787 15.3856 46.8759 15.3071 46.8657Z" fill="#45ECE7"/>
<path d="M13.8019 38.4629C13.9626 38.5867 14.2339 38.7825 14.3766 38.9113C13.9786 39.1254 13.4271 39.2454 12.9786 39.3606C13.4194 39.045 13.4566 38.8178 13.8019 38.4629Z" fill="#3ABAF1"/>
<path d="M41.2673 43.0552C41.5768 43.1792 41.7251 43.2461 42.0545 43.3076L42.1844 43.242C42.3198 43.4576 41.9422 43.78 41.6664 43.573L41.646 43.5654C41.5125 43.4141 41.3795 43.2211 41.2673 43.0552Z" fill="#34B2F0"/>
<path d="M42.1844 43.242C42.3198 43.4576 41.9422 43.78 41.6664 43.573C41.8164 43.4556 41.8877 43.3983 42.0545 43.3076L42.1844 43.242Z" fill="#3AD5ED"/>
<path d="M25.4842 44.6365C25.7735 44.7323 26.0497 44.7535 26.3426 44.6515C26.1597 44.8664 26.0768 45.2159 26.006 45.4862C25.8691 45.1757 25.7604 44.8436 25.4842 44.6365Z" fill="#3AD5ED"/>
<path d="M42.077 39.1566C42.1195 39.1615 42.1619 39.1673 42.2042 39.1739C42.3802 39.2019 42.6118 39.2717 42.7201 39.4158C42.7267 39.5066 42.737 39.4619 42.6618 39.5474C42.5074 39.5395 41.8801 39.4265 41.9612 39.2009L42.077 39.1566Z" fill="#2A7ED3"/>
<path d="M47.3644 14.008C47.5472 14.0399 47.5946 14.0324 47.7459 14.1323C47.8035 14.2841 47.6801 14.6781 47.6048 14.8371C47.7427 15.4128 48.0546 16.365 47.719 16.9038C47.6864 16.9563 47.6236 17.0408 47.586 17.0907C47.4218 16.781 47.2568 16.5336 47.05 16.2531C46.9726 16.1482 46.7759 15.9077 46.7294 15.82C47.0931 16.0068 47.4088 16.8421 47.6314 16.8878L47.6886 16.8516C48.027 16.2087 47.4613 14.7216 47.3702 14.0535L47.3644 14.008Z" fill="#95FCDC"/>
<path d="M37.3209 46.2425L37.3834 46.2789C37.3361 46.4808 36.7978 46.8008 36.5788 46.7952L36.5237 46.7584C36.4867 46.5084 36.7621 46.4883 36.8415 46.3647L36.854 46.3595C37.0537 46.4175 37.1447 46.3341 37.3209 46.2425Z" fill="#3AD5ED"/>
<path d="M32.7066 48.9979C32.8037 49.0006 32.8431 49.0068 32.9384 48.9813L32.9815 49.0015C32.8987 49.0597 32.9284 49.0123 32.9006 49.1011C32.8314 49.3213 32.6017 49.3211 32.4618 49.1835C32.5459 49.1226 32.5894 49.0865 32.6652 49.0161L32.7066 48.9979Z" fill="#3AD5ED"/>
<path d="M3.57738 12.8907C3.43489 13.2508 3.35717 13.3769 3.36977 13.7655C3.30802 13.7943 3.2615 13.7798 3.19069 13.7717L3.15811 13.7679C3.00421 13.8567 2.56308 14.4305 2.44945 14.6018C2.4045 14.6696 2.45662 14.8144 2.42021 14.8823C2.37677 14.9631 2.18611 15.125 2.15401 15.197C2.11296 15.2891 2.12424 15.4652 2.07291 15.5732C2.04459 15.6327 1.87979 15.804 1.87405 15.8275C1.79851 16.1365 1.51715 16.6049 1.43871 16.867C1.3839 17.0501 1.54523 17.4645 1.45195 17.727C1.1366 17.2386 1.68228 15.9445 2.01966 15.545C2.03983 15.2146 2.14347 15.1227 2.36059 14.8746L2.3606 14.6291C2.60448 14.261 2.9232 13.9466 3.19038 13.6085C3.30497 13.4636 3.38922 13.0796 3.57738 12.8907Z" fill="#2E88E3"/>
<defs>
<linearGradient id="paint0_linear_296_6261" x1="26.6578" y1="11.1" x2="21.0105" y2="54.1968" gradientUnits="userSpaceOnUse">
<stop stop-color="#9CFEDD"/>
<stop offset="1" stop-color="#46F8E6"/>
</linearGradient>
<linearGradient id="paint1_linear_296_6261" x1="25.9796" y1="56.4596" x2="30.1364" y2="1.23969" gradientUnits="userSpaceOnUse">
<stop stop-color="#D3FEDB"/>
<stop offset="1" stop-color="#FFFFDF"/>
</linearGradient>
<linearGradient id="paint2_linear_296_6261" x1="22.8276" y1="22.5877" x2="26.1377" y2="25.5136" gradientUnits="userSpaceOnUse">
<stop stop-color="#53FBDF"/>
<stop offset="1" stop-color="#38E4F1"/>
</linearGradient>
<linearGradient id="paint3_linear_296_6261" x1="27.8041" y1="22.872" x2="23.8425" y2="26.8417" gradientUnits="userSpaceOnUse">
<stop stop-color="#5CFCDB"/>
<stop offset="1" stop-color="#41E9EA"/>
</linearGradient>
<linearGradient id="paint4_linear_296_6261" x1="26.3897" y1="0.481135" x2="24.6735" y2="39.6522" gradientUnits="userSpaceOnUse">
<stop stop-color="#FEFFCC"/>
<stop offset="1" stop-color="#79FBDE"/>
</linearGradient>
</defs>
</svg>
