<svg width="20" height="17" viewBox="0 0 20 17" fill="none" xmlns="http://www.w3.org/2000/svg">
<path d="M16.0003 0C16.1509 2.59566e-06 16.2995 0.0339971 16.435 0.0994482C16.5706 0.164899 16.6897 0.260117 16.7833 0.378L16.8573 0.486L19.8573 5.486C19.9556 5.64995 20.0048 5.83863 19.9991 6.02968C19.9934 6.22074 19.9331 6.40616 19.8253 6.564L19.7453 6.667L11.2153 16.2C11.0569 16.3616 10.8679 16.4899 10.6592 16.5775C10.4506 16.6651 10.2266 16.7101 10.0003 16.71C9.60031 16.71 9.21531 16.57 8.89031 16.293L8.75531 16.167L0.255308 6.667C0.127431 6.52432 0.0432378 6.3479 0.0127453 6.15874C-0.0177472 5.96958 0.00674504 5.77564 0.0833077 5.6L0.143308 5.485L3.15631 0.463L3.22031 0.373C3.26608 0.316061 3.31807 0.264408 3.37531 0.219L3.46431 0.155L3.55231 0.105L3.60231 0.0819998L3.66231 0.0570002L3.77131 0.0250001L3.88331 0.00500011L4.00031 0H16.0003Z" fill="white"/>
</svg>
