<svg width="32" height="32" viewBox="0 0 32 32" fill="none" xmlns="http://www.w3.org/2000/svg">
<path d="M17.525 31.2399V29.7199H20.565V28.1899H23.615V26.6699H26.665V25.1399H28.185V23.6199H29.715V8.37986H28.185V6.85986H26.665V8.37986H23.615V9.90986H20.565V11.4299H17.525V12.9499H14.475V14.4799H16V29.7199H14.48V31.2399H17.525ZM23.615 12.9499H26.665V14.4799H23.615V12.9499ZM19.045 22.0999H22.1V25.1399H19.05L19.045 22.0999Z" fill="white" fill-opacity="0.44"/>
<path d="M23.615 5.33984H26.665V6.85984H23.615V5.33984Z" fill="white" fill-opacity="0.44"/>
<path d="M20.565 3.80957H23.615V5.33957H20.565V3.80957Z" fill="white" fill-opacity="0.44"/>
<path d="M17.525 2.28955H20.565V3.80955H17.525V2.28955Z" fill="white" fill-opacity="0.44"/>
<path d="M14.475 6.85986H17.525V9.90986H14.475V6.85986Z" fill="white" fill-opacity="0.44"/>
<path d="M14.475 0.759766H17.525V2.28977H14.475V0.759766Z" fill="white" fill-opacity="0.44"/>
<path d="M11.425 28.1899H14.475V29.7199H11.425V28.1899Z" fill="white" fill-opacity="0.44"/>
<path d="M11.425 11.4297H14.475V12.9497H11.425V11.4297Z" fill="white" fill-opacity="0.44"/>
<path d="M11.425 2.28955H14.475V3.80955H11.425V2.28955Z" fill="white" fill-opacity="0.44"/>
<path d="M11.425 22.0996H14.475V25.1396H11.425V22.0996Z" fill="white" fill-opacity="0.44"/>
<path d="M11.425 16H14.475V19.05H11.425V16Z" fill="white" fill-opacity="0.44"/>
<path d="M8.375 26.6699H11.425V28.1899H8.375V26.6699Z" fill="white" fill-opacity="0.44"/>
<path d="M8.375 9.90967H11.425V11.4297H8.375V9.90967Z" fill="white" fill-opacity="0.44"/>
<path d="M8.375 3.80957H11.425V5.33957H8.375V3.80957Z" fill="white" fill-opacity="0.44"/>
<path d="M5.33499 25.1396H8.37499V26.6696H5.33499V25.1396Z" fill="white" fill-opacity="0.44"/>
<path d="M5.33499 8.37988H8.37499V9.90988H5.33499V8.37988Z" fill="white" fill-opacity="0.44"/>
<path d="M5.33499 5.33984H8.37499V6.85984H5.33499V5.33984Z" fill="white" fill-opacity="0.44"/>
<path d="M5.33499 19.0498H8.37499V22.0998H5.33499V19.0498Z" fill="white" fill-opacity="0.44"/>
<path d="M5.33499 12.9497H8.37499V15.9997H5.33499V12.9497Z" fill="white" fill-opacity="0.44"/>
<path d="M3.80499 23.6196H5.33499V25.1396H3.80499V23.6196Z" fill="white" fill-opacity="0.44"/>
<path d="M3.80499 6.85986H5.33499V8.37986H3.80499V6.85986Z" fill="white" fill-opacity="0.44"/>
<path d="M2.285 8.37988H3.805V23.6199H2.285V8.37988Z" fill="white" fill-opacity="0.44"/>
</svg>
