<svg width="20" height="20" viewBox="0 0 20 20" fill="none" xmlns="http://www.w3.org/2000/svg">
<path d="M15.8636 8.85718H11.0909C10.6569 8.85718 10.2407 8.67656 9.93383 8.35503C9.62695 8.03354 9.45455 7.59748 9.45455 7.14286V2.14286C9.45455 2.10497 9.4402 2.06864 9.41461 2.04184C9.38903 2.01507 9.35435 2 9.31815 2H6.18182C5.60318 2 5.04818 2.24082 4.63903 2.66949C4.22987 3.09813 4 3.67952 4 4.28571V15.7143C4 16.3205 4.22987 16.9019 4.63903 17.3305C5.04818 17.7592 5.60318 18 6.18182 18H13.8182C14.3968 18 14.9518 17.7592 15.361 17.3305C15.7701 16.9019 16 16.3205 16 15.7143V9.00003C16 8.96211 15.9856 8.92578 15.96 8.89898C15.9345 8.87218 15.8998 8.85718 15.8636 8.85718Z" fill="white" fill-opacity="0.44"/>
<path d="M15.5648 7.59214L10.6625 2.45643C10.653 2.4465 10.6408 2.43973 10.6277 2.43701C10.6145 2.43429 10.6008 2.43568 10.5884 2.44105C10.5759 2.44646 10.5654 2.45554 10.5579 2.46724C10.5503 2.47895 10.5463 2.49269 10.5463 2.50677V7.14255C10.5463 7.29408 10.6037 7.43942 10.706 7.5466C10.8083 7.65371 10.947 7.71394 11.0917 7.71394H15.5167C15.5301 7.71388 15.5433 7.70963 15.5545 7.7018C15.5656 7.69394 15.5743 7.68282 15.5794 7.6698C15.5846 7.6568 15.5859 7.64248 15.5833 7.62864C15.5807 7.61486 15.5743 7.60218 15.5648 7.59214Z" fill="white" fill-opacity="0.44"/>
</svg>
