<svg width="19" height="22" viewBox="0 0 19 22" fill="none" xmlns="http://www.w3.org/2000/svg">
<path d="M8.4979 0.269145C9.1178 -0.089715 9.8822 -0.089715 10.5021 0.269145L18.0021 4.61125C18.6197 4.96883 19 5.62842 19 6.3421V15.0359C19 15.7496 18.6197 16.4092 18.0021 16.7668L10.5021 21.1089C9.8822 21.4678 9.1178 21.4678 8.4979 21.1089L0.99793 16.7668C0.38029 16.4092 0 15.7496 0 15.0359V6.3421C0 5.62842 0.38029 4.96883 0.99793 4.61125L8.4979 0.269145ZM2.75052 6.78139C2.41718 6.58841 2 6.82894 2 7.21411V13.8828C2 14.5965 2.38029 15.2561 2.99793 15.6137L8.7495 18.9435C9.0828 19.1365 9.5 18.896 9.5 18.5108V11.8421C9.5 11.1285 9.1197 10.4689 8.5021 10.1113L2.75052 6.78139Z" fill="white"/>
</svg>
