<svg width="20" height="20" viewBox="0 0 20 20" fill="none" xmlns="http://www.w3.org/2000/svg">
<path fill-rule="evenodd" clip-rule="evenodd" d="M11.9285 2.86121V4.5358C11.9285 5.30304 11.6237 6.03884 11.0812 6.58136C10.5387 7.12388 9.80288 7.42866 9.03565 7.42866C8.60942 7.42866 8.20064 7.59798 7.89924 7.89937C7.59785 8.20078 7.42852 8.60956 7.42852 9.0358V10.9644C7.42852 11.7316 7.12375 12.4674 6.58123 13.0099C6.03871 13.5525 5.30292 13.8573 4.53569 13.8573H3.69192C4.99146 15.9779 7.33046 17.3929 9.99993 17.3929C11.6932 17.3929 13.2535 16.8235 14.4999 15.8659V15.4643C14.4999 15.2086 14.3983 14.9632 14.2174 14.7825C14.0367 14.6016 13.7914 14.5 13.5356 14.5C12.7684 14.5 12.0326 14.1952 11.4901 13.6527C10.9476 13.1102 10.6428 12.3744 10.6428 11.6071C10.6428 10.8399 10.9476 10.1041 11.4901 9.56158C12.0326 9.01906 12.7684 8.71429 13.5356 8.71429H16.2778C16.6221 8.71618 16.9642 8.75215 17.2993 8.82097C16.8369 5.93676 14.7064 3.60986 11.9285 2.86121ZM18.9993 9.90114C19.0005 9.8752 19.0001 9.84928 18.9982 9.82356C18.9138 5.43872 15.6937 1.82179 11.4871 1.1223C11.4238 1.1014 11.356 1.09009 11.2856 1.09009C11.2833 1.09009 11.2809 1.0901 11.2785 1.09013C10.8609 1.03073 10.434 1 9.99993 1C5.02941 1 1 5.02944 1 10C1 14.9706 5.02941 19 9.99993 19C14.9705 19 18.9999 14.9706 18.9999 10C18.9999 9.96701 18.9997 9.93406 18.9993 9.90114Z" fill="white" fill-opacity="0.44"/>
</svg>
