<svg width="20" height="20" viewBox="0 0 20 20" fill="none" xmlns="http://www.w3.org/2000/svg">
<path fill-rule="evenodd" clip-rule="evenodd" d="M10.3573 1.42871C7.76162 1.42871 5.63026 3.48082 5.53205 6.07468L5.48255 7.38148C4.02705 7.74475 3.01576 8.95071 2.92419 10.5233C2.88462 11.202 2.85712 12.081 2.85712 13.2144C2.85712 14.4581 2.89569 15.3981 2.94926 16.1048C3.07697 17.7894 4.31197 18.9921 5.96833 19.1353C6.93197 19.2185 8.33505 19.2859 10.3571 19.2859C12.3792 19.2859 13.7823 19.2185 14.7459 19.1353C16.4023 18.9921 17.6373 17.7894 17.765 16.1048C17.8185 15.3981 17.8571 14.4581 17.8571 13.2144C17.8571 11.9707 17.8185 11.0307 17.765 10.3241C17.65 8.80864 16.6392 7.68318 15.2316 7.3682L15.1826 6.07467C15.0843 3.48081 12.953 1.42871 10.3573 1.42871ZM12.3648 7.16828L12.3275 6.18282C12.2874 5.12373 11.4172 4.28585 10.3573 4.28585C9.29747 4.28585 8.42726 5.12374 8.38712 6.18283L8.34983 7.16818C8.94062 7.15227 9.60676 7.143 10.3571 7.143C11.1088 7.143 11.775 7.1523 12.3648 7.16828ZM11.7857 12.5001C11.7857 11.7111 11.1461 11.0716 10.3571 11.0716C9.56812 11.0716 8.92855 11.7111 8.92855 12.5001V13.9287C8.92855 14.7177 9.56812 15.3573 10.3571 15.3573C11.1461 15.3573 11.7857 14.7177 11.7857 13.9287V12.5001Z" fill="white" fill-opacity="0.44"/>
</svg>
