<svg width="52" height="55" viewBox="0 0 52 55" fill="none" xmlns="http://www.w3.org/2000/svg">
<g clip-path="url(#clip0_296_6402)">
<path d="M18.2158 1.37877C20.4213 0.421673 23.7263 0.162664 26.0865 0.215051C29.9561 0.0696468 35.4459 1.70219 38.6711 3.99187C38.8988 4.15347 38.8763 4.32906 38.8844 4.5762C38.7826 4.84505 38.5754 5.35182 38.5262 5.61089C44.3738 9.16146 48.7231 14.2679 50.4814 20.9876C51.2537 23.9387 51.4182 28.9644 50.8946 32.0128C50.7751 32.8512 50.6573 33.7159 50.4859 34.5359C49.5385 39.0682 47.2623 43.372 43.9708 46.6517C43.9505 46.672 43.8884 46.7067 43.8607 46.7221C43.1925 47.5135 41.1267 49.1664 40.2351 49.7904C38.4027 50.9591 37.2314 51.5593 35.2229 52.4255C34.8917 52.5404 34.548 52.6548 34.22 52.7753C33.8421 52.8942 32.7214 53.2809 32.3801 53.2627C30.2826 54.2082 25.326 54.1871 22.9504 53.9311C17.4412 53.3383 10.598 49.9914 7.13951 45.6132C6.82162 45.3309 5.86169 44.1246 5.59158 43.7582C3.15881 40.4812 1.61256 36.6373 1.10109 32.5946C0.953598 31.4354 0.747767 30.5221 0.657624 29.2903C0.349832 25.0844 0.940736 20.9334 2.69282 17.0749C4.47804 13.1461 7.23709 9.73346 10.7108 7.15748C11.3993 6.63886 12.276 5.95169 13.0763 5.65048C12.839 5.08879 12.7532 4.89597 12.6598 4.27689C13.4952 3.44099 15.1179 2.56535 16.2288 2.17604C16.8355 1.85264 17.5655 1.59715 18.2158 1.37877ZM14.7001 27.3825L14.8265 27.4007C16.091 27.4021 17.5128 27.4343 18.7648 27.3939L19.0803 27.2943L19.1514 26.797C19.0607 26.7648 15.4258 26.7948 14.9927 26.7942C14.5703 26.8294 13.3804 26.9802 13.0753 26.8426L12.7961 26.4928C12.7552 26.5026 12.7144 26.5132 12.6739 26.5247C11.8538 26.7538 12.0798 26.9074 11.0519 26.959C11.4073 26.9822 11.5791 26.9324 11.8337 27.1099L11.7804 27.1741C11.5141 27.1535 11.2898 27.1193 11.0306 27.1916C11.6274 27.4046 13.7758 27.2493 14.7001 27.3825Z" fill="url(#paint0_linear_296_6402)"/>
<path d="M11.0519 26.959C12.0799 26.9074 11.8538 26.7538 12.674 26.5247C12.7145 26.5132 12.7552 26.5026 12.7962 26.4928L13.0753 26.8426C13.3804 26.9802 14.5703 26.8293 14.9927 26.7942C15.4259 26.7948 19.0607 26.7648 19.1515 26.797L19.0803 27.2943L18.7648 27.3939C17.5128 27.4343 16.0911 27.4021 14.8265 27.4007L14.7001 27.3825C13.7759 27.2493 11.6274 27.4046 11.0306 27.1916C11.2898 27.1193 11.5141 27.1535 11.7805 27.1741L11.8337 27.1099C11.5792 26.9324 11.4073 26.9821 11.0519 26.959Z" fill="url(#paint1_linear_296_6402)"/>
<path d="M18.2158 1.37877C20.4213 0.421673 23.7264 0.162664 26.0865 0.215051C29.9561 0.0696468 35.4459 1.70219 38.6712 3.99186C38.8988 4.15347 38.8763 4.32906 38.8844 4.5762C38.7826 4.84505 38.5755 5.35182 38.5263 5.61089C37.5857 6.58649 36.6112 8.04314 35.7281 9.11115L35.7021 9.20158L35.1757 8.9161L35.007 8.87498C34.6175 8.42729 32.2167 7.57973 31.5666 7.34796C30.8097 7.03672 29.7662 6.95831 28.9282 6.64392C28.645 6.92984 27.899 7.73676 27.8355 8.10388C27.6691 8.34289 27.3834 8.72284 27.2863 8.97972C27.18 9.35388 27.2034 9.2546 26.879 9.53473L26.6035 10.0926C26.4075 10.5299 25.9804 11.4286 25.8573 11.8491C25.8219 11.9266 25.758 12.0848 25.7055 12.1413C25.801 12.54 25.8339 12.6648 25.8214 13.0733L25.8179 13.1766C25.8115 14.3782 25.7896 15.6196 25.8047 16.8176C25.7952 18.1452 25.7568 19.6279 25.808 20.9415C25.5503 21.0001 25.3503 21.0527 25.0828 21.065C24.2687 21.1304 23.2016 21.3946 22.5305 21.8719L21.6548 22.3619C20.7792 21.4491 19.9035 20.2906 18.9829 19.3017L18.9951 19.2326C18.8024 19.0689 17.4065 17.3935 17.0937 17.0544C17.0597 16.9303 16.1539 15.8585 16.0079 15.6809L15.2008 14.7546C14.8047 14.1039 13.816 13.0516 13.2095 12.5689C14.2878 11.7145 15.1837 11.217 16.2754 10.456C16.4491 9.72343 16.521 9.90821 16.2497 9.1416L15.9289 9.21901L15.7611 9.06003C15.1468 8.15609 13.8025 6.49966 13.0764 5.65048C12.8391 5.08879 12.7532 4.89597 12.6598 4.27689C13.4952 3.44099 15.1179 2.56535 16.2289 2.17604C16.8356 1.85264 17.5655 1.59715 18.2158 1.37877Z" fill="url(#paint2_linear_296_6402)"/>
<path d="M16.0079 15.6809C18.098 14.1799 20.2714 13.0941 22.7819 12.5616C23.6365 12.3803 24.1482 12.1421 25.0831 12.1628C25.5964 12.4308 25.1522 12.8148 25.8214 13.0733L25.8179 13.1766C25.8116 14.3782 25.7896 15.6196 25.8047 16.8176C25.7952 18.1452 25.7569 19.6279 25.808 20.9415C25.5504 21.0001 25.3503 21.0527 25.0829 21.065C24.2688 21.1303 23.2016 21.3946 22.5305 21.8719L21.6548 22.3619C20.7793 21.4491 19.9035 20.2906 18.983 19.3017L18.9951 19.2326C18.8024 19.0689 17.4066 17.3935 17.0938 17.0544C17.0598 16.9303 16.1539 15.8585 16.0079 15.6809Z" fill="url(#paint3_linear_296_6402)"/>
<path d="M18.995 19.2326C20.3498 17.8025 23.8446 16.6728 25.8047 16.8176C25.7951 18.1452 25.7568 19.6278 25.808 20.9414C25.5503 21 25.3503 21.0527 25.0828 21.0649C24.2687 21.1303 23.2015 21.3945 22.5304 21.8719L21.6547 22.3619C20.7792 21.449 19.9034 20.2905 18.9829 19.3016L18.995 19.2326Z" fill="url(#paint4_linear_296_6402)"/>
<path d="M22.3778 5.98303L22.7485 6.74616C23.0758 7.07899 23.5614 7.7074 23.9294 7.85287L23.9629 8.05576C24.0535 8.24774 24.3096 8.8184 24.4112 8.96355C24.9283 9.55233 25.33 9.40484 26.0008 9.72785C26.2878 9.86599 26.228 10.0344 26.6036 10.0926C26.4076 10.53 25.9804 11.4286 25.8574 11.8492C25.822 11.9266 25.7581 12.0849 25.7056 12.1414C25.8011 12.5401 25.834 12.6648 25.8215 13.0733C25.1522 12.8148 25.5964 12.4309 25.0831 12.1628C24.1483 12.1421 23.6365 12.3803 22.782 12.5616C20.2715 13.0942 18.098 14.1799 16.008 15.681L15.2009 14.7546C14.8048 14.1039 13.8161 13.0517 13.2096 12.5689C14.2879 11.7146 15.1838 11.2171 16.2754 10.456C16.4492 9.72348 16.5211 9.90825 16.2497 9.14165L16.304 8.95247L16.5521 8.78423C16.5168 8.57774 16.5416 8.33444 16.5538 8.12233L17.4076 7.67942C18.0497 7.39576 18.6992 7.12918 19.3555 6.87998C20.2941 6.603 21.5861 6.43064 22.3778 5.98303Z" fill="url(#paint5_linear_296_6402)"/>
<path d="M22.3777 5.98303L22.7484 6.74616C23.0757 7.07899 23.5613 7.7074 23.9293 7.85287L23.9628 8.05576C23.1503 8.24151 22.3192 8.33756 21.4767 8.52504C19.5083 8.96306 18.0699 9.61614 16.2753 10.456C16.4491 9.72348 16.521 9.90825 16.2496 9.14165L16.3039 8.95247L16.552 8.78423C16.5167 8.57774 16.5415 8.33444 16.5537 8.12233L17.4075 7.67942C18.0496 7.39576 18.6991 7.12917 19.3554 6.87998C20.294 6.60299 21.586 6.43064 22.3777 5.98303Z" fill="#E37205"/>
<path d="M22.3777 5.98303L22.7484 6.74616C21.9237 6.89919 20.4293 7.14636 19.7012 7.4284C19.5598 7.33061 19.4178 7.23372 19.2751 7.13775L19.3554 6.87998C20.294 6.603 21.586 6.43064 22.3777 5.98303Z" fill="#FEF8B6"/>
<path d="M17.4076 7.67932C18.0496 7.39567 18.6991 7.12908 19.3554 6.87988L19.2752 7.13765C19.4178 7.23362 19.5598 7.33052 19.7012 7.42831C19.0621 7.66565 18.4122 7.89924 17.7831 8.16053C17.6027 8.10299 17.478 8.14775 17.2388 8.07549L17.4076 7.67932Z" fill="#FEE357"/>
<path d="M16.5538 8.12223L17.4076 7.67932L17.2388 8.07548C17.478 8.14775 17.6027 8.10298 17.7831 8.16053L16.552 8.78413C16.5167 8.57764 16.5415 8.33435 16.5538 8.12223Z" fill="#FEE357"/>
<path d="M24.4111 8.9635C24.9283 9.55228 25.3299 9.40479 26.0008 9.7278C26.2877 9.86595 26.228 10.0344 26.6035 10.0926C26.4076 10.5299 25.9804 11.4286 25.8574 11.8491C25.3792 11.5814 24.662 9.57667 24.4111 8.9635Z" fill="#FFD13C"/>
<path d="M18.2158 1.37873C20.4213 0.421636 23.7264 0.162627 26.0865 0.215014L26.1057 0.231638C26.4213 0.499392 26.5234 0.447676 26.8978 0.547942C26.7804 0.630834 26.4514 0.522504 26.1199 0.733959C23.2561 0.996248 21.2043 3.1003 22.3777 5.98295C21.586 6.43055 20.294 6.60291 19.3554 6.8799C18.6991 7.12909 18.0496 7.39568 17.4076 7.67934L16.5537 8.12225C16.5415 8.33436 16.5167 8.57766 16.552 8.78415L16.3039 8.95238L16.2497 9.14157L15.9289 9.21897L15.7611 9.06C15.1468 8.15606 13.8025 6.49963 13.0764 5.65044C12.8391 5.08876 12.7532 4.89593 12.6598 4.27686C13.4952 3.44095 15.1179 2.56531 16.2289 2.17601C16.8356 1.85261 17.5655 1.59711 18.2158 1.37873Z" fill="url(#paint6_linear_296_6402)"/>
<path d="M13.0764 5.65044C12.8391 5.08875 12.7532 4.89593 12.6598 4.27686C12.7292 4.34617 12.9971 4.62243 13.0579 4.66165L13.2545 4.64172C13.4183 4.80053 13.4807 4.91223 13.7326 4.87834C14.8251 5.71227 15.5013 7.14535 16.5537 8.12225C16.5415 8.33436 16.5167 8.57765 16.552 8.78415L16.3039 8.95238L16.2497 9.14156L15.9289 9.21897L15.7611 9.05999C15.1468 8.15605 13.8025 6.49962 13.0764 5.65044Z" fill="#FEE357"/>
<path d="M13.0764 5.65044C12.8391 5.08875 12.7532 4.89593 12.6598 4.27686C12.7292 4.34617 12.9971 4.62243 13.0579 4.66165C13.7398 5.66383 15.5159 8.04609 16.3039 8.95238L16.2497 9.14156L15.9289 9.21897L15.7611 9.05999C15.1468 8.15605 13.8025 6.49962 13.0764 5.65044Z" fill="#B13714"/>
<path d="M16.2289 2.17606C16.8356 1.85266 17.5655 1.59716 18.2158 1.37878C18.0358 1.53883 17.739 1.75509 17.6889 1.97304L17.916 1.82176C17.4149 2.36834 16.9118 2.6057 16.2289 2.17606Z" fill="#FFD13C"/>
<path d="M22.3777 5.983C21.2043 3.10035 23.2561 0.996298 26.1199 0.734009C28.9593 1.27431 30.1979 3.32858 29.2826 6.08257C29.1605 6.26718 29.0351 6.4503 28.9282 6.64393C28.645 6.92985 27.8989 7.73677 27.8354 8.1039C27.6691 8.34291 27.3834 8.72285 27.2863 8.97973C27.18 9.35389 27.2034 9.25461 26.879 9.53475L26.6035 10.0926C26.228 10.0344 26.2877 9.86596 26.0007 9.72781C25.3299 9.40481 24.9282 9.5523 24.4111 8.96352C24.3095 8.81837 24.0534 8.24771 23.9628 8.05573L23.9293 7.85284C23.5613 7.70737 23.0757 7.07896 22.7484 6.74613L22.3777 5.983Z" fill="#070301"/>
<path d="M27.8509 3.50626C28.3925 4.06506 28.0072 5.92548 27.6567 6.52401C27.7962 6.68622 27.9857 6.92179 28.1299 7.06847C27.5533 7.70198 27.2034 8.73173 26.879 9.53477L26.6036 10.0926C26.228 10.0344 26.2877 9.86598 26.0008 9.72784C25.33 9.40483 24.9283 9.55232 24.4112 8.96354C24.3096 8.8184 24.0535 8.24773 23.9629 8.05576L23.9293 7.85286C23.843 7.5576 23.6642 7.33886 23.4867 7.08751L23.8082 6.82994C23.8641 6.04045 23.3017 4.75519 23.5871 3.85716L23.719 3.93387C24.1321 4.00781 24.6866 3.56664 25.1069 3.47281C25.9289 3.28936 27.211 3.86396 27.8509 3.50626Z" fill="url(#paint7_linear_296_6402)"/>
<path d="M23.8082 6.82986C24.2524 7.24645 24.5107 6.99276 24.6814 7.15946C25.1129 7.58106 24.9856 8.00132 25.7307 8.18986C26.612 7.99263 26.898 6.99964 27.6567 6.52393C27.7962 6.68614 27.9857 6.92171 28.1299 7.06839C27.5533 7.7019 27.2034 8.73165 26.879 9.53469L26.6036 10.0925C26.228 10.0343 26.2877 9.8659 26.0008 9.72776C25.33 9.40475 24.9283 9.55224 24.4112 8.96346C24.3096 8.81832 24.0535 8.24765 23.9629 8.05568L23.9293 7.85278C23.843 7.55752 23.6642 7.33877 23.4867 7.08743L23.8082 6.82986Z" fill="#FEE357"/>
<path d="M25.2085 5.9528C25.8922 5.90593 26.3821 5.83293 26.7721 6.46313C26.8395 7.00124 26.5312 7.31551 26.2103 7.73525C25.5062 8.3231 24.2817 6.99752 25.2085 5.9528Z" fill="#FEE357"/>
<path d="M23.932 1.843C24.9869 1.04264 26.3829 1.20517 27.5268 1.68018C27.2173 2.08118 27.0357 2.10755 26.9494 2.47913C27.1224 2.79965 27.5633 3.12592 27.8508 3.50625C27.2109 3.86394 25.9288 3.28934 25.1069 3.47279C24.6865 3.56663 24.132 4.00779 23.7189 3.93385L23.587 3.85714C23.8554 3.29702 24.0527 3.01513 24.5326 2.60938L24.3995 2.30582C24.1581 2.16194 24.0966 2.06142 23.932 1.843Z" fill="#FFD13C"/>
<path d="M27.5269 1.68018C29.4534 2.97994 29.8409 5.4349 28.1299 7.06845C27.9857 6.92177 27.7962 6.6862 27.6567 6.52399C28.0072 5.92546 28.3925 4.06504 27.8509 3.50624C27.5634 3.12592 27.1225 2.79964 26.9495 2.47913C27.0358 2.10755 27.2174 2.08117 27.5269 1.68018Z" fill="#FC8B0B"/>
<path d="M23.4866 7.08751C23.4524 7.04667 23.4185 7.00554 23.385 6.96413C21.9604 5.20332 22.162 3.24556 23.932 1.84302C24.0965 2.06144 24.158 2.16196 24.3994 2.30583L24.5326 2.6094C24.0527 3.01515 23.8554 3.29704 23.587 3.85716C23.3016 4.75519 23.864 6.04045 23.8081 6.82995L23.4866 7.08751Z" fill="#E37205"/>
<path d="M35.1758 8.91608C35.4754 8.68734 36.827 6.88253 37.1452 6.47861C37.7973 5.65102 38.0857 5.32474 38.8845 4.57617C38.7827 4.84502 38.5755 5.35179 38.5263 5.61086C37.5857 6.58646 36.6113 8.04311 35.7282 9.11112L35.7022 9.20155L35.1758 8.91608Z" fill="#B13714"/>
<path d="M28.9282 6.64388C29.0351 6.45025 29.1606 6.26713 29.2826 6.08252C29.8208 6.20619 31.2182 6.44067 31.5106 6.86615C31.567 6.9482 31.5608 7.22288 31.5667 7.34792C30.8098 7.03669 29.7662 6.95827 28.9282 6.64388Z" fill="#FEF8B6"/>
<path d="M22.5305 21.8719C23.2016 21.3946 24.2687 21.1303 25.0828 21.0649L25.0275 21.4293C25.2119 21.5842 25.4445 21.5402 25.6898 21.529L25.6953 21.5975C27.0598 21.6215 27.7214 21.7986 28.9345 22.4215L29.7624 23.0065L30.0769 22.5687L30.5516 22.936C31.1457 23.7052 31.6036 24.2737 31.9901 25.1694C32.2523 25.9836 32.416 26.5399 32.3814 27.4196L32.4266 27.7054C32.2623 29.5471 31.9336 30.3737 30.903 31.919L30.8393 32.0919C30.1374 33.5109 27.4357 34.3572 25.925 34.2825L25.3937 34.0966C24.5922 34.3439 22.7509 33.5581 22.136 33.0069C22.5083 33.079 22.8537 33.3112 23.1603 33.2739C23.1223 33.1032 23.0879 33.1164 22.9414 32.9701L22.9787 32.7952C22.9407 32.733 22.4061 32.39 22.308 32.3248C22.3488 32.173 22.5321 31.913 22.6244 31.7697C22.5627 31.6447 21.6335 31.0722 21.3806 30.8786L21.4237 30.6455L21.113 30.2983C20.298 29.1216 20.4703 28.304 21.4775 27.2965L21.5517 27.2588L21.6136 26.966C21.6925 26.6243 21.9691 25.884 22.1588 25.597C22.4193 23.916 21.9086 24.4354 21.1424 23.6834C21.7381 23.0526 22.1372 22.685 22.9266 22.2797L23.0015 22.1772L22.5305 21.8719Z" fill="#FFD13C"/>
<path d="M28.9345 22.4215L29.7624 23.0065L30.077 22.5687L30.5517 22.936C31.1457 23.7052 31.6036 24.2737 31.9901 25.1694C32.2523 25.9836 32.416 26.5399 32.3814 27.4197L32.4266 27.7055C32.2623 29.5471 31.9336 30.3738 30.903 31.919L30.8393 32.092C30.1374 33.5109 27.4358 34.3572 25.925 34.2826L25.3937 34.0967C24.5923 34.344 22.7509 33.5581 22.136 33.0069C22.5083 33.079 22.8537 33.3113 23.1603 33.274C23.1223 33.1033 23.0879 33.1164 22.9414 32.9702L22.9788 32.7953C22.9407 32.733 22.4061 32.3901 22.308 32.3249C22.3488 32.173 22.5321 31.9131 22.6244 31.7697C22.9439 31.9707 23.0414 32.0445 23.4165 32.1066C23.5012 31.8362 23.5898 31.2341 23.7057 30.8304L24.6251 31.1915L25.1061 31.3203C25.4847 31.3468 26.2089 31.4111 26.5443 31.2644L26.7559 31.2835C27.5123 31.1468 27.7391 30.8945 28.3218 30.4093C28.3202 29.6007 27.9682 26.5945 28.3433 26.111L28.8225 26.3415L28.8328 26.3112C28.9685 25.9242 28.8467 25.5073 28.769 25.0991C28.1131 24.1333 26.3694 23.2226 28.8252 22.8548L28.9345 22.4215Z" fill="#FC8B0B"/>
<path d="M31.7573 28.5484C32.274 28.1597 32.1892 28.123 32.3814 27.4197L32.4266 27.7055C32.2623 29.5471 31.9336 30.3738 30.903 31.919L30.8393 32.092C30.1374 33.5109 27.4358 34.3572 25.925 34.2826L25.3937 34.0967C24.5923 34.344 22.7509 33.5581 22.136 33.0069C22.5083 33.079 22.8537 33.3113 23.1603 33.274C23.1223 33.1033 23.0879 33.1164 22.9414 32.9702L22.9788 32.7953C22.9407 32.733 22.4061 32.3901 22.308 32.3249C22.3488 32.1731 22.5321 31.9131 22.6244 31.7697C22.9439 31.9707 23.0414 32.0445 23.4165 32.1066C23.5012 31.8362 23.5898 31.2341 23.7057 30.8304L24.6251 31.1915L25.1061 31.3204C25.4847 31.3468 26.2089 31.4111 26.5443 31.2644L26.7559 31.2835C27.5123 31.1468 27.7391 30.8945 28.3218 30.4093C28.2777 30.8418 28.2457 30.9947 28.3913 31.4017C28.9679 32.039 29.1068 31.7272 29.4688 32.1243L29.886 31.7958C30.924 30.9473 31.3587 29.7698 31.7573 28.5484Z" fill="#181B5C"/>
<path d="M26.756 31.2835C27.5123 31.1468 27.7391 30.8944 28.3218 30.4093C28.2777 30.8418 28.2457 30.9946 28.3913 31.4016C28.968 32.039 29.1068 31.7272 29.4688 32.1243C28.9025 32.5323 28.2463 32.7783 27.9481 32.9928C27.6244 33.0743 27.0473 33.24 26.74 33.2941C26.426 33.2839 24.7319 32.59 24.1926 32.5248C24.0484 32.5074 23.8737 32.1936 23.4165 32.1066C23.5012 31.8361 23.5899 31.2341 23.7058 30.8303L24.6251 31.1915L25.1061 31.3203C25.4848 31.3468 26.2089 31.4111 26.5443 31.2644L26.756 31.2835Z" fill="#FFD13C"/>
<path d="M22.6244 31.7697C22.9439 31.9706 23.0413 32.0444 23.4165 32.1065C23.8737 32.1935 24.0484 32.5073 24.1926 32.5248C24.7319 32.59 26.4259 33.2839 26.7399 33.2941C25.4634 33.5566 24.1608 33.2579 22.9787 32.7952C22.9407 32.7329 22.4061 32.39 22.308 32.3248C22.3488 32.173 22.5321 31.913 22.6244 31.7697Z" fill="#FEC63C"/>
<path d="M28.3433 26.111L28.8225 26.3415C29.1474 26.5669 29.3886 26.7253 29.6723 27.0012C29.2299 27.3491 28.8281 30.6773 29.2208 31.2744C29.3367 31.4506 29.741 31.5479 29.886 31.7958L29.4688 32.1243C29.1068 31.7272 28.9679 32.039 28.3913 31.4017C28.2456 30.9947 28.2776 30.8418 28.3217 30.4093C28.3202 29.6007 27.9681 26.5945 28.3433 26.111Z" fill="#FEA31D"/>
<path d="M28.7691 25.0991C28.1132 24.1332 26.3694 23.2226 28.8252 22.8547C28.3726 23.4094 28.3818 23.4575 28.1867 24.1481C28.3805 24.3291 28.918 24.8575 29.117 24.9579C29.3772 25.439 30.0811 26.6048 29.9563 27.0658C29.8606 27.0539 29.7516 27.0511 29.6723 27.0012C29.3886 26.7253 29.1475 26.5669 28.8225 26.3415L28.8328 26.3112C28.9686 25.9241 28.8467 25.5072 28.7691 25.0991Z" fill="#FEC63C"/>
<path d="M29.7625 23.0065L30.077 22.5687L30.5517 22.9361C31.1458 23.7052 31.6037 24.2737 31.9901 25.1695C31.8496 25.4565 31.7955 25.5824 31.5837 25.8312C31.1228 24.4668 30.7955 23.9912 29.7625 23.0065Z" fill="#0C1249"/>
<path d="M31.99 25.1694C32.2523 25.9836 32.416 26.5399 32.3814 27.4197C32.1891 28.123 32.274 28.1597 31.7572 28.5483C31.9091 27.3591 31.8877 26.9663 31.5836 25.8311C31.7954 25.5823 31.8495 25.4564 31.99 25.1694Z" fill="#0C1249"/>
<path d="M22.5304 21.8719C23.2015 21.3946 24.2687 21.1303 25.0828 21.0649L25.0274 21.4293C25.2119 21.5842 25.4445 21.5402 25.6897 21.529L25.6952 21.5975C27.0598 21.6215 27.7213 21.7986 28.9345 22.4215L28.8252 22.8547C26.3693 23.2226 28.1131 24.1332 28.769 25.099C28.8467 25.5072 28.9685 25.9241 28.8327 26.3112L28.8224 26.3415L28.3433 26.1109C27.4383 25.4396 24.3471 25.4027 23.3401 26.0042L22.8683 26.2536C22.6202 26.4275 21.89 26.9109 21.6136 26.966C21.6925 26.6243 21.9691 25.884 22.1588 25.597C22.4193 23.916 21.9086 24.4354 21.1423 23.6834C21.7381 23.0526 22.1372 22.685 22.9266 22.2797L23.0015 22.1772L22.5304 21.8719Z" fill="#FEE357"/>
<path d="M21.1423 23.6835C21.7381 23.0527 22.1372 22.685 22.9266 22.2798C22.7689 22.6625 22.2884 23.039 21.9683 23.3292C24.68 22.8479 22.6942 25.3729 22.8683 26.2537C22.6202 26.4276 21.89 26.9109 21.6136 26.9661C21.6925 26.6243 21.9691 25.8841 22.1588 25.5971C22.4193 23.916 21.9086 24.4355 21.1423 23.6835Z" fill="#FEC63C"/>
<path d="M21.1423 23.6835C21.7381 23.0527 22.1372 22.685 22.9266 22.2798C22.7689 22.6625 22.2884 23.039 21.9683 23.3292L21.9861 23.3414C22.1902 23.4798 22.229 23.4896 22.4737 23.5022C22.709 23.7061 22.881 23.8304 23.0327 24.1053C23.0525 24.5252 22.4385 25.2125 22.1588 25.5971C22.4193 23.916 21.9086 24.4355 21.1423 23.6835Z" fill="#FFD13C"/>
<path d="M22.5305 21.8719C23.2016 21.3946 24.2688 21.1303 25.0829 21.0649L25.0275 21.4293C25.2119 21.5842 25.4445 21.5402 25.6898 21.529L25.6953 21.5975C24.539 21.623 24.0985 21.7797 23.0015 22.1772L22.5305 21.8719Z" fill="#0C1249"/>
<path d="M23.3401 26.0042C23.7794 26.5849 23.1442 30.0229 23.7057 30.8303C23.5898 31.234 23.5012 31.8361 23.4165 32.1065C23.0413 32.0444 22.9439 31.9706 22.6244 31.7696C22.5627 31.6447 21.6335 31.0722 21.3806 30.8786L21.4237 30.6455L21.113 30.2983C20.298 29.1215 20.4703 28.3039 21.4775 27.2965L21.5517 27.2587L21.6136 26.966C21.8901 26.9108 22.6203 26.4274 22.8683 26.2536L23.3401 26.0042Z" fill="url(#paint8_linear_296_6402)"/>
<path d="M21.4775 27.2965C21.7593 27.7302 22.4031 30.3256 21.9855 30.8381L21.8287 30.9134L21.4237 30.6455L21.113 30.2983C20.298 29.1215 20.4703 28.3039 21.4775 27.2965Z" fill="#E37205"/>
<path d="M23.3402 26.0042C24.3472 25.4027 27.4384 25.4396 28.3434 26.1109C27.9682 26.5945 28.3203 29.6006 28.3218 30.4093C27.7392 30.8944 27.5124 31.1468 26.756 31.2835C28.0523 30.5564 27.8582 30.0515 27.234 29.3426C27.044 29.1269 27.1166 27.1604 26.8401 26.7529C26.5631 26.3448 26.8083 26.4028 26.2675 26.1409C25.5898 26.1417 25.2406 26.543 24.7339 26.9775C24.4623 27.7656 24.1533 29.2368 24.1082 30.0751C24.08 30.5999 24.2802 30.8308 24.6251 31.1915L23.7058 30.8303C23.1443 30.0229 23.7795 26.5849 23.3402 26.0042Z" fill="#FEC63C"/>
<path d="M25.1061 31.3204C24.7553 30.8667 24.4707 30.5739 24.4508 30.0041C24.9116 29.0467 27.0125 29.4226 27.3589 30.087C27.335 30.6032 26.8045 30.7815 26.5443 31.2644C26.2089 31.4112 25.4848 31.3468 25.1061 31.3204Z" fill="#FEE357"/>
<path d="M15.2008 14.7545L16.0079 15.6809C16.1539 15.8585 17.0597 16.9303 17.0937 17.0544C17.4065 17.3935 18.8024 19.0689 18.995 19.2326L18.9829 19.3016C19.9034 20.2905 20.7792 21.449 21.6548 22.3619L22.5305 21.8719L23.0015 22.1772L22.9266 22.2797C22.1372 22.6849 21.7381 23.0526 21.1424 23.6834C21.9086 24.4354 22.4193 23.9159 22.1588 25.597C21.9691 25.884 21.6925 26.6242 21.6136 26.966L21.5516 27.2587L21.4775 27.2965C20.4703 28.3039 20.298 29.1215 21.113 30.2983C21.0082 30.3515 20.7209 30.489 20.6393 30.5455C20.1357 30.0154 19.8348 28.6039 19.7157 27.8966C19.4922 27.9835 19.4149 28.0057 19.2326 28.1585C19.2052 27.8272 19.1541 27.6157 19.0803 27.2942L19.1514 26.797C19.0607 26.7648 15.4258 26.7948 14.9927 26.7941C14.5703 26.8293 13.3804 26.9801 13.0753 26.8426L12.7961 26.4928C12.7552 26.5026 12.7145 26.5132 12.6739 26.5246C11.8538 26.7538 12.0798 26.9074 11.0519 26.959C10.7792 26.9257 10.8766 26.7819 10.3582 26.7351C10.344 25.7408 10.7853 25.5885 10.2609 24.879C10.2683 24.4331 10.7387 24.3187 10.83 23.9364C11.2257 22.2858 11.8726 20.7457 12.6596 19.2462C12.995 18.6071 13.892 18.9337 13.5891 17.589C13.8942 17.218 13.9228 17.7043 14.4103 17.381C14.387 17.1513 14.3399 17.0632 14.2483 16.8498C14.5828 16.4001 16.0683 16.6701 15.3846 15.5722C15.1611 15.2132 15.192 15.1505 15.2008 14.7545Z" fill="url(#paint9_linear_296_6402)"/>
<path d="M18.6256 19.4657C18.1213 18.8778 16.9834 17.8129 17.0937 17.0544C17.4065 17.3936 18.8024 19.0689 18.995 19.2326L18.9829 19.3017C19.9035 20.2906 20.7792 21.4491 21.6548 22.3619L22.5305 21.872L23.0015 22.1772L22.9266 22.2798C22.1372 22.685 21.7381 23.0526 21.1424 23.6834C21.9086 24.4355 22.4193 23.916 22.1588 25.597C21.9691 25.8841 21.6926 26.6243 21.6136 26.9661L21.5517 27.2588L21.4775 27.2966C20.4703 28.304 20.298 29.1216 21.113 30.2984C21.0083 30.3516 20.7209 30.4891 20.6393 30.5456C20.1357 30.0155 19.8348 28.604 19.7157 27.8966C19.4923 27.9836 19.4149 28.0058 19.2327 28.1586C19.2052 27.8273 19.1541 27.6157 19.0803 27.2943L19.1515 26.797C19.0607 26.7649 15.4259 26.7949 14.9927 26.7942C14.9958 26.6831 15.0019 26.572 15.0108 26.4612C15.2001 23.9791 16.7494 21.0719 18.6256 19.4657Z" fill="url(#paint10_linear_296_6402)"/>
<path d="M21.1423 23.6833C21.9086 24.4354 22.4193 23.9159 22.1588 25.5969C21.9691 25.884 21.6925 26.6242 21.6136 26.966L21.5516 27.2587L21.4774 27.2965C20.4703 28.3039 20.2979 29.1215 21.113 30.2983C21.0082 30.3515 20.7209 30.489 20.6392 30.5455C20.1357 30.0154 19.8348 28.6039 19.7157 27.8966C19.7199 26.2211 20.1643 25.0309 21.1423 23.6833Z" fill="#FC8B0B"/>
<path d="M22.5305 21.8719L23.0015 22.1772L22.9266 22.2798C22.1372 22.685 21.7381 23.0526 21.1424 23.6834C20.1643 25.031 19.72 26.2212 19.7157 27.8966C19.4923 27.9835 19.4149 28.0058 19.2327 28.1586C19.2052 27.8273 19.1541 27.6157 19.0803 27.2943L19.1515 26.797C19.2261 26.587 19.2982 26.0014 19.3822 25.7232C19.7632 24.4612 20.27 23.7024 21.1537 22.7612L21.6548 22.3619L22.5305 21.8719Z" fill="#181B5C"/>
<path d="M18.9829 19.3016C19.9035 20.2905 20.7792 21.449 21.6548 22.3619L21.1537 22.7611C20.8179 22.4477 18.921 20.0153 18.8268 19.5268L18.9829 19.3016Z" fill="#CEF6F5"/>
<path d="M30.903 31.9189C31.664 32.0124 33.7532 34.1319 34.3539 34.7946C35.1232 35.479 36.4743 36.5796 36.9869 37.3972L36.8975 37.5797C37.1299 37.8227 37.3286 38.0518 37.6105 38.2368L37.5891 38.2724C37.1148 38.7075 33.2271 41.7612 32.9711 41.7866C30.9528 42.3888 28.0404 43.4399 25.8769 43.2013C25.88 42.424 25.8777 41.6467 25.8701 40.8694L25.8925 38.944C25.8901 38.4965 25.858 38.0276 25.8343 37.5791C25.7978 36.7866 25.8353 35.05 25.925 34.2825C27.4358 34.3571 30.1374 33.5109 30.8393 32.0919L30.903 31.9189Z" fill="url(#paint11_linear_296_6402)"/>
<path d="M31.0906 38.3074C31.7593 39.2614 32.5735 41.0478 33.0037 41.6427L32.971 41.7867C30.9528 42.3889 28.0403 43.4399 25.8768 43.2013C25.8799 42.424 25.8776 41.6468 25.87 40.8695L25.8924 38.9441C26.5313 38.8586 26.9559 38.8474 27.5969 38.8349C28.59 38.4706 30.7831 38.5298 31.0906 38.3074Z" fill="#215DC1"/>
<path d="M31.0906 38.3074C31.7593 39.2614 32.5735 41.0478 33.0037 41.6427C32.0976 41.4789 31.2763 39.0637 30.4555 38.7098C29.7918 38.4237 28.3801 39.0251 27.5969 38.8349C28.59 38.4706 30.7831 38.5298 31.0906 38.3074Z" fill="#3B77EE"/>
<path d="M34.2868 35.2488C35.1638 36.0183 36.034 36.7953 36.8974 37.5798C37.1299 37.8227 37.3286 38.0519 37.6105 38.2369L37.5891 38.2724C37.1148 38.7076 33.2271 41.7612 32.9711 41.7867L33.0038 41.6427C32.5736 41.0478 31.7594 39.2614 31.0907 38.3074C31.0875 37.3323 33.4334 36.193 34.2868 35.2488Z" fill="url(#paint12_linear_296_6402)"/>
<path d="M30.9029 31.9189C31.6639 32.0124 33.7531 34.1319 34.3538 34.7946C35.1231 35.479 36.4742 36.5796 36.9868 37.3972L36.8974 37.5797C36.0339 36.7953 35.1637 36.0182 34.2868 35.2487C33.764 34.7864 31.0339 32.4102 30.8392 32.0919L30.9029 31.9189Z" fill="#93E0FB"/>
<path d="M19.0804 27.2943C19.1541 27.6157 19.2053 27.8273 19.2327 28.1586C19.415 28.0058 19.4923 27.9835 19.7158 27.8966C19.8349 28.604 20.1358 30.0155 20.6393 30.5456C20.721 30.4891 21.0083 30.3516 21.1131 30.2984L21.4237 30.6455L21.3806 30.8787C21.6336 31.0722 22.5627 31.6448 22.6244 31.7697C22.5322 31.9131 22.3489 32.1731 22.308 32.3249C22.4062 32.3901 22.9408 32.733 22.9788 32.7953L22.9415 32.9702C23.0879 33.1164 23.1224 33.1033 23.1603 33.274C22.8538 33.3113 22.5083 33.079 22.136 33.0069C21.7581 32.8343 21.3608 32.438 21.0437 32.1526C20.1198 33.2995 18.8909 34.3044 17.8663 35.3981L17.8186 35.3941C16.9468 36.318 15.4018 37.6676 14.6973 38.5178L14.6505 38.5108C14.6022 38.3102 13.5117 36.854 13.3007 36.5765C12.5768 35.6246 11.3198 33.4681 11.0828 32.2904C10.9399 32.2417 10.835 32.1194 10.8092 31.9713C10.5192 30.2301 10.3618 29.175 10.3544 27.3804C11.4053 27.3877 13.7505 27.4696 14.7001 27.3825L14.8265 27.4008C16.0911 27.4022 17.5129 27.4343 18.7648 27.394L19.0804 27.2943Z" fill="url(#paint13_linear_296_6402)"/>
<path d="M19.0804 27.2943C19.1541 27.6157 19.2053 27.8273 19.2327 28.1586C19.415 28.0058 19.4923 27.9835 19.7158 27.8966C19.8349 28.604 20.1358 30.0155 20.6393 30.5456C20.721 30.4891 21.0083 30.3516 21.1131 30.2984L21.4237 30.6455L21.3806 30.8787C21.6336 31.0722 22.5627 31.6448 22.6244 31.7697C22.5322 31.9131 22.3489 32.1731 22.308 32.3249C22.4062 32.3901 22.9408 32.733 22.9788 32.7953L22.9415 32.9702C23.0879 33.1164 23.1224 33.1033 23.1603 33.274C22.8538 33.3113 22.5083 33.079 22.136 33.0069C21.7581 32.8343 21.3608 32.438 21.0437 32.1526C20.1198 33.2995 18.8909 34.3044 17.8663 35.3981L17.8186 35.3941C16.9061 34.2294 15.4398 31.9726 15.0904 30.5431C15.0862 30.0944 15.0727 29.9707 14.9645 29.5356C14.7679 28.8883 14.8204 28.0836 14.8265 27.4008C16.0911 27.4022 17.5129 27.4343 18.7648 27.394L19.0804 27.2943Z" fill="url(#paint14_linear_296_6402)"/>
<path d="M14.8265 27.4007C16.0911 27.4021 17.5129 27.4343 18.7648 27.3939C18.8075 27.9385 18.6746 28.7106 18.6003 29.2686C17.6357 29.6028 15.9483 30.2982 15.0904 30.5431C15.0862 30.0944 15.0727 29.9707 14.9645 29.5355C14.7679 28.8883 14.8204 28.0836 14.8265 27.4007Z" fill="#3B8DE5"/>
<path d="M19.2327 28.1585C19.4149 28.0058 19.4923 27.9835 19.7157 27.8966C19.8348 28.6039 20.1357 30.0154 20.6393 30.5455C20.7209 30.4891 21.0083 30.3515 21.113 30.2983L21.4237 30.6455L21.3806 30.8786C21.6335 31.0722 22.5627 31.6447 22.6244 31.7697C22.5321 31.9131 22.3488 32.173 22.308 32.3248C22.4061 32.3901 22.9407 32.733 22.9787 32.7952L22.9414 32.9702C23.0879 33.1164 23.1223 33.1032 23.1603 33.2739C22.8537 33.3112 22.5083 33.079 22.136 33.0069C21.758 32.8343 21.3608 32.438 21.0437 32.1526C20.0435 30.8594 19.4036 29.792 19.2327 28.1585Z" fill="#0C1249"/>
<path d="M21.3806 30.8787C21.6335 31.0723 22.5627 31.6448 22.6243 31.7697C22.5321 31.9131 22.3488 32.1731 22.308 32.3249C21.7492 31.9336 21.6065 31.7981 21.1483 31.3061L21.3806 30.8787Z" fill="#FFD13C"/>
<path d="M20.6393 30.5456C20.7209 30.4891 21.0083 30.3516 21.1131 30.2983L21.4237 30.6455L21.3806 30.8786L21.1484 31.3061C20.9884 31.0911 20.7925 30.7759 20.6393 30.5456Z" fill="#FEA31D"/>
<path d="M10.3544 27.3804C11.4053 27.3877 13.7505 27.4696 14.7001 27.3825L14.8265 27.4008C14.8204 28.0836 14.768 28.8883 14.9645 29.5356C14.9087 29.8799 14.9093 30.4296 14.675 30.5607C13.7569 31.0744 12.4295 31.204 11.4642 31.5712C11.3285 31.4702 11.1447 31.4619 11.0003 31.5501C10.856 31.6383 10.7803 31.8052 10.8092 31.9713C10.5192 30.2301 10.3618 29.175 10.3544 27.3804Z" fill="#215DC1"/>
<path d="M10.8092 31.9713C10.7802 31.8051 10.856 31.6382 11.0003 31.5501C11.1447 31.4619 11.3284 31.4702 11.4641 31.5711C11.6272 31.6924 11.6773 31.9138 11.5823 32.093C11.4873 32.2722 11.2754 32.3559 11.0828 32.2904C10.9399 32.2417 10.835 32.1194 10.8092 31.9713Z" fill="#69C6F3"/>
<path d="M34.8108 17.8583C35.0055 17.7246 36.2004 16.3628 36.4379 16.098C36.5936 16.5204 37.5874 17.271 37.9434 17.6768C39.6709 19.6463 40.5075 22.2471 41.3607 24.6707C41.537 25.1718 42.2341 25.1651 41.487 25.6425C41.4188 25.6939 41.5313 26.7496 41.5569 26.9866C42.774 26.9795 44.4847 26.927 45.6547 27.0189C44.5274 27.1404 43.4009 27.0384 42.3158 27.114C41.743 27.0716 40.3099 27.0736 39.74 27.0962C39.6942 27.2183 39.6732 27.3597 39.5751 27.3873C38.8167 27.5999 37.6496 27.4526 36.8909 27.4929C36.563 27.5064 32.4315 27.7063 32.4976 27.7258L32.4266 27.7055L32.3814 27.4197C32.416 26.5399 32.2523 25.9836 31.99 25.1695C31.6036 24.2737 31.1457 23.7053 30.5516 22.9361C30.8525 22.4413 32.8232 20.2113 33.2978 19.6848C33.7419 19.0667 34.3079 18.4394 34.8108 17.8583Z" fill="url(#paint15_linear_296_6402)"/>
<path d="M30.5516 22.936C30.8525 22.4412 32.8232 20.2112 33.2978 19.6847C34.9428 21.1895 36.5617 23.882 36.7253 26.1675C36.7438 26.4257 36.6876 26.8895 36.8437 27.0733C37.7563 27.0866 38.8406 27.1295 39.74 27.0961C39.6942 27.2182 39.6732 27.3596 39.5751 27.3872C38.8167 27.5998 37.6496 27.4525 36.8909 27.4928C36.563 27.5063 32.4315 27.7062 32.4976 27.7257L32.4266 27.7054L32.3814 27.4196C32.416 26.5398 32.2523 25.9835 31.99 25.1694C31.6036 24.2736 31.1457 23.7052 30.5516 22.936Z" fill="url(#paint16_linear_296_6402)"/>
<path d="M32.4977 27.7257C32.4868 27.4602 32.4375 27.1903 32.6021 26.9912C34.0151 27.0541 35.4294 27.0815 36.8438 27.0734C37.7564 27.0867 38.8406 27.1296 39.74 27.0962C39.6942 27.2182 39.6733 27.3597 39.5751 27.3872C38.8167 27.5999 37.6496 27.4525 36.8909 27.4928C36.563 27.5064 32.4316 27.7063 32.4977 27.7257Z" fill="#CEF6F5"/>
<path d="M21.0437 32.1526C21.3607 32.438 21.758 32.8343 22.1359 33.0069C22.7508 33.5581 24.5922 34.3439 25.3937 34.0966L25.925 34.2825C25.8352 35.05 25.7977 36.7866 25.8342 37.5791C25.8579 38.0276 25.8901 38.4965 25.8924 38.944L25.87 40.8694C25.8776 41.6467 25.8799 42.424 25.8768 43.2013C25.708 43.2927 25.5581 43.2409 25.3667 43.2053C22.1813 42.9789 19.7776 42.3823 17.1377 40.4377C16.324 39.8384 15.5006 39.0759 14.6973 38.5177C15.4017 37.6676 16.9467 36.3179 17.8186 35.394L17.8663 35.398C18.8908 34.3044 20.1197 33.2994 21.0437 32.1526Z" fill="url(#paint17_linear_296_6402)"/>
<path d="M21.0437 32.1526C21.3608 32.438 21.7581 32.8343 22.136 33.0069C22.7509 33.5581 24.5923 34.3439 25.3937 34.0966L25.925 34.2825C25.8353 35.05 25.7978 36.7866 25.8343 37.5791L25.7228 38.0191L25.5707 37.8737L25.7085 37.6181C25.5208 37.5403 25.5924 37.5533 25.3699 37.6244C25.3015 37.4553 25.2338 37.2796 25.1545 37.1159C25.1966 37.5446 25.3011 38.2369 25.2021 38.632C24.7708 38.7839 23.689 38.4036 23.4104 38.5319C20.5555 37.3219 20.3384 37.5723 17.8663 35.398C18.8909 34.3044 20.1198 33.2994 21.0437 32.1526Z" fill="#93E0FB"/>
<path d="M23.4104 38.5319C23.689 38.4036 24.7708 38.7839 25.2021 38.6319C25.3011 38.2369 25.1966 37.5446 25.1546 37.1158C25.2338 37.2796 25.3015 37.4553 25.3699 37.6244C25.5925 37.5533 25.5208 37.5403 25.7085 37.6181L25.5707 37.8737L25.7228 38.0191L25.8343 37.5791C25.858 38.0276 25.8902 38.4965 25.8925 38.944L25.8701 40.8694C25.6527 41.1736 25.9335 41.7183 25.6923 42.1094C25.3919 42.1344 25.3838 42.0661 25.0891 41.8995C24.97 41.5205 25.374 41.4364 25.3907 41.1141C25.4282 40.3901 25.4001 39.5249 25.3884 38.8033C24.9461 38.784 23.7067 38.7767 23.4104 38.5319Z" fill="#69C6F3"/>
<path d="M25.7055 12.1414C27.9233 12.4712 29.6568 12.6417 31.8331 13.4083C32.2306 13.5483 32.7552 13.6146 33.1276 13.8124C34.4429 14.511 34.9071 15.4807 36.3848 15.8406L36.4856 15.9613L36.4379 16.098C36.2004 16.3627 35.0055 17.7245 34.8108 17.8583C34.3079 18.4393 33.7419 19.0667 33.2979 19.6848C32.8232 20.2112 30.8526 22.4412 30.5517 22.936L30.077 22.5687L29.7624 23.0065L28.9345 22.4215C27.7214 21.7987 27.0599 21.6215 25.6953 21.5975L25.6898 21.5291C25.4445 21.5402 25.2119 21.5842 25.0275 21.4294L25.0828 21.065C25.3503 21.0528 25.5504 21.0001 25.808 20.9415C25.7568 19.6279 25.7952 18.1453 25.8047 16.8177C25.7896 15.6197 25.8115 14.3782 25.8179 13.1766L25.8214 13.0733C25.8339 12.6648 25.801 12.5401 25.7055 12.1414Z" fill="url(#paint18_linear_296_6402)"/>
<path d="M25.8047 16.8176C25.9749 16.8071 26.1517 16.78 26.3091 16.8376C28.2045 16.979 31.2908 17.8246 32.5554 19.2845C32.6512 19.3955 32.745 19.5083 32.8367 19.6227C33.433 19.0944 33.7709 18.7217 34.2628 18.098C34.4786 17.8244 34.524 17.8678 34.8108 17.8582C34.3079 18.4393 33.7419 19.0666 33.2979 19.6847C32.8232 20.2112 30.8526 22.4412 30.5517 22.936L30.077 22.5686L29.7624 23.0065L28.9345 22.4214C27.7214 21.7986 27.0599 21.6215 25.6953 21.5974L25.6898 21.529C25.4445 21.5401 25.2119 21.5841 25.0275 21.4293L25.0828 21.0649C25.3503 21.0527 25.5504 21.0001 25.808 20.9414C25.7568 19.6278 25.7952 18.1452 25.8047 16.8176Z" fill="#93E0FB"/>
<path d="M25.808 20.9414C26.5338 20.999 26.9311 21.06 27.6441 21.2092L28.9836 21.7843C29.2385 21.9513 29.9146 22.3622 30.077 22.5686L29.7624 23.0065L28.9345 22.4214C27.7214 21.7986 27.0599 21.6215 25.6953 21.5974L25.6898 21.529C25.4445 21.5401 25.2119 21.5841 25.0275 21.4293L25.0828 21.0649C25.3503 21.0527 25.5504 21 25.808 20.9414Z" fill="#181B5C"/>
<path d="M32.8368 19.6228C33.4331 19.0945 33.771 18.7218 34.2629 18.0981C34.4787 17.8245 34.5241 17.8678 34.8109 17.8583C34.308 18.4393 33.742 19.0667 33.2979 19.6848C32.8233 20.2112 30.8526 22.4412 30.5517 22.936L30.077 22.5687C29.9147 22.3622 29.2386 21.9513 28.9836 21.7844C29.8075 21.3642 30.2713 23.2443 32.8368 19.6228Z" fill="#CEF6F5"/>
<path d="M25.818 13.1766C26.4213 13.7943 26.3341 15.6138 26.3221 16.5252C26.3203 16.6295 26.316 16.7336 26.3092 16.8377C26.1518 16.7801 25.975 16.8072 25.8048 16.8177C25.7897 15.6197 25.8116 14.3783 25.818 13.1766Z" fill="#69C6F3"/>
<path d="M39.74 27.0962C40.3099 27.0735 41.743 27.0716 42.3158 27.114C41.8982 27.5112 41.6971 27.0208 41.5126 28.0629L41.3582 28.8244C41.5264 31.8687 39.7007 35.934 37.7287 38.117C37.6908 38.1584 37.6513 38.1984 37.6104 38.2368C37.3286 38.0519 37.1298 37.8227 36.8974 37.5798L36.9868 37.3972C36.4742 36.5796 35.1231 35.479 34.3538 34.7946C33.7531 34.1319 31.6639 32.0124 30.903 31.919C31.9336 30.3737 32.2623 29.5471 32.4266 27.7054L32.4976 27.7257C32.4315 27.7062 36.563 27.5064 36.8909 27.4928C37.6495 27.4525 38.8167 27.5999 39.5751 27.3872C39.6732 27.3597 39.6942 27.2182 39.74 27.0962Z" fill="url(#paint19_linear_296_6402)"/>
<path d="M32.4976 27.7257C32.4315 27.7062 36.563 27.5064 36.8909 27.4928C36.8082 29.7608 36.2609 33.2886 34.3538 34.7946C33.7531 34.1319 31.6639 32.0124 30.903 31.919C31.9336 30.3737 32.2623 29.5471 32.4266 27.7054L32.4976 27.7257Z" fill="url(#paint20_linear_296_6402)"/>
<path d="M41.3582 28.8244C41.3383 28.821 41.3184 28.8173 41.2985 28.8134C40.8967 28.7338 40.9223 28.7608 40.748 28.5014L40.8041 28.2651C41.175 28.0101 41.0446 28.0729 41.5126 28.0628L41.3582 28.8244Z" fill="#69C6F3"/>
<path d="M8.38361 18.1874C9.6145 16.2232 11.3006 13.9376 13.2096 12.5688C13.8161 13.0516 14.8048 14.1038 15.2009 14.7545C15.1921 15.1505 15.1611 15.2133 15.3847 15.5722C16.0684 16.6701 14.5829 16.4001 14.2484 16.8498C14.3399 17.0632 14.387 17.1513 14.4104 17.381C13.9229 17.7043 13.8942 17.218 13.5891 17.589C13.8921 18.9337 12.995 18.6071 12.6596 19.2462C11.8726 20.7457 11.2258 22.2858 10.83 23.9364C10.7388 24.3187 10.2684 24.4331 10.2609 24.879C10.7854 25.5885 10.3441 25.7408 10.3582 26.7351C10.8767 26.7819 10.7793 26.9257 11.052 26.959C11.4074 26.9821 11.5792 26.9324 11.8338 27.1099L11.7805 27.1741C11.5142 27.1535 11.2899 27.1193 11.0307 27.1916C11.6275 27.4046 13.7759 27.2493 14.7001 27.3824C13.7505 27.4695 11.4053 27.3877 10.3544 27.3803L8.84121 27.3118C8.13778 27.394 6.5723 27.4434 5.85669 27.3959L5.89098 26.1957C5.75273 23.9291 6.61723 20.3238 7.57176 18.2483C7.8006 18.6372 7.3382 18.7439 7.494 19.2814C7.73011 19.1991 7.92414 18.4662 8.23792 18.0999L8.38361 18.1874Z" fill="url(#paint21_linear_296_6402)"/>
<path d="M7.57173 18.2484C7.80057 18.6372 7.33818 18.7439 7.49397 19.2815C7.73009 19.1992 7.92411 18.4662 8.2379 18.1L8.38358 18.1874C6.43232 22.0984 6.73319 22.0902 5.89095 26.1958C5.7527 23.9292 6.6172 20.3239 7.57173 18.2484Z" fill="#883401"/>
<path d="M10.3581 26.7352C10.8766 26.782 10.7792 26.9258 11.0519 26.9591C11.4073 26.9822 11.5791 26.9325 11.8337 27.11L11.7804 27.1742C11.5141 27.1536 11.2898 27.1194 11.0306 27.1917C11.6274 27.4047 13.7758 27.2494 14.7001 27.3825C13.7504 27.4696 11.4052 27.3877 10.3543 27.3804L8.84112 27.3118C8.26221 27.2627 7.14982 27.1379 6.60475 27.217L6.56579 27.2229L6.46277 27.1104C6.74121 26.9236 9.77277 26.7956 10.3581 26.7352Z" fill="#3B8DE5"/>
<path d="M39.1613 13.0496L39.8593 13.669C42.2346 16.2741 43.7479 18.1833 44.9321 21.6302C45.2717 22.6189 45.522 23.6329 45.8368 24.5916C45.9481 25.4777 45.9977 26.181 46.0391 27.0743L45.6548 27.0189C44.4848 26.927 42.7741 26.9794 41.557 26.9866C41.5314 26.7496 41.4189 25.6939 41.4871 25.6425C42.2342 25.1651 41.5371 25.1718 41.3608 24.6707C40.5076 22.2471 39.671 19.6463 37.9434 17.6768C37.5874 17.271 36.5937 16.5204 36.438 16.098L36.4857 15.9613C37.0011 15.5053 38.5519 13.6952 39.1613 13.0496Z" fill="url(#paint22_linear_296_6402)"/>
<path d="M40.8509 45.9339C43.9242 44.1492 47.5618 39.5473 49.0011 36.3271C49.6251 34.9315 50.204 33.3045 50.8946 32.0128C50.7752 32.8512 50.6574 33.7158 50.486 34.5359C49.5386 39.0681 47.2624 43.3719 43.9709 46.6517C43.9506 46.6719 43.8885 46.7067 43.8608 46.7221C43.1925 47.5135 41.1268 49.1663 40.2352 49.7903C38.4028 50.9591 37.2315 51.5592 35.223 52.4255C35.1801 52.1444 35.3485 52.2896 35.1481 51.884L35.9684 51.5079C35.3232 51.3263 33.0579 52.8166 32.3242 52.3871L32.327 52.1909C33.1387 50.5074 34.6562 50.4823 35.7749 49.4409L35.6067 49.4025L35.6033 49.2238C35.7137 48.9856 35.8963 48.8505 36.0924 48.6778C38.0516 47.596 38.9337 47.3129 40.8509 45.9339Z" fill="#BE5B03"/>
<path d="M7.13953 45.6132C8.11396 46.0188 9.22111 47.4904 9.88988 48.0279C10.6711 48.656 14.7737 51.2017 15.5337 51.3081C16.0895 51.114 17.9721 52.438 18.6933 52.0623C18.6762 51.6494 17.8741 50.5753 17.5416 50.2194C19.0938 50.71 22.7274 52.0647 24.243 51.2854C24.2658 51.2737 24.2883 51.262 24.3106 51.2494L24.2908 51.228C24.2122 51.1427 24.1987 51.1253 24.1493 51.0214C25.0235 50.8839 26.3811 51.0137 27.0775 50.7823C30.9649 50.4131 32.4978 49.9501 36.0923 48.6778C35.8962 48.8505 35.7136 48.9855 35.6032 49.2237L35.6066 49.4025L35.7749 49.4409C34.6561 50.4823 33.1386 50.5074 32.3269 52.1909L32.3241 52.3871C33.0578 52.8165 35.3231 51.3263 35.9683 51.5079L35.1481 51.884C35.3484 52.2896 35.18 52.1444 35.2229 52.4255C34.8917 52.5403 34.548 52.6548 34.22 52.7753C33.8421 52.8942 32.7214 53.2808 32.3801 53.2626C30.2826 54.2081 25.326 54.1871 22.9504 53.9311C17.4412 53.3382 10.5981 49.9913 7.13953 45.6132Z" fill="url(#paint23_linear_296_6402)"/>
<path d="M5.85669 27.3959C6.5723 27.4434 8.13778 27.394 8.84121 27.3118L10.3544 27.3803C10.3618 29.1749 10.5192 30.2301 10.8092 31.9712C10.835 32.1193 10.9399 32.2417 11.0828 32.2903C11.3198 33.468 12.5768 35.6245 13.3007 36.5765C13.5117 36.8539 14.6022 38.3101 14.6505 38.5107C14.1144 39.0124 12.9614 40.032 12.5885 40.607C12.5311 40.5609 12.4745 40.5139 12.4189 40.4658C8.57974 37.1456 6.21984 32.4455 5.85669 27.3959Z" fill="url(#paint24_linear_296_6402)"/>
<path d="M45.6548 27.0188L46.0391 27.0742C45.9465 31.8598 43.5362 36.6768 40.1083 39.9684C39.9707 40.1004 39.827 40.226 39.6778 40.3449C39.0545 39.5848 38.3546 38.8903 37.5891 38.2724L37.6105 38.2368C37.6514 38.1984 37.6908 38.1584 37.7287 38.117C39.7008 35.934 41.5265 31.8687 41.3583 28.8244L41.5127 28.0629C41.6971 27.0208 41.8982 27.5112 42.3158 27.114C43.4009 27.0383 44.5275 27.1404 45.6548 27.0188Z" fill="url(#paint25_linear_296_6402)"/>
<path d="M27.8355 8.10388C28.2548 8.23766 28.9078 8.28829 29.3615 8.33929C31.3747 8.738 32.075 9.06019 33.9275 9.67571C34.3877 9.91698 34.8461 10.1618 35.3026 10.41C36.7889 11.2509 37.8326 12.0082 39.1613 13.0495C38.5519 13.6952 37.0011 15.5053 36.4857 15.9612L36.3849 15.8406C34.9071 15.4806 34.443 14.511 33.1276 13.8124C32.7552 13.6146 32.2306 13.5482 31.8332 13.4082C29.6568 12.6417 27.9234 12.4712 25.7056 12.1413C25.7581 12.0848 25.822 11.9266 25.8574 11.8491C25.9804 11.4286 26.4076 10.5299 26.6036 10.0926L26.8791 9.53473C27.2035 9.25459 27.1801 9.35388 27.2864 8.97972C27.3835 8.72283 27.6692 8.34289 27.8355 8.10388Z" fill="url(#paint26_linear_296_6402)"/>
<path d="M27.8355 8.10388C28.2548 8.23766 28.9078 8.28829 29.3614 8.33929C28.9798 8.87837 27.9297 8.87574 27.2864 8.97972C27.3835 8.72283 27.6691 8.34289 27.8355 8.10388Z" fill="#193DA2"/>
<path d="M1.1012 32.5946C1.58305 33.7287 2.07396 34.8772 2.60255 36.0065C4.16067 39.3353 6.55929 42.4111 9.40799 44.7449C9.80917 45.0737 11.1015 46.1511 11.509 46.2582C12.8153 47.2199 13.9302 47.5774 14.9938 48.2811C15.2349 48.7195 15.5476 48.6495 15.9034 48.9419C16.5128 49.4426 16.678 49.9683 17.4836 50.2033C17.5029 50.2089 17.5223 50.2142 17.5417 50.2194C17.8742 50.5753 18.6763 51.6494 18.6934 52.0623C17.9722 52.438 16.0895 51.114 15.5338 51.3081C14.7737 51.2018 10.6712 48.656 9.88997 48.0279C9.2212 47.4905 8.11405 46.0188 7.13962 45.6132C6.82173 45.3309 5.8618 44.1245 5.59168 43.7582C3.15891 40.4812 1.61267 36.6373 1.1012 32.5946Z" fill="#BE5B03"/>
<path d="M37.5891 38.2723C38.3546 38.8903 39.0545 39.5847 39.6778 40.3448C36.9034 42.9125 34.511 44.0072 30.9886 45.1396C29.5703 45.4227 28.5914 45.5767 27.1286 45.69L25.9069 45.7502L25.8768 43.2012C28.0404 43.4398 30.9528 42.3888 32.9711 41.7866C33.2271 41.7611 37.1148 38.7075 37.5891 38.2723Z" fill="url(#paint27_linear_296_6402)"/>
<path d="M14.6504 38.5107L14.6973 38.5177C15.5006 39.0759 16.324 39.8383 17.1377 40.4377C19.7776 42.3823 22.1813 42.9788 25.3667 43.2053C25.5581 43.2409 25.708 43.2927 25.8768 43.2013L25.9069 45.7503L25.2573 45.7414L22.7127 45.4664C22.5712 45.3831 20.9295 45.0393 20.6826 44.9835C19.6223 44.6673 18.4292 44.1278 17.4714 43.8738C17.3881 43.704 15.5874 42.7625 15.272 42.587C14.3304 41.9884 13.4159 41.3559 12.5884 40.607C12.9613 40.032 14.1143 39.0124 14.6504 38.5107Z" fill="#3B77EE"/>
<path d="M25.3668 43.2053C25.5581 43.2409 25.708 43.2927 25.8768 43.2013L25.9069 45.7503L25.2573 45.7414C25.4064 45.0454 25.5139 43.9098 25.3668 43.2053Z" fill="#3B8DE5"/>
<path d="M27.8354 8.10389C27.8989 7.73676 28.645 6.92984 28.9282 6.64392C29.7662 6.95831 30.8097 7.03673 31.5666 7.34796C32.2167 7.57973 34.6175 8.4273 35.007 8.87498L35.1757 8.91611L35.7021 9.20158C36.039 9.62084 37.7263 10.6104 38.2964 11.0419C39.0961 11.6473 39.6315 12.1071 40.3775 12.7914C40.9593 13.4515 41.7938 14.3181 42.3138 14.9836C44.033 17.1821 46.0354 21.6942 45.842 24.5305C45.8404 24.5509 45.8388 24.5712 45.8368 24.5916C45.5219 23.6328 45.2717 22.6188 44.932 21.6302C43.7478 18.1833 42.2345 16.274 39.8593 13.6689L39.1612 13.0495C37.8325 12.0082 36.7888 11.2509 35.3025 10.41C34.846 10.1618 34.3877 9.91699 33.9274 9.67571C32.0749 9.0602 31.3747 8.738 29.3614 8.3393C28.9077 8.2883 28.2547 8.23767 27.8354 8.10389Z" fill="#BE5B03"/>
<path d="M27.8354 8.10389C27.8989 7.73676 28.645 6.92984 28.9282 6.64392C29.7662 6.95831 30.8097 7.03673 31.5666 7.34796C32.2167 7.57973 34.6175 8.4273 35.007 8.87498C34.6812 8.96367 33.1895 8.09685 32.6203 7.89024C32.2151 8.04606 31.82 8.20406 31.4033 8.32712C30.4309 8.61442 29.6025 7.11773 28.7155 7.26558C28.4768 7.4593 28.521 7.36721 28.4805 7.63627C28.9633 8.32243 33.2138 8.71346 34.0562 9.56511L33.9274 9.67571C32.0749 9.0602 31.3747 8.73801 29.3614 8.3393C28.9077 8.2883 28.2547 8.23767 27.8354 8.10389Z" fill="#E37205"/>
<path d="M35.3025 10.4101L35.3081 10.0727C35.8081 9.78545 37.0412 10.705 37.376 11.0944L37.24 11.2593C37.9997 11.6269 38.7685 11.9952 39.419 12.5401C39.8233 12.8787 39.6215 13.2313 39.8593 13.6689L39.1612 13.0495C37.8325 12.0083 36.7888 11.2509 35.3025 10.4101Z" fill="#A55511"/>
<path d="M11.509 46.2582C12.0112 46.0386 14.312 48.2151 14.9811 47.7569C14.5865 47.4023 12.6087 46.5837 12.1252 46.1041C12.3631 46.1385 15.2411 47.7177 15.9519 48.0028C22.4123 50.5935 28.7609 50.7633 35.2893 48.2936C37.0915 47.6122 38.0714 46.8499 39.5388 46.2335C39.5192 46.6387 37.1602 47.3691 36.6525 48.0874L36.7387 48.1488C36.9307 48.0271 37.1266 47.9159 37.3327 47.8196C38.5568 47.2478 39.6795 46.5215 40.8087 45.785L40.8509 45.9339C38.9337 47.3129 38.0516 47.596 36.0924 48.6778C32.4979 49.9501 30.965 50.4131 27.0776 50.7824C26.3812 51.0137 25.0236 50.8839 24.1494 51.0214C24.1987 51.1253 24.2123 51.1427 24.2909 51.228L24.3107 51.2494C24.2884 51.262 24.2659 51.2737 24.2431 51.2854C22.7275 52.0647 19.0938 50.71 17.5417 50.2194C17.5223 50.2142 17.5029 50.2089 17.4836 50.2032C16.678 49.9683 16.5128 49.4425 15.9034 48.9419C15.5476 48.6495 15.2349 48.7194 14.9938 48.2811C13.9302 47.5774 12.8152 47.2199 11.509 46.2582Z" fill="url(#paint28_linear_296_6402)"/>
<path d="M14.9938 48.2811C19.3109 50.0597 22.3983 50.7565 27.0776 50.7824C26.3812 51.0137 25.0236 50.8839 24.1494 51.0214C24.1987 51.1254 24.2123 51.1427 24.2909 51.2281L24.3107 51.2495C24.2884 51.262 24.2658 51.2738 24.243 51.2855C22.7275 52.0648 19.0938 50.71 17.5417 50.2195C17.5222 50.2142 17.5029 50.209 17.4836 50.2033C16.678 49.9683 16.5127 49.4426 15.9034 48.9419C15.5475 48.6495 15.2349 48.7195 14.9938 48.2811Z" fill="url(#paint29_linear_296_6402)"/>
<path d="M15.929 9.21901L16.2497 9.1416C16.5211 9.9082 16.4492 9.72343 16.2754 10.456C15.1838 11.217 14.2878 11.7145 13.2096 12.5689C11.3006 13.9376 9.61449 16.2232 8.38359 18.1874L8.23791 18.1C7.92412 18.4662 7.73009 19.1992 7.49398 19.2815C7.33818 18.7439 7.80058 18.6372 7.57174 18.2484C8.15743 16.5654 10.1091 14.144 11.2967 12.8185C12.4746 11.7393 13.6243 10.8371 14.9688 9.97716C15.2707 9.78409 15.7201 9.49947 15.929 9.21901Z" fill="#A55511"/>
<path d="M24.4402 47.9624C24.8799 46.9142 25.4538 46.5437 26.5824 46.8163C27.0051 47.1487 27.134 47.2284 27.3828 47.6919L27.4017 47.7266C27.4094 48.2459 27.2765 48.6835 26.9051 49.0677C26.6725 49.3087 26.3531 49.447 26.0176 49.4527C25.626 49.4591 25.2481 49.3087 24.9688 49.0357C24.6764 48.7441 24.5449 48.3502 24.4402 47.9624Z" fill="#FEFEFD"/>
<path d="M22.7126 45.4664L25.2573 45.7414L25.9069 45.7503L27.1286 45.6901C26.9294 45.9998 26.8209 46.1543 26.5793 46.433L26.6146 46.5377L26.5824 46.8164C25.4538 46.5438 24.8799 46.9142 24.4402 47.9625C24.4755 46.7654 25.107 46.4508 23.3971 46.1483C23.2559 45.9529 22.9041 45.6444 22.7126 45.4664Z" fill="#FEE357"/>
<path d="M17.4714 43.8738C18.4293 44.1277 19.6224 44.6672 20.6827 44.9835C20.9296 45.0393 22.5713 45.383 22.7127 45.4664C22.9042 45.6443 23.2559 45.9529 23.3972 46.1482C22.7876 46.153 21.7873 45.8376 21.2106 45.6536C20.4271 45.656 17.7304 44.4173 17.4714 43.8738Z" fill="#FEC63C"/>
<path d="M35.7281 9.11121C37.1557 9.14627 38.8852 10.5115 39.6927 11.6314L39.1584 11.1591C39.478 11.5676 40.2744 12.4062 40.4346 12.653L40.3775 12.7915C39.6315 12.1072 39.0961 11.6473 38.2964 11.0419C37.7264 10.6105 36.039 9.62089 35.7021 9.20163L35.7281 9.11121Z" fill="#FEE357"/>
<path d="M15.761 9.06006L15.9289 9.21903C15.72 9.49949 15.2707 9.78412 14.9688 9.97718C13.6242 10.8372 12.4746 11.7393 11.2967 12.8185L11.2477 12.6221C11.8416 11.3991 14.4534 9.3228 15.761 9.06006Z" fill="#FEE357"/>
<path d="M27.1286 45.6901C28.5913 45.5768 29.5702 45.4227 30.9885 45.1396C30.9136 45.2165 30.8209 45.3115 30.7104 45.4248C29.5195 45.6973 28.7789 46.2591 27.5574 46.3565L26.6146 46.5377L26.5793 46.433C26.8209 46.1543 26.9294 45.9998 27.1286 45.6901Z" fill="#FFD13C"/>
<path d="M15.272 42.5869C15.5874 42.7624 17.3881 43.7039 17.4714 43.8738C16.6261 44.0553 15.1157 43.5979 15.272 42.5869Z" fill="#FEC63C"/>
<path d="M26.6147 46.5377L27.5575 46.3566C27.5835 46.9535 27.5303 47.1605 27.4018 47.7267L27.3829 47.6919C27.1341 47.2285 27.0052 47.1488 26.5825 46.8164L26.6147 46.5377Z" fill="#FEC63C"/>
<path d="M44.9759 36.3666C45.751 36.2346 46.4863 36.7565 46.6131 37.5292C46.7398 38.302 46.2101 39.0297 45.4329 39.1502C44.6639 39.2693 43.9424 38.7487 43.8169 37.9841C43.6913 37.2195 44.2089 36.4973 44.9759 36.3666Z" fill="#FEFEFD"/>
<path d="M6.3521 36.3916C7.08652 36.1526 7.87745 36.5466 8.1255 37.2751C8.37356 38.0036 7.98636 38.7951 7.25726 39.0499C6.77858 39.2172 6.24651 39.1155 5.86403 38.7837C5.48155 38.452 5.30763 37.9412 5.40862 37.4463C5.50958 36.9514 5.86988 36.5486 6.3521 36.3916Z" fill="#FEFEFD"/>
<path d="M44.3146 13.2295C45.0491 13.0501 45.7938 13.4846 45.9953 14.2102C46.1972 14.9358 45.7824 15.6895 45.0597 15.9113C44.573 16.0606 44.0433 15.9347 43.6768 15.5827C43.3104 15.2306 43.1653 14.7081 43.2982 14.2187C43.4306 13.7293 43.8202 13.3503 44.3146 13.2295Z" fill="#FEFEFD"/>
<path d="M6.82336 13.2384C7.56054 13.0586 8.30426 13.509 8.48269 14.2433C8.66115 14.9777 8.20644 15.7167 7.4682 15.8921C6.73309 16.0667 5.99461 15.6164 5.81696 14.8852C5.63926 14.154 6.08935 13.4175 6.82336 13.2384Z" fill="#FEFEFD"/>
</g>
<defs>
<linearGradient id="paint0_linear_296_6402" x1="27.0238" y1="49.816" x2="24.7166" y2="5.34143" gradientUnits="userSpaceOnUse">
<stop stop-color="#FEB924"/>
<stop offset="1" stop-color="#FEE859"/>
</linearGradient>
<linearGradient id="paint1_linear_296_6402" x1="15.2183" y1="25.6875" x2="16.1437" y2="28.1072" gradientUnits="userSpaceOnUse">
<stop stop-color="#86DEFA" stop-opacity="0.984314"/>
<stop offset="1" stop-color="#C5FAF6"/>
</linearGradient>
<linearGradient id="paint2_linear_296_6402" x1="38.3927" y1="4.67076" x2="28.1501" y2="4.72125" gradientUnits="userSpaceOnUse">
<stop stop-color="#FCB426"/>
<stop offset="1" stop-color="#FFFD66"/>
</linearGradient>
<linearGradient id="paint3_linear_296_6402" x1="20.5446" y1="13.2987" x2="21.9031" y2="17.8198" gradientUnits="userSpaceOnUse">
<stop stop-color="#2057C0"/>
<stop offset="1" stop-color="#2B76D5"/>
</linearGradient>
<linearGradient id="paint4_linear_296_6402" x1="22.4773" y1="16.8569" x2="22.4272" y2="21.8462" gradientUnits="userSpaceOnUse">
<stop stop-color="#3B92E2"/>
<stop offset="1" stop-color="#4AAEED"/>
</linearGradient>
<linearGradient id="paint5_linear_296_6402" x1="19.9066" y1="5.98303" x2="19.9066" y2="15.681" gradientUnits="userSpaceOnUse">
<stop stop-color="#231489"/>
<stop offset="1" stop-color="#040307"/>
</linearGradient>
<linearGradient id="paint6_linear_296_6402" x1="13.241" y1="3.60055" x2="26.6801" y2="4.38946" gradientUnits="userSpaceOnUse">
<stop stop-color="#FCB125"/>
<stop offset="1" stop-color="#FFFF79"/>
</linearGradient>
<linearGradient id="paint7_linear_296_6402" x1="25.7162" y1="3.51088" x2="25.9341" y2="6.06599" gradientUnits="userSpaceOnUse">
<stop stop-color="#FEAD23"/>
<stop offset="1" stop-color="#FFD14E"/>
</linearGradient>
<linearGradient id="paint8_linear_296_6402" x1="21.9269" y1="27.7911" x2="23.1415" y2="27.8072" gradientUnits="userSpaceOnUse">
<stop stop-color="#FE9311"/>
<stop offset="1" stop-color="#FFAC23"/>
</linearGradient>
<linearGradient id="paint9_linear_296_6402" x1="12.072" y1="20.6837" x2="16.948" y2="22.6755" gradientUnits="userSpaceOnUse">
<stop stop-color="#4390F5"/>
<stop offset="1" stop-color="#65CCFF"/>
</linearGradient>
<linearGradient id="paint10_linear_296_6402" x1="16.123" y1="22.8809" x2="19.8998" y2="24.4411" gradientUnits="userSpaceOnUse">
<stop stop-color="#7ED5FC"/>
<stop offset="1" stop-color="#AAF0FF"/>
</linearGradient>
<linearGradient id="paint11_linear_296_6402" x1="30.359" y1="37.8983" x2="28.5719" y2="33.3871" gradientUnits="userSpaceOnUse">
<stop stop-color="#2C7FDA"/>
<stop offset="1" stop-color="#429BE7"/>
</linearGradient>
<linearGradient id="paint12_linear_296_6402" x1="35.5749" y1="40.0879" x2="32.0628" y2="36.9405" gradientUnits="userSpaceOnUse">
<stop stop-color="#1D53BB"/>
<stop offset="1" stop-color="#236BCB"/>
</linearGradient>
<linearGradient id="paint13_linear_296_6402" x1="12.3706" y1="35.8762" x2="16.1463" y2="31.8867" gradientUnits="userSpaceOnUse">
<stop stop-color="#2055BC"/>
<stop offset="1" stop-color="#2B74D3"/>
</linearGradient>
<linearGradient id="paint14_linear_296_6402" x1="16.1017" y1="33.272" x2="20.2689" y2="29.2212" gradientUnits="userSpaceOnUse">
<stop stop-color="#3287DF"/>
<stop offset="1" stop-color="#4AAFEF"/>
</linearGradient>
<linearGradient id="paint15_linear_296_6402" x1="39.8245" y1="21.0387" x2="35.1226" y2="23.6441" gradientUnits="userSpaceOnUse">
<stop stop-color="#215CC5"/>
<stop offset="1" stop-color="#2B7FDD"/>
</linearGradient>
<linearGradient id="paint16_linear_296_6402" x1="35.661" y1="23.0728" x2="31.4944" y2="24.6687" gradientUnits="userSpaceOnUse">
<stop stop-color="#3F9EED"/>
<stop offset="1" stop-color="#53BAF4"/>
</linearGradient>
<linearGradient id="paint17_linear_296_6402" x1="19.9186" y1="41.833" x2="21.5197" y2="36.9529" gradientUnits="userSpaceOnUse">
<stop stop-color="#4192F3"/>
<stop offset="1" stop-color="#65CBFF"/>
</linearGradient>
<linearGradient id="paint18_linear_296_6402" x1="31.2688" y1="13.0123" x2="30.4148" y2="18.8606" gradientUnits="userSpaceOnUse">
<stop stop-color="#3D8AF2"/>
<stop offset="1" stop-color="#60CAFF"/>
</linearGradient>
<linearGradient id="paint19_linear_296_6402" x1="40.4951" y1="32.764" x2="35.8651" y2="31.1415" gradientUnits="userSpaceOnUse">
<stop stop-color="#479FF9"/>
<stop offset="1" stop-color="#60C3FE"/>
</linearGradient>
<linearGradient id="paint20_linear_296_6402" x1="36.2462" y1="31.1632" x2="31.5821" y2="30.1953" gradientUnits="userSpaceOnUse">
<stop stop-color="#7FD5FC"/>
<stop offset="1" stop-color="#AAEAFA"/>
</linearGradient>
<linearGradient id="paint21_linear_296_6402" x1="8.1499" y1="18.9506" x2="12.7989" y2="21.3339" gradientUnits="userSpaceOnUse">
<stop stop-color="#315EE3"/>
<stop offset="1" stop-color="#417EF2"/>
</linearGradient>
<linearGradient id="paint22_linear_296_6402" x1="41.2386" y1="13.0496" x2="41.2386" y2="27.0743" gradientUnits="userSpaceOnUse">
<stop stop-color="#231489"/>
<stop offset="1" stop-color="#040307"/>
</linearGradient>
<linearGradient id="paint23_linear_296_6402" x1="26.694" y1="53.3007" x2="26.5476" y2="49.3657" gradientUnits="userSpaceOnUse">
<stop stop-color="#EF7F06"/>
<stop offset="1" stop-color="#F69F10"/>
</linearGradient>
<linearGradient id="paint24_linear_296_6402" x1="10.2536" y1="27.3118" x2="10.2536" y2="40.607" gradientUnits="userSpaceOnUse">
<stop stop-color="#231489"/>
<stop offset="1" stop-color="#040307"/>
</linearGradient>
<linearGradient id="paint25_linear_296_6402" x1="44.1145" y1="34.0573" x2="39.7916" y2="32.4532" gradientUnits="userSpaceOnUse">
<stop stop-color="#366AE6"/>
<stop offset="1" stop-color="#4186F5"/>
</linearGradient>
<linearGradient id="paint26_linear_296_6402" x1="32.8618" y1="9.03346" x2="32.0826" y2="14.8935" gradientUnits="userSpaceOnUse">
<stop stop-color="#2349CB"/>
<stop offset="1" stop-color="#306DE5"/>
</linearGradient>
<linearGradient id="paint27_linear_296_6402" x1="32.7773" y1="38.2723" x2="32.7773" y2="45.7502" gradientUnits="userSpaceOnUse">
<stop stop-color="#231489"/>
<stop offset="1" stop-color="#040307"/>
</linearGradient>
<linearGradient id="paint28_linear_296_6402" x1="25.6422" y1="47.7351" x2="25.6643" y2="50.4678" gradientUnits="userSpaceOnUse">
<stop stop-color="#FFF456"/>
<stop offset="1" stop-color="#FFFEAB"/>
</linearGradient>
<linearGradient id="paint29_linear_296_6402" x1="18.6413" y1="51.3547" x2="21.1628" y2="48.6283" gradientUnits="userSpaceOnUse">
<stop stop-color="#F3900A"/>
<stop offset="1" stop-color="#FFB618"/>
</linearGradient>
<clipPath id="clip0_296_6402">
<rect width="52" height="55" fill="white"/>
</clipPath>
</defs>
</svg>
