<svg width="20" height="20" viewBox="0 0 20 20" fill="none" xmlns="http://www.w3.org/2000/svg">
<path fill-rule="evenodd" clip-rule="evenodd" d="M8.55034 2.02188C8.99006 2.00809 9.47274 2 10.0001 2C10.5275 2 11.0102 2.00809 11.4499 2.02188L11.3358 2.95504C11.3032 3.22194 11.0812 3.42222 10.8181 3.42222H9.18217C8.91904 3.42222 8.69709 3.22194 8.66446 2.95504L8.55034 2.02188ZM7.5045 2.06893C7.09497 2.09335 6.7373 2.12229 6.42916 2.15243C5.28318 2.2645 4.46245 3.20592 4.3971 4.34867C4.38452 4.56878 4.3718 4.81388 4.35945 5.08469L6.1188 6.5834C6.59459 6.98873 6.86972 7.58916 6.86972 8.22229C6.86972 8.8554 6.59459 9.45582 6.1188 9.86116L5.95574 10.0001L6.1188 10.139C6.59459 10.5443 6.86972 11.1447 6.86972 11.7778C6.86972 12.411 6.59459 13.0114 6.1188 13.4167L4.35945 14.9154C4.3718 15.1862 4.38452 15.4313 4.3971 15.6513C4.46245 16.7941 5.28318 17.7355 6.42916 17.8476C7.25174 17.928 8.42725 18 10.0001 18C11.573 18 12.7485 17.928 13.5711 17.8476C14.7171 17.7355 15.5378 16.7941 15.6032 15.6513C15.6158 15.4313 15.6284 15.1862 15.6408 14.9154L13.8815 13.4167C13.4057 13.0114 13.1306 12.411 13.1306 11.7778C13.1306 11.1447 13.4057 10.5443 13.8815 10.139L14.0446 10.0001L13.8815 9.86116C13.4057 9.45582 13.1306 8.8554 13.1306 8.22229C13.1306 7.58916 13.4057 6.98873 13.8815 6.5834L15.6408 5.08469C15.6284 4.81388 15.6158 4.56878 15.6032 4.34866C15.5378 3.20593 14.7171 2.2645 13.5711 2.15243C13.263 2.1223 12.9053 2.09335 12.4958 2.06893L12.3712 3.08735C12.2733 3.88803 11.6075 4.48889 10.8181 4.48889H9.18217C8.39278 4.48889 7.72694 3.88803 7.62902 3.08735L7.5045 2.06893ZM8.78276 16.0444C8.78276 15.7499 9.01632 15.5111 9.3045 15.5111H10.6958C10.9839 15.5111 11.2175 15.7499 11.2175 16.0444C11.2175 16.339 10.9839 16.5778 10.6958 16.5778H9.3045C9.01632 16.5778 8.78276 16.339 8.78276 16.0444ZM17.8388 5.98923C18.0848 6.29092 18.0449 6.73934 17.7497 6.99076L16.3041 8.22222L17.7497 9.45372C17.9083 9.58884 18 9.78898 18 10C18 10.2111 17.9083 10.4112 17.7497 10.5463L16.3041 11.7778L17.7497 13.0093C18.0449 13.2607 18.0848 13.7091 17.8388 14.0108C17.5929 14.3125 17.1542 14.3533 16.8591 14.1019L14.7721 12.3241C14.6135 12.189 14.5218 11.9888 14.5218 11.7778C14.5218 11.5668 14.6135 11.3666 14.7721 11.2315L16.2177 10L14.7721 8.76853C14.6135 8.63342 14.5218 8.43328 14.5218 8.22222C14.5218 8.0112 14.6135 7.81106 14.7721 7.67595L16.8591 5.89817C17.1542 5.64676 17.5929 5.6875 17.8388 5.98923ZM2.25038 6.99076C1.95524 6.73934 1.91536 6.29092 2.16132 5.98923C2.40727 5.6875 2.84593 5.64676 3.14107 5.89817L5.22802 7.67595C5.38663 7.81106 5.47831 8.0112 5.47831 8.22222C5.47831 8.43328 5.38663 8.63342 5.22802 8.76853L3.78237 10L5.22802 11.2315C5.38663 11.3666 5.47831 11.5668 5.47831 11.7778C5.47831 11.9888 5.38663 12.189 5.22802 12.3241L3.14107 14.1019C2.84593 14.3533 2.40727 14.3125 2.16132 14.0108C1.91536 13.7091 1.95524 13.2607 2.25038 13.0093L3.69604 11.7778L2.25038 10.5463C2.09178 10.4112 2.00008 10.2111 2.00008 10C2.00008 9.78898 2.09178 9.58884 2.25038 9.45372L3.69604 8.22222L2.25038 6.99076Z" fill="white" fill-opacity="0.44"/>
</svg>
