<svg width="20" height="20" viewBox="0 0 20 20" fill="none" xmlns="http://www.w3.org/2000/svg">
<path fill-rule="evenodd" clip-rule="evenodd" d="M11.6937 4.36603C11.6511 3.36017 11.1306 2.51008 10.3182 2.16008C9.45666 1.78892 8.48706 2.07125 7.82338 2.92315C7.58447 3.2298 7.35424 3.55183 7.13696 3.8809C6.71042 4.52693 6.00069 4.94475 5.22979 4.99292C4.79997 5.01978 4.43092 5.05695 4.10981 5.10107C2.56592 5.31316 1.4563 6.53643 1.2023 7.94141C1.08745 8.57666 0.999939 9.29558 0.999939 10C0.999939 10.7044 1.08745 11.4233 1.2023 12.0586C1.4563 13.4636 2.56592 14.6868 4.10981 14.8989C4.43092 14.943 4.79997 14.9802 5.22979 15.0071C6.00069 15.0552 6.71042 15.473 7.13696 16.1191C7.35424 16.4481 7.58447 16.7702 7.82338 17.0768C8.48706 17.9288 9.45666 18.211 10.3182 17.84C11.1306 17.4899 11.6511 16.6398 11.6937 15.634C11.7523 14.2517 11.7992 12.3964 11.7992 10C11.7992 7.60363 11.7523 5.74837 11.6937 4.36603ZM16.6549 4.66755C16.2492 4.32033 15.6287 4.35629 15.2689 4.74785C14.9092 5.13941 14.9465 5.7383 15.3521 6.08552C16.3169 6.91121 17.0364 8.2241 17.0364 9.9999C17.0364 11.7757 16.3169 13.0886 15.3521 13.9143C14.9465 14.2615 14.9092 14.8604 15.2689 15.2519C15.6287 15.6435 16.2492 15.6795 16.6549 15.3323C18.0505 14.1377 18.9999 12.3039 18.9999 9.9999C18.9999 7.69593 18.0505 5.86207 16.6549 4.66755ZM14.7497 8.01322C14.3484 7.66137 13.7275 7.69017 13.3629 8.07757C12.9984 8.46497 13.0282 9.06426 13.4296 9.41611C13.5432 9.51565 13.6594 9.69569 13.6594 10.0001C13.6594 10.3045 13.5432 10.4845 13.4296 10.584C13.0282 10.9359 12.9984 11.5352 13.3629 11.9226C13.7275 12.31 14.3484 12.3388 14.7497 11.9869C15.2838 11.5187 15.6228 10.8245 15.6228 10.0001C15.6228 9.17567 15.2838 8.48142 14.7497 8.01322Z" fill="white" fill-opacity="0.44"/>
</svg>
