<svg width="17" height="18" viewBox="0 0 17 18" fill="none" xmlns="http://www.w3.org/2000/svg">
<path d="M8.14095 0.00808158C8.15181 0.00718875 8.16267 0.00640893 8.17352 0.00574246C8.69618 -0.026629 9.31812 0.0801573 9.80422 0.268152C10.249 0.440136 10.6543 0.71269 11.0672 0.954703L12.8021 1.96958L14.2381 2.80265C14.673 3.05646 15.0384 3.2521 15.4239 3.58235C16.177 4.22744 16.6466 5.16578 16.6903 6.14388C16.7063 6.50148 16.6993 6.91183 16.6994 7.27561L16.6993 10.7777C16.6991 11.2316 16.7188 11.7138 16.6216 12.1565C16.4938 12.7388 16.1807 13.3662 15.7755 13.8142C15.5577 14.0589 15.3126 14.2792 15.0448 14.4709C14.7566 14.6776 14.3834 14.8923 14.0759 15.0773L12.7816 15.8638C12.1998 16.2268 11.6124 16.5812 11.0195 16.9268C10.6547 17.1433 10.3147 17.3716 9.91981 17.5361C9.48249 17.7183 9.0224 17.8064 8.54978 17.8349C7.97934 17.8723 7.39715 17.7711 6.86547 17.5694C6.44742 17.4108 6.06085 17.1478 5.6755 16.9189C5.12174 16.5971 4.57233 16.2682 4.02751 15.9322C3.46724 15.5974 2.91011 15.2577 2.35613 14.9131C2.00002 14.69 1.70955 14.5272 1.38559 14.2555C0.596128 13.606 0.104166 12.6762 0.0184856 11.6717C-0.0073772 11.3342 0.00126611 10.9764 0.00184509 10.6366L0.00250203 7.24629C0.00338157 6.70478 -0.0208447 6.10269 0.0984115 5.5758C0.237172 4.96777 0.52525 4.40179 0.937822 3.92662C1.42419 3.37639 1.97481 3.09378 2.60036 2.72807L4.30751 1.7348L5.81145 0.852133C6.00652 0.737943 6.20003 0.621748 6.39496 0.507521C6.92858 0.194836 7.52551 0.0514812 8.14095 0.00808158Z" fill="#1E52A6"/>
<path d="M2.17653 3.34827C2.37664 3.29435 2.55829 3.14651 2.73074 3.03648C2.80546 2.9888 2.95806 2.93784 3.03975 2.88511C3.16198 2.80621 3.25475 2.73696 3.38266 2.66298L4.11329 2.24824C4.29757 2.1446 4.47389 2.05854 4.64078 1.92693C4.69391 1.9229 4.70647 1.92021 4.7435 1.88254C4.87778 1.746 5.06353 1.71439 5.22807 1.62732C5.27589 1.60318 5.32263 1.52316 5.36644 1.50057C5.67795 1.3399 5.98569 1.16769 6.27566 0.972257C6.33832 0.930015 6.43343 0.899537 6.50069 0.860497C6.60532 0.799773 6.71179 0.742789 6.8215 0.691144C7.32461 0.408637 7.93039 0.359312 8.49896 0.36237C8.76191 0.360947 9.03877 0.368722 9.29018 0.453017C9.40969 0.493091 9.48712 0.468284 9.58655 0.514986C9.74693 0.590342 9.90562 0.672682 10.0651 0.751162C10.4281 0.929892 10.7303 1.20973 11.1146 1.35349C11.1479 1.36596 11.2139 1.46773 11.2588 1.48202C11.4412 1.58101 11.638 1.65639 11.8189 1.75985C11.9147 1.82244 12.002 1.89866 12.1038 1.95305C12.3637 2.09191 12.6095 2.23646 12.8515 2.40359C12.8933 2.41747 12.9402 2.43026 12.9772 2.45263C13.1168 2.52294 13.2656 2.61128 13.3988 2.69384C13.4776 2.74273 13.556 2.80557 13.6372 2.85173L14.3475 3.26081C14.5598 3.38048 14.7797 3.49379 14.9741 3.64062C15.1064 3.74057 15.2187 3.87127 15.3402 3.98302C15.5161 4.1449 15.6563 4.30313 15.7634 4.51673C15.7989 4.5867 15.908 4.65774 15.9039 4.75071C15.9051 4.78139 15.9128 4.80306 15.9279 4.83009L15.9121 4.83185C15.8789 4.79253 15.9013 4.70461 15.8586 4.6843C15.8608 4.69344 15.8631 4.70687 15.868 4.71361C15.894 4.74941 15.8455 5.02019 15.8546 5.04C15.8709 5.07573 15.9355 5.21305 15.9561 5.27102C16.051 5.53631 16.1136 5.81161 16.1426 6.09119C16.1579 6.24107 16.1427 6.37965 16.1465 6.52671C16.1622 7.13434 16.1535 7.74995 16.154 8.35915L16.1586 10.4488C16.1586 10.5678 16.1587 10.6878 16.1586 10.8059C16.1581 11.2636 16.1784 11.7276 16.0442 12.1718C16.0417 12.1799 16.0372 12.1823 16.031 12.1882C15.9601 12.3749 15.8881 12.5988 15.8051 12.7745C15.6042 13.187 15.2991 13.5711 14.9529 13.8801C14.5585 14.2319 14.0277 14.4734 13.5887 14.7729C13.385 14.9119 13.1382 15.0404 12.927 15.1701L11.2657 16.1795C11.0718 16.2955 10.8866 16.4216 10.6856 16.5318C10.3717 16.7039 10.0812 16.9317 9.74265 17.0653C8.91348 17.3925 7.85445 17.3983 7.01909 17.0885C6.68228 16.9636 6.31334 16.6988 6.00816 16.5169L4.33406 15.5143L2.74977 14.5352C2.35046 14.2857 1.94313 14.0835 1.60773 13.753C1.01731 13.1686 0.650902 12.4036 0.570085 11.5866C0.534692 11.2054 0.553937 10.6271 0.553556 10.2335L0.563213 8.02316C0.539355 7.85991 0.555125 7.50058 0.553417 7.32448C0.548587 6.82723 0.536343 6.34276 0.583084 5.84704C0.54941 5.82028 0.520488 5.79828 0.489769 5.76796L0.504112 5.76265C0.550867 5.76946 0.539934 5.80622 0.583098 5.81084C0.589371 5.80463 0.595641 5.79841 0.601911 5.7922C0.620475 5.69547 0.654438 5.5629 0.677588 5.47232C0.672911 5.46495 0.668234 5.45753 0.663557 5.45015C0.660392 5.44477 0.657223 5.43938 0.654054 5.434C0.639203 5.40674 0.649438 5.35133 0.653152 5.32131C0.664316 5.2311 0.66499 5.1372 0.700526 5.05223C0.735742 4.96235 0.789553 4.88779 0.83968 4.80576C0.845824 4.79572 0.903985 4.68646 0.902185 4.68762C0.959171 4.65096 1.03987 4.61619 1.05357 4.54329C1.05955 4.51148 1.07694 4.49609 1.08227 4.46567C1.07822 4.33959 1.10318 4.29871 1.14895 4.18187C1.17788 4.14168 1.39598 3.92462 1.43742 3.89972C1.5958 3.80459 1.72669 3.66877 1.87322 3.56533C2.01213 3.46723 2.04825 3.49742 2.17653 3.34827Z" fill="#34B2F0"/>
<path d="M2.17653 3.34827C2.37664 3.29435 2.55829 3.14651 2.73074 3.03648C2.80546 2.9888 2.95806 2.93784 3.03975 2.88511C3.16198 2.80621 3.25475 2.73696 3.38266 2.66298L4.11329 2.24824C4.29757 2.1446 4.47389 2.05854 4.64078 1.92693C4.69391 1.9229 4.70647 1.92021 4.7435 1.88254C4.87778 1.746 5.06353 1.71439 5.22807 1.62732C5.27589 1.60318 5.32263 1.52316 5.36644 1.50057C5.67795 1.3399 5.98569 1.16769 6.27566 0.972257C6.33832 0.930015 6.43343 0.899537 6.50069 0.860497C6.60532 0.799773 6.71179 0.742789 6.8215 0.691144C7.32461 0.408637 7.93039 0.359312 8.49896 0.36237C8.76191 0.360947 9.03877 0.368722 9.29018 0.453017C9.40969 0.493091 9.48712 0.468284 9.58655 0.514986C9.74693 0.590342 9.90562 0.672682 10.0651 0.751162C10.4281 0.929892 10.7303 1.20973 11.1146 1.35349C11.1479 1.36596 11.2139 1.46773 11.2588 1.48202C11.4412 1.58101 11.638 1.65639 11.8189 1.75985C11.9147 1.82244 12.002 1.89866 12.1038 1.95305C12.3637 2.09191 12.6095 2.23646 12.8515 2.40359C12.8933 2.41747 12.9402 2.43026 12.9772 2.45263C13.1168 2.52294 13.2656 2.61128 13.3988 2.69384C13.4776 2.74273 13.556 2.80557 13.6372 2.85173L14.3475 3.26081C14.5598 3.38048 14.7797 3.49379 14.9741 3.64062C15.1064 3.74057 15.2187 3.87127 15.3402 3.98302C15.5161 4.1449 15.6563 4.30313 15.7634 4.51673C15.7989 4.5867 15.908 4.65774 15.9039 4.75071C15.9051 4.78139 15.9128 4.80306 15.9279 4.83009L15.9121 4.83185C15.8789 4.79253 15.9013 4.70461 15.8586 4.6843C15.8608 4.69344 15.8631 4.70687 15.868 4.71361C15.894 4.74941 15.8455 5.02019 15.8546 5.04C15.8709 5.07573 15.9355 5.21305 15.9561 5.27102C16.051 5.53631 16.1136 5.81161 16.1426 6.09119C16.1579 6.24107 16.1427 6.37965 16.1465 6.52671C16.1622 7.13434 16.1535 7.74995 16.154 8.35915L16.1586 10.4488C16.1586 10.5678 16.1587 10.6878 16.1586 10.8059C16.1581 11.2636 16.1784 11.7276 16.0442 12.1718C16.0417 12.1799 16.0372 12.1823 16.031 12.1882C16.0324 12.1533 16.0573 12.054 16.0657 12.0167C16.1658 11.5747 16.1423 11.1234 16.1423 10.6708L16.1343 8.86786L16.1362 7.23749C16.1386 6.77122 16.1608 6.20743 16.0713 5.7547C15.9595 5.20331 15.7139 4.72275 15.3603 4.28548C15.003 3.84358 14.6554 3.6598 14.1781 3.3739C13.3994 2.90743 12.6116 2.45598 11.8259 2.00026L10.5515 1.24939C10.3234 1.1165 10.0876 0.972493 9.84973 0.859918C9.04551 0.477498 8.05177 0.437626 7.20841 0.721269C6.95445 0.806694 6.70216 0.926884 6.47774 1.07345C6.40133 1.12336 6.32195 1.17414 6.24275 1.21989L4.70695 2.12444C4.61549 2.17732 4.51514 2.22202 4.42559 2.27649C3.93694 2.57362 3.43671 2.85321 2.93927 3.13638C2.83677 3.19473 2.73869 3.26999 2.6352 3.3257C2.12859 3.59843 1.66593 3.9095 1.30293 4.35685C0.928217 4.82756 0.660633 5.40049 0.588813 5.99473C0.56149 6.2208 0.572331 6.48931 0.572192 6.71747L0.568489 7.49666C0.568209 7.6496 0.575994 7.86749 0.564173 8.01248L0.563213 8.02316C0.539355 7.85991 0.555125 7.50058 0.553417 7.32448C0.548587 6.82723 0.536343 6.34276 0.583084 5.84704C0.54941 5.82028 0.520488 5.79828 0.489769 5.76796L0.504112 5.76265C0.550867 5.76946 0.539934 5.80622 0.583098 5.81084C0.589371 5.80463 0.595641 5.79841 0.601911 5.7922C0.620475 5.69547 0.654438 5.5629 0.677588 5.47232C0.672911 5.46495 0.668234 5.45753 0.663557 5.45015C0.660392 5.44477 0.657223 5.43938 0.654054 5.434C0.639203 5.40674 0.649438 5.35133 0.653152 5.32131C0.664316 5.2311 0.66499 5.1372 0.700526 5.05223C0.735742 4.96235 0.789553 4.88779 0.83968 4.80576C0.845824 4.79572 0.903985 4.68646 0.902185 4.68762C0.959171 4.65096 1.03987 4.61619 1.05357 4.54329C1.05955 4.51148 1.07694 4.49609 1.08227 4.46567C1.07822 4.33959 1.10318 4.29871 1.14895 4.18187C1.17788 4.14168 1.39598 3.92462 1.43742 3.89972C1.5958 3.80459 1.72669 3.66877 1.87322 3.56533C2.01213 3.46723 2.04825 3.49742 2.17653 3.34827Z" fill="#2A7ED3"/>
<path d="M12.8515 2.40359C12.8933 2.41747 12.9402 2.43026 12.9772 2.45263L12.9625 2.46237C12.9536 2.49088 12.9611 2.48969 12.9773 2.52605C12.97 2.55567 12.9778 2.5439 12.9525 2.56233C12.9225 2.55845 12.936 2.56403 12.9122 2.542C12.8998 2.49007 12.8875 2.44468 12.8515 2.40359Z" fill="#2E88E3"/>
<path d="M1.40477 4.56357C1.46748 4.11333 2.46936 3.60894 2.84587 3.38297C3.59656 2.93239 4.36466 2.50182 5.12323 2.06377L6.32774 1.36471C6.5852 1.21348 6.76496 1.07567 7.04315 0.961906C7.47598 0.784881 7.92923 0.709921 8.39641 0.697722C8.49433 0.695166 8.69792 0.682126 8.78866 0.71742L8.82049 0.729087C9.01924 0.741021 9.54206 0.899212 9.72627 0.988233C9.90178 1.07305 10.1642 1.23653 10.3428 1.34031L13.744 3.31808C14.2108 3.59258 14.7283 3.8234 15.0899 4.22511C15.1452 4.28661 15.3134 4.50686 15.3403 4.58092C15.4141 4.67279 15.4703 4.78827 15.5241 4.89198C15.6791 5.19045 15.8082 5.49722 15.8561 5.83139C15.9099 6.2067 15.8856 6.62078 15.8871 7.00464L15.8897 9.17892L15.8893 10.6839L15.8883 11.1662C15.888 11.2382 15.8882 11.361 15.8829 11.4273C15.8713 11.5722 15.6217 11.7152 15.5389 11.8086C15.567 11.7943 15.5954 11.7806 15.6242 11.7676C15.5315 11.8324 15.4357 11.9028 15.3403 11.9655C15.3253 11.9753 15.2975 12.1231 15.2886 12.1497C15.233 12.2988 15.159 12.506 15.0589 12.63C15.0292 12.6667 15.0104 12.6764 14.992 12.7191C15.0025 12.7322 15.0091 12.7405 15.0188 12.7543C14.9505 12.8179 14.9535 12.7743 14.8891 12.8778C14.7834 13.0476 14.1509 13.7395 13.9743 13.7446L13.9381 13.7306L13.9247 13.7387C13.933 13.7521 13.9365 13.7574 13.9465 13.7696C13.892 13.8488 13.6467 13.9705 13.5483 14.0282C13.5918 14.0981 13.4706 14.2027 13.382 14.1355L13.3754 14.1331C13.2332 14.233 13.0578 14.3192 12.9092 14.413C12.7058 14.5416 12.5071 14.6804 12.2958 14.7969C12.2381 14.8288 12.1738 14.8493 12.1135 14.8749C12.0665 14.9391 12.0188 14.9612 11.9863 15.0015C11.9298 15.0313 11.9005 15.0583 11.8364 15.0395C11.8057 14.9978 11.6512 14.9593 11.5923 14.9831C11.5402 15.0478 11.6356 15.1479 11.6828 15.1941C11.6036 15.2225 11.5078 15.2863 11.4361 15.3325C11.2059 15.4806 10.9713 15.6186 10.7341 15.7557C10.6437 15.808 10.6118 15.8739 10.5044 15.8954L10.4911 15.9013C10.4667 15.9242 10.4528 15.9359 10.4258 15.9556C10.399 15.9708 10.3946 15.9808 10.3778 15.9921C10.1961 16.1139 9.8935 16.3074 9.68839 16.3773C9.13735 16.565 8.47303 16.6604 7.8906 16.5952L7.88042 16.5836C7.90721 16.5755 7.96844 16.5868 7.99894 16.5901C8.21924 16.6135 8.4394 16.5961 8.65972 16.5806C8.64431 16.5778 8.61612 16.5773 8.60727 16.5626C8.55635 16.4782 8.31992 15.8943 8.21158 15.9139C8.19306 15.9418 8.19384 15.9726 8.1901 16.0067C8.07383 16.1344 8.00184 16.2929 7.93175 16.4477C7.91218 16.491 7.89502 16.5167 7.86524 16.5534C7.76483 16.5449 7.6619 16.5151 7.56417 16.4995C7.09179 16.424 6.86684 16.3021 6.47179 16.0682C6.42894 16.0376 6.33462 15.985 6.28591 15.9558C6.15721 15.8834 6.02929 15.7925 5.90209 15.7177C5.60937 15.5456 5.3229 15.3561 5.02537 15.1928C4.99937 15.2361 4.96781 15.2343 4.92397 15.2134L4.91618 15.2037C4.87121 15.1621 4.69708 15.0789 4.71049 15.0149L4.7338 15.0078C4.64779 14.9665 4.56283 14.9006 4.47998 14.8544C4.30496 14.7571 4.14348 14.6537 3.97503 14.5457C4.03173 14.4906 4.09235 14.4015 4.0318 14.3296C3.94613 14.2909 3.85521 14.39 3.79976 14.4443C3.58141 14.3169 3.36476 14.1678 3.15077 14.0421C2.78831 13.8291 2.48224 13.6068 2.19179 13.3053C2.09521 13.205 1.96365 13.1141 1.88001 12.9964C1.71594 12.7656 1.56574 12.51 1.46194 12.2475C1.46124 12.2458 1.38686 11.9671 1.38697 11.9731C1.40652 11.9474 1.4032 11.9554 1.44559 11.9465C1.40903 11.9461 1.39296 11.947 1.36226 11.9321C1.24482 11.8669 0.852254 11.6012 0.833962 11.4593C0.804788 11.2328 0.819121 10.7605 0.819836 10.5234L0.819969 8.7457L0.81694 6.91206C0.814254 5.75178 0.800894 5.56866 1.40477 4.56357Z" fill="#45ECE7"/>
<path d="M1.40477 4.56357C1.46748 4.11333 2.46936 3.60894 2.84587 3.38297C3.59656 2.93239 4.36466 2.50182 5.12323 2.06377L6.32774 1.36471C6.5852 1.21348 6.76496 1.07567 7.04315 0.961906C7.47598 0.784881 7.92923 0.709921 8.39641 0.697722C8.49433 0.695166 8.69792 0.682126 8.78866 0.71742L8.82049 0.729087C9.01924 0.741021 9.54206 0.899212 9.72627 0.988233C9.90178 1.07305 10.1642 1.23653 10.3428 1.34031L13.744 3.31808C14.2108 3.59258 14.7283 3.8234 15.0899 4.22511C15.1452 4.28661 15.3134 4.50686 15.3403 4.58092L15.3346 4.58467C15.286 4.55227 15.2707 4.55469 15.212 4.54435L15.2139 4.55911C15.2431 4.77584 15.4248 5.25826 15.3161 5.46684L15.2978 5.47857C15.2263 5.46375 15.1249 5.19277 15.0081 5.13218C14.9503 5.17632 14.8295 5.21229 14.7535 5.24243C14.4093 5.37899 14.0337 5.4708 13.7049 5.63996C13.6633 5.66133 13.6051 5.72389 13.5716 5.75753C13.5738 5.78076 13.5798 5.81749 13.5738 5.83817C13.5545 5.65751 13.2239 5.38274 13.0812 5.26005C13.0777 5.26105 13.0739 5.26141 13.0707 5.26301C13.0618 5.26736 13.0548 5.27481 13.0459 5.27913C13.0053 5.29894 12.9275 5.29881 12.8824 5.30426C12.6555 5.33165 12.4319 5.27415 12.2328 5.16831C12.1469 5.12267 12.0552 5.06825 11.9593 5.04672C11.8767 5.02817 11.7617 5.05396 11.6767 5.06041C11.4369 5.07859 11.2786 5.09295 11.122 5.29153C11.0728 5.35406 11.0297 5.42087 10.9757 5.47994C10.9036 5.55898 10.8026 5.62363 10.7175 5.69018C10.6628 5.73303 10.6025 5.7922 10.5415 5.82434C10.4679 5.86306 9.67174 5.96269 9.53256 5.97266C9.4038 5.98187 9.27387 5.97565 9.14552 5.98642C9.01876 5.99706 8.89605 6.02278 8.76786 6.02012C8.61881 6.017 8.47919 5.98905 8.33211 5.97186C8.17189 5.95318 8.01947 5.94999 7.86197 5.90767C7.6282 5.84485 7.43547 5.75331 7.22546 5.63706C7.18911 5.61695 7.17069 5.57414 7.12978 5.56257L7.11599 5.57467C7.01582 5.46986 6.93202 5.37719 6.85121 5.25729C6.82582 5.21963 6.7155 5.12417 6.67438 5.09654C6.648 5.12227 6.57758 5.0277 6.54592 5.03206C6.49395 5.0392 6.54494 5.05832 6.46828 5.06443C6.44963 5.05183 6.39742 5.00314 6.39299 5.00154C6.29132 4.96471 6.2387 4.97405 6.1859 4.86828C6.17436 4.84518 5.97238 4.74695 5.9506 4.76145C5.85778 4.82317 5.65041 4.98741 5.53785 4.99177L5.5291 4.9702C5.52151 4.96857 5.51392 4.96694 5.50633 4.96531C5.41664 5.00949 5.27783 5.07623 5.18018 5.10027C5.06904 5.12393 4.97408 5.13829 4.86162 5.1611C4.69177 5.19553 4.44907 5.27331 4.27691 5.24622C4.20346 5.23466 4.01979 5.03671 3.95212 5.01098C3.6955 5.1833 3.24369 5.52129 3.1656 5.82078L3.1638 5.80682C2.97713 5.54751 2.55915 5.47475 2.27102 5.36659C2.07996 5.29485 1.88683 5.22914 1.69883 5.14989C1.59066 5.27358 1.48983 5.43134 1.43047 5.58252C1.41268 5.53997 1.36055 5.41585 1.34963 5.37875C1.2837 5.15471 1.46991 4.65887 1.58411 4.46594C1.50518 4.49446 1.47498 4.51803 1.40477 4.56357Z" fill="url(#paint0_linear_279_100221)"/>
<path d="M3.95212 5.01098C4.14651 4.86802 4.3374 4.74336 4.54411 4.61363C5.45721 4.04053 6.42414 3.50416 7.41281 3.06586C7.67299 2.9505 7.92699 2.8783 8.19807 2.79777C8.2353 2.78729 8.31162 2.73586 8.32881 2.70081C8.35076 2.7003 8.53127 2.81134 8.58634 2.82589C9.12329 2.96773 9.60156 3.19891 10.093 3.44539C10.6639 3.73033 11.2221 4.03883 11.7661 4.37014C12.2562 4.66631 12.636 4.87972 13.0812 5.26005C13.0777 5.26105 13.0739 5.26141 13.0707 5.26301C13.0618 5.26736 13.0548 5.27481 13.0459 5.27913C13.0053 5.29894 12.9275 5.29881 12.8824 5.30426C12.6555 5.33165 12.4319 5.27415 12.2328 5.16831C12.1469 5.12267 12.0552 5.06825 11.9593 5.04672C11.8767 5.02817 11.7617 5.05396 11.6767 5.06041C11.4369 5.07859 11.2786 5.09295 11.122 5.29153C11.0728 5.35406 11.0297 5.42087 10.9757 5.47994C10.9036 5.55898 10.8026 5.62363 10.7175 5.69018C10.6628 5.73303 10.6025 5.7922 10.5415 5.82434C10.4679 5.86306 9.67174 5.96269 9.53256 5.97266C9.4038 5.98187 9.27387 5.97565 9.14552 5.98642C9.01876 5.99706 8.89605 6.02278 8.76786 6.02012C8.61881 6.017 8.47919 5.98905 8.33211 5.97186C8.17189 5.95318 8.01947 5.94999 7.86197 5.90767C7.6282 5.84485 7.43547 5.75331 7.22546 5.63706C7.18911 5.61695 7.17069 5.57414 7.12978 5.56257L7.11599 5.57467C7.01582 5.46986 6.93202 5.37719 6.85121 5.25729C6.82582 5.21963 6.7155 5.12417 6.67438 5.09654C6.648 5.12227 6.57758 5.0277 6.54592 5.03206C6.49395 5.0392 6.54494 5.05832 6.46828 5.06443C6.44963 5.05183 6.39742 5.00314 6.39299 5.00154C6.29132 4.96471 6.2387 4.97405 6.1859 4.86828C6.17436 4.84518 5.97238 4.74695 5.9506 4.76145C5.85778 4.82317 5.65041 4.98741 5.53785 4.99177L5.5291 4.9702C5.52151 4.96857 5.51392 4.96694 5.50633 4.96531C5.41664 5.00949 5.27783 5.07623 5.18018 5.10027C5.06904 5.12393 4.97408 5.13829 4.86162 5.1611C4.69177 5.19553 4.44907 5.27331 4.27691 5.24622C4.20346 5.23466 4.01979 5.03671 3.95212 5.01098Z" fill="#F3FED3"/>
<path d="M1.40477 4.56357C1.46748 4.11333 2.46936 3.60894 2.84587 3.38297C3.59656 2.93239 4.36466 2.50182 5.12323 2.06377L6.32774 1.36471C6.5852 1.21348 6.76496 1.07567 7.04315 0.961906C7.47598 0.784881 7.92923 0.709921 8.39641 0.697722C8.49433 0.695166 8.69792 0.682126 8.78866 0.71742L8.82049 0.729087C9.01924 0.741021 9.54206 0.899212 9.72627 0.988233C9.90178 1.07305 10.1642 1.23653 10.3428 1.34031L13.744 3.31808C14.2108 3.59258 14.7283 3.8234 15.0899 4.22511C15.1452 4.28661 15.3134 4.50686 15.3403 4.58092L15.3346 4.58467C15.286 4.55227 15.2707 4.55469 15.212 4.54435L15.2139 4.55911C15.2431 4.77584 15.4248 5.25826 15.3161 5.46684L15.2978 5.47857C15.2263 5.46375 15.1249 5.19277 15.0081 5.13218C14.9548 5.05486 14.9004 4.95723 14.8423 4.8859C14.6041 4.59372 14.2781 4.32959 13.9502 4.13882C13.4242 3.83288 12.8911 3.54465 12.3726 3.22711C12.2446 3.14868 12.0968 3.08683 11.9677 3.00877C11.8559 2.94181 11.7462 2.87227 11.6338 2.80658L10.7898 2.32187C10.6196 2.22378 10.4528 2.1217 10.2776 2.03153C10.2117 1.98825 10.1374 1.95954 10.0718 1.91897C9.02022 1.26952 7.60866 1.29903 6.56025 1.96777C6.3804 2.05513 6.19087 2.18518 6.0185 2.26758C5.84236 2.35915 5.68942 2.45968 5.51852 2.55215C5.43965 2.58601 5.23328 2.71572 5.14699 2.7651L4.09991 3.37692L3.18786 3.89534C2.98209 4.00965 2.64854 4.19114 2.46525 4.32666C2.22713 4.5027 1.95277 4.8007 1.76559 5.02946C1.73654 5.06493 1.7257 5.11473 1.69883 5.14989C1.59066 5.27358 1.48983 5.43134 1.43047 5.58252C1.41268 5.53997 1.36055 5.41585 1.34963 5.37875C1.2837 5.15471 1.46991 4.65887 1.58411 4.46594C1.50518 4.49446 1.47498 4.51803 1.40477 4.56357Z" fill="url(#paint1_linear_279_100221)"/>
<path d="M1.40477 4.56357C1.46748 4.11333 2.46936 3.60894 2.84587 3.38297C3.59656 2.93239 4.36466 2.50182 5.12323 2.06377L6.32774 1.36471C6.5852 1.21348 6.76496 1.07567 7.04315 0.961906C7.47598 0.784881 7.92923 0.709921 8.39641 0.697722C8.49433 0.695166 8.69792 0.682126 8.78866 0.71742L8.82049 0.729087L8.81048 0.729593C8.76769 0.731398 8.65125 0.721908 8.6314 0.728256C8.65397 0.740449 8.6666 0.738701 8.69356 0.741932C8.67855 0.748806 8.60298 0.764086 8.58392 0.766064C8.47987 0.758964 8.36754 0.758083 8.2625 0.755527C7.8793 0.78655 7.6041 0.818823 7.23533 0.962471C6.9439 1.076 6.74985 1.22986 6.48799 1.38141L5.29938 2.05667L3.43814 3.13609C3.11765 3.32124 2.7995 3.51025 2.48377 3.70304C2.15319 3.9085 1.95757 4.0276 1.69579 4.32789C1.65688 4.37257 1.61963 4.41864 1.58411 4.46594C1.50518 4.49446 1.47498 4.51803 1.40477 4.56357Z" fill="url(#paint2_linear_279_100221)"/>
<path d="M8.2625 0.755527C8.29926 0.744086 8.34205 0.74141 8.38082 0.737354L8.35542 0.737414C8.54066 0.709655 8.60234 0.714552 8.78866 0.71742L8.82049 0.729087L8.81048 0.729593C8.76769 0.731398 8.65125 0.721908 8.6314 0.728256C8.65397 0.740449 8.6666 0.738701 8.69356 0.741932C8.67855 0.748806 8.60298 0.764086 8.58392 0.766064C8.47987 0.758964 8.36754 0.758083 8.2625 0.755527Z" fill="#45ECE7"/>
<path d="M8.58392 0.766064C8.60298 0.764086 8.67855 0.748806 8.69356 0.741932C8.6666 0.738701 8.65397 0.740449 8.6314 0.728256C8.65125 0.721908 8.76769 0.731398 8.81048 0.729593L8.82049 0.729087C9.01924 0.741021 9.54206 0.899212 9.72627 0.988233C9.90178 1.07305 10.1642 1.23653 10.3428 1.34031L13.744 3.31808C14.2108 3.59258 14.7283 3.8234 15.0899 4.22511C15.1452 4.28661 15.3134 4.50686 15.3403 4.58092L15.3346 4.58467C15.286 4.55227 15.2707 4.55469 15.212 4.54435C15.1966 4.5162 15.1692 4.48113 15.1485 4.45577C14.9929 4.26497 14.8089 4.07926 14.6075 3.93483C14.5124 3.86672 14.4062 3.81057 14.3061 3.75151L13.8788 3.49645L12.2795 2.56402L10.4936 1.53039C10.3466 1.44709 10.1999 1.36305 10.0538 1.27829C9.92291 1.201 9.77641 1.10445 9.63723 1.04485C9.45421 0.966493 9.22132 0.875993 9.02791 0.831079C8.90466 0.802466 8.71429 0.782594 8.58392 0.766064Z" fill="url(#paint3_linear_279_100221)"/>
<path d="M6.56025 1.96777C7.60866 1.29903 9.02022 1.26952 10.0718 1.91897C10.1374 1.95954 10.2117 1.98825 10.2776 2.03153L10.276 2.04308C10.2252 2.03556 9.94796 1.86144 9.88309 1.83534C9.86648 1.85035 9.87005 1.90393 9.85293 1.94358C9.73148 2.05859 9.67719 2.03497 9.56773 1.98054C9.51844 1.95604 9.27918 1.94958 9.23248 1.97106C9.12707 2.01955 8.99772 1.98942 8.88288 2.00475C8.79155 1.99546 8.68556 2.06975 8.59907 2.05872C8.37792 2.0305 8.13397 1.86059 7.91259 1.87092C7.87126 1.87285 7.78423 1.91905 7.73797 1.92267C7.67681 1.92748 7.62398 1.92358 7.56455 1.93092C7.53432 2.002 7.41886 2.00412 7.348 2.00245C7.31607 2.01943 7.17233 2.09818 7.1374 2.09802C6.96599 2.09351 6.76159 2.07449 6.61009 1.99316C6.58847 1.98158 6.5881 1.9777 6.56025 1.96777Z" fill="#95FCDC"/>
<path d="M5.51852 2.55215C5.68942 2.45968 5.84236 2.35915 6.0185 2.26758L6.01343 2.30299L6.04121 2.33535C6.0073 2.43905 5.70991 2.60215 5.59796 2.57463C5.58738 2.5597 5.58302 2.55407 5.56716 2.54453L5.51852 2.55215Z" fill="#95FCDC"/>
<path d="M3.95212 5.01098C4.01979 5.03671 4.20346 5.23466 4.27691 5.24622C4.44907 5.27331 4.69177 5.19553 4.86162 5.1611C4.97408 5.13829 5.06904 5.12393 5.18018 5.10027C5.27783 5.07623 5.41664 5.00949 5.50633 4.96531C5.51392 4.96694 5.52151 4.96857 5.5291 4.9702L5.53785 4.99177C5.65041 4.98741 5.85778 4.82317 5.9506 4.76145C5.97238 4.74695 6.17436 4.84518 6.1859 4.86828C6.2387 4.97405 6.29132 4.96471 6.39299 5.00154C6.39742 5.00314 6.44963 5.05183 6.46828 5.06443C6.54494 5.05832 6.49395 5.0392 6.54592 5.03206C6.57758 5.0277 6.648 5.12227 6.67438 5.09654C6.7155 5.12417 6.82582 5.21963 6.85121 5.25729C6.93202 5.37719 7.01582 5.46986 7.11599 5.57467L7.12978 5.56257C7.17069 5.57414 7.18911 5.61695 7.22546 5.63706C7.43547 5.75331 7.6282 5.84485 7.86197 5.90767C8.01947 5.94999 8.17189 5.95318 8.33211 5.97186C8.47919 5.98905 8.61881 6.017 8.76786 6.02012C8.89605 6.02278 9.01876 5.99706 9.14552 5.98642C9.27387 5.97565 9.4038 5.98187 9.53256 5.97266C9.67174 5.96269 10.4679 5.86306 10.5415 5.82434C10.6025 5.7922 10.6628 5.73303 10.7175 5.69018C10.8026 5.62363 10.9036 5.55898 10.9757 5.47994C11.0297 5.42087 11.0728 5.35406 11.122 5.29153C11.2786 5.09295 11.4369 5.07859 11.6767 5.06041C11.7617 5.05396 11.8767 5.02817 11.9593 5.04672C12.0552 5.06825 12.1469 5.12267 12.2328 5.16831C12.4319 5.27415 12.6555 5.33165 12.8824 5.30426C12.9275 5.29881 13.0053 5.29894 13.0459 5.27913C13.0548 5.27481 13.0618 5.26736 13.0707 5.26301C13.0739 5.26141 13.0777 5.26105 13.0812 5.26005C13.2239 5.38274 13.5545 5.65751 13.5738 5.83817C13.569 6.01025 13.6133 6.19062 13.6313 6.36187C13.7136 7.14734 13.6906 7.95059 13.6908 8.73962C13.6958 9.22174 13.6848 9.70389 13.6577 10.1853C13.6482 10.3346 13.6445 10.4931 13.6206 10.6402C13.6162 10.6677 13.6133 10.6853 13.6104 10.7137C13.5892 10.6973 13.6378 10.3436 13.6407 10.289C13.6582 9.95891 13.6777 9.6282 13.677 9.29749C13.6769 9.24936 13.6852 9.16523 13.6576 9.13069L13.657 9.19843L13.6483 9.20408C13.6078 9.08422 13.6643 8.52598 13.6109 8.46685C13.5723 8.4971 13.6213 8.55487 13.5501 8.60177C13.438 8.62717 13.3978 8.50733 13.3153 8.50797C13.0392 8.51009 12.7735 8.53609 12.503 8.46462C12.4589 8.45299 12.3227 8.4973 12.2686 8.47695C12.3339 8.38232 12.9871 8.53911 13.1692 8.48363L13.1599 8.46595L13.1617 8.45299L13.148 8.44511C13.1494 8.45205 13.1414 8.41729 13.144 8.4232C13.1107 8.34798 12.9715 8.2913 12.8917 8.30909C12.854 8.31507 12.8189 8.32102 12.7816 8.33053C12.6425 8.36596 12.4926 8.34499 12.3499 8.36969C12.3498 8.36972 12.2955 8.4122 12.2908 8.4122C12.2475 8.41213 12.2038 8.41077 12.1608 8.41689C12.1005 8.42879 12.0119 8.47167 11.9527 8.47871C11.9006 8.4849 11.8116 8.4854 11.7573 8.48543C11.6206 8.4855 11.4611 8.53034 11.3411 8.592C11.2231 8.6516 11.1356 8.74414 11.038 8.82897C11.0035 8.85902 10.9241 8.8645 10.8894 8.89801C10.8843 8.90193 10.8792 8.90585 10.8741 8.90977C10.8031 8.89365 10.6384 8.9949 10.5337 9.01312C10.4347 9.03034 10.1698 9.02292 10.1062 9.07677L10.1119 9.1047C10.1363 9.13618 10.1704 9.13298 10.2054 9.15299C10.4202 9.27592 10.6552 9.36916 10.8506 9.52196C10.8755 9.54144 10.9349 9.55593 10.9653 9.57531C11.1403 9.68687 11.3245 9.75611 11.5168 9.83203C11.5545 9.84689 11.5858 9.87235 11.6201 9.88614C11.7192 9.92587 11.829 9.93444 11.9154 10.0011L11.9151 10.013C11.8831 10.0125 11.8589 9.98104 11.8269 9.97051C11.506 9.86444 11.1789 9.71678 10.8812 9.55883C10.7855 9.50803 10.6861 9.43331 10.5882 9.37993C10.2741 9.20877 9.95038 9.06288 9.62535 8.91346C9.41346 8.81604 9.20195 8.70382 8.98683 8.61058C8.93533 8.59432 8.87924 8.59057 8.82644 8.57824C8.76231 8.56328 8.67273 8.48091 8.61439 8.46954C8.47582 8.44255 8.39865 8.43956 8.27244 8.37111C8.24082 8.39515 8.20981 8.41981 8.17356 8.4368C8.04418 8.5079 7.88328 8.53579 7.75132 8.59186C7.56703 8.67015 7.36212 8.73297 7.18043 8.80879C6.95336 8.9141 6.74246 9.068 6.54102 9.21436C6.37073 9.33811 6.27811 9.31916 6.08777 9.38757C5.90989 9.45146 5.73565 9.55191 5.55967 9.62408C5.66281 9.55062 5.97388 9.41353 6.09734 9.36746C6.20068 9.33525 6.34922 9.31551 6.44221 9.25953C6.67462 9.11955 6.88059 8.91562 7.13495 8.80706L7.14425 8.80321L7.14207 8.78536C7.03093 8.66968 6.93791 8.73324 6.79348 8.70199C6.53864 8.64681 6.2823 8.59555 6.02834 8.53642C5.93453 8.51807 5.81615 8.45329 5.72499 8.44148C5.62489 8.42855 5.41862 8.37853 5.34349 8.30872C5.18947 8.16559 5.03633 8.08315 4.84647 7.99198C4.81213 7.97549 4.79657 7.95531 4.7722 7.93304C4.66903 7.8893 4.40574 7.67895 4.29917 7.68912C4.08609 7.70947 3.81389 7.65844 3.62191 7.65219C3.24861 7.64003 3.18391 8.34289 3.19909 8.60769L3.20973 8.5923C3.2354 8.58242 3.22276 8.58282 3.24893 8.59083C3.23744 8.66792 3.09345 8.78359 3.01929 8.76903C2.98136 8.90077 3.05763 10.3235 3.09174 10.5359C3.09895 10.5808 3.10382 10.5639 3.09092 10.6311C3.06617 10.4685 3.04699 10.2829 3.04014 10.1189C3.02334 9.71728 3.0003 9.31577 3.00158 8.91376C3.00486 7.88062 2.97842 6.84163 3.1656 5.82078C3.24369 5.52129 3.6955 5.1833 3.95212 5.01098Z" fill="url(#paint4_linear_279_100221)"/>
<path d="M1.44559 11.9465C1.64279 11.8808 1.82812 11.8191 2.02044 11.7299C2.30632 11.5973 2.5998 11.4236 2.89804 11.3193C2.96939 11.2943 3.17175 11.3308 3.24305 11.359C3.29549 11.3809 3.38692 11.5144 3.42745 11.563C3.50363 11.6527 3.58386 11.7391 3.66783 11.8219C3.90096 12.0494 4.17919 12.2685 4.43277 12.4778C4.48437 12.5179 4.57151 12.5814 4.61732 12.6232C4.86158 12.7949 5.09627 12.9782 5.35245 13.133C5.40919 13.1673 5.46596 13.2019 5.52223 13.2369C5.77796 13.4086 6.04584 13.5623 6.31409 13.7145C6.47298 13.8028 6.66866 13.916 6.83317 13.9898C6.88777 14.0124 7.13567 14.116 7.17495 14.1418C7.38561 14.2364 7.488 14.2804 7.71088 14.344C7.82385 14.3762 8.10276 14.4372 8.18476 14.4806C8.27768 14.5116 8.36638 14.5185 8.46047 14.4854C8.48763 14.4822 8.58906 14.4489 8.62633 14.4403C8.86674 14.3849 9.08152 14.3076 9.31244 14.2235C9.3459 14.2154 9.38937 14.1985 9.42279 14.1867C10.3323 13.7849 11.3238 13.2124 12.1081 12.606C12.1649 12.5709 12.238 12.4965 12.3031 12.4507C12.4006 12.3934 12.4925 12.3127 12.5779 12.2392C12.6335 12.1874 12.723 12.1174 12.7831 12.0718C12.9201 11.9558 13.0695 11.8011 13.1905 11.6676C13.277 11.5723 13.3675 11.4437 13.4601 11.3576C13.8035 11.2826 13.8389 11.3212 14.1488 11.4634C14.4304 11.5926 14.7134 11.7321 14.9996 11.8513C15.0877 11.888 15.2065 11.9397 15.2989 11.9598C15.3588 11.9286 15.478 11.8478 15.5389 11.8086C15.567 11.7943 15.5954 11.7806 15.6242 11.7676C15.5315 11.8324 15.4357 11.9028 15.3403 11.9655C15.3253 11.9753 15.2975 12.1231 15.2886 12.1497C15.233 12.2988 15.159 12.506 15.0589 12.63C15.0292 12.6667 15.0104 12.6764 14.992 12.7191C15.0025 12.7322 15.0091 12.7405 15.0188 12.7543C14.9505 12.8179 14.9535 12.7743 14.8891 12.8778C14.7834 13.0476 14.1509 13.7395 13.9743 13.7446L13.9381 13.7306L13.9247 13.7387C13.933 13.7521 13.9365 13.7574 13.9465 13.7696C13.892 13.8488 13.6467 13.9705 13.5483 14.0282C13.5918 14.0981 13.4706 14.2027 13.382 14.1355L13.3754 14.1331C13.2332 14.233 13.0578 14.3192 12.9092 14.413C12.7058 14.5416 12.5071 14.6804 12.2958 14.7969C12.2381 14.8288 12.1738 14.8493 12.1135 14.8749C12.0665 14.9391 12.0188 14.9612 11.9863 15.0015C11.9298 15.0313 11.9005 15.0583 11.8364 15.0395C11.8057 14.9978 11.6512 14.9593 11.5923 14.9831C11.5402 15.0478 11.6356 15.1479 11.6828 15.1941C11.6036 15.2225 11.5078 15.2863 11.4361 15.3325C11.2059 15.4806 10.9713 15.6186 10.7341 15.7557C10.6437 15.808 10.6118 15.8739 10.5044 15.8954L10.4911 15.9013C10.4667 15.9242 10.4528 15.9359 10.4258 15.9556C10.399 15.9708 10.3946 15.9808 10.3778 15.9921C10.1961 16.1139 9.8935 16.3074 9.68839 16.3773C9.13735 16.565 8.47303 16.6604 7.8906 16.5952L7.88042 16.5836C7.90721 16.5755 7.96844 16.5868 7.99894 16.5901C8.21924 16.6135 8.4394 16.5961 8.65972 16.5806C8.64431 16.5778 8.61612 16.5773 8.60727 16.5626C8.55635 16.4782 8.31992 15.8943 8.21158 15.9139C8.19306 15.9418 8.19384 15.9726 8.1901 16.0067C8.07383 16.1344 8.00184 16.2929 7.93175 16.4477C7.91218 16.491 7.89502 16.5167 7.86524 16.5534C7.76483 16.5449 7.6619 16.5151 7.56417 16.4995C7.09179 16.424 6.86684 16.3021 6.47179 16.0682C6.42894 16.0376 6.33462 15.985 6.28591 15.9558C6.15721 15.8834 6.02929 15.7925 5.90209 15.7177C5.60937 15.5456 5.3229 15.3561 5.02537 15.1928C4.99937 15.2361 4.96781 15.2343 4.92397 15.2134L4.91618 15.2037C4.87121 15.1621 4.69708 15.0789 4.71049 15.0149L4.7338 15.0078C4.64779 14.9665 4.56283 14.9006 4.47998 14.8544C4.30496 14.7571 4.14348 14.6537 3.97503 14.5457C4.03173 14.4906 4.09235 14.4015 4.0318 14.3296C3.94613 14.2909 3.85521 14.39 3.79976 14.4443C3.58141 14.3169 3.36476 14.1678 3.15077 14.0421C2.78831 13.8291 2.48224 13.6068 2.19179 13.3053C2.09521 13.205 1.96365 13.1141 1.88001 12.9964C1.71594 12.7656 1.56574 12.51 1.46194 12.2475C1.46124 12.2458 1.38686 11.9671 1.38697 11.9731C1.40652 11.9474 1.4032 11.9554 1.44559 11.9465Z" fill="#2E88E3"/>
<path d="M6.83317 13.9898C6.88777 14.0124 7.13567 14.116 7.17495 14.1418C7.08948 14.2134 6.79501 14.5849 6.66509 14.4968C6.49493 14.3814 6.80002 14.1296 6.85747 14.0292C6.85485 13.9996 6.86054 14.0133 6.83317 13.9898Z" fill="#2A7ED3"/>
<path d="M12.7831 12.0718C12.8181 12.0944 12.8458 12.0808 12.8892 12.0858C13.0387 12.1029 13.1553 12.1357 13.2147 12.2798C13.0488 12.2998 12.7181 12.3247 12.5779 12.2392C12.6335 12.1874 12.723 12.1174 12.7831 12.0718Z" fill="#34B2F0"/>
<path d="M12.1081 12.606C12.1649 12.5709 12.238 12.4965 12.3031 12.4507C12.4263 12.5677 12.5159 12.5925 12.6053 12.7406C12.4395 12.7155 12.2234 12.7253 12.1081 12.606Z" fill="#3AD5ED"/>
<path d="M6.28591 15.9558C6.31041 15.9251 6.535 15.7008 6.58915 15.6945C6.61751 15.6913 6.62135 15.6966 6.64045 15.7105C6.67837 15.7974 6.53643 16.0098 6.47179 16.0682C6.42894 16.0376 6.33462 15.985 6.28591 15.9558Z" fill="#2A7ED3"/>
<path d="M10.2995 15.8404C10.3384 15.8322 10.4094 15.8111 10.4414 15.8306C10.4543 15.8583 10.4624 15.8871 10.4911 15.9013C10.4667 15.9242 10.4528 15.9359 10.4258 15.9556C10.399 15.9708 10.3946 15.9808 10.3778 15.9921C10.1961 16.1139 9.8935 16.3074 9.68839 16.3773C9.13735 16.565 8.47303 16.6604 7.8906 16.5952L7.88042 16.5836C7.90721 16.5755 7.96844 16.5868 7.99894 16.5901C8.21924 16.6135 8.4394 16.5961 8.65972 16.5806C8.7519 16.5401 8.90579 16.5468 9.01488 16.5283C9.52681 16.4418 9.9931 16.2742 10.4035 15.9485C10.3518 15.9096 10.335 15.8908 10.2995 15.8404Z" fill="#3ABAF1"/>
<path d="M9.31244 14.2235C9.3459 14.2154 9.38937 14.1985 9.42279 14.1867C9.46558 14.1973 9.49757 14.2047 9.53311 14.2329C9.59615 14.2829 9.71167 14.3898 9.69789 14.4754C9.6761 14.5045 9.68996 14.4947 9.655 14.5057C9.55452 14.4934 9.41677 14.358 9.34716 14.2885C9.33174 14.2731 9.32493 14.2422 9.31244 14.2235Z" fill="#2A7ED3"/>
<path d="M4.77421 15.0296C4.85774 15.0087 4.96724 14.9568 5.04556 14.9964C5.09188 15.0474 5.05318 15.1388 5.02537 15.1928C4.99937 15.2361 4.96781 15.2343 4.92397 15.2134L4.91618 15.2037C4.87121 15.1621 4.69708 15.0789 4.71049 15.0149L4.7338 15.0078L4.77421 15.0296Z" fill="#3AD5ED"/>
<path d="M4.91618 15.2037C4.87121 15.1621 4.69708 15.0789 4.71049 15.0149L4.7338 15.0078L4.77421 15.0296C4.8207 15.0441 4.96574 15.1476 4.97803 15.1936L4.96931 15.2058C4.94426 15.2079 4.9414 15.207 4.91618 15.2037Z" fill="#45ECE7"/>
<path d="M4.43277 12.4778C4.48437 12.5179 4.57151 12.5814 4.61732 12.6232C4.48951 12.6927 4.31238 12.7316 4.16833 12.769C4.30989 12.6666 4.32184 12.5929 4.43277 12.4778Z" fill="#3ABAF1"/>
<path d="M13.2538 13.9676C13.3532 14.0078 13.4009 14.0295 13.5066 14.0494L13.5483 14.0282C13.5918 14.0981 13.4706 14.2027 13.382 14.1355L13.3754 14.1331C13.3326 14.084 13.2899 14.0214 13.2538 13.9676Z" fill="#34B2F0"/>
<path d="M13.5483 14.0282C13.5918 14.0981 13.4706 14.2027 13.382 14.1355C13.4302 14.0974 13.4531 14.0788 13.5066 14.0494L13.5483 14.0282Z" fill="#3AD5ED"/>
<path d="M8.18476 14.4806C8.27768 14.5116 8.36638 14.5185 8.46047 14.4854C8.40172 14.5551 8.3751 14.6685 8.35236 14.7562C8.30838 14.6555 8.27346 14.5477 8.18476 14.4806Z" fill="#3AD5ED"/>
<path d="M13.5139 12.7028C13.5275 12.7044 13.5411 12.7063 13.5547 12.7084C13.6112 12.7175 13.6856 12.7402 13.7204 12.7869C13.7225 12.8163 13.7259 12.8019 13.7017 12.8296C13.6521 12.827 13.4506 12.7904 13.4767 12.7172L13.5139 12.7028Z" fill="#2A7ED3"/>
<path d="M15.212 4.54435C15.2707 4.55469 15.286 4.55227 15.3346 4.58467C15.353 4.6339 15.3134 4.76171 15.2892 4.8133C15.3335 5.00008 15.4337 5.30898 15.3259 5.48376C15.3154 5.50081 15.2953 5.5282 15.2832 5.54439C15.2304 5.44394 15.1775 5.36366 15.111 5.27268C15.0862 5.23865 15.023 5.16063 15.0081 5.13218C15.1249 5.19277 15.2263 5.46375 15.2978 5.47857L15.3161 5.46684C15.4248 5.25826 15.2431 4.77584 15.2139 4.55911L15.212 4.54435Z" fill="#95FCDC"/>
<path d="M11.9863 15.0015L12.0064 15.0134C11.9912 15.0788 11.8184 15.1827 11.748 15.1808L11.7303 15.1689C11.7184 15.0878 11.8069 15.0813 11.8324 15.0412L11.8364 15.0395C11.9005 15.0583 11.9298 15.0313 11.9863 15.0015Z" fill="#3AD5ED"/>
<path d="M10.5044 15.8954C10.5356 15.8963 10.5482 15.8983 10.5788 15.89L10.5927 15.8966C10.5661 15.9155 10.5756 15.9001 10.5667 15.9289C10.5444 16.0003 10.4707 16.0003 10.4258 15.9556C10.4528 15.9359 10.4667 15.9242 10.4911 15.9013L10.5044 15.8954Z" fill="#3AD5ED"/>
<path d="M1.14895 4.18187C1.10318 4.29871 1.07822 4.33959 1.08227 4.46567C1.06244 4.47501 1.0475 4.47029 1.02475 4.46767L1.01429 4.46644C0.964862 4.49526 0.823186 4.6814 0.78669 4.73698C0.772254 4.75895 0.788991 4.80596 0.777299 4.82796C0.763347 4.85419 0.702112 4.90671 0.691802 4.93007C0.678619 4.95996 0.682241 5.01707 0.665756 5.0521C0.656661 5.07141 0.603732 5.12699 0.601887 5.1346C0.577628 5.23486 0.487264 5.3868 0.462072 5.47183C0.444467 5.53123 0.49628 5.66565 0.466323 5.75081C0.365043 5.59239 0.540298 5.17256 0.648655 5.04296C0.655133 4.93576 0.688419 4.90598 0.758149 4.82547L0.758152 4.74582C0.836481 4.62642 0.938844 4.52441 1.02465 4.41475C1.06146 4.36771 1.08852 4.24316 1.14895 4.18187Z" fill="#2E88E3"/>
<defs>
<linearGradient id="paint0_linear_279_100221" x1="8.5617" y1="3.60096" x2="6.71178" y2="17.5772" gradientUnits="userSpaceOnUse">
<stop stop-color="#9CFEDD"/>
<stop offset="1" stop-color="#46F8E6"/>
</linearGradient>
<linearGradient id="paint1_linear_279_100221" x1="8.34387" y1="18.3161" x2="9.70582" y2="0.404216" gradientUnits="userSpaceOnUse">
<stop stop-color="#D3FEDB"/>
<stop offset="1" stop-color="#FFFFDF"/>
</linearGradient>
<linearGradient id="paint2_linear_279_100221" x1="7.33153" y1="7.32767" x2="8.404" y2="8.26618" gradientUnits="userSpaceOnUse">
<stop stop-color="#53FBDF"/>
<stop offset="1" stop-color="#38E4F1"/>
</linearGradient>
<linearGradient id="paint3_linear_279_100221" x1="8.92984" y1="7.41991" x2="7.64468" y2="8.69481" gradientUnits="userSpaceOnUse">
<stop stop-color="#5CFCDB"/>
<stop offset="1" stop-color="#41E9EA"/>
</linearGradient>
<linearGradient id="paint4_linear_279_100221" x1="8.47556" y1="0.156085" x2="7.91325" y2="12.8631" gradientUnits="userSpaceOnUse">
<stop stop-color="#FEFFCC"/>
<stop offset="1" stop-color="#79FBDE"/>
</linearGradient>
</defs>
</svg>
