<svg width="32" height="43" viewBox="0 0 32 43" fill="none" xmlns="http://www.w3.org/2000/svg">
<path d="M16.7871 1.85001C16.6881 1.73989 16.5667 1.65181 16.4311 1.5915C16.2955 1.53119 16.1486 1.50002 16 1.50002C15.8514 1.50002 15.7045 1.53119 15.5689 1.5915C15.4333 1.65181 15.3119 1.73989 15.2129 1.85001C14.6536 2.48878 1.5 17.6956 1.5 26.2262C1.5 30.0517 3.02768 33.7204 5.74696 36.4254C8.46623 39.1304 12.1544 40.65 16 40.65C19.8456 40.65 23.5338 39.1304 26.253 36.4254C28.9723 33.7204 30.5 30.0517 30.5 26.2262C30.5 17.6956 17.3464 2.48878 16.7871 1.85001Z" fill="white" stroke="#7D5501" stroke-width="3"/>
<path d="M16.0315 22.575C18.9634 22.575 21.34 24.9517 21.3401 27.8836C21.3401 30.8155 18.9634 33.1922 16.0315 33.1922C13.0996 33.1921 10.7229 30.8155 10.7229 27.8836C10.723 24.9518 13.0997 22.5751 16.0315 22.575Z" fill="#865A00" stroke="#7D5501" stroke-width="3"/>
</svg>
