<svg width="36" height="36" viewBox="0 0 36 36" fill="none" xmlns="http://www.w3.org/2000/svg">
<g clip-path="url(#clip0_266_1250)">
<path d="M17.5901 0.364793C7.85074 0.591214 0.138339 8.67075 0.364757 18.4099C0.591177 28.1493 8.67071 35.8617 18.4101 35.6353C28.1493 35.4089 35.8617 27.3293 35.6352 17.59C35.4088 7.85078 27.3293 0.138376 17.5901 0.364793ZM25.2428 24.1643C24.0545 25.554 22.4911 26.572 20.7395 27.0967C18.988 27.6213 17.1224 27.6306 15.3657 27.123C13.6091 26.6153 12.0358 25.6126 10.8341 24.2346C9.63231 22.8565 8.85283 21.1614 8.58893 19.3522C8.31274 19.5443 7.97497 19.6269 7.64126 19.5842C7.30755 19.5413 7.0016 19.376 6.78298 19.1203C6.56428 18.8646 6.44825 18.5369 6.45769 18.2005C6.46697 17.8642 6.601 17.5433 6.83361 17.3001L8.78801 15.2528C9.03291 14.9964 9.36835 14.8459 9.72277 14.8337C10.0772 14.8214 10.4222 14.9485 10.6842 15.1875L12.8223 17.1397C13.0623 17.3572 13.2168 17.6533 13.2574 17.9746C13.2982 18.2958 13.2228 18.6212 13.0447 18.8916C12.8664 19.1622 12.5975 19.3601 12.2862 19.4495C11.975 19.5391 11.642 19.5143 11.3475 19.3796C11.6087 20.6245 12.2138 21.7712 13.0939 22.6895C13.9739 23.6079 15.0937 24.2614 16.3263 24.5756C17.5587 24.89 18.8547 24.8526 20.0671 24.4677C21.2794 24.083 22.3596 23.3659 23.1853 22.3983C23.4226 22.1354 23.7533 21.9757 24.1068 21.9533C24.4602 21.9309 24.8086 22.0475 25.0772 22.2784C25.3457 22.5093 25.5135 22.836 25.5444 23.1888C25.5753 23.5417 25.4671 23.8927 25.2428 24.1668L25.2428 24.1643ZM29.1672 18.6998L27.2129 20.7473C26.968 21.0037 26.6325 21.1542 26.2781 21.1663C25.9237 21.1785 25.5786 21.0516 25.3167 20.8125L23.1785 18.8603C22.943 18.6439 22.7915 18.3513 22.7507 18.0342C22.7099 17.7169 22.7825 17.3954 22.9556 17.1265C23.1288 16.8576 23.3913 16.6585 23.6969 16.5643C24.0025 16.4701 24.3316 16.4869 24.6261 16.6117C24.3641 15.3697 23.7597 14.2258 22.8811 13.3095C22.0027 12.3933 20.8853 11.7412 19.6554 11.4272C18.4256 11.1132 17.1323 11.1496 15.9221 11.5327C14.7118 11.9156 13.6331 12.6299 12.8077 13.5942C12.6918 13.7295 12.5504 13.8407 12.3916 13.9215C12.2327 14.0021 12.0595 14.0508 11.8818 14.0646C11.7041 14.0784 11.5255 14.0571 11.3561 14.0018C11.1866 13.9466 11.0298 13.8585 10.8944 13.7426C10.7591 13.6267 10.6479 13.4852 10.5672 13.3264C10.4864 13.1676 10.4379 12.9943 10.424 12.8166C10.4102 12.639 10.4316 12.4603 10.4868 12.2909C10.542 12.1215 10.6301 11.9646 10.746 11.8293C11.9353 10.4397 13.5 9.42225 15.2524 8.89913C17.0051 8.376 18.8714 8.36915 20.6279 8.87949C22.3841 9.38984 23.9562 10.3957 25.1555 11.7766C26.355 13.1575 27.1308 14.8548 27.3902 16.6654C27.6644 16.4689 28.002 16.3817 28.337 16.4205C28.672 16.4595 28.9806 16.6218 29.2024 16.8757C29.4243 17.1299 29.5437 17.4575 29.5372 17.7946C29.5306 18.1319 29.3988 18.4545 29.1672 18.6998Z" fill="url(#paint0_linear_266_1250)"/>
</g>
<defs>
<linearGradient id="paint0_linear_266_1250" x1="17.59" y1="0.364795" x2="18.41" y2="35.6353" gradientUnits="userSpaceOnUse">
<stop stop-color="#231489"/>
<stop offset="1" stop-color="#040307"/>
</linearGradient>
<clipPath id="clip0_266_1250">
<rect width="36" height="36" fill="white"/>
</clipPath>
</defs>
</svg>
