<svg width="85" height="83" viewBox="0 0 85 83" fill="none" xmlns="http://www.w3.org/2000/svg">
<path d="M1.2116 54.5167C0.00656621 63.3264 -0.595953 67.7313 0.826312 71.5179C2.01438 74.681 4.54705 77.7531 7.42554 79.5226C10.8714 81.6408 14.9869 81.8713 23.2178 82.3322C35.8867 83.0417 48.5867 82.997 61.2503 82.1983C69.4778 81.6795 73.5915 81.42 77.0224 79.2775C79.8884 77.4878 82.3994 74.398 83.5651 71.2266C84.9607 67.4301 84.3272 63.0296 83.0601 54.2286L78.6087 23.3083C77.3338 14.4528 76.6964 10.025 74.735 7.04358C72.8779 4.2208 70.7605 2.45066 67.6532 1.1234C64.3713 -0.278464 59.4058 -0.103504 49.4746 0.246414C44.457 0.423208 39.435 0.440888 34.4162 0.299429C24.4828 0.0194474 19.5161 -0.120544 16.2442 1.30439C13.1464 2.65351 11.0414 4.4385 9.20431 7.27429C7.26394 10.2695 6.65769 14.7016 5.44519 23.5659L1.2116 54.5167Z" fill="url(#paint0_linear_204_1281)"/>
<defs>
<linearGradient id="paint0_linear_204_1281" x1="42.1776" y1="5.90203e-08" x2="42" y2="105.555" gradientUnits="userSpaceOnUse">
<stop stop-color="#231489"/>
<stop offset="1" stop-color="#040307"/>
</linearGradient>
</defs>
</svg>
